<?xml version="1.0" encoding="utf-8"?>
<!-- Generator: Adobe Illustrator 19.0.0, SVG Export Plug-In . SVG Version: 6.00 Build 0)  -->
<svg version="1.1" id="Layer_1" xmlns="http://www.w3.org/2000/svg" xmlns:xlink="http://www.w3.org/1999/xlink" x="0px" y="0px"
	 viewBox="-7 176.8 379.7 261.2" style="enable-background:new -7 176.8 379.7 261.2;" xml:space="preserve">
<style type="text/css">
	.st0{fill:#231F20;}
	.st1{fill:#232323;}
	.st2{enable-background:new    ;}
</style>
<g id="XMLID_339_">
	<g id="XMLID_92_">
		<g id="XMLID_100_">
			<path class="st0" d="M178.4,363.3c-59.6,0-119.2-2.3-178.3-7l0.2-2c118.2,9.3,238.1,9.3,356.3,0l0.2,2
				C297.6,360.9,238,363.3,178.4,363.3z"/>
		</g>
		<g id="XMLID_93_">
			<g id="XMLID_97_">
				<g id="XMLID_98_">
					<g id="XMLID_99_">
						<path class="st1" d="M150,388.8c9.3-17.3,23.3-31.4,40.5-40.9c1.7-0.9,0.2-3.5-1.5-2.6c-17.5,9.7-32,24.2-41.5,41.9
							C146.4,388.9,149.1,390.5,150,388.8L150,388.8z"/>
					</g>
				</g>
			</g>
			<g id="XMLID_94_">
				<g id="XMLID_95_">
					<g id="XMLID_96_">
						<path class="st1" d="M145.7,350c17.7,9.7,33.9,21.8,48.2,36.2c1.4,1.4,3.5-0.8,2.1-2.1c-14.5-14.6-30.9-26.8-48.8-36.6
							C145.5,346.5,144,349.1,145.7,350L145.7,350z"/>
					</g>
				</g>
			</g>
		</g>
	</g>
</g>
<g id="XMLID_336_">
	<g id="XMLID_40_" class="st2">
		<path class="st1" d="M22.1,418.1C22.1,418.1,22.1,418.1,22.1,418.1c0.1-0.1,0.1-0.1,0.1-0.2l0-0.1c0-0.3,0.2-1.1,0.4-2.5
			c0.2-1.4,0.4-2.3,0.5-2.8c0.1-0.5,0.3-1.2,0.6-2.1c0.3-1,0.6-1.8,1-2.4c0.4-0.6,0.9-1.2,1.4-1.7c0.3-0.3,0.8-0.5,1.4-0.5
			c0.7,0,1.3,0.3,1.8,1c0.4,0.7,0.7,1.5,0.8,2.3c0.2,1.3,0.3,2.8,0.4,4.3c0.1,1.5,0.1,3.3,0.1,5.3c0,2,0,3.5,0.1,4.5
			c0,0.2,0,0.7,0.1,1.5s0.1,1.5,0.1,1.9c0,2.1-0.4,3.4-1.3,3.9c-0.4,0.2-0.8,0.3-1.1,0.3c-0.6,0-1.1-0.3-1.4-0.8
			c-0.4-0.5-0.6-1.2-0.6-1.9l-0.3-8.6c0-1.1-0.1-1.6-0.2-1.6c-0.4,0-0.8,1.5-1.3,4.5c-0.2,0.8-0.4,2.3-0.7,4.5
			c-0.3,2.6-1,3.9-2.3,3.9c-1.4,0-2.4-1.6-3-4.9c-0.2-1.1-0.4-2.6-0.6-4.3c-0.2-1.7-0.3-3.1-0.4-4.1c-0.1-1-0.2-1.5-0.3-1.5
			c-0.1,0-0.2,0.5-0.3,1.6c0,0.6-0.1,1.6-0.2,3.1c-0.1,1.4-0.1,2.4-0.2,3.1c0,0.1-0.1,0.5-0.1,0.9c0,0.5-0.1,0.8-0.1,1
			c0,0.2-0.1,0.5-0.1,0.9c-0.1,0.4-0.1,0.7-0.2,0.9c-0.1,0.2-0.1,0.5-0.2,0.8c-0.1,0.3-0.2,0.6-0.3,0.8c-0.1,0.2-0.3,0.4-0.5,0.6
			c-0.3,0.3-0.7,0.5-1.2,0.5c-0.6,0-1.2-0.2-1.6-0.7c-0.5-0.5-0.7-1.1-0.7-1.7v-1.1c0-0.9,0-1.8,0.1-2.8c0-0.4,0.1-1.1,0.1-2
			c0-0.9,0.1-1.5,0.1-2c0-0.3,0.1-0.8,0.1-1.7c0-0.9,0.1-1.5,0.1-2c0-0.4,0.1-1.1,0.1-2c0.1-0.9,0.2-1.5,0.3-2
			c0.1-0.5,0.2-1.1,0.4-1.8c0.1-0.7,0.3-1.3,0.6-1.7c0.2-0.4,0.5-0.8,0.8-1.3c0.3-0.4,0.6-0.7,1-0.9c0.4-0.2,0.8-0.3,1.3-0.3
			c1.2,0,2.1,0.4,2.6,1.1c0.5,0.7,0.9,1.8,1.3,3.2c0.1,0.2,0.3,1.3,0.7,3.1C21.4,415.5,21.8,416.9,22.1,418.1z"/>
		<path class="st1" d="M42.4,423.9c-0.2,0-0.4,0-0.5,0.1c-0.5,0.2-0.8,0.7-1,1.3c-0.2,0.7-0.3,1.4-0.4,2.2c-0.1,0.8-0.3,1.4-0.5,1.8
			c-0.6,0.9-1.2,1.4-2,1.4s-1.3-0.2-1.8-0.7s-0.6-1.1-0.6-1.9c0-0.1,0-0.4,0.1-0.7c0.4-2.8,0.8-5.2,1.2-7.2c0.2-1,0.5-2.5,0.9-4.5
			c0.1-0.5,0.4-2,1-4.4c0.5-2.1,1.3-3.7,2.3-4.6c0.5-0.4,1.1-0.7,1.6-0.7c0.2,0,0.3,0,0.5,0c0.7,0.1,1.3,0.4,1.8,1.1
			s0.9,1.5,1.2,2.6s0.5,1.9,0.6,2.5c0.1,0.6,0.2,1.3,0.3,1.9c0.1,1.1,0.6,5.5,1.3,13.3c0,0.5,0.1,0.9,0.1,1.2c0,1.5-0.8,2.3-2.3,2.3
			c-0.6,0-1.2-0.2-1.7-0.7c-0.5-0.5-0.7-1.1-0.7-2c0-0.7-0.1-1.7-0.3-3.1C43.4,424.3,43,423.9,42.4,423.9z M41.8,419.6
			c0.2,0.1,0.5,0.1,0.9,0.1c0.2,0,0.3-0.1,0.4-0.2c0-0.2,0.1-0.5,0.1-0.9c0-0.2,0-0.5,0-0.9s0-0.8,0-1.1c0-0.9-0.1-1.8-0.2-2.5
			c-0.2-0.7-0.3-1.1-0.5-1.1c-0.4,0-0.6,0.6-0.8,1.9c-0.2,1.3-0.3,2.4-0.3,3.4v0.4C41.3,419.1,41.4,419.4,41.8,419.6z"/>
		<path class="st1" d="M64,414c0,0.3,0,0.6,0,1.1c0,0.5,0,0.9,0,1.1v1.6c0,1.4,0,2.6-0.1,3.5c-0.1,0.9-0.2,1.9-0.4,3.1
			c-0.2,1.1-0.5,2.1-1,2.9c-0.5,0.8-1.1,1.5-1.8,2c-1.1,0.8-3,1.2-5.6,1.2c-0.7,0-1.1-0.1-1.3-0.4s-0.3-0.7-0.3-1.5V428v-0.6
			c-0.1-3.7-0.1-6-0.1-6.9v-4.7c0-4,0.1-6.6,0.5-8c0.2-0.9,0.5-1.4,0.8-1.4c0.9-0.1,1.6-0.2,2.2-0.2h0.1c2.1,0,3.7,0.4,4.7,1.2
			C63.2,408.8,64,410.9,64,414z M57.4,425v0.5c0,0.5,0.1,0.8,0.2,0.8c0.1,0,0.2-0.1,0.5-0.3c0.4-0.4,0.7-0.9,0.9-1.6
			c0.1-0.5,0.2-1.1,0.3-1.8c0.1-0.7,0.1-1.3,0.1-1.8c0-0.5,0-1.1,0-2c0-0.8,0-1.3,0-1.3c0-0.4,0-1.1,0-2v-1.1c0-1.5-0.2-2.5-0.5-2.9
			c-0.3-0.4-0.6-0.6-1-0.6c-0.3,0-0.4,0.2-0.4,0.7C57.5,414.3,57.4,418.8,57.4,425z"/>
		<path class="st1" d="M69.1,421.8c0-0.6,0-1.5-0.1-2.7c0-1.1-0.1-2-0.1-2.6c0-0.4,0-0.9,0-1.7s0-1.2,0-1.5c0-3.9,0.6-6.2,1.8-6.9
			c0.5-0.3,1.5-0.4,3.1-0.4c1.6,0,2.6,0.2,3,0.5c0.4,0.4,0.7,1,0.7,1.8c0,0.4-0.1,0.8-0.3,1.2c-0.5,0.9-1.1,1.4-1.9,1.4h-0.4h-0.5
			c-0.3,0-0.6,0-0.9,0.1c-0.2,0.7-0.3,1.8-0.3,3.2c0,1.2,0.1,1.9,0.5,2c0.2,0.1,0.5,0.1,1,0.2c0.5,0.1,0.9,0.1,1.2,0.2
			c0.3,0.1,0.6,0.3,0.7,0.5c0.2,0.3,0.3,0.7,0.3,1.2c0,0.6-0.1,1.2-0.4,1.7c-0.3,0.5-0.6,0.8-1.1,0.8c-0.1,0-0.3,0-0.6,0
			c-0.3,0-0.6,0-0.7,0c-0.5,0-0.8,0.4-0.8,1.1v0.4v0.2c0,0.1,0,0.2,0,0.4c0,0.2,0,0.3,0,0.4c0,1.6,0.2,2.4,0.6,2.4
			c0.1,0,0.3,0,0.6,0.1c0.3,0,0.5,0,0.6,0.1c0.1,0,0.3,0,0.5,0.1c0.2,0,0.4,0.1,0.5,0.1c0.1,0,0.3,0.1,0.4,0.2s0.3,0.2,0.4,0.2
			c0.3,0.3,0.5,0.8,0.5,1.4c0,0.5-0.1,1-0.3,1.5c-0.2,0.5-0.5,0.8-0.8,1c-0.5,0.2-1.5,0.3-3,0.3c-0.8,0-1.3,0-1.7,0
			c-0.4,0-0.8-0.1-1.3-0.4c-0.5-0.2-0.8-0.5-0.9-1c0,0-0.1-0.2-0.1-0.6c-0.1-1.1-0.2-2.5-0.2-4.2V421.8z"/>
		<path class="st1" d="M97.1,412.3v1.4c0,2.3,0,5.1-0.1,8.2c0,1.1-0.1,2.6-0.2,4.6c0,0.2,0,0.5,0,0.9c0,0.4,0,0.7,0,0.8
			c0,0.1,0,0.4-0.1,0.7c0,0.3-0.1,0.5-0.1,0.6c-0.1,0.1-0.1,0.3-0.3,0.4c-0.1,0.2-0.3,0.3-0.4,0.4c-0.2,0.1-0.4,0.1-0.6,0.2
			c-0.2,0.1-0.5,0.1-0.8,0.1c-0.8,0-1.3-0.3-1.6-0.9c-0.3-0.6-0.4-1.4-0.4-2.5c0-0.4,0-1.1,0-2.1c0-1,0-1.7,0-2.2v-6.4
			c0-0.6,0-1.6,0-3c0-1.4,0-2.4,0-3c0-1.4,0.2-2.5,0.7-3.2c0.4-0.7,1-1.1,1.6-1.1c0.8,0,1.5,0.6,1.9,1.8c0.3,0.9,0.4,1.8,0.4,2.9
			V412.3z"/>
		<path class="st1" d="M114.6,408.8c0,1-0.1,2.7-0.2,4.8c-0.1,2.2-0.2,3.8-0.2,4.8c0,0.6,0,1.5-0.1,2.6c0,1.1-0.1,1.9-0.1,2.6
			c0,2.4-0.2,4.1-0.5,4.9v0c0,0-0.1,0.1-0.1,0.2c-0.1,0.1-0.1,0.2-0.1,0.2c0,0-0.1,0.1-0.1,0.2c-0.1,0.1-0.1,0.1-0.1,0.2
			c0,0-0.1,0.1-0.1,0.2c-0.1,0.1-0.1,0.1-0.2,0.1c-0.1,0-0.1,0.1-0.2,0.1c-0.1,0-0.2,0.1-0.2,0.1c-0.3,0.1-0.5,0.1-0.8,0.1
			c-1.2,0-1.9-0.5-2.4-1.3c-0.4-0.8-0.7-1.8-0.9-3.1s-0.5-2.9-0.7-4.7c-0.2-1.8-0.3-3-0.4-3.5c-0.1-0.6-0.2-1-0.3-1
			c-0.1,0-0.2,0.3-0.2,0.8c0,0.1,0,0.4,0,0.7c0,0.3,0,0.6,0,0.7c0.1,3.5,0.2,6.2,0.2,8.1c0,1.6-0.2,2.7-0.5,3.3
			c-0.3,0.6-0.8,0.9-1.6,0.9s-1.3-0.3-1.6-0.9c-0.3-0.6-0.5-1.6-0.6-3.2c-0.1-0.9-0.1-2-0.1-3.3c0-0.1,0-0.3,0-0.6s0-0.5,0-0.7v-4.9
			c0-0.5,0-1.3-0.1-2.4c0-1.1-0.1-1.9-0.1-2.4c0-1.7,0.3-3.1,0.8-4.1c0.5-1,1.4-1.5,2.8-1.5c1.3,0,2.3,0.8,2.9,2.4
			c0.1,0.4,0.3,0.8,0.4,1.2s0.2,1,0.3,1.5c0.1,0.6,0.2,1,0.2,1.3c0.2,0.8,0.3,1.2,0.5,1.2c0.1,0,0.2-0.7,0.2-2.1
			c0-0.8,0.1-1.4,0.1-1.9c0-0.5,0.1-1.1,0.2-1.9c0.1-0.8,0.4-1.4,0.7-1.8c0.3-0.4,0.7-0.6,1.2-0.6C114,406.1,114.6,407,114.6,408.8z
			"/>
		<path class="st1" d="M135.4,405.9c1.6,0,2.7,0.6,3.2,1.7c0.5,1.2,0.7,2.5,0.7,3.9c0,1.2-0.2,2.3-0.5,3.3c-0.1,0.2-0.2,0.5-0.5,1.1
			s-0.4,0.9-0.5,1c-0.5,0.6-1.2,1.2-2.1,1.8s-1.5,0.9-1.8,0.9h-0.1h0c0,0.5,0,1.4-0.1,2.7c0,1.3-0.1,2.2-0.1,2.6c0,0.2,0,0.6,0,1.2
			s0,1.1-0.1,1.5c0,0.5-0.1,0.9-0.2,1.4c-0.1,0.5-0.2,0.9-0.4,1.1c-0.2,0.3-0.5,0.4-0.8,0.4c-0.7,0-1.2-0.1-1.6-0.2
			c-0.4-0.1-0.6-0.4-0.8-0.8c-0.2-0.4-0.3-1-0.3-1.8c0-1.4,0-3.4,0-6.2c0-2.7,0-4.8,0-6.1c0-0.2,0-0.4,0-0.8c0-0.4,0-0.6,0-0.8
			c0-0.3,0-0.8-0.1-1.5c0-0.7-0.1-1.3-0.1-1.6c0-1.3,0.2-2.4,0.5-3.3c0.2-0.4,0.6-0.8,1.3-1c0.7-0.2,1.4-0.4,1.9-0.4
			C133.7,405.9,134.5,405.9,135.4,405.9z M133.4,415v0.1c0,0.1,0,0.1,0.1,0.1c0.2,0,0.5-0.2,0.8-0.5c0.8-1.1,1.1-2.3,1.1-3.5
			c0-0.5-0.1-0.9-0.3-1.2c-0.2-0.3-0.5-0.5-0.9-0.5c-0.2,0-0.4,0-0.5,0.1c0,0.4-0.1,0.9-0.1,1.5c0,0.7,0,1.1-0.1,1.3
			C133.5,413.7,133.4,414.5,133.4,415z"/>
		<path class="st1" d="M149.8,406.3c1.3,0,2.4,0.5,3,1.5c0.9,1.3,1.4,3.8,1.4,7.3c0,2.1,0,4.3-0.1,6.5c0,2.1-0.3,3.9-0.7,5.2
			c-0.3,1.2-1,2.1-1.9,2.8c-1,0.7-2,1-3.1,1c-0.9,0-1.8-0.4-2.7-1.3c-1.4-1.4-2.1-4.4-2.1-9.1c0-2.7,0.3-5.7,1-8.8
			c0.2-1,0.6-1.9,1-2.8c0.9-1.5,2.2-2.3,3.9-2.4H149.8z M150.2,414.5c0-1.3-0.2-2-0.7-2c-0.7,0-1.1,0.9-1.3,2.8c0,0,0,0.1,0,0.1
			l0,0.2c-0.1,1.1-0.1,2.3-0.1,3.8c0,0.8,0,1.8,0.1,3.1c0,0.1,0,0.2,0,0.4c0,0.2,0,0.4,0,0.5c0,0.1,0,0.3,0.1,0.5
			c0,0.2,0.1,0.4,0.1,0.5c0,0.1,0.1,0.3,0.2,0.4c0.1,0.1,0.2,0.2,0.3,0.3s0.2,0.1,0.4,0.1c0.4,0,0.7-0.5,0.8-1.6
			c0.1-0.9,0.2-2.2,0.2-3.9c0-0.3,0-0.7,0-1.3s0-1,0-1.2V414.5z"/>
		<path class="st1" d="M159.8,411.6c0.1-2.3,1.3-4,3.5-5.3c0.5-0.3,1.2-0.5,2-0.5c1.3,0,2.6,0.8,3.8,2.3c0.6,0.9,1,2,1,3.4
			c0,0.3,0,0.7-0.1,1c0,0.3-0.1,0.6-0.1,0.8s-0.1,0.5-0.2,0.8c-0.1,0.3-0.2,0.6-0.2,0.7c0,0.1-0.2,0.4-0.3,0.7
			c-0.2,0.4-0.3,0.6-0.3,0.6c0,0.1-0.2,0.3-0.4,0.7l-0.3,0.6c0,0-0.1,0.2-0.3,0.4c-0.2,0.2-0.3,0.5-0.3,0.6c0,0,0,0.1,0.1,0.1
			c0.6,0.6,1.1,1.6,1.5,2.9c0.4,1.3,0.6,2.7,0.6,4v1.3c0,2.4-0.5,3.7-1.6,3.7c-1.8,0-2.7-0.9-2.8-2.8c0-0.1,0-0.9-0.1-2.3
			s-0.2-2.4-0.2-3c-0.2-0.9-0.4-1.4-0.6-1.5h-0.1c-0.1,0-0.1,0-0.1,0c0,0.3-0.1,1-0.1,2.3s-0.1,2.1-0.1,2.4c0,0.3,0,0.8-0.1,1.5
			s-0.1,1.3-0.2,1.7c-0.1,0.5-0.2,0.8-0.4,1.2c-0.2,0.3-0.7,0.5-1.3,0.5c-0.8,0-1.5-0.2-2-0.6c-0.3-0.3-0.5-1-0.5-1.9v-0.9V426
			c0-0.4,0-1,0-1.9c0-0.8,0-1.5,0-1.9c0-0.4,0-1.1,0.1-1.9c0-0.8,0-1.5,0-1.9C159.7,415.3,159.7,413,159.8,411.6z M164.3,416.9
			c0.3-0.4,0.6-1,0.9-1.8c0.3-0.8,0.5-1.5,0.5-2.1c0-0.9-0.2-1.7-0.5-2.4c-0.1-0.2-0.2-0.3-0.3-0.3c-0.2,0-0.3,0.1-0.5,0.3
			c-0.2,0.2-0.2,0.4-0.2,0.6c0,0.2,0,0.6,0,1c0,0.4,0,0.8-0.1,1.1c0,0.3,0,0.6,0,0.9v0.1C164,415.5,164.1,416.3,164.3,416.9
			L164.3,416.9z"/>
		<path class="st1" d="M180.4,406.6c3.3,0,4.9,0.7,4.9,2.2v0.1c0,1.5-0.4,2.5-1.3,2.9c-0.2,0.1-0.6,0.2-1.4,0.3
			c-0.1,0-0.2,0-0.2,0.1c-0.1,0-0.1,0-0.2,0.1c0,0-0.1,0.1-0.1,0.1c0,0,0,0.1-0.1,0.2c0,0.1,0,0.1,0,0.2s0,0.1,0,0.2
			c0,0.1,0,0.2,0,0.2v2.1c0,0.9,0,2.2,0,4c0,1.8,0,3.1,0,4v0.6v0.5c0,0.2,0,0.6,0,1.1v0.5c0,1.7-0.1,2.9-0.3,3.5
			c-0.3,0.9-0.9,1.3-1.8,1.3c-1.2,0-1.9-0.5-2.1-1.4c-0.1-0.4-0.1-0.8-0.1-1.3c0-0.2,0-0.5,0-0.9c0-0.4,0-0.7,0-1
			c0-2.3,0.1-5.6,0.2-10c0-0.3,0-0.7,0-1.2c0-0.5,0-0.8,0-1v-0.2c0-0.4,0-0.9-0.1-1.5c0-0.1-0.2-0.2-0.3-0.3
			c-0.3-0.1-0.6-0.2-0.9-0.2c-0.3-0.1-0.6-0.1-0.7-0.2c-0.1,0-0.3-0.1-0.5-0.3c-0.2-0.2-0.4-0.4-0.6-0.7c-0.2-0.2-0.2-0.6-0.2-1v0
			c0-0.3,0.1-0.6,0.2-0.8c0.2-0.6,0.6-1,1-1.2c0.4-0.2,1-0.5,1.8-0.6C178.4,406.7,179.3,406.6,180.4,406.6z"/>
		<path class="st1" d="M194.7,420.5c0,0.2,0,0.5,0,0.8s0,0.6,0,0.8c0,0.1,0,0.3,0,0.6c0,0.3,0,0.5,0,0.6c0,0.9,0.1,1.6,0.3,1.9
			c0.2,0.1,0.5,0.1,0.8,0.2s0.6,0.1,0.8,0.2c1.3,0.3,1.9,1.1,1.9,2.3c0,1-0.3,1.8-1,2.3c-0.6,0.4-1.7,0.6-3.3,0.6h-0.3
			c-0.5,0-0.9,0-1.4-0.1c-0.5-0.1-1-0.3-1.4-0.5c-0.6-0.4-0.9-0.8-1-1.4c-0.1-0.3-0.1-0.7-0.1-1.1c0-0.5,0-1.2,0.1-2.1
			s0.1-1.5,0.1-1.9c0-0.5,0-1.3,0-2.4v-2.8v-5.2c0-0.3,0-1.1,0.1-2.2c0-1.4,0.2-2.4,0.3-2.8c0.4-1.1,1-1.8,1.8-2.1
			c0.2,0,0.3-0.1,0.5-0.1c1.2,0,1.9,0.6,2.2,1.7c0.1,0.5,0.2,1.3,0.2,2.2c0,0.8-0.1,1.8-0.3,3.2c-0.2,1.4-0.3,2.3-0.3,2.8
			c0,0.3,0,0.8-0.1,1.4c0,0.6,0,1.1-0.1,1.5C194.7,419.3,194.7,419.8,194.7,420.5z"/>
		<path class="st1" d="M209.9,423.9c-0.2,0-0.4,0-0.5,0.1c-0.5,0.2-0.8,0.7-1,1.3c-0.2,0.7-0.3,1.4-0.4,2.2
			c-0.1,0.8-0.3,1.4-0.5,1.8c-0.6,0.9-1.2,1.4-2,1.4c-0.8,0-1.3-0.2-1.8-0.7s-0.6-1.1-0.6-1.9c0-0.1,0-0.4,0.1-0.7
			c0.4-2.8,0.8-5.2,1.2-7.2c0.2-1,0.5-2.5,0.9-4.5c0.1-0.5,0.4-2,1-4.4c0.5-2.1,1.3-3.7,2.3-4.6c0.5-0.4,1.1-0.7,1.6-0.7
			c0.2,0,0.3,0,0.5,0c0.7,0.1,1.3,0.4,1.8,1.1s0.9,1.5,1.2,2.6s0.5,1.9,0.6,2.5c0.1,0.6,0.2,1.3,0.3,1.9c0.1,1.1,0.6,5.5,1.3,13.3
			c0,0.5,0.1,0.9,0.1,1.2c0,1.5-0.8,2.3-2.3,2.3c-0.6,0-1.2-0.2-1.7-0.7c-0.5-0.5-0.7-1.1-0.7-2c0-0.7-0.1-1.7-0.3-3.1
			C210.9,424.3,210.5,423.9,209.9,423.9z M209.3,419.6c0.2,0.1,0.5,0.1,0.9,0.1c0.2,0,0.3-0.1,0.4-0.2c0-0.2,0.1-0.5,0.1-0.9
			c0-0.2,0-0.5,0-0.9s0-0.8,0-1.1c0-0.9-0.1-1.8-0.2-2.5c-0.2-0.7-0.3-1.1-0.5-1.1c-0.4,0-0.6,0.6-0.8,1.9c-0.2,1.3-0.3,2.4-0.3,3.4
			v0.4C208.8,419.1,209,419.4,209.3,419.6z"/>
		<path class="st1" d="M232.8,408.8c0,1-0.1,2.7-0.2,4.8c-0.1,2.2-0.2,3.8-0.2,4.8c0,0.6,0,1.5-0.1,2.6c0,1.1-0.1,1.9-0.1,2.6
			c0,2.4-0.2,4.1-0.5,4.9v0c0,0-0.1,0.1-0.1,0.2c-0.1,0.1-0.1,0.2-0.1,0.2c0,0-0.1,0.1-0.1,0.2s-0.1,0.1-0.1,0.2
			c0,0-0.1,0.1-0.1,0.2c-0.1,0.1-0.1,0.1-0.2,0.1c-0.1,0-0.1,0.1-0.2,0.1c-0.1,0-0.2,0.1-0.2,0.1c-0.3,0.1-0.5,0.1-0.8,0.1
			c-1.2,0-1.9-0.5-2.4-1.3c-0.4-0.8-0.7-1.8-0.9-3.1c-0.2-1.3-0.5-2.9-0.7-4.7c-0.2-1.8-0.3-3-0.4-3.5c-0.1-0.6-0.2-1-0.3-1
			c-0.1,0-0.2,0.3-0.2,0.8c0,0.1,0,0.4,0,0.7c0,0.3,0,0.6,0,0.7c0.1,3.5,0.2,6.2,0.2,8.1c0,1.6-0.2,2.7-0.5,3.3
			c-0.3,0.6-0.8,0.9-1.6,0.9c-0.8,0-1.3-0.3-1.6-0.9c-0.3-0.6-0.5-1.6-0.6-3.2c-0.1-0.9-0.1-2-0.1-3.3c0-0.1,0-0.3,0-0.6
			s0-0.5,0-0.7v-4.9c0-0.5,0-1.3-0.1-2.4c0-1.1-0.1-1.9-0.1-2.4c0-1.7,0.3-3.1,0.8-4.1c0.5-1,1.4-1.5,2.8-1.5c1.3,0,2.3,0.8,2.9,2.4
			c0.1,0.4,0.3,0.8,0.4,1.2c0.1,0.4,0.2,1,0.3,1.5c0.1,0.6,0.2,1,0.2,1.3c0.2,0.8,0.3,1.2,0.5,1.2c0.1,0,0.2-0.7,0.2-2.1
			c0-0.8,0.1-1.4,0.1-1.9c0-0.5,0.1-1.1,0.2-1.9c0.1-0.8,0.4-1.4,0.7-1.8s0.7-0.6,1.2-0.6C232.2,406.1,232.8,407,232.8,408.8z"/>
		<path class="st1" d="M248.6,414c0,0.3,0,0.6,0,1.1s0,0.9,0,1.1v1.6c0,1.4,0,2.6-0.1,3.5c-0.1,0.9-0.2,1.9-0.4,3.1
			c-0.2,1.1-0.5,2.1-1,2.9c-0.5,0.8-1.1,1.5-1.8,2c-1.1,0.8-3,1.2-5.6,1.2c-0.7,0-1.1-0.1-1.3-0.4c-0.2-0.2-0.3-0.7-0.3-1.5V428
			v-0.6c-0.1-3.7-0.1-6-0.1-6.9v-4.7c0-4,0.1-6.6,0.5-8c0.2-0.9,0.5-1.4,0.8-1.4c0.9-0.1,1.6-0.2,2.2-0.2h0.1c2.1,0,3.7,0.4,4.7,1.2
			C247.8,408.8,248.6,410.9,248.6,414z M242,425v0.5c0,0.5,0.1,0.8,0.2,0.8c0.1,0,0.2-0.1,0.5-0.3c0.4-0.4,0.7-0.9,0.9-1.6
			c0.1-0.5,0.2-1.1,0.3-1.8c0.1-0.7,0.1-1.3,0.1-1.8c0-0.5,0-1.1,0-2s0-1.3,0-1.3c0-0.4,0-1.1,0-2v-1.1c0-1.5-0.2-2.5-0.5-2.9
			c-0.3-0.4-0.6-0.6-1-0.6c-0.3,0-0.4,0.2-0.4,0.7C242.1,414.3,242,418.8,242,425z"/>
		<path class="st1" d="M253.6,428.5c0-0.7,0.3-1.3,0.8-1.9s1.1-0.9,1.9-0.9c0.6,0,1.1,0.2,1.5,0.7c0.4,0.5,0.6,1,0.6,1.7
			c0,0.4-0.1,0.7-0.2,1.1c-0.6,1.7-1.5,2.8-2.6,3.3c-0.4,0.3-0.8,0.5-1.1,0.5c-0.2,0-0.3-0.1-0.5-0.2c-0.3,0-0.5-0.2-0.5-0.4
			c0-0.1,0-0.2,0.1-0.3c0.1-0.1,0.2-0.2,0.3-0.3c0.1-0.1,0.2-0.2,0.3-0.3c0.1-0.1,0.2-0.2,0.3-0.3l0.2-0.1c0.3-0.2,0.4-0.4,0.4-0.7
			v-0.3C254.1,430,253.6,429.4,253.6,428.5z"/>
		<path class="st1" d="M277.6,422c0,0.4,0,1,0,2c0,0.9,0,1.6,0,2.1v0.7c0,1.2-0.2,2.3-0.4,3.2c-0.1,0.5-0.6,0.7-1.3,0.7
			c-1.7,0-2.5-1.2-2.5-3.7c0-5.5,0.1-10.1,0.4-13.8c0.2-2.5,0.4-4.2,0.8-5.1c0.5-1.3,1.4-2,2.6-2.3c0.1,0,0.3,0,0.5,0
			c0.6,0,1.1,0.2,1.6,0.6c0.4,0.4,0.8,0.9,1,1.6c0.2,0.7,0.4,1.4,0.5,2c0.1,0.7,0.3,1.4,0.4,2.3s0.3,1.5,0.3,1.9
			c0.3,1.4,0.6,2.1,0.7,2.1c0.1,0,0.2-0.2,0.3-0.6c0.1-0.4,0.2-0.9,0.3-1.4c0.1-0.5,0.2-0.8,0.2-0.9c0.8-3.1,1.8-5.3,2.9-6.8
			c0.4-0.6,1.1-0.9,2.1-0.9c1.2,0,2,0.3,2.3,1c0.7,1.5,1,3.8,1,6.9c0,0.5,0,1.2,0,2.1c0,1,0,1.7,0,2.1c0,0.7,0,1.7,0.1,3.1
			c0,1.4,0.1,2.4,0.1,3.2c0,0.2,0,0.4,0,0.8c0,0.4,0,0.7,0,0.9c0,0.7,0,1.3-0.1,1.9c-0.2,1.9-0.9,2.8-1.9,2.8
			c-1.4,0-2.2-0.7-2.3-2.1c0-0.1-0.1-3.6-0.3-10.4c-0.1-1.4-0.2-2.2-0.3-2.2c-0.1,0-0.2,0.3-0.3,0.9c-0.1,0.6-0.3,1.4-0.4,2.3
			s-0.3,1.5-0.4,1.8c-0.6,2.4-1.1,4.3-1.5,5.8c0,0.1-0.1,0.3-0.2,0.6s-0.2,0.6-0.2,0.7c-0.1,0.1-0.2,0.3-0.3,0.5
			c-0.1,0.2-0.3,0.4-0.5,0.4c-0.2,0.1-0.4,0.1-0.7,0.1c-1.2,0-1.9-0.7-2.4-2.2c-0.2-0.7-0.5-2.6-1-5.6c-0.4-3-0.6-4.6-0.7-4.8
			c0-0.3-0.1-0.5-0.2-0.5s-0.1,0.1-0.2,0.4c-0.1,0.7-0.2,2.3-0.2,5V422z"/>
		<path class="st1" d="M303,423.9c-0.2,0-0.4,0-0.5,0.1c-0.5,0.2-0.8,0.7-1,1.3c-0.2,0.7-0.3,1.4-0.4,2.2c-0.1,0.8-0.3,1.4-0.5,1.8
			c-0.6,0.9-1.2,1.4-2,1.4c-0.8,0-1.3-0.2-1.8-0.7s-0.6-1.1-0.6-1.9c0-0.1,0-0.4,0.1-0.7c0.4-2.8,0.8-5.2,1.2-7.2
			c0.2-1,0.5-2.5,0.9-4.5c0.1-0.5,0.4-2,1-4.4c0.5-2.1,1.3-3.7,2.3-4.6c0.5-0.4,1.1-0.7,1.6-0.7c0.2,0,0.3,0,0.5,0
			c0.7,0.1,1.3,0.4,1.8,1.1s0.9,1.5,1.2,2.6s0.5,1.9,0.6,2.5c0.1,0.6,0.2,1.3,0.3,1.9c0.1,1.1,0.6,5.5,1.3,13.3
			c0,0.5,0.1,0.9,0.1,1.2c0,1.5-0.8,2.3-2.3,2.3c-0.6,0-1.2-0.2-1.7-0.7c-0.5-0.5-0.7-1.1-0.7-2c0-0.7-0.1-1.7-0.3-3.1
			C304,424.3,303.6,423.9,303,423.9z M302.4,419.6c0.2,0.1,0.5,0.1,0.9,0.1c0.2,0,0.3-0.1,0.4-0.2c0-0.2,0.1-0.5,0.1-0.9
			c0-0.2,0-0.5,0-0.9s0-0.8,0-1.1c0-0.9-0.1-1.8-0.2-2.5c-0.2-0.7-0.3-1.1-0.5-1.1c-0.4,0-0.6,0.6-0.8,1.9c-0.2,1.3-0.3,2.4-0.3,3.4
			v0.4C301.9,419.1,302.1,419.4,302.4,419.6z"/>
		<path class="st1" d="M318.7,412.3v1.4c0,2.3,0,5.1-0.1,8.2c0,1.1-0.1,2.6-0.2,4.6c0,0.2,0,0.5,0,0.9c0,0.4,0,0.7,0,0.8
			c0,0.1,0,0.4-0.1,0.7c0,0.3-0.1,0.5-0.1,0.6c-0.1,0.1-0.1,0.3-0.3,0.4c-0.1,0.2-0.3,0.3-0.4,0.4c-0.2,0.1-0.4,0.1-0.6,0.2
			c-0.2,0.1-0.5,0.1-0.8,0.1c-0.8,0-1.3-0.3-1.6-0.9c-0.3-0.6-0.4-1.4-0.4-2.5c0-0.4,0-1.1,0-2.1s0-1.7,0-2.2v-6.4c0-0.6,0-1.6,0-3
			c0-1.4,0-2.4,0-3c0-1.4,0.2-2.5,0.7-3.2c0.4-0.7,1-1.1,1.6-1.1c0.8,0,1.5,0.6,1.9,1.8c0.3,0.9,0.4,1.8,0.4,2.9V412.3z"/>
		<path class="st1" d="M336.3,408.8c0,1-0.1,2.7-0.2,4.8c-0.1,2.2-0.2,3.8-0.2,4.8c0,0.6,0,1.5-0.1,2.6c0,1.1-0.1,1.9-0.1,2.6
			c0,2.4-0.2,4.1-0.5,4.9v0c0,0-0.1,0.1-0.1,0.2c-0.1,0.1-0.1,0.2-0.1,0.2c0,0-0.1,0.1-0.1,0.2c-0.1,0.1-0.1,0.1-0.1,0.2
			c0,0-0.1,0.1-0.1,0.2c-0.1,0.1-0.1,0.1-0.2,0.1s-0.1,0.1-0.2,0.1c-0.1,0-0.2,0.1-0.2,0.1c-0.3,0.1-0.5,0.1-0.8,0.1
			c-1.2,0-1.9-0.5-2.4-1.3c-0.4-0.8-0.7-1.8-0.9-3.1c-0.2-1.3-0.5-2.9-0.7-4.7s-0.3-3-0.4-3.5c-0.1-0.6-0.2-1-0.3-1
			c-0.1,0-0.2,0.3-0.2,0.8c0,0.1,0,0.4,0,0.7s0,0.6,0,0.7c0.1,3.5,0.2,6.2,0.2,8.1c0,1.6-0.2,2.7-0.5,3.3c-0.3,0.6-0.8,0.9-1.6,0.9
			c-0.8,0-1.3-0.3-1.6-0.9c-0.3-0.6-0.5-1.6-0.6-3.2c-0.1-0.9-0.1-2-0.1-3.3c0-0.1,0-0.3,0-0.6s0-0.5,0-0.7v-4.9
			c0-0.5,0-1.3-0.1-2.4c0-1.1-0.1-1.9-0.1-2.4c0-1.7,0.3-3.1,0.8-4.1s1.4-1.5,2.8-1.5c1.3,0,2.3,0.8,2.9,2.4
			c0.1,0.4,0.3,0.8,0.4,1.2c0.1,0.4,0.2,1,0.3,1.5c0.1,0.6,0.2,1,0.2,1.3c0.2,0.8,0.3,1.2,0.5,1.2c0.1,0,0.2-0.7,0.2-2.1
			c0-0.8,0.1-1.4,0.1-1.9c0-0.5,0.1-1.1,0.2-1.9s0.4-1.4,0.7-1.8c0.3-0.4,0.7-0.6,1.2-0.6C335.7,406.1,336.3,407,336.3,408.8z"/>
		<path class="st1" d="M341.7,421.8c0-0.6,0-1.5-0.1-2.7s-0.1-2-0.1-2.6c0-0.4,0-0.9,0-1.7s0-1.2,0-1.5c0-3.9,0.6-6.2,1.8-6.9
			c0.5-0.3,1.5-0.4,3.1-0.4c1.6,0,2.6,0.2,3,0.5c0.4,0.4,0.7,1,0.7,1.8c0,0.4-0.1,0.8-0.3,1.2c-0.5,0.9-1.1,1.4-1.9,1.4h-0.4h-0.5
			c-0.3,0-0.6,0-0.9,0.1c-0.2,0.7-0.3,1.8-0.3,3.2c0,1.2,0.1,1.9,0.5,2c0.2,0.1,0.5,0.1,1,0.2c0.5,0.1,0.9,0.1,1.2,0.2
			c0.3,0.1,0.6,0.3,0.7,0.5c0.2,0.3,0.3,0.7,0.3,1.2c0,0.6-0.1,1.2-0.4,1.7c-0.3,0.5-0.6,0.8-1.1,0.8c-0.1,0-0.3,0-0.6,0
			c-0.3,0-0.6,0-0.7,0c-0.5,0-0.8,0.4-0.8,1.1v0.4v0.2c0,0.1,0,0.2,0,0.4s0,0.3,0,0.4c0,1.6,0.2,2.4,0.6,2.4c0.1,0,0.3,0,0.6,0.1
			c0.3,0,0.5,0,0.6,0.1c0.1,0,0.3,0,0.5,0.1c0.2,0,0.4,0.1,0.5,0.1c0.1,0,0.3,0.1,0.4,0.2s0.3,0.2,0.4,0.2c0.3,0.3,0.5,0.8,0.5,1.4
			c0,0.5-0.1,1-0.3,1.5c-0.2,0.5-0.5,0.8-0.8,1c-0.5,0.2-1.5,0.3-3,0.3c-0.8,0-1.3,0-1.8,0c-0.4,0-0.8-0.1-1.3-0.4
			c-0.5-0.2-0.8-0.5-0.9-1c0,0-0.1-0.2-0.1-0.6c-0.1-1.1-0.2-2.5-0.2-4.2V421.8z"/>
	</g>
</g>
<g id="XMLID_42_">
	<g id="XMLID_118_">
		<path class="st1" d="M207.9,212.5c0.1-1.7,0.1-3.4-0.2-5c-0.6-3.4-1.4-6.8-2.1-10.2c-0.3-1.6-0.8-3.1-1.8-4.4
			c-1-1.2-1.8-2.5-2.7-3.7c-2.7-3.5-5.9-6.4-9.8-8.4c-2.9-1.4-5.9-2.3-9-2.5c-2.6-0.1-5.3,0.3-7.9,1c-3.7,0.9-7.2,2.3-10.8,3.3
			c-2.1,0.6-3.9,1.7-5.8,2.8c-2.3,1.3-4.1,3.1-6.1,4.7c-1.7,1.3-3.4,2.6-4.4,4.7c-0.3,0.6-0.8,1-1.5,1c-0.2,0.9-0.4,1.9-0.6,2.8
			c0.1,0.3,0.2,0.6,0.1,1c-0.2,0.6-0.3,1.3-0.8,1.8c-0.1,0.5-0.3,1.1-0.4,1.6c1.1,0.8,1.5,1.8,1.6,3c0.2,1.9,0.4,3.9,0.2,5.8
			c-0.5,5.1-1.2,10.2-1.9,15.4c-0.7,5.3-1.7,10.7-1.9,16.1c-0.2,6.2-0.4,12.4-0.6,18.6c0,2.4,0.2,4.8,0.4,7.2
			c0.3,3.9,0.7,7.7,0.5,11.6c-0.1,2.3,0,4.7,0.1,7c0.2,3.9,0.5,7.7,0.8,11.6c0.2,2.6,0.2,5.1,0.9,7.7c0.6,2.2,0.9,4.6,1.3,6.9
			c0.1,0.7,0.4,1.3,0.7,2.1c1.1-1.9,1.1-1.9,4.6-1.6c1.7,2.7,3.9,2.2,6.1,0.7c0.5,0.2,1,0.3,1.3,0.4c0.7-0.8,1.2-1.6,1.9-2.1
			c1.8-1.2,2.7-3,2.9-5.1c0.6-5.2,0.5-10.4-0.4-15.7c-0.2-1.3-0.4-2.7-0.5-4.1c-0.3-4.7-0.3-9.3-1.2-13.9c-0.4-2.1-0.8-4.3-1-6.4
			c-0.4-3.5-0.6-7.1-0.9-10.6c0-0.4,0.1-0.9,0.3-1.5c0.7,0.1,1.4,0.2,2,0.2c1.3,0.1,2.6,0.4,3.8,0.3c1.5-0.2,2.7,0.1,3.8,1.1
			c1.9-0.6,3.7-1.3,5.5-1.9c1-0.3,1.9-0.7,3-0.5c0.7,0.1,1.6-0.1,2.3-0.5c1.6-0.8,3-1.8,4.6-2.7c1.1-0.6,2.3-1.2,3.4-1.8
			c1.5-0.8,3.1-1.5,4.3-2.5c2.3-1.9,4.6-4,6.7-6.2c1.3-1.4,2.2-3.2,3.5-4.6c1.3-1.4,1.7-3.4,3.2-4.6c0.2-0.1,0.3-0.4,0.3-0.6
			c0.5-2.1,1.2-4.2,1.4-6.3C207.5,220.9,207.7,216.7,207.9,212.5z M182.9,218.1c-0.2,1.9-0.8,3.8-1.4,5.6c-0.7,2-1.5,3.9-2.3,5.8
			c-0.3,0.7-0.7,1.3-1.1,1.9c-3.3,3.9-6.7,7.8-10.8,11c-2.1,1.6-4.5,2.8-7.1,3.6c-0.4,0.1-0.8,0.1-1.6,0.2c-0.2-1.3-0.4-2.3-0.5-3.3
			c-0.2-3.3,0.1-6.6,0.4-9.9c0.1-1.6,0-3.2,0-4.8c0-0.9,0-1.8,0-2.7c0.1-4.9,0.2-9.8,0.3-14.7c0-1.6-0.2-3.2-0.3-4.8
			c0-0.5,0-1.2,0.3-1.6c2-2.8,3.9-5.6,7.1-7.1c0.6-0.3,1.2-0.4,1.8-0.6c0.5-0.1,1-0.1,1.4-0.3c2.4-0.9,4.7-0.6,7.1,0
			c3.5,0.9,5.7,3.1,6.4,6.5c0.5,2.2,0.7,4.5,0.7,6.7C183.5,212.5,183.3,215.3,182.9,218.1z"/>
	</g>
	<g id="XMLID_109_">
		<path class="st1" d="M37.3,245.1c-0.1,1.5-0.2,2.7-0.3,3.8s-0.3,2.2-0.5,3.3c-0.2,0.8-0.8,1.1-1.5,1.3c-2.7,1-5.6,1.4-8.4,1.9
			c-3,0.5-5.9,0.4-8.8-0.2c-1.9-0.4-3.8-0.3-5.6-1.2c-0.6-0.3-1.4-0.1-2.2-0.2c-0.5,1.9-0.2,3.7,0,5.5c0.4,3.9,1,7.7,0.9,11.7
			c0,1.3,0.3,2.7,0.5,4c0.5,2.7,1.2,5.3,1.8,7.9c0.6,2.8,1.6,5.3,3.7,7.4c0.8,0.8,1.7,1.4,2.9,1.6c2.6,0.4,5.2,0.2,7.8-0.4
			c2-0.5,4.1-0.9,6.1-1.3c1.1-0.2,2.2-0.3,3.3-0.2s2,0,3-0.3c0.8-0.2,1.9,0.1,2.8,0.3c0.9,0.3,1.7,0.7,2.7,0.8
			c1.5,0.1,2,1.1,1.9,2.6c-0.3,2.5-0.1,4.9,0.8,7.3c0.3,0.7,0.6,1.5,0.8,2.2c-1.2,2.2-2.9,3.9-4.6,5.5c-1,0.9-2.3,1.3-3.6,1.9
			c-1.4,0.7-3.1,0.9-3.8,2.6c-2.4,1.5-4.4,3.6-7.6,3.7c-2.3,0-4.6,0.6-6.9,0.8c-1.7,0.1-3.5,0.2-5.3,0.1c-1-0.1-1.9-0.6-2.9-0.9
			c-0.4-0.1-0.7-0.4-1.1-0.5c-4.3-1.6-7.3-4.8-10.3-8c-2.3-2.6-4.3-5.4-5.8-8.5c-1.1-2.3-1.8-4.8-2.4-7.3c-0.5-2.1-0.7-4.3-1.1-6.4
			c-0.9-4.7-0.6-9.4-0.5-14.1c0-2.4,0.1-4.8,0.1-7.2c0-4.9,0.6-9.7,1.1-14.6c0.1-1.3,0.3-2.7,0.3-4.1c0-4.7-0.2-9.4-0.3-14.1
			c0-0.2,0-0.5-0.1-0.7c-0.9-2-0.3-4.1-0.1-6.1c0.3-2.6,0.6-5.4,0.9-8.2c0.1-1,0.4-1.9,0.8-2.9c0.7-1.6,0.9-3.4,1.1-5.1
			c0.6-4.1,2.2-7.8,4.2-11.4c0.7-1.3,1.9-2.3,2.8-3.5c0.6-0.8,1.3-1.6,1.7-2.6c0.8-1.9,2.4-2.9,4.2-3.7c3.2-1.5,6.4-2.8,9.4-4.6
			c2.8-1.7,6-2.6,9.3-2.6c3.2,0,6.4-0.3,9.5,0.6c2.4,0.7,4.4,1.9,4.9,4.7c-1.4,2.7-4,2.6-6.4,2.3c-1.5-0.2-2.9-0.9-4.4-1.1
			c-2.7-0.4-5.5-0.7-7.8,1.1c-3.1,2.3-5.9,5.1-7.9,8.3c-1.6,2.4-2.4,5.4-3.2,8.2c-0.7,2.6-1,5.3-1.2,8c-0.3,3.3-0.9,6.6-1.5,9.9
			c-0.6,3.5-1,7-0.9,10.5c0,2.1-0.2,4.3-0.2,6.5c0,0.5,0,1,0,1.4c0.1,1,0.5,1.4,1.6,1.5c1.1,0,2.2,0,3.3-0.2
			c4.3-0.6,8.5-1.2,12.8-1.7c0.8-0.1,1.6-0.1,2.4-0.1c2.7-0.2,4.6,1.1,6.2,3.1C36.3,243.8,36.8,244.5,37.3,245.1z"/>
	</g>
	<g id="XMLID_108_">
		<path class="st1" d="M315.1,200.2c-1.9-0.1-3.7-0.3-5.6-0.3c-2.7-0.1-5.4-0.1-8.1-0.2c-2.6-0.1-5.2-0.3-7.8,0.6
			c-0.9,0.3-1.8,0.3-2.4-0.4c-1.5-1.6-3.4-2.7-5.5-3.4c0-1.6,0-3.1,0-4.6c0.7-0.2,1.6-0.5,2.6-0.7c-0.5-1.6,0.2-2.3,1.5-3
			c1.9-1,3.8-1.2,5.8-1.6c5.1-1.1,10.2-2.4,15.3-3.4c3.7-0.7,7.5-1.1,11.3-1.2c4-0.1,8.1,0.4,12.1,0.5c3.3,0.1,6.6,0.2,9.9,0
			c6.1-0.4,12.1,0.1,18.2,0.5c0.3,0,0.7,0,1,0.2c2,1.2,4.5,1.4,6.5,2.8c1.7,1.2,2.5,2.7,2.7,4.7c0,0.3,0,0.7-0.1,1
			c-1,1.5-1.4,3.5-3.6,4c-0.9,0.2-1.7,1.1-2.3,1.8c-0.6,0.7-1.3,1.1-2.1,1.2c-3.9,0.4-7.8,1.1-11.8,1.3c-6.9,0.3-13.8,0.2-20.7,0.3
			c-0.5,0-1,0.1-1.4,0.2c-0.6,1-0.1,1.8,0.4,2.5c0.8,1,0.7,1.9,0.4,3.1c-0.6,3.2-1.5,6.4-1.2,9.7c0.1,0.6,0,1.2,0.2,1.8
			c0.3,0.6,0.2,1.1-0.1,1.7c-0.3,0.5-0.3,1.2-0.2,1.7c0.3,4.6,0.2,9.3,1.1,13.9c0.5,2.4,0.9,4.9,1.3,7.4c0.4,2.9,0.8,5.7,0.7,8.7
			c-0.2,4.2,0.3,8.4,0.5,12.6c0.2,4.6,0.3,9.3-0.2,13.9c-0.5,4.6-0.5,9.3-0.5,13.9s0.2,9.3,0.3,13.9c0.1,2.8-0.3,5.6-1.3,8.3
			c-0.4,1-0.8,1.7-1.8,2c-1,0.4-2,0.8-3.2,1.2c-0.3-0.3-0.7-0.5-1-0.9c-1-1-1.9,0.1-2.8,0.2c-1.3,0.2-2.5,1.2-3.8,1.9
			c-0.8-0.7-1.7-1.4-3.2-0.8c-1.7,0.6-3-0.5-3.4-2.4c-0.6-2.7-1.1-5.4-1.3-8.1c-0.3-4.6-0.5-9.3-0.6-13.9c-0.1-5.6-0.2-11.2,0-16.8
			c0.2-5.7,0.9-11.3,1.2-17c0.2-3.7,0.2-7.4,0.3-11.1c0.1-4,0.1-7.9,0.1-11.9c0-3.5-0.3-7.1-0.2-10.6c0.2-6.9,0.7-13.7,2.3-20.5
			C314.9,203.3,315.4,201.9,315.1,200.2z"/>
	</g>
	<g id="XMLID_54_">
		<path class="st1" d="M280.9,304.2c-0.3-3.7-0.4-7.3-0.8-11c-0.4-3.5-0.7-7-1.6-10.3c-1.7-6.4-3.4-12.8-4.7-19.3
			c-0.6-3.1-1.4-6.1-1.9-9.2c-0.4-2.4-1-4.8-0.9-7.3c0.2-3.6,0.5-7.1,0.3-10.7c-0.4-5.5-0.5-11-0.8-16.5c0-0.5-0.1-1-0.2-1.6
			c-0.1-1.1-0.3-2.3-0.3-3.4c-0.1-2.8-0.4-5.6-1.7-8.1c-0.4-0.8-0.6-1.6-0.9-2.5s-0.7-1.8-1.1-2.6c-1-2-2.2-4-2.8-6.2
			c-0.4-1.5-0.9-3-1.5-4.5c-0.5-1.2-1-2.4-1.7-3.5c-1.4-1.9-2.9-3.7-4.3-5.5c-1.2,0.1-2.3,0.2-3.4,0.2c-0.8,0-1.6,0-2.3-0.2
			c-3-0.7-5.8,0.2-8.1,1.9c-2.6,1.8-4.6,4.3-6.2,7c-0.4,0.6-0.7,1.2-1.2,1.7c-3.5,4.2-6,9-7.6,14.2c-1.7,5.4-2.6,11-3.1,16.7
			c-0.3,3-0.4,5.9-0.8,8.9c-0.6,5.1-1.4,10.2-2,15.3c-0.8,6.9-1.4,13.7-2.1,20.6c-0.3,3.1-0.5,6.3-0.7,9.4
			c-0.4,5.1-0.8,10.3-1.2,15.4c-0.3,4.9,0.1,9.8,0.6,14.7c0.4,4,1.3,7.9,2.2,11.9c1-0.1,1.8-0.2,2.5-0.3c0.6-1.4,1.1-2.7,1.6-3.9
			c0.7-0.2,1.3-0.3,1.8-0.4c1.6-3.7,1.8-7.6,2.8-11.3c0.5-1.9,0.6-3.8,0.6-5.7c0-2.5,0.1-5.1,0.6-7.6c1.2-6.7,2.5-13.4,3.8-20.1
			c0.2-0.8,0.3-1.7,0.5-2.5c1.6-0.4,3.1-0.3,4.6-0.2c5.1,0.5,10.1,0.1,15-1.3c0.4-0.1,0.8-0.1,1.6-0.3c0,0.3,0.1,0.6,0.1,0.9
			c1.3,0.4,2.1,1.4,2.6,2.5c0.1,0,0.2-0.1,0.3-0.1c0.1,0.1,0.2,0.3,0.3,0.4c2.6,10.1,4.2,20.3,5.8,30.6c0.9,5.5,2.3,10.9,4,16.3
			c0.1,0.4,0.5,0.8,0.8,1.3c1-0.6,1.8-1.3,2.8-1.7c1.6-0.7,3.2-1.2,4.9-1.9c1.4-0.5,2.4-1.5,2.5-3.1c0.1-1,0.7-2,0.5-3.1
			c-0.1-0.5,0.2-1.3,0.5-1.7C280.9,306,280.9,305.2,280.9,304.2z M254.3,251.8c-2.1,0.2-3.9,0.3-5.6,0.5c-3.6,0.4-7.3,0.9-10.9,1.4
			c-0.3,0-0.7,0.1-1,0.1c-0.8,0-1.4-0.5-1.3-1.3c0.4-2.9,0.6-5.9,1.2-8.8c1-5.3,2.4-10.6,3.3-15.9c0.8-4.6,1-9.4,1.5-14.1
			c0.5-4.6,1.9-9,4.1-13.2c0.5-0.9,1.1-1.8,2.2-2.2c1.2,0.8,1.5,2.1,1.7,3.3c0.4,3.7,0.7,7.5,1.1,11.2c0.3,2.9,0.6,5.7,1.2,8.5
			c1.1,5.5,2,11,2.1,16.6c0.1,3.5,0.3,7,0.4,10.5C254.4,249.5,254.3,250.5,254.3,251.8z"/>
	</g>
	<g id="XMLID_50_">
		<path class="st1" d="M54.9,184.8c2.7-0.1,4.4-1.2,6-2.6c0.9-0.8,1.8-1.2,3-0.5c0.1,0,0.2,0.1,0.3,0.1c2.7,0.7,2.7,0.7,5.1-0.6
			c1,0.3,0.3,1.9,1.4,2.1c1.2,0.1,0.9,1.2,1.3,1.8c0.5,0.7,1.1,1.4,1.7,2.2c-1,1.4-0.7,2.9-0.4,4.5c0.8,3.6,1.7,7.1,3.1,10.4
			c2.7,6.3,5.3,12.6,7.9,18.9c0.7,1.7,1.3,3.4,1.9,5.1c0.3,0.9,0.5,1.9,1,2.7c0.8,0.1,0.8-0.4,1-0.8c2.4-7.2,4.8-14.5,7.4-21.7
			c1.2-3.3,2.7-6.5,4.2-9.8c2-4.6,5.1-8.6,7.8-12.8c1-1.6,2-3.2,3.1-4.8c0.4-0.7,0.9-1.3,1.5-2c1.3,1.4,2.4,2.7,3.5,3.9
			c0.3,0.3,0.5,0.8,0.9,1c1.3,0.6,1.5,1.5,1.2,2.9c-0.8,3.4-1.7,6.6-3,9.9c-1.4,3.3-3.5,6.4-4.1,10.1c-0.5,3.1-1.2,6.3-1.8,9.4
			c-0.8,4.2-1.5,8.4-2.8,12.5c-1.8,5.6-3.3,11.4-4.9,17c-0.5,1.8-1,3.7-1.5,5.5c-0.3,1.3-0.3,2.5,0.3,3.7c2.4,5,4.7,10.1,7.3,15
			c1.4,2.7,3.4,5.2,5,7.8c1.7,2.9,3.4,5.8,5,8.8c0.9,1.6,1.6,3.3,2.4,4.9c2.2,4.2,4,8.6,5.8,13c0.9,2.2,1.5,4.5,1.2,6.9
			c0,0.3-0.1,0.6,0,0.8c0.7,2.4-0.5,4.4-1.3,6.5c-0.2,0.4-0.5,0.7-0.8,1c-1.2,1-2.5,2-3.9,3.1c-2.1-2-4.3-0.3-6.7,0.3
			c-1.2-1.8-2.4-3.4-3.4-5c-3.1-5.1-6.2-10.1-8.7-15.5c-1.9-4.2-3.8-8.5-5.7-12.7c-1.1-2.3-2.2-4.6-3.3-6.9
			c-0.2-0.5-0.6-0.8-1.1-1.5c-0.3,0.6-0.6,1-0.7,1.4c-1,4-2.2,7.9-2.8,12c-0.4,2.5-1,5-1.3,7.5c-0.4,3.3-1.9,6.3-3.2,9.3
			c-0.6,1.3-1.5,2.5-3,3c-0.6,0.2-1.2,0.5-1.6,0.9c-1.1,1.1-2.1,1.8-3.5,0.5c-1,0.8-1.8,1.5-2.7,2.3c-1-0.3-0.8-1.9-2-1.9
			c-0.9,0-1.8,0-2.7,0c-0.6-0.7-1.3-1.3-1.9-2.1c-0.6-0.9-1-2-0.7-3.1c1.5-6.9,3.1-13.9,4.6-20.8c1.3-6.3,3.2-12.5,5.2-18.7
			c1.8-5.5,3.5-11.1,5.4-16.6c0.5-1.5,0.5-2.8-0.2-4.2c-1-1.9-1.8-3.8-2.8-5.6c-1.6-3.1-2.9-6.3-4-9.6c-0.9-2.8-2-5.5-3-8.2
			c-1.4-3.6-2.9-7.1-4.2-10.7c-2.2-6.1-4.5-12.1-5.9-18.4c-0.4-1.5-0.8-3-1.4-4.4c-0.4-1.2-1-2.2-2-3.1
			C56,187.8,55.7,186.4,54.9,184.8z"/>
	</g>
</g>
</svg>
