<?xml version="1.0" encoding="UTF-8"?>
<svg width="381px" height="144px" viewBox="0 0 381 144" version="1.1" xmlns="http://www.w3.org/2000/svg" xmlns:xlink="http://www.w3.org/1999/xlink">
    <!-- Generator: Sketch 41 (35326) - http://www.bohemiancoding.com/sketch -->
    <title>logo</title>
    <desc>Created with Sketch.</desc>
    <defs></defs>
    <g id="Page-1" stroke="none" stroke-width="1" fill="none" fill-rule="evenodd">
        <g id="logo" fill="#232323">
            <g id="XMLID_42_">
                <g id="XMLID_118_" transform="translate(149.000000, 1.000000)">
                    <path d="M66.9,34.5 C67,32.8 67,31.1 66.7,29.5 C66.1,26.1 65.3,22.7 64.6,19.3 C64.3,17.7 63.8,16.2 62.8,14.9 C61.8,13.7 61,12.4 60.1,11.2 C57.4,7.7 54.2,4.8 50.3,2.8 C47.4,1.4 44.4,0.5 41.3,0.3 C38.7,0.2 36,0.6 33.4,1.3 C29.7,2.2 26.2,3.6 22.6,4.6 C20.5,5.2 18.7,6.3 16.8,7.4 C14.5,8.7 12.7,10.5 10.7,12.1 C9,13.4 7.3,14.7 6.3,16.8 C6,17.4 5.5,17.8 4.8,17.8 C4.6,18.7 4.4,19.7 4.2,20.6 C4.3,20.9 4.4,21.2 4.3,21.6 C4.1,22.2 4,22.9 3.5,23.4 C3.4,23.9 3.2,24.5 3.1,25 C4.2,25.8 4.6,26.8 4.7,28 C4.9,29.9 5.1,31.9 4.9,33.8 C4.4,38.9 3.7,44 3,49.2 C2.3,54.5 1.3,59.9 1.1,65.3 C0.9,71.5 0.7,77.7 0.5,83.9 C0.5,86.3 0.7,88.7 0.9,91.1 C1.2,95 1.6,98.8 1.4,102.7 C1.3,105 1.4,107.4 1.5,109.7 C1.7,113.6 2,117.4 2.3,121.3 C2.5,123.9 2.5,126.4 3.2,129 C3.8,131.2 4.1,133.6 4.5,135.9 C4.6,136.6 4.9,137.2 5.2,138 C6.3,136.1 6.3,136.1 9.8,136.4 C11.5,139.1 13.7,138.6 15.9,137.1 C16.4,137.3 16.9,137.4 17.2,137.5 C17.9,136.7 18.4,135.9 19.1,135.4 C20.9,134.2 21.8,132.4 22,130.3 C22.6,125.1 22.5,119.9 21.6,114.6 C21.4,113.3 21.2,111.9 21.1,110.5 C20.8,105.8 20.8,101.2 19.9,96.6 C19.5,94.5 19.1,92.3 18.9,90.2 C18.5,86.7 18.3,83.1 18,79.6 C18,79.2 18.1,78.7 18.3,78.1 C19,78.2 19.7,78.3 20.3,78.3 C21.6,78.4 22.9,78.7 24.1,78.6 C25.6,78.4 26.8,78.7 27.9,79.7 C29.8,79.1 31.6,78.4 33.4,77.8 C34.4,77.5 35.3,77.1 36.4,77.3 C37.1,77.4 38,77.2 38.7,76.8 C40.3,76 41.7,75 43.3,74.1 C44.4,73.5 45.6,72.9 46.7,72.3 C48.2,71.5 49.8,70.8 51,69.8 C53.3,67.9 55.6,65.8 57.7,63.6 C59,62.2 59.9,60.4 61.2,59 C62.5,57.6 62.9,55.6 64.4,54.4 C64.6,54.3 64.7,54 64.7,53.8 C65.2,51.7 65.9,49.6 66.1,47.5 C66.5,42.9 66.7,38.7 66.9,34.5 Z M41.9,40.1 C41.7,42 41.1,43.9 40.5,45.7 C39.8,47.7 39,49.6 38.2,51.5 C37.9,52.2 37.5,52.8 37.1,53.4 C33.8,57.3 30.4,61.2 26.3,64.4 C24.2,66 21.8,67.2 19.2,68 C18.8,68.1 18.4,68.1 17.6,68.2 C17.4,66.9 17.2,65.9 17.1,64.9 C16.9,61.6 17.2,58.3 17.5,55 C17.6,53.4 17.5,51.8 17.5,50.2 L17.5,47.5 C17.6,42.6 17.7,37.7 17.8,32.8 C17.8,31.2 17.6,29.6 17.5,28 C17.5,27.5 17.5,26.8 17.8,26.4 C19.8,23.6 21.7,20.8 24.9,19.3 C25.5,19 26.1,18.9 26.7,18.7 C27.2,18.6 27.7,18.6 28.1,18.4 C30.5,17.5 32.8,17.8 35.2,18.4 C38.7,19.3 40.9,21.5 41.6,24.9 C42.1,27.1 42.3,29.4 42.3,31.6 C42.5,34.5 42.3,37.3 41.9,40.1 Z" id="Shape"></path>
                </g>
                <g id="XMLID_109_" transform="translate(0.000000, 3.000000)">
                    <path d="M45.3,65.1 C45.2,66.6 45.1,67.8 45,68.9 C44.9,70 44.7,71.1 44.5,72.2 C44.3,73 43.7,73.3 43,73.5 C40.3,74.5 37.4,74.9 34.6,75.4 C31.6,75.9 28.7,75.8 25.8,75.2 C23.9,74.8 22,74.9 20.2,74 C19.6,73.7 18.8,73.9 18,73.8 C17.5,75.7 17.8,77.5 18,79.3 C18.4,83.2 19,87 18.9,91 C18.9,92.3 19.2,93.7 19.4,95 C19.9,97.7 20.6,100.3 21.2,102.9 C21.8,105.7 22.8,108.2 24.9,110.3 C25.7,111.1 26.6,111.7 27.8,111.9 C30.4,112.3 33,112.1 35.6,111.5 C37.6,111 39.7,110.6 41.7,110.2 C42.8,110 43.9,109.9 45,110 C46.1,110.1 47,110 48,109.7 C48.8,109.5 49.9,109.8 50.8,110 C51.7,110.3 52.5,110.7 53.5,110.8 C55,110.9 55.5,111.9 55.4,113.4 C55.1,115.9 55.3,118.3 56.2,120.7 C56.5,121.4 56.8,122.2 57,122.9 C55.8,125.1 54.1,126.8 52.4,128.4 C51.4,129.3 50.1,129.7 48.8,130.3 C47.4,131 45.7,131.2 45,132.9 C42.6,134.4 40.6,136.5 37.4,136.6 C35.1,136.6 32.8,137.2 30.5,137.4 C28.8,137.5 27,137.6 25.2,137.5 C24.2,137.4 23.3,136.9 22.3,136.6 C21.9,136.5 21.6,136.2 21.2,136.1 C16.9,134.5 13.9,131.3 10.9,128.1 C8.6,125.5 6.6,122.7 5.1,119.6 C4,117.3 3.3,114.8 2.7,112.3 C2.2,110.2 2,108 1.6,105.9 C0.7,101.2 1,96.5 1.1,91.8 C1.1,89.4 1.2,87 1.2,84.6 C1.2,79.7 1.8,74.9 2.3,70 C2.4,68.7 2.6,67.3 2.6,65.9 C2.6,61.2 2.4,56.5 2.3,51.8 C2.3,51.6 2.3,51.3 2.2,51.1 C1.3,49.1 1.9,47 2.1,45 C2.4,42.4 2.7,39.6 3,36.8 C3.1,35.8 3.4,34.9 3.8,33.9 C4.5,32.3 4.7,30.5 4.9,28.8 C5.5,24.7 7.1,21 9.1,17.4 C9.8,16.1 11,15.1 11.9,13.9 C12.5,13.1 13.2,12.3 13.6,11.3 C14.4,9.4 16,8.4 17.8,7.6 C21,6.1 24.2,4.8 27.2,3 C30,1.3 33.2,0.4 36.5,0.4 C39.7,0.4 42.9,0.1 46,1 C48.4,1.7 50.4,2.9 50.9,5.7 C49.5,8.4 46.9,8.3 44.5,8 C43,7.8 41.6,7.1 40.1,6.9 C37.4,6.5 34.6,6.2 32.3,8 C29.2,10.3 26.4,13.1 24.4,16.3 C22.8,18.7 22,21.7 21.2,24.5 C20.5,27.1 20.2,29.8 20,32.5 C19.7,35.8 19.1,39.1 18.5,42.4 C17.9,45.9 17.5,49.4 17.6,52.9 C17.6,55 17.4,57.2 17.4,59.4 L17.4,60.8 C17.5,61.8 17.9,62.2 19,62.3 C20.1,62.3 21.2,62.3 22.3,62.1 C26.6,61.5 30.8,60.9 35.1,60.4 C35.9,60.3 36.7,60.3 37.5,60.3 C40.2,60.1 42.1,61.4 43.7,63.4 C44.3,63.8 44.8,64.5 45.3,65.1 Z" id="Shape"></path>
                </g>
                <g id="XMLID_108_" transform="translate(293.000000, 4.000000)">
                    <path d="M30.1,19.2 C28.2,19.1 26.4,18.9 24.5,18.9 C21.8,18.8 19.1,18.8 16.4,18.7 C13.8,18.6 11.2,18.4 8.6,19.3 C7.7,19.6 6.8,19.6 6.2,18.9 C4.7,17.3 2.8,16.2 0.7,15.5 L0.7,10.9 C1.4,10.7 2.3,10.4 3.3,10.2 C2.8,8.6 3.5,7.9 4.8,7.2 C6.7,6.2 8.6,6 10.6,5.6 C15.7,4.5 20.8,3.2 25.9,2.2 C29.6,1.5 33.4,1.1 37.2,1 C41.2,0.9 45.3,1.4 49.3,1.5 C52.6,1.6 55.9,1.7 59.2,1.5 C65.3,1.1 71.3,1.6 77.4,2 C77.7,2 78.1,2 78.4,2.2 C80.4,3.4 82.9,3.6 84.9,5 C86.6,6.2 87.4,7.7 87.6,9.7 C87.6,10 87.6,10.4 87.5,10.7 C86.5,12.2 86.1,14.2 83.9,14.7 C83,14.9 82.2,15.8 81.6,16.5 C81,17.2 80.3,17.6 79.5,17.7 C75.6,18.1 71.7,18.8 67.7,19 C60.8,19.3 53.9,19.2 47,19.3 C46.5,19.3 46,19.4 45.6,19.5 C45,20.5 45.5,21.3 46,22 C46.8,23 46.7,23.9 46.4,25.1 C45.8,28.3 44.9,31.5 45.2,34.8 C45.3,35.4 45.2,36 45.4,36.6 C45.7,37.2 45.6,37.7 45.3,38.3 C45,38.8 45,39.5 45.1,40 C45.4,44.6 45.3,49.3 46.2,53.9 C46.7,56.3 47.1,58.8 47.5,61.3 C47.9,64.2 48.3,67 48.2,70 C48,74.2 48.5,78.4 48.7,82.6 C48.9,87.2 49,91.9 48.5,96.5 C48,101.1 48,105.8 48,110.4 C48,115 48.2,119.7 48.3,124.3 C48.4,127.1 48,129.9 47,132.6 C46.6,133.6 46.2,134.3 45.2,134.6 C44.2,135 43.2,135.4 42,135.8 C41.7,135.5 41.3,135.3 41,134.9 C40,133.9 39.1,135 38.2,135.1 C36.9,135.3 35.7,136.3 34.4,137 C33.6,136.3 32.7,135.6 31.2,136.2 C29.5,136.8 28.2,135.7 27.8,133.8 C27.2,131.1 26.7,128.4 26.5,125.7 C26.2,121.1 26,116.4 25.9,111.8 C25.8,106.2 25.7,100.6 25.9,95 C26.1,89.3 26.8,83.7 27.1,78 C27.3,74.3 27.3,70.6 27.4,66.9 C27.5,62.9 27.5,59 27.5,55 C27.5,51.5 27.2,47.9 27.3,44.4 C27.5,37.5 28,30.7 29.6,23.9 C29.9,22.3 30.4,20.9 30.1,19.2 Z" id="Shape"></path>
                </g>
                <g id="XMLID_54_" transform="translate(225.000000, 4.000000)">
                    <path d="M63.9,123.2 C63.6,119.5 63.5,115.9 63.1,112.2 C62.7,108.7 62.4,105.2 61.5,101.9 C59.8,95.5 58.1,89.1 56.8,82.6 C56.2,79.5 55.4,76.5 54.9,73.4 C54.5,71 53.9,68.6 54,66.1 C54.2,62.5 54.5,59 54.3,55.4 C53.9,49.9 53.8,44.4 53.5,38.9 C53.5,38.4 53.4,37.9 53.3,37.3 C53.2,36.2 53,35 53,33.9 C52.9,31.1 52.6,28.3 51.3,25.8 C50.9,25 50.7,24.2 50.4,23.3 C50.1,22.4 49.7,21.5 49.3,20.7 C48.3,18.7 47.1,16.7 46.5,14.5 C46.1,13 45.6,11.5 45,10 C44.5,8.8 44,7.6 43.3,6.5 C41.9,4.6 40.4,2.8 39,1 C37.8,1.1 36.7,1.2 35.6,1.2 C34.8,1.2 34,1.2 33.3,1 C30.3,0.3 27.5,1.2 25.2,2.9 C22.6,4.7 20.6,7.2 19,9.9 C18.6,10.5 18.3,11.1 17.8,11.6 C14.3,15.8 11.8,20.6 10.2,25.8 C8.5,31.2 7.6,36.8 7.1,42.5 C6.8,45.5 6.7,48.4 6.3,51.4 C5.7,56.5 4.9,61.6 4.3,66.7 C3.5,73.6 2.9,80.4 2.2,87.3 C1.9,90.4 1.7,93.6 1.5,96.7 C1.1,101.8 0.7,107 0.3,112.1 C3.16413562e-14,117 0.4,121.9 0.9,126.8 C1.3,130.8 2.2,134.7 3.1,138.7 C4.1,138.6 4.9,138.5 5.6,138.4 C6.2,137 6.7,135.7 7.2,134.5 C7.9,134.3 8.5,134.2 9,134.1 C10.6,130.4 10.8,126.5 11.8,122.8 C12.3,120.9 12.4,119 12.4,117.1 C12.4,114.6 12.5,112 13,109.5 C14.2,102.8 15.5,96.1 16.8,89.4 C17,88.6 17.1,87.7 17.3,86.9 C18.9,86.5 20.4,86.6 21.9,86.7 C27,87.2 32,86.8 36.9,85.4 C37.3,85.3 37.7,85.3 38.5,85.1 C38.5,85.4 38.6,85.7 38.6,86 C39.9,86.4 40.7,87.4 41.2,88.5 C41.3,88.5 41.4,88.4 41.5,88.4 C41.6,88.5 41.7,88.7 41.8,88.8 C44.4,98.9 46,109.1 47.6,119.4 C48.5,124.9 49.9,130.3 51.6,135.7 C51.7,136.1 52.1,136.5 52.4,137 C53.4,136.4 54.2,135.7 55.2,135.3 C56.8,134.6 58.4,134.1 60.1,133.4 C61.5,132.9 62.5,131.9 62.6,130.3 C62.7,129.3 63.3,128.3 63.1,127.2 C63,126.7 63.3,125.9 63.6,125.5 C63.9,125 63.9,124.2 63.9,123.2 Z M37.3,70.8 C35.2,71 33.4,71.1 31.7,71.3 C28.1,71.7 24.4,72.2 20.8,72.7 C20.5,72.7 20.1,72.8 19.8,72.8 C19,72.8 18.4,72.3 18.5,71.5 C18.9,68.6 19.1,65.6 19.7,62.7 C20.7,57.4 22.1,52.1 23,46.8 C23.8,42.2 24,37.4 24.5,32.7 C25,28.1 26.4,23.7 28.6,19.5 C29.1,18.6 29.7,17.7 30.8,17.3 C32,18.1 32.3,19.4 32.5,20.6 C32.9,24.3 33.2,28.1 33.6,31.8 C33.9,34.7 34.2,37.5 34.8,40.3 C35.9,45.8 36.8,51.3 36.9,56.9 C37,60.4 37.2,63.9 37.3,67.4 C37.4,68.5 37.3,69.5 37.3,70.8 Z" id="Shape"></path>
                </g>
                <g id="XMLID_50_" transform="translate(62.000000, 0.000000)">
                    <path d="M0.9,7.8 C3.6,7.7 5.3,6.6 6.9,5.2 C7.8,4.4 8.7,4 9.9,4.7 C10,4.7 10.1,4.8 10.2,4.8 C12.9,5.5 12.9,5.5 15.3,4.2 C16.3,4.5 15.6,6.1 16.7,6.3 C17.9,6.4 17.6,7.5 18,8.1 C18.5,8.8 19.1,9.5 19.7,10.3 C18.7,11.7 19,13.2 19.3,14.8 C20.1,18.4 21,21.9 22.4,25.2 C25.1,31.5 27.7,37.8 30.3,44.1 C31,45.8 31.6,47.5 32.2,49.2 C32.5,50.1 32.7,51.1 33.2,51.9 C34,52 34,51.5 34.2,51.1 C36.6,43.9 39,36.6 41.6,29.4 C42.8,26.1 44.3,22.9 45.8,19.6 C47.8,15 50.9,11 53.6,6.8 C54.6,5.2 55.6,3.6 56.7,2 C57.1,1.3 57.6,0.7 58.2,-2.84217094e-14 C59.5,1.4 60.6,2.7 61.7,3.9 C62,4.2 62.2,4.7 62.6,4.9 C63.9,5.5 64.1,6.4 63.8,7.8 C63,11.2 62.1,14.4 60.8,17.7 C59.4,21 57.3,24.1 56.7,27.8 C56.2,30.9 55.5,34.1 54.9,37.2 C54.1,41.4 53.4,45.6 52.1,49.7 C50.3,55.3 48.8,61.1 47.2,66.7 C46.7,68.5 46.2,70.4 45.7,72.2 C45.4,73.5 45.4,74.7 46,75.9 C48.4,80.9 50.7,86 53.3,90.9 C54.7,93.6 56.7,96.1 58.3,98.7 C60,101.6 61.7,104.5 63.3,107.5 C64.2,109.1 64.9,110.8 65.7,112.4 C67.9,116.6 69.7,121 71.5,125.4 C72.4,127.6 73,129.9 72.7,132.3 C72.7,132.6 72.6,132.9 72.7,133.1 C73.4,135.5 72.2,137.5 71.4,139.6 C71.2,140 70.9,140.3 70.6,140.6 C69.4,141.6 68.1,142.6 66.7,143.7 C64.6,141.7 62.4,143.4 60,144 C58.8,142.2 57.6,140.6 56.6,139 C53.5,133.9 50.4,128.9 47.9,123.5 C46,119.3 44.1,115 42.2,110.8 C41.1,108.5 40,106.2 38.9,103.9 C38.7,103.4 38.3,103.1 37.8,102.4 C37.5,103 37.2,103.4 37.1,103.8 C36.1,107.8 34.9,111.7 34.3,115.8 C33.9,118.3 33.3,120.8 33,123.3 C32.6,126.6 31.1,129.6 29.8,132.6 C29.2,133.9 28.3,135.1 26.8,135.6 C26.2,135.8 25.6,136.1 25.2,136.5 C24.1,137.6 23.1,138.3 21.7,137 C20.7,137.8 19.9,138.5 19,139.3 C18,139 18.2,137.4 17,137.4 L14.3,137.4 C13.7,136.7 13,136.1 12.4,135.3 C11.8,134.4 11.4,133.3 11.7,132.2 C13.2,125.3 14.8,118.3 16.3,111.4 C17.6,105.1 19.5,98.9 21.5,92.7 C23.3,87.2 25,81.6 26.9,76.1 C27.4,74.6 27.4,73.3 26.7,71.9 C25.7,70 24.9,68.1 23.9,66.3 C22.3,63.2 21,60 19.9,56.7 C19,53.9 17.9,51.2 16.9,48.5 C15.5,44.9 14,41.4 12.7,37.8 C10.5,31.7 8.2,25.7 6.8,19.4 C6.4,17.9 6,16.4 5.4,15 C5,13.8 4.4,12.8 3.4,11.9 C2,10.8 1.7,9.4 0.9,7.8 Z" id="Shape"></path>
                </g>
            </g>
        </g>
    </g>
</svg>