<?xml version="1.0" standalone="no"?>
<!DOCTYPE svg PUBLIC "-//W3C//DTD SVG 1.1//EN" "http://www.w3.org/Graphics/SVG/1.1/DTD/svg11.dtd" >
<svg>
<metadata>
Created by FontForge 20120731 at Wed Aug 24 05:56:07 2016
 By ,,,
By PintassilgoPrints, 2014. All rights reserved. http://www.pintassilgoprints.com
</metadata>
<defs>
<font id="UnpackW00-Regular" horiz-adv-x="348" >
  <font-face 
    font-family="UnpackW00-Regular"
    font-weight="400"
    font-stretch="normal"
    units-per-em="1024"
    panose-1="2 0 5 3 0 0 0 0 0 0"
    ascent="819"
    descent="-205"
    x-height="682"
    cap-height="688"
    bbox="-35 -209 622 881"
    underline-thickness="51"
    underline-position="-128"
    unicode-range="U+0020-FB02"
  />
<missing-glyph horiz-adv-x="512" 
d="M51 0v546h410v-546h-410zM102 51h308v444h-308v-444z" />
    <glyph glyph-name=".notdef" horiz-adv-x="512" 
d="M51 0v546h410v-546h-410zM102 51h308v444h-308v-444z" />
    <glyph glyph-name="glyph1" horiz-adv-x="0" 
 />
    <glyph glyph-name="glyph2" horiz-adv-x="341" 
 />
    <glyph glyph-name="space" unicode=" " horiz-adv-x="162" 
 />
    <glyph glyph-name="exclam" unicode="!" horiz-adv-x="259" 
d="M191 118q0 -48 -16 -83.5t-52 -35.5q-37 0 -56.5 27t-19.5 65v1q1 41 21.5 72.5t53.5 31.5q27 0 47 -18t21 -44q0 -3 0.5 -8.5t0.5 -7.5zM158 715q39 0 60 -22t21 -61q0 -57 -24 -129q-13 -37 -38.5 -126.5t-40.5 -131.5q-3 -7 -10 -7q-11 0 -18 19q-48 120 -65 239
q-2 11 -2 50q0 64 35 119q33 50 82 50z" />
    <glyph glyph-name="quotedbl" unicode="&#x22;" horiz-adv-x="310" 
d="M288 549q0 -106 -50 -106q-2 0 -8 0.5t-9 0.5q-54 3 -54 77q0 5 4 91q3 71 44 71q14 0 38 -11q35 -17 35 -123zM22 592q0 105 50 105q2 0 8 -0.5t8 -0.5q54 -3 54 -78q0 -26 -3 -91q-3 -69 -44 -69q-18 0 -39 10q-34 16 -34 124z" />
    <glyph glyph-name="numbersign" unicode="#" horiz-adv-x="542" 
d="M302 367q-10 0 -30.5 -0.5t-29.5 -0.5q-2 -8 -6 -23t-5 -21q9 0 29 -0.5t30 -0.5q2 7 6 23t6 23zM412 319h8h13q16 0 25 -0.5t20 -3.5t16 -10.5t5 -18.5q0 -34 -17 -54q-18 -20 -36.5 -25t-64.5 -6q-20 -72 -44 -134q-25 -67 -66 -67q-46 0 -46 35q0 12 2.5 25t7.5 29.5
t7 23.5l14 65q1 4 2.5 11t2.5 10h-62q-21 -74 -43 -132q-25 -67 -66 -67q-46 0 -46 35q0 12 2.5 24.5t7.5 30t6 23.5l16 65q1 3 2.5 10.5t2.5 11.5q-62 8 -62 49q0 39 19.5 56t59.5 17h12q6 28 11 45q-78 4 -78 49q0 39 19 56t59 17h31q11 48 18 74.5t23.5 61.5t36.5 52
q16 13 33 13q15 0 26.5 -9.5t11.5 -23.5q0 -29 -14 -91q-2 -9 -5.5 -24.5t-6.5 -28.5t-6 -25h64q11 48 18 75t23.5 62t36.5 52q16 13 33 13q15 0 26 -9.5t11 -23.5q0 -29 -14 -91q-3 -14 -8.5 -41t-8.5 -39h14t15 -0.5t13 -1.5t12.5 -3t8.5 -5.5t7 -9t2 -12.5q0 -35 -16 -54
q-26 -30 -83 -31q-2 -8 -5.5 -25t-5.5 -25z" />
    <glyph glyph-name="dollar" unicode="$" horiz-adv-x="326" 
d="M214 669q0 -14 -2 -40q39 -7 65.5 -26.5t27.5 -48.5q0 -3 0.5 -8.5t0.5 -7.5q0 -18 -2 -26q-3 -17 -5 -25t-8 -22t-13 -21t-20.5 -12.5t-31.5 -5.5q-44 0 -44 30q0 2 0.5 5t0.5 4q0 3 3 21t3 27q0 23 -14 23q-16 0 -27.5 -15.5t-11.5 -30.5q0 -47 47 -94q5 -4 19 -13.5
t20 -14.5q30 -24 53.5 -70t23.5 -93q0 -35 -11 -58q-27 -56 -86 -73v-21q0 -71 -42 -71q-10 0 -19 4q-11 4 -17 10.5t-7.5 10t-3 15.5t-2.5 16q-1 3 -2.5 9.5t-2.5 11.5t-1 9q-86 16 -86 135q0 84 48 108q12 6 21 6q42 0 42 -35q0 -10 -2 -28t-2 -27q0 -34 12 -51
q4 -3 13 -3h8q12 0 12 29q0 15 -2 25q-6 46 -7 51q-9 31 -43 60q-9 8 -30 23t-32 24.5t-20.5 29t-9.5 44.5q0 51 23 97t65 66q0 48 10 66q7 13 23 23t30 10q18 0 27 -17t9 -35z" />
    <glyph glyph-name="percent" unicode="%" horiz-adv-x="399" 
d="M298 301q75 0 75 -155q0 -62 -18 -113q-7 -20 -24.5 -31.5t-36.5 -11.5q-47 0 -67.5 44.5t-20.5 109.5q0 72 19.5 114.5t72.5 42.5zM290 85q8 0 13 23t5 39q0 14 -4.5 34t-11.5 20q-8 0 -13.5 -21t-5.5 -46q0 -13 5 -31t12 -18zM103 693q52 0 68 -71q5 -28 5 -58
q0 -37 -7 -79q-18 -115 -80 -115q-46 0 -62.5 36t-16.5 98q0 189 93 189zM110 538v6q0 45 -15 45q-9 0 -14 -22.5t-5 -39.5q0 -52 10 -52q24 0 24 63zM43 -1q-27 5 -27 37q0 33 34 114q17 39 46.5 99.5t31.5 65.5q9 20 34 73.5t34 72.5q2 5 19 43.5t23.5 51.5t21 40t27 42.5
t26.5 25.5q11 10 26 10h2q21 -2 21 -25q0 -3 -1 -5v-5q-7 -25 -34 -88q-123 -291 -224 -492q-28 -60 -57 -60h-3z" />
    <glyph glyph-name="ampersand" unicode="&#x26;" horiz-adv-x="545" 
d="M223 125q5 0 11 -0.5t7 -0.5q8 0 20 14q-60 56 -100 142q-3 -4 -6 -6.5t-5 -5.5q-10 -22 -10 -41q0 -39 28.5 -70t54.5 -32zM328 278q2 7 5 37t4 36q-76 15 -76 46q0 44 17.5 63t54.5 19q91 0 155 -3q21 -1 30 -9.5t9 -31.5q0 -31 -16.5 -55.5t-42.5 -28.5
q-4 -1 -16 -1.5t-18 -0.5q-4 -16 -11 -64t-10 -61q110 -69 110 -95q0 -32 -17.5 -62.5t-43.5 -30.5q-29 0 -50 5.5t-30 11t-35 22.5q-36 -46 -67 -60.5t-76 -14.5q-36 0 -65 12t-66 50q-54 56 -54 149q0 62 29 112q17 30 66 64q-18 67 -18 115q0 70 43 140q32 52 90 52
q15 0 35 -5q42 -10 63.5 -34t21.5 -54q0 -33 -13 -44t-37 -11q-5 0 -17.5 0.5t-18.5 0.5q-28 0 -43 -14.5t-15 -59.5q0 -56 17 -94t35 -52.5t57 -39.5q9 -6 14 -9z" />
    <glyph glyph-name="quotesingle" unicode="'" horiz-adv-x="157" 
d="M22 592q0 105 50 105q2 0 8 -0.5t8 -0.5q54 -3 54 -78q0 -26 -3 -91q-3 -69 -44 -69q-18 0 -39 10q-34 16 -34 124z" />
    <glyph glyph-name="parenleft" unicode="(" horiz-adv-x="189" 
d="M54 -8q-15 37 -24.5 134.5t-9.5 162.5q0 147 35 332q8 45 24.5 84.5t41.5 39.5q20 0 35.5 -27.5t15.5 -63.5q0 -22 -9 -48q-35 -142 -35 -248q0 -28 1 -43q8 -150 42 -244q4 -9 4 -29q0 -36 -21.5 -68.5t-47.5 -32.5q-32 0 -52 51z" />
    <glyph glyph-name="parenright" unicode=")" horiz-adv-x="195" 
d="M74 745q31 0 52.5 -55.5t31 -139.5t13 -147.5t3.5 -113.5q0 -67 -9 -163.5t-24 -133.5q-20 -51 -53 -51q-26 0 -47.5 32.5t-21.5 68.5q0 17 5 29q34 94 42 244q2 30 2 43q0 102 -36 248q-9 26 -9 48q0 36 15.5 63.5t35.5 27.5z" />
    <glyph glyph-name="asterisk" unicode="*" horiz-adv-x="300" 
d="M33 579q0 46 38 46q27 0 40 -23q1 -1 5 -13t8 -16q2 -1 8.5 -6t9.5 -7v7q0 15 -3 24q-1 2 -6 9t-7 12.5t-2 13.5q0 42 30 42q34 0 34 -35q0 -12 -6 -32q0 -1 -4.5 -11t-4.5 -18q0 -4 4 -12q3 1 9.5 5t7.5 5q3 3 6 11.5t5 11.5q16 25 38 25q15 0 26 -11t11 -28
q0 -20 -14 -34q-4 -4 -10.5 -5.5t-18 -2.5t-14.5 -1q-6 -1 -17.5 -6.5t-16.5 -6.5q18 -14 31 -17q3 -1 10 -2t10 -2q26 -9 26 -36q0 -16 -10.5 -29t-24.5 -13q-4 0 -7.5 1t-6 2t-5.5 3t-5 4t-4.5 5.5t-3.5 5.5l-3 6t-3 5.5t-2.5 6t-2.5 5.5q-2 5 -7 10t-7 9q0 1 -2 3l-3 3
q0 -12 2 -34q6 -24 6 -27q0 -43 -31 -43q-17 0 -30 8t-13 22q0 21 11 37q2 3 8 10t8 12q4 9 4 23q-1 0 -8 -3t-8 -4q-6 -2 -26 -21t-38 -19q-15 0 -28 12q-6 4 -6 17q0 46 51 46q8 0 23 -1t22 -1q8 0 8 2q0 15 -24 15h-19q-48 0 -48 35z" />
    <glyph glyph-name="plus" unicode="+" horiz-adv-x="315" 
d="M219 382q74 -6 74 -50q0 -2 -0.5 -8t-0.5 -8q-3 -52 -75 -54q-2 -42 -11 -65t-34 -23q-17 0 -38 10q-29 14 -33 81q-38 2 -58.5 11t-20.5 33q0 14 11 38q15 29 66 33q4 86 51 86q2 0 8 -0.5t8 -0.5q53 -3 53 -78v-5z" />
    <glyph glyph-name="comma" unicode="," horiz-adv-x="175" 
d="M17 58q0 29 22 53.5t54 24.5q26 0 43.5 -19.5t17.5 -48.5q0 -16 -6 -31q-26 -73 -74 -94q-19 -14 -32 -14q-7 0 -15 5q-13 2 -13 10q0 3 3 7.5t8.5 9.5t9.5 8.5t9 7.5l6 4q11 9 11 19v9q-44 10 -44 49z" />
    <glyph glyph-name="hyphen" unicode="-" horiz-adv-x="290" 
d="M23 293q0 102 78 102q63 0 127 -3q19 -1 29 -18.5t10 -42.5q0 -34 -16 -53q-25 -27 -55 -31q-29 -4 -68 -4q-105 0 -105 50z" />
    <glyph glyph-name="period" unicode="." horiz-adv-x="220" 
d="M183 155q13 -21 13 -51q0 -50 -25 -71q-28 -24 -67 -24q-23 0 -45 14q-35 23 -35 55v2q0 28 4 39q11 30 38.5 49t57.5 19q39 0 59 -32z" />
    <glyph glyph-name="slash" unicode="/" horiz-adv-x="397" 
d="M62 0q-51 0 -51 32q0 3 2 11q12 40 29 83t43 102t35 80q8 21 32 77t33 76q2 4 16 38t18 44t17.5 37.5t22 40.5t22 29.5t27.5 26.5q18 13 39 13q17 0 28 -7.5t11 -19.5v-5q-3 -20 -31 -92q-12 -30 -48 -120.5t-55 -137.5t-51.5 -117.5t-62.5 -123.5q-36 -67 -76 -67z" />
    <glyph glyph-name="zero" unicode="0" horiz-adv-x="357" 
d="M329 216q-13 -109 -32 -149q-31 -68 -102 -68q-75 0 -118 51q-32 38 -43 98q-14 86 -14 167q0 212 61 301q46 68 120 68q71 0 108 -80q31 -71 31 -211v-21q-2 -82 -11 -156zM181 140q20 0 30.5 54.5t11.5 133.5v15q0 81 -9.5 141t-26.5 60q-24 0 -36.5 -60t-12.5 -144v-6
q0 -79 11.5 -136.5t31.5 -57.5z" />
    <glyph glyph-name="one" unicode="1" horiz-adv-x="294" 
d="M97 143q7 198 7 360q0 4 -0.5 7.5t-1.5 6.5t-2 5t-3.5 4t-4 3t-5 2.5t-5 2l-6 2t-6.5 2.5q-42 12 -47 37q-4 16 -4 26q0 35 19 60.5t50 28.5q22 2 32 2q62 0 83 -27.5t21 -89.5q0 -22 -3 -80.5t-3 -94.5q0 -43 -3.5 -130.5t-3.5 -122.5q33 -5 48 -21.5t15 -51.5
t-11.5 -51t-45.5 -23q-40 -8 -83 -8q-23 0 -42 3q-68 11 -68 63q0 45 15 61.5t58 23.5z" />
    <glyph glyph-name="two" unicode="2" horiz-adv-x="323" 
d="M179 143q4 0 14.5 1.5t16.5 1.5q61 0 79 -25q14 -20 14 -44q0 -63 -39 -71q-35 -7 -96 -7q-50 0 -89 7q-55 10 -55 62q0 43 12 72q16 39 59 120t65 142t22 123q0 35 -22 39q-32 0 -38 -87q-4 -47 -70 -47q-16 0 -29 14.5t-13 42.5q0 65 23 114q19 39 55.5 66t79.5 27
q55 0 91.5 -48t36.5 -115q0 -73 -17 -133q-8 -27 -21 -62.5t-24 -62t-29 -69t-26 -61.5z" />
    <glyph glyph-name="three" unicode="3" horiz-adv-x="320" 
d="M78 462q-34 0 -46 21t-12 62q0 59 40 103t96 44q65 0 103 -63.5t38 -140.5q0 -81 -48 -133q15 -16 34 -66.5t19 -92.5q0 -100 -40 -150q-40 -51 -118 -51h-8q-60 2 -88.5 47t-28.5 113q0 35 9 66t31 35q10 2 15 2q29 0 47 -21t18 -53q0 -9 -4 -22t-4 -19q0 -11 9 -19h1
q35 8 35 69q0 62 -19 85q-10 12 -25.5 17t-26 6.5t-18.5 13t-8 36.5q0 13 1.5 21t3.5 13t8 8t9.5 4t14.5 2.5t17 2.5q25 4 38 33.5t13 69.5q0 25 -10 45q-8 18 -28 18q-14 0 -19 -19q-4 -15 -8 -36.5t-6.5 -29.5t-11 -14.5t-23.5 -6.5z" />
    <glyph glyph-name="four" unicode="4" horiz-adv-x="349" 
d="M150 534q0 -11 -1.5 -58.5t-1.5 -60.5q0 -24 13 -24q15 0 25.5 10.5t11.5 23.5q2 32 2 95q0 165 57 165q41 0 56.5 -36t15.5 -104q0 -58 -1 -211t-1 -212q0 -64 -14 -93t-54 -29q-24 0 -37 12t-16.5 26.5t-5.5 44.5q-3 25 -4 83t-5 88q-1 1 -1 3v3.5t-1 1.5q-11 0 -35 -5
t-40 -5q-54 0 -71 29t-17 89v24q0 7 1 26t1 27q0 10 -1 46.5t-1 47.5q0 73 18.5 108t47.5 37h3q56 0 56 -132v-20z" />
    <glyph glyph-name="five" unicode="5" horiz-adv-x="352" 
d="M160 421q4 -1 26 -1.5t39 -3.5q62 -13 82 -48q25 -47 25 -111v-32q0 -63 -6 -95q-16 -70 -52.5 -104t-104.5 -34q-111 0 -139 93q-7 22 -7 75q0 70 62 70q20 0 34.5 -10.5t15.5 -30.5q1 -18 4 -29t12 -20t25 -9q17 0 29 31.5t12 77.5q0 41 -21.5 54.5t-58.5 13.5
q-8 0 -23 -1t-21 -1q-3 0 -7.5 0.5t-6.5 0.5q-17 2 -29.5 14t-12.5 35q0 7 -1 24.5t-1 25.5q0 19 -0.5 62.5t-0.5 61.5q0 72 7 102q8 35 25.5 47t48.5 12q12 0 50 -2.5t58 -2.5q71 -1 92 -15t21 -51q0 -62 -79 -62q-10 0 -35 1t-34 1q-32 0 -32 -8q-1 -12 -1 -29
q0 -5 -1.5 -28t-1.5 -36q0 -34 8 -38z" />
    <glyph glyph-name="six" unicode="6" horiz-adv-x="352" 
d="M214 174q0 93 -46 93q-6 0 -20 -2q-1 -10 -1 -28q0 -81 29 -104q5 -4 11 -4q10 0 18.5 14t8.5 31zM261 509q-9 1 -28.5 20t-28.5 19q-28 0 -49 -72q-13 -49 -13 -80q0 -23 8 -23h2q27 12 58 12q47 0 76 -24q46 -39 46 -143t-36 -162t-122 -58q-31 0 -64 19.5t-49 51.5
q-19 39 -30 120.5t-11 139.5q0 73 10 118.5t36 112.5q20 53 59.5 87.5t91.5 34.5q37 0 67 -27.5t37 -55.5q5 -18 5 -38q0 -54 -47 -54q-6 0 -18 2z" />
    <glyph glyph-name="seven" unicode="7" horiz-adv-x="303" 
d="M151 457q2 6 4 13.5t3.5 12t1.5 7.5q0 14 -35 21q-4 1 -19 4.5t-19.5 4.5t-16 5t-15.5 7t-11.5 9t-10 12t-5 15.5t-2.5 20.5q0 66 34 82q36 17 102 17q73 0 116 -25q23 -15 23 -61q0 -22 -6 -51.5t-12 -49.5t-16 -49.5t-11 -34.5q-2 -6 -28 -83t-44 -145
q-3 -12 -10.5 -46t-12.5 -51t-14.5 -40t-23 -33.5t-30.5 -10.5q-31 0 -52.5 17.5t-21.5 52.5q0 26 7.5 53t15.5 44t22.5 44.5t20.5 40.5q34 72 66 197z" />
    <glyph glyph-name="eight" unicode="8" 
d="M168 119q14 0 29.5 12t15.5 29q0 65 -49 110q-9 0 -21.5 -41t-12.5 -62t12 -34.5t26 -13.5zM191 574q-38 0 -38 -64q0 -32 37 -87q13 9 23 35t10 49q0 33 -6 50t-26 17zM171 682q72 0 112 -38t40 -106q0 -104 -64 -166q66 -92 66 -203q0 -31 -4 -55q-7 -45 -39.5 -84
t-81.5 -39h-2q-89 1 -136 46.5t-47 124.5q0 100 54 174q5 6 17 21q-39 63 -39 136q0 82 35 141q29 48 89 48z" />
    <glyph glyph-name="nine" unicode="9" horiz-adv-x="353" 
d="M138 500q0 -45 13 -75t40 -30q15 0 15 22q0 102 -28 124q-5 4 -11 4q-11 0 -20 -14t-9 -31zM121 -2q-38 0 -62.5 17.5t-24.5 44.5q0 14 4 24.5t8 16t16 10.5t15.5 6t21 4.5t19.5 3.5q65 13 81 128q2 12 2 26q0 8 -3 8q-2 0 -9.5 -3t-13.5 -5q-16 -4 -30 -4q-8 0 -42 6
q-40 8 -62 55t-22 116q0 99 38.5 161.5t121.5 62.5q36 0 64 -21t44.5 -53t27 -76.5t14 -86t3.5 -86.5q0 -67 -12 -128t-36 -113t-66 -83t-97 -31z" />
    <glyph glyph-name="colon" unicode=":" horiz-adv-x="211" 
d="M105 352q-31 0 -51 15.5t-20 43.5q0 65 47 102q13 10 30 10q34 0 56.5 -22.5t22.5 -56.5q0 -32 -13 -50q-27 -42 -72 -42zM100 246q33 0 58 -28t25 -66q0 -32 -18 -53q-23 -26 -76 -26q-29 0 -49 15.5t-20 43.5q0 70 52 104q16 10 28 10z" />
    <glyph glyph-name="semicolon" unicode=";" horiz-adv-x="191" 
d="M92 236q-28 0 -46 14t-18 39q0 61 43 92q9 8 26 8q31 0 51.5 -19.5t20.5 -50.5q0 -30 -11 -46q-25 -37 -66 -37zM25 58q0 29 22 53.5t53 24.5q26 0 43.5 -19.5t17.5 -48.5q0 -18 -5 -31q-25 -73 -75 -94q-19 -14 -32 -14q-7 0 -15 5q-12 2 -12 10q0 9 35 37q12 10 12 19
v9q-44 10 -44 49z" />
    <glyph glyph-name="less" unicode="&#x3c;" horiz-adv-x="447" 
d="M426 178q0 -29 -21.5 -44t-54.5 -15q-13 0 -18 1q-52 9 -123 41q-9 5 -39 17t-51.5 22.5t-46.5 26.5t-38.5 36t-13.5 44t28 50t56 41.5t74 36.5t52 24q58 29 107 29q14 0 21 -4q13 -6 26.5 -23t13.5 -34q0 -15 -11 -26q-40 -40 -193 -85q-11 -3 -12 -7q2 -3 20 -10
q16 -6 54 -15t58 -17q4 -2 21.5 -8t24.5 -9t20 -9.5t21.5 -14.5t15.5 -18q9 -15 9 -30z" />
    <glyph glyph-name="equal" unicode="=" horiz-adv-x="344" 
d="M205 198q-96 0 -125 4q-26 4 -42 24t-16 44q0 45 48 48q57 4 168 4q74 0 74 -58v-9q0 -17 -3 -23q-14 -34 -104 -34zM134 366q-22 0 -38 2t-33.5 7t-27 17t-9.5 31q0 1 0.5 4t0.5 5q0 57 74 57q99 0 163 -3q20 -1 30 -2.5t19 -10.5t9 -26q0 -30 -15 -47q-22 -26 -54 -30
q-29 -4 -119 -4z" />
    <glyph glyph-name="greater" unicode="&#x3e;" horiz-adv-x="447" 
d="M96 119q-33 0 -54.5 14.5t-21.5 43.5q0 13 10 30q6 8 14 15.5t14.5 12t18.5 10.5t17 8t19.5 7.5t18.5 6.5q20 8 58.5 17t54.5 15q16 7 19 10q-1 5 -11 7q-173 51 -218 96q-11 11 -11 24q0 17 13 35t26 24q7 4 22 4q44 0 106 -31q7 -4 56 -26t82.5 -39t65 -44.5
t31.5 -51.5t-13.5 -44t-38 -36t-46 -26.5t-51.5 -23t-39 -16.5q-71 -32 -123 -41q-5 -1 -19 -1z" />
    <glyph glyph-name="question" unicode="?" horiz-adv-x="379" 
d="M65 6q0 109 80 109q59 0 59 -79q0 -9 -1 -14q-3 -43 -25.5 -65.5t-42.5 -22.5q-70 0 -70 72zM169 687q85 0 133 -48.5t48 -143.5q0 -27 -4.5 -48t-20.5 -46t-26 -38t-40.5 -47.5t-45.5 -52.5q-17 -21 -32 -49.5t-23.5 -43.5t-18.5 -15q-16 0 -29 37.5t-13 72.5v5
q3 39 19 71t34.5 49.5t34 40t17.5 44.5v4q0 35 -59 35h-13q-39 0 -64.5 26t-25.5 60q0 38 33.5 62.5t95.5 24.5z" />
    <glyph glyph-name="at" unicode="@" horiz-adv-x="611" 
d="M257 326q0 -47 41 -47q9 0 14 25q9 43 9 72q0 34 -11 34q-22 0 -37.5 -26.5t-15.5 -57.5zM434 118q-44 0 -78 25.5t-40 62.5q-26 -18 -54 -18h-14q-76 0 -76 88q0 47 22 121q18 60 44 90t69 30q10 0 20 -3.5t18.5 -8.5t10.5 -6q17 16 33 16q28 0 28 -34q0 -11 -1 -17
q-3 -20 -9.5 -61.5t-9.5 -70.5t-3 -67q0 -25 1 -35q2 -17 31 -17q20 0 32.5 10.5t18 30.5t7 37t1.5 43q0 41 -13 93q-18 67 -58.5 104.5t-94.5 37.5q-187 0 -187 -240q0 -44 4 -81q7 -73 51.5 -119t122.5 -46h20q26 0 46 5q8 2 12 2q24 0 38 -20t14 -45q0 -31 -18 -35
q-49 -13 -108 -13h-5q-248 0 -283 237q-8 82 -8 116q0 113 34.5 189t112.5 121q72 42 156 42q94 0 158.5 -54.5t88.5 -144.5q22 -82 22 -166q0 -105 -35 -148q-18 -22 -51 -36.5t-70 -14.5z" />
    <glyph glyph-name="A" unicode="A" 
d="M47 -9q-44 0 -44 55l7 70q6 56 15 107t23 119t19 95q5 25 16 68.5t15 62.5q5 26 10.5 44t16.5 41t29.5 35t43.5 12q47 0 67 -50q16 -41 27.5 -104.5t15.5 -104.5t9.5 -127.5t6.5 -101.5q5 -58 5 -96q0 -120 -49 -120q-23 0 -37.5 16t-19 33t-9.5 45q0 2 -0.5 3.5
t-0.5 3.5q-1 8 -4.5 37.5t-6.5 42.5h-5q-4 0 -22 1t-27 1q-22 0 -22 -5q-5 -50 -18 -97q-12 -43 -24 -64q-12 -22 -37 -22zM186 471q-12 0 -20 -40q-10 -69 -12 -97q0 -12 2 -13t9 -2q33 -7 38 -7q4 0 4 3q0 35 -3 65q-9 91 -18 91z" />
    <glyph glyph-name="B" unicode="B" horiz-adv-x="330" 
d="M27 403q0 7 -0.5 24t-0.5 24q0 17 2 49q4 104 19 148q6 18 23 26q17 10 55 15q36 4 69 4q65 0 99 -42q20 -27 20 -90v-22q-3 -53 -19 -100q-8 -25 -54 -105q70 -47 70 -129q0 -148 -135 -192q-27 -8 -79 -8q-60 0 -67 35q-9 42 -9 105v40v24q0 22 3.5 65t3.5 65v11v53z
M150 270q-7 0 -7 -110q0 -4 -0.5 -13t-0.5 -14q0 -26 4 -42q2 2 4.5 4t3.5 3q35 38 36 84v2q0 41 -30 78q-6 8 -10 8zM198 478q0 66 -28 78q-6 3 -10 3q-2 0 -4 -12q-5 -55 -5 -132q0 -3 0.5 -8t0.5 -7q28 15 36 35q10 26 10 43z" />
    <glyph glyph-name="C" unicode="C" horiz-adv-x="360" 
d="M141 262v-28q0 -59 18 -68q15 0 25 14.5t14 32t14.5 32t27.5 14.5q89 0 89 -77q0 -13 -12 -61l-1 -1q-9 -28 -20 -43q-3 -4 -12.5 -17t-13.5 -18t-13 -15.5t-16.5 -15t-18.5 -10t-23.5 -8t-27.5 -2.5q-30 0 -50 10q-102 48 -102 294q0 80 7 140t25.5 118.5t58 92
t97.5 38.5h9q30 0 61 -22t47 -48q22 -38 22 -136q0 -95 -63 -95q-15 0 -26.5 3.5t-18.5 13t-11.5 17t-6 24t-2.5 25.5t-1 30v29q-2 40 -13 40q-31 0 -47 -98t-16 -205z" />
    <glyph glyph-name="D" unicode="D" horiz-adv-x="327" 
d="M164 697q34 0 59.5 -11.5t41 -36.5t25 -49t13 -65t4.5 -68t1 -73q0 -234 -84 -335q-18 -23 -58 -46.5t-76 -23.5q-22 0 -41.5 10t-22.5 27q-1 8 -4 69q-2 82 -2 128q0 118 8 316q2 53 6 79q3 20 24.5 40.5t42.5 27.5q30 11 63 11zM187 444q0 4 0.5 15.5t0.5 18.5
q0 58 -19 67q-10 4 -21 4q-9 0 -12 -2q0 -14 -2 -54.5t-2 -54.5q-9 -180 -9 -245q0 -61 5 -64q2 -1 5 -1q18 0 29.5 41t15.5 79q2 22 4 60t3 53q1 16 1.5 45t0.5 38z" />
    <glyph glyph-name="E" unicode="E" horiz-adv-x="293" 
d="M181 546q-13 0 -13 -56q0 -13 0.5 -32t0.5 -22q0 -9 0.5 -14t1 -8.5t4.5 -5t6 -2t11 -1.5t14 -2q32 -5 48 -18.5t16 -43.5q0 -19 -5.5 -32t-20 -21.5t-23.5 -12t-31 -9.5q-7 -2 -15.5 -2.5t-11.5 -1.5t-6 -6.5t-3 -17.5v-32q0 -35 2 -51q2 -8 4 -9q11 -3 31 -7t32 -7
t25 -9.5t19 -19t6 -31.5q0 -74 -127 -74q-65 0 -86 17q-24 21 -32 54.5t-8 86.5q0 12 1 34t1 34v15q0 234 13 356q5 43 41 59q44 19 74 19h1q5 0 17.5 0.5t18.5 0.5q93 0 93 -62q0 -56 -47 -64q-14 -2 -32 -2h-20z" />
    <glyph glyph-name="F" unicode="F" horiz-adv-x="297" 
d="M193 543h-6h-9t-6 -1t-4 -1.5t-2 -3.5t-1 -5t-1 -8t-2 -10q-5 -35 -5 -46q0 -33 21 -40q8 -3 31 -4t31 -6q31 -20 33 -50q0 -3 0.5 -9.5t0.5 -9.5q0 -56 -32 -66q-12 -4 -64 -9q-14 -1 -17.5 -5t-4.5 -17q-3 -27 -3 -56q0 -14 1.5 -49t1.5 -52q0 -30 -4 -50
q-5 -24 -22.5 -38.5t-39.5 -14.5q-34 0 -54 35q-5 9 -8 21t-4.5 30.5t-2 29t-1 33t-0.5 26.5q-1 50 -1 139q0 128 8 237q2 40 14.5 77.5t36.5 52.5q34 21 106 21q6 0 20 0.5t19 0.5q36 0 49 -16t13 -48q0 -40 -25 -64t-67 -24z" />
    <glyph glyph-name="G" unicode="G" horiz-adv-x="359" 
d="M143 410q-6 -57 -6 -87v-62q0 -105 43 -105q16 0 34 17.5t18 37.5q0 3 -7 3h-11q-44 0 -44 48q0 19 12.5 39t26.5 24q11 3 21 3q11 0 39 -4q56 -6 65 -41q7 -27 7 -61q0 -60 -26 -119t-70 -87q-30 -19 -67 -19q-25 0 -55 11q-49 18 -76 90q-28 76 -28 186q0 100 32 236
q27 108 76 149q29 24 93 24q39 0 72 -18.5t40 -49.5q5 -21 5 -58q0 -85 -33 -125q-16 -19 -39 -19q-12 0 -25 7q-18 10 -18 43v21v2v20q-4 40 -20 42h-2l-2 1q-36 0 -55 -149z" />
    <glyph glyph-name="H" unicode="H" horiz-adv-x="362" 
d="M164 527v-12q0 -9 -1 -38t-1 -43q0 -32 13 -32q32 0 36 23q3 48 3 95q0 179 54 179q78 0 78 -133q0 -20 -5 -108q-4 -60 -4 -88q0 -43 1 -63q0 -10 0.5 -30t0.5 -30q1 -14 1 -50q0 -178 -69 -178q-36 0 -46 12.5t-13 51.5q-2 18 -2 29q-1 18 -1 60t-2 64q0 2 -0.5 6
t-0.5 6t-0.5 5t-2 5t-4 3t-5.5 1q-37 0 -40 -7q-6 -19 -8 -64t-3 -51q-11 -96 -43 -125q-14 -14 -31 -14q-27 0 -40 24.5t-13 60.5q0 20 3 54t3 49q0 13 1 37.5t1.5 44.5t0.5 38v50v83q0 14 -0.5 39t-0.5 39q0 51 9 87q7 28 12 42t20.5 29t39.5 15q32 0 48.5 -24.5
t16.5 -61.5q0 -15 -3 -41.5t-3 -38.5z" />
    <glyph glyph-name="I" unicode="I" horiz-adv-x="177" 
d="M94 8q-70 0 -74 90v15q0 14 1.5 41.5t1.5 40.5v2v22v22v25v25q0 119 2 170q2 80 10 152q7 53 28 69q7 6 22 6q37 0 50.5 -28.5t15.5 -77.5q1 -29 1 -90v-90q0 -63 1 -93q2 -32 2 -101v-23v-12v-19v-18q-2 -128 -61 -128z" />
    <glyph glyph-name="J" unicode="J" 
d="M165 125q25 0 25 44v118q0 143 -7 245q-3 60 -3 64q0 40 7 57q17 47 55 47q62 0 77 -130q9 -88 9 -169q0 -151 -17 -261q-24 -156 -139 -156q-45 0 -84 20.5t-55 58.5q-23 60 -23 110q0 36 25 58.5t54 22.5q19 0 31.5 -10.5t12.5 -31.5v-6q0 -26 1.5 -40.5t8.5 -27.5
t22 -13z" />
    <glyph glyph-name="K" unicode="K" horiz-adv-x="397" 
d="M180 274q-9 -1 -9 -65v-11v-1q-1 -16 -1 -45t-1 -53t-4 -44q-8 -48 -65 -48q-48 0 -64.5 40.5t-16.5 112.5q0 139 11 324q5 70 12 140q6 49 54 49q39 0 59 -28q9 -18 9 -27q4 -19 5 -55t3 -51q0 -2 1 -4t1 -4q2 2 12 14q11 18 34.5 51t26.5 37t8 14t8 14q32 51 70 51
q21 0 43 -27q10 -16 10 -34q0 -35 -41 -90q-4 -5 -19 -25.5t-23 -30.5q-9 -13 -31 -35t-31 -34l-1 -2q0 -1 0.5 -3l0.5 -2q58 -65 80 -117q5 -11 25 -58q2 -5 7.5 -19t8 -21t7 -20t6.5 -22t3.5 -22t1.5 -25q0 -46 -18 -75t-56 -29q-29 0 -41 22q-3 5 -24 55q-3 8 -8 29.5
t-12.5 53t-12.5 50.5q-16 71 -28 71v-1z" />
    <glyph glyph-name="L" unicode="L" horiz-adv-x="265" 
d="M252 89q0 -45 -27.5 -70t-74.5 -25q-51 0 -82 9.5t-39 42.5q-9 34 -9 64v7q4 77 4 168v53q0 193 19 280q5 22 26 47q10 13 30 13q52 0 52 -86v-17q0 -9 0.5 -29t0.5 -29v-229q0 -12 -0.5 -32t-0.5 -32v-21q0 -48 12 -51q35 -3 62 -18.5t27 -44.5z" />
    <glyph glyph-name="M" unicode="M" horiz-adv-x="592" 
d="M321 352q1 -2 2 2q1 1 1 4l1 2q2 11 11.5 69.5t14.5 78t17.5 60.5t30 67.5t41.5 48.5q14 14 39 14q32 0 51 -28.5t23 -65.5q8 -56 10.5 -121t2.5 -148t2 -128q0 -8 2 -43t2 -54q0 -90 -37 -111q-16 -8 -33 -8q-25 0 -41 22.5t-17 54.5l-8 241q-2 46 -7 46q-16 0 -37 -126
q-7 -35 -20 -126q-11 -111 -67 -111q-60 0 -87 137q-10 48 -16.5 120t-10.5 114.5t-10 42.5q-5 0 -9 -45q-2 -26 -5 -86t-5 -86q-1 -6 -2.5 -26t-2.5 -28t-3.5 -25t-5 -26t-6.5 -21.5t-10 -22t-13 -16.5q-14 -14 -35 -14q-27 0 -46.5 20.5t-21.5 48.5v32q0 37 3 78
q1 18 3 55.5t3 55.5q1 11 2.5 47.5t2.5 55.5t4 55.5t7.5 57.5t11 51.5t16 48t22 35.5t29.5 26t38 8q53 0 75 -32q21 -30 38 -91q3 -10 20 -86t30 -124z" />
    <glyph glyph-name="N" unicode="N" horiz-adv-x="447" 
d="M142 338q0 -16 7.5 -87.5t7.5 -115.5v-12q-2 -44 -6 -61q-10 -56 -46 -56q-15 0 -27 8q-30 18 -39 42q-5 15 -7.5 33.5t-3.5 31t-1.5 37t-0.5 35.5q0 7 -3.5 83t-3.5 115q0 89 9 147q4 30 9 51.5t16 44.5t30.5 35t46.5 12q23 0 40 -8t26 -17t17 -30t10.5 -32.5t8.5 -39.5
q27 -136 48 -208q0 -1 2 -3q12 0 12 81q0 26 -1.5 66t-1.5 42q0 51 8 85q18 69 73 69q30 0 41 -14.5t15 -47.5q3 -30 3 -57q0 -140 -4 -214q0 -9 -1.5 -73.5t-4.5 -99.5q-15 -151 -85 -151q-20 0 -36 11q-34 22 -61 78q-26 53 -53 146t-35 153q-3 -5 -6 -20q-3 -29 -3 -59z
" />
    <glyph glyph-name="O" unicode="O" horiz-adv-x="338" 
d="M177 692q139 0 139 -276q0 -46 -4 -112q-7 -111 -24 -179t-64 -102q-19 -14 -54 -14q-82 0 -114 73q-19 43 -29 127q-8 59 -8 112q0 105 24 225q12 59 45.5 102.5t88.5 43.5zM207 472v14q0 73 -23 73q-9 0 -15 -14q-33 -111 -33 -219q0 -58 10 -104q10 -49 24 -70
q4 -4 6 -4q8 0 13 35q15 169 18 258v31z" />
    <glyph glyph-name="P" unicode="P" horiz-adv-x="318" 
d="M136 437v-4q0 -3 2 -4q10 0 22 14q33 47 33 98q0 20 -9 33t-25 13q-9 0 -14 -3q-2 -15 -3 -43.5t-2 -35.5q-4 -46 -4 -68zM193 695q71 0 91 -48q20 -49 20 -111q0 -50 -14 -94q-3 -8 -13.5 -30.5t-15.5 -28.5q-22 -27 -61 -51t-52 -24h-2h-1q-1 -20 -2 -75t-3 -74
q-1 -9 -1 -33t-1.5 -43t-4.5 -39.5t-12 -32t-23 -11.5q-30 0 -46 5t-24 23q-8 17 -8 52q0 58 1 174t1 173q0 7 0.5 22t0.5 23q0 13 -1.5 43t-1.5 46q0 54 14 92q7 19 38 29t55.5 11.5t65.5 1.5z" />
    <glyph glyph-name="Q" unicode="Q" horiz-adv-x="345" 
d="M167 239q8 0 29 -18q12 55 12 150q0 66 -1 93q-1 26 -9 51t-20 25q-25 0 -36 -91q-6 -42 -6 -124q0 -76 4 -124q3 -48 18 -48h2q-2 6 -6 16.5t-5.5 18t-1.5 17.5q0 14 5.5 24t14.5 10zM211 0q-22 -16 -45 -16q-29 0 -57 19t-41 42q-21 36 -32.5 94t-13.5 104t-2 121v13
q0 36 8.5 86.5t26 105t50 92t73.5 37.5q67 -2 100.5 -49.5t46.5 -124.5q4 -24 4 -59q0 -21 -2 -53q-12 -206 -49 -308q10 -20 22 -46q4 -8 4 -24q0 -27 -13 -50t-34 -23q-17 0 -26.5 9.5t-19.5 29.5z" />
    <glyph glyph-name="R" unicode="R" horiz-adv-x="335" 
d="M301 122q0 -50 -19 -87.5t-57 -37.5q-16 0 -31 12.5t-17 31.5q-3 25 -4 80.5t-5 84.5q-2 12 -9.5 27t-15.5 17q-5 0 -7 -4q-6 -19 -7 -62t-2 -52q-1 -8 -2.5 -25t-3 -32t-4.5 -27q-7 -32 -21 -45q-7 -7 -16 -7q-26 0 -41.5 14t-16.5 39q0 10 -1 28t-1.5 33t-0.5 28
q0 52 4 124q0 7 0.5 29.5t1.5 35.5q2 28 2 52q0 15 -0.5 46.5t-0.5 48.5q0 36 1 58t4.5 50t11 44.5t21.5 31t34 20.5q44 12 73 12q48 0 88.5 -19.5t50.5 -53.5q9 -30 9 -90q0 -91 -63 -172q-5 -6 -17 -19t-17 -20q36 -25 57.5 -70.5t21.5 -102.5v-21zM196 506v2q0 4 0.5 15
t0.5 17q0 32 -16 44q-9 6 -15 6q-2 0 -6 -2q-7 -6 -9 -35q-2 -14 -4 -50q-1 -15 -1 -45v-45h6q23 0 33.5 29.5t10.5 63.5z" />
    <glyph glyph-name="S" unicode="S" horiz-adv-x="313" 
d="M84 308q43 0 43 -43q0 -13 -2.5 -35t-2.5 -34q0 -47 14 -61q4 -6 12 -6q14 0 19 17q3 12 3 28v1q0 19 -3 37q-5 34 -8 47q-10 38 -44 76q-32 34 -46 49.5t-33 54t-19 75.5q0 38 20 89q19 40 53 65t76 25q52 0 92 -24t42 -68v-19q0 -11 -2 -33q-3 -25 -6.5 -39.5
t-11.5 -33t-22.5 -27.5t-36.5 -9q-44 0 -44 38v7q7 63 7 64q0 28 -15 28q-14 0 -26 -17.5t-12 -36.5q0 -18 4.5 -35t9 -28t16 -26t17 -21t21 -20.5t19.5 -18.5q31 -30 55 -89t24 -119q0 -48 -10 -75q-20 -50 -55.5 -76t-97.5 -26q-118 0 -118 180q0 100 46 132q10 7 22 7z
" />
    <glyph glyph-name="T" unicode="T" horiz-adv-x="310" 
d="M59 508q-37 10 -37 47q0 66 26 89q24 22 57 22h43q60 0 102 -9q30 -7 42 -19t12 -38q0 -69 -41 -79q-4 -1 -14 -1.5t-18 -2t-10 -5.5q-6 -17 -6 -48q0 -40 -2 -119t-2 -115v-33q0 -93 -11 -137q-15 -60 -54 -60q-34 0 -55.5 17t-24.5 48q-1 9 -1 29q0 32 3 61
q20 202 20 300v15q0 30 -6 33q-3 1 -11 2.5t-12 2.5z" />
    <glyph glyph-name="U" unicode="U" horiz-adv-x="346" 
d="M202 580q0 48 13.5 74.5t51.5 26.5q61 0 61 -101q0 -16 -0.5 -47.5t-0.5 -45.5q0 -289 -64 -424q-15 -33 -37 -54q-11 -12 -35.5 -21.5t-44.5 -9.5q-88 0 -115 149q-14 74 -14 199q0 49 1 74q1 26 3 75t2 69q2 72 14 104q15 42 47 42q33 0 45 -19q15 -24 15 -57
q0 -18 -7 -126.5t-7 -172.5q0 -155 39 -163q3 0 9 12q25 78 25 318v41q0 10 -0.5 29.5t-0.5 27.5z" />
    <glyph glyph-name="V" unicode="V" horiz-adv-x="359" 
d="M150 480q0 -40 4 -114.5t12 -74.5q3 0 6.5 22.5t8.5 60.5t5 41q1 5 3.5 24.5t4 31t5 33t6.5 36t7.5 34.5t9.5 34t11 27.5t13 23t15 14.5q16 10 40 10q34 0 43 -37q5 -22 5 -41q0 -47 -22 -138t-24 -105q-15 -85 -37 -190q-13 -60 -34 -117q-22 -58 -63 -58q-48 0 -69 58
q-27 75 -45 170q-18 97 -27 202q-9 106 -9 148q0 24 1.5 39t6 33.5t15.5 28t29 9.5h2q25 0 37.5 -11t22.5 -34q17 -37 17 -121v-39z" />
    <glyph glyph-name="W" unicode="W" horiz-adv-x="565" 
d="M22 604v8q0 83 48 83q18 0 30 -7.5t18 -24t8 -29t4 -36.5q1 -7 1 -11q1 -11 4.5 -29t4.5 -29q1 -10 4 -30.5t4 -30.5q1 -7 2.5 -22t2.5 -24t4 -19.5t7 -17.5q1 3 5 19.5t5 24.5q2 8 3 24.5t3 24.5q1 7 4 29t4.5 34t5 32.5t8 33.5t10.5 28.5t14 26t18 16.5q21 12 46 12
q45 0 59 -25.5t17 -81.5q0 -8 1 -42.5t2.5 -56t6.5 -42.5q2 -6 4 -11q6 20 19.5 91t28.5 105q5 13 8 18.5t9.5 16.5t15 15.5t19.5 4.5q28 0 46 -8q24 -10 30 -36q2 -14 2 -23q0 -19 -6 -45q-4 -19 -18.5 -74t-20.5 -90q-23 -139 -37 -272q-4 -43 -26 -88.5t-55 -45.5
q-27 0 -51.5 18.5t-29.5 41.5q-12 49 -16 140q-1 12 -1.5 38.5t-1 43.5t-4.5 38.5t-12 37.5h-1q-14 -12 -18 -23q-5 -20 -23 -135.5t-44 -163.5q-14 -26 -35 -26q-13 0 -23 6q-51 27 -59 106q-4 34 -12 127.5t-15 144.5q-13 97 -19 136q-8 72 -8 74z" />
    <glyph glyph-name="X" unicode="X" horiz-adv-x="386" 
d="M72 -13q-29 0 -45 18.5t-16 50.5q0 30 8 46q3 7 10.5 26.5t12.5 29.5q6 12 27 58q15 33 29 76t14 57q0 15 -20 50q-48 85 -63 159q-5 25 -5 44v3q0 20 4 33q8 21 25 31q14 7 25 7q31 0 58 -41q9 -19 38 -107q2 -6 7 -23.5t8 -24.5l1 1l1 -1q27 87 61 162q19 34 52 34
q5 0 15 -2q55 -15 56 -57v-5q0 -12 -2.5 -24t-4.5 -17.5t-8.5 -19t-7.5 -16.5q-12 -23 -38 -93t-34 -86q-1 -3 -5 -7t-4 -6t1 -3q15 -38 37 -109t28 -89q22 -70 22 -99q0 -51 -51 -51q-22 0 -41.5 7.5t-25.5 17.5q-14 22 -22 52.5t-15 78t-11 67.5q-7 -23 -23.5 -72
t-26.5 -81q0 -1 -3 -9.5t-3.5 -11t-3.5 -10t-4.5 -10.5l-4.5 -9t-6.5 -8.5t-7.5 -6.5t-8.5 -5.5t-10.5 -2.5q-14 -2 -19 -2z" />
    <glyph glyph-name="Y" unicode="Y" horiz-adv-x="316" 
d="M19 593q0 35 16.5 59t47.5 24q28 0 42 -23q29 -51 38 -112q2 5 14.5 33t18.5 44q8 24 13.5 36t20 26t34.5 14q23 0 37.5 -13t14.5 -35q0 -17 -5 -34q-10 -38 -24.5 -75.5t-37.5 -87.5t-32 -72q-9 -25 -9 -46q0 -37 4.5 -104t4.5 -103q0 -81 -27 -106q-26 -24 -53 -24
q-45 0 -45 69q0 7 0.5 21t0.5 21v14q0 19 1.5 59t1.5 60v19q0 35 -4 70q-4 22 -20 59q-43 98 -52 192q-1 5 -1 15z" />
    <glyph glyph-name="Z" unicode="Z" horiz-adv-x="322" 
d="M35 609q0 80 100 80q65 0 113 -8q27 -4 40 -18.5t13 -45.5q0 -17 -3 -29q-14 -50 -31 -98t-46.5 -123t-37.5 -97q-4 -11 -9.5 -33.5t-8.5 -30.5q-4 -14 -4 -23q0 -7 1 -11q9 -2 28 -4t28 -4q25 -5 51 -22t29 -37q2 -16 2 -24q0 -65 -45 -75q-52 -11 -118 -11
q-27 0 -43.5 1.5t-35.5 6.5t-28.5 18t-10.5 33v19q0 62 15.5 133.5t29.5 111.5t41 112q1 2 23 47t22 62v4q-2 8 -40.5 11.5t-42.5 5.5q-32 19 -32 49z" />
    <glyph glyph-name="bracketleft" unicode="[" horiz-adv-x="284" 
d="M257 35q0 -51 -30 -77t-86 -26q-25 0 -62 10q-30 8 -40 28t-12 66q-1 16 -1 70q0 30 0.5 86t0.5 68q0 32 -3.5 117t-3.5 128q0 33 4 83q7 73 39 104t95 31q103 0 106 -44v-15q0 -35 -16.5 -46.5t-59.5 -20.5q-26 -5 -29 -9q-4 -6 -7 -31q0 -5 -2 -15.5t-3 -15.5
q-8 -61 -8 -244q0 -92 3 -145q2 -35 7.5 -41.5t39.5 -9.5q68 -6 68 -51z" />
    <glyph glyph-name="backslash" unicode="\" horiz-adv-x="397" 
d="M386 32q0 -32 -51 -32q-40 0 -76 67q-30 53 -62.5 123.5t-51.5 117.5t-55 137.5t-48 120.5q-28 72 -31 92v5q0 12 11.5 19.5t28.5 7.5q20 0 38 -13q14 -10 27.5 -26.5t22 -29.5t22 -40.5t17.5 -37.5t18 -44t16 -38q8 -20 32.5 -76t33.5 -77t35 -80t43 -102t29 -83
q1 -4 1 -11z" />
    <glyph glyph-name="bracketright" unicode="]" horiz-adv-x="284" 
d="M142 -68q-55 0 -85 26t-30 77q0 45 68 51q34 3 39.5 9.5t7.5 41.5t2 145q0 183 -8 244l-3 31q-1 8 -2 12.5t-1.5 8.5t-2.5 6.5t-2.5 4.5t-5 3t-5.5 1.5t-8 1.5t-10 2q-23 5 -33 8t-22.5 10t-17 18.5t-4.5 30.5q0 48 52 55q20 3 55 3q63 0 95 -30.5t39 -103.5q3 -37 3 -83
q0 -43 -2.5 -128t-2.5 -117v-154v-51v-19q-2 -45 -12.5 -65.5t-40.5 -28.5q-37 -10 -63 -10z" />
    <glyph glyph-name="asciicircum" unicode="^" horiz-adv-x="221" 
d="M202 548q0 -14 -10.5 -23t-26.5 -9q-13 0 -23.5 8.5t-20.5 23t-13 17.5q-10 -17 -13 -22q-24 -29 -40 -29q-36 0 -36 37q0 10 1.5 19t5 17t6 14t9 13.5t9.5 11t10.5 11t9.5 10.5q20 22 46 22q29 0 57.5 -43t28.5 -78z" />
    <glyph glyph-name="underscore" unicode="_" horiz-adv-x="420" 
d="M286 -136q-1 0 -39.5 -0.5t-65.5 -0.5q-76 0 -96 2q-26 4 -42 24t-16 44q0 20 12 34t36 15q86 6 243 6q75 0 75 -58v-9q0 -16 -3 -22q-15 -35 -104 -35z" />
    <glyph glyph-name="grave" unicode="`" horiz-adv-x="219" 
d="M194 608q0 -35 -49 -35q-15 0 -52 16q-34 13 -52 30t-18 50q0 34 39 34q13 0 31 -8q58 -27 79 -45q22 -20 22 -42z" />
    <glyph glyph-name="a" unicode="a" horiz-adv-x="384" 
d="M200 188q-10 0 -15 -2q-22 -10 -29 -37.5t-11 -61.5t-15 -52q-24 -40 -57 -40t-50.5 21t-17.5 54q0 6 2 20q17 118 35 203q9 42 25 126q4 23 29 124q21 90 67 129q23 19 47 19q8 0 13 -1q29 -3 51.5 -32t34.5 -72.5t17.5 -70t8.5 -54.5q6 -45 37 -374q2 -22 2 -33
q0 -64 -65 -64q-28 0 -48.5 20t-20.5 55q0 28 -8 86q-6 37 -32 37zM182 310q10 -4 27 -4q9 0 12 5q2 8 2 25q0 7 -0.5 26t-0.5 30q0 39 -6.5 70t-15.5 31q-16 0 -24 -53.5t-8 -94.5v-12q0 -17 14 -23z" />
    <glyph glyph-name="b" unicode="b" horiz-adv-x="342" 
d="M23 296q0 31 1.5 93t1.5 93q0 10 -0.5 30t-0.5 29q0 56 7 91q3 16 14.5 26t31.5 14t36 5t40 1q131 0 155 -88q10 -34 10 -56v-3v-29q0 -53 -10 -83q-15 -40 -47 -79l-1 -1q-1 -1 -1 -2q3 -2 13.5 -10.5t15.5 -12.5t12.5 -12t11.5 -16.5t6 -17.5q6 -26 6 -42
q0 -41 -21 -102q-4 -13 -12.5 -25t-20.5 -26t-17 -21q-15 -20 -48 -43q-54 -37 -110 -37q-70 0 -74 63q-2 34 -2 51q0 22 2 66t2 67q0 13 -0.5 38.5t-0.5 38.5zM142 117v-3q6 0 18 12q13 17 28 48q9 22 9 58q0 13 -2 33q-5 27 -44 35q-5 -10 -6 -15q-5 -63 -5 -115
q0 -3 -0.5 -11.5t-0.5 -12.5q0 -16 3 -29zM179 427q22 31 22 77q0 25 -10 38t-32 25q-2 -37 -2 -111v-52v-4q5 4 22 27z" />
    <glyph glyph-name="c" unicode="c" horiz-adv-x="313" 
d="M175 690q122 0 126 -113q1 -15 1 -50q0 -55 -14.5 -87.5t-55.5 -32.5q-42 0 -43 32q0 3 -0.5 8.5t-0.5 7.5v25v15t-1 15q-1 39 -7 39q-9 0 -17 -45q-27 -162 -27 -263v-18q2 -77 28 -77q11 0 11 32q0 3 -0.5 9t-0.5 8v5q0 3 -0.5 9.5t-0.5 10.5v9q0 83 54 83
q29 0 47 -16.5t19 -44.5q0 -5 0.5 -16.5t0.5 -17.5q0 -66 -13 -108q-16 -55 -39 -93q-16 -30 -68 -30q-61 0 -90 29q-42 43 -61 155q-7 39 -8 69q-1 25 -1 67q0 74 14 155q7 37 17.5 72.5t27.5 73t43.5 60.5t58.5 23z" />
    <glyph glyph-name="d" unicode="d" horiz-adv-x="338" 
d="M324 466q0 -11 -0.5 -32t-0.5 -32v-44q0 -60 -2.5 -99t-11 -86t-28.5 -81t-52 -57q-49 -35 -161 -35q-30 0 -37.5 10.5t-7.5 41.5v20v16q-3 156 -3 194v132q0 168 13 224q8 38 24 39q37 5 64 5h4q92 0 137 -35q62 -50 62 -181zM136 157v-13q0 -22 5 -22q3 0 13 8
q19 17 26 46q5 20 8.5 51t4 51.5t1 55.5t0.5 37q1 18 1 55v30q-1 64 -14 81t-28 17q-11 0 -11 -19q-6 -117 -6 -378z" />
    <glyph glyph-name="e" unicode="e" horiz-adv-x="287" 
d="M27 246q0 27 -2 75.5t-2 74.5q0 16 0.5 46.5t0.5 43.5q0 163 53 195q21 12 89 12q70 0 86 -13q19 -16 19 -50q0 -18 -8 -34q-20 -38 -54 -40h-11h-15q-14 0 -26 -2q-9 -30 -9 -91q0 -50 13 -57q9 -3 29.5 -5.5t35.5 -6.5t21 -14q8 -11 8 -35q0 -27 -11.5 -48t-31.5 -22
q-3 0 -16.5 -0.5t-21.5 -0.5q-22 -1 -22 -31v-11v-7q0 -4 -0.5 -11t-0.5 -10q0 -67 17 -69q5 -1 16.5 -2t17.5 -1.5t15.5 -2.5t15 -4t12 -5t11.5 -7q15 -13 15 -40q0 -22 -9.5 -43t-24.5 -28q-22 -9 -87 -9q-33 0 -50.5 1t-38.5 10t-26 27q-1 1 -3 16q-5 46 -5 119v80z" />
    <glyph glyph-name="f" unicode="f" horiz-adv-x="320" 
d="M154 451q0 -22 10.5 -28t38.5 -6h16q23 0 36 -2t25.5 -12.5t12.5 -30.5v-7q0 -84 -65 -84h-24q-41 0 -44 -15v-102q0 -62 -3 -92q-4 -39 -20 -59t-38 -20q-28 0 -50.5 29t-23.5 74q0 3 -0.5 9.5t-0.5 9.5q-4 94 -4 147q0 202 26 364q8 54 53 62q20 4 61 4q58 0 95 -9
q45 -9 51 -29q3 -12 3 -23v-4q0 -30 -20 -60q-17 -25 -59 -25q-5 0 -15.5 1t-16.5 1q-35 0 -39 -33q-5 -27 -5 -53v-7z" />
    <glyph glyph-name="g" unicode="g" horiz-adv-x="365" 
d="M189 130q14 0 22.5 19t8.5 44q0 5 -1.5 7.5t-3 3.5t-6 2.5l-7.5 2.5q-35 13 -35 49q0 26 28 40t62 14q57 0 78 -24q9 -10 9 -38q0 -190 -80 -234q-44 -25 -80 -25q-38 0 -66 11t-44 28t-27 47t-15.5 57t-8.5 69q-6 51 -6 104q0 140 26 242q19 74 54.5 104.5t104.5 35.5h6
h12q70 0 98 -46t28 -129q0 -10 -1.5 -29t-1.5 -24q-2 -26 -20 -44.5t-44 -18.5q-25 0 -43.5 13.5t-18.5 34.5v11q0 71 -13 105q-4 7 -13 7q-51 0 -51 -232q0 -18 0.5 -44t0.5 -33v-17q0 -51 9 -79q12 -34 39 -34z" />
    <glyph glyph-name="h" unicode="h" horiz-adv-x="364" 
d="M205 199q0 6 -0.5 18t-0.5 17q-2 20 -5 23q-5 2 -18 2q-23 0 -28 -8q-12 -42 -12 -126v-24q0 -20 -1.5 -33.5t-6 -28.5t-15 -22.5t-26.5 -7.5q-32 0 -52 19t-22 50q-2 30 -2 46q0 42 7.5 119t8.5 107q2 35 3.5 90.5t2.5 90.5q4 91 31 115q19 17 42 17q25 0 39 -15.5
t14 -42.5q0 -13 -3.5 -36.5t-4.5 -31.5q-10 -84 -10 -105q0 -29 20 -29q11 0 25 6q17 6 19 12q2 5 3 13q1 22 1 64v30q0 90 19 139q14 34 45 34q39 0 51.5 -30.5t12.5 -83.5q0 -63 -0.5 -197t-0.5 -201v-59q0 -39 -2 -56q-4 -43 -24 -61q-20 -17 -69 -17q-15 0 -24 12
t-12.5 36.5t-4.5 41t-1 43.5q0 11 0.5 34.5t0.5 35.5z" />
    <glyph glyph-name="i" unicode="i" horiz-adv-x="175" 
d="M154 515v-39q0 -99 -2 -231q-1 -45 -5 -129q0 -8 -0.5 -25t-0.5 -23t-1.5 -18.5t-4 -17.5t-7.5 -12.5t-12 -10.5t-17.5 -5.5t-24.5 -2.5q-34 0 -45.5 25.5t-11.5 71.5q0 18 1 60.5t1 61.5v179q0 25 -0.5 84t-0.5 84q0 59 19 89t46 30q36 0 54 -52q12 -36 12 -82v-37z" />
    <glyph glyph-name="j" unicode="j" horiz-adv-x="350" 
d="M138 260v-20q0 -69 18 -69q8 0 14 13q14 25 17 121q1 30 4 100.5t4 109.5q3 89 5 102q4 19 6 28t10.5 20t21.5 13q12 2 19 2q53 0 65 -37q9 -24 9 -66q0 -17 -2 -48.5t-2 -39.5q0 -16 -1.5 -78.5t-3 -93t-6 -80.5t-13.5 -87.5t-22 -67.5q-12 -30 -52 -56t-78 -26h-1
q-28 0 -49 9t-33.5 22.5t-22 36.5t-13.5 42.5t-9 48.5q-4 30 -4 46q0 108 65 108q31 0 42.5 -13.5t11.5 -39.5z" />
    <glyph glyph-name="k" unicode="k" horiz-adv-x="407" 
d="M37 418q0 20 -1.5 60t-1.5 61q0 62 10 90q18 44 71 44q35 0 48 -24q8 -17 8 -52q0 -48 -6 -102q1 -1 3 -1q21 0 42 31q15 21 35.5 65t26.5 52q21 32 55 32q6 0 16 -2q55 -14 55 -58q0 -42 -22 -74q-8 -10 -31 -43.5t-37 -50.5q-3 -4 -16 -19.5t-22.5 -27.5t-18 -25
t-8.5 -18q1 -4 11 -22q6 -14 45 -79q58 -93 71 -143q8 -30 8 -64q0 -49 -49 -49q-22 0 -45 8t-32 17t-17.5 23t-13 24t-11 31.5t-8 29t-7 34t-6.5 29.5q-13 65 -23 65q-8 0 -11 -53q-1 -15 -2 -44.5t-2.5 -53.5t-4.5 -42q-8 -45 -26 -53q-24 -10 -40 -10q-19 0 -36 10
t-21 24q-4 16 -4 27q0 25 1 37q0 34 6 100l6 93q5 68 5 123z" />
    <glyph glyph-name="l" unicode="l" horiz-adv-x="276" 
d="M151 282q0 -8 0.5 -23t0.5 -22q0 -5 -0.5 -16t-0.5 -17q0 -39 9 -54q8 -3 24.5 -6.5t22.5 -4.5q55 -13 55 -66q0 -44 -29 -65q-28 -18 -94 -18h-10q-21 0 -40 3q-22 5 -39 14q-24 15 -28 39q-3 14 -3 30q0 22 3.5 59t3.5 54q1 23 1 68v79v147q0 13 2 63q2 60 9 80
q17 47 52 58q8 2 13 2q51 0 64 -47q6 -22 6 -62q0 -32 -7.5 -91t-9.5 -78q-1 -13 -2 -40t-2 -41q-1 -15 -1 -45z" />
    <glyph glyph-name="m" unicode="m" horiz-adv-x="563" 
d="M142 241q0 -16 1 -55t1 -59v-19q-2 -52 -12 -91q-5 -20 -38 -20q-72 0 -72 104q0 231 12 388q8 107 22 143q23 53 76 64q5 1 15 1q26 0 45 -16.5t29 -45.5t15.5 -57t11.5 -64t10 -53q15 -59 20 -59q4 0 8.5 17t8.5 38.5t5 25.5q34 129 85 191q19 24 61 24q54 0 66 -29
q29 -65 29 -195q0 -20 -0.5 -60.5t-0.5 -59.5q0 -29 1.5 -87.5t1.5 -89.5q0 -7 0.5 -23.5t0.5 -25.5q0 -28 -3 -53q-9 -80 -56 -80q-61 0 -66 59q0 5 -9 292q-3 61 -9 61q-4 0 -9.5 -26.5t-12 -64.5t-10.5 -52q-24 -100 -43 -163q-1 -3 -4.5 -17t-6 -18.5t-8 -13.5
t-13.5 -12t-20 -3q-50 0 -68 63q-10 30 -27.5 157t-19.5 136q-2 13 -5 13t-6 -10q-6 -28 -6 -141v-14z" />
    <glyph glyph-name="n" unicode="n" horiz-adv-x="387" 
d="M372 612q0 -44 -5.5 -136t-5.5 -134q0 -27 -1.5 -72.5t-1.5 -73.5q0 -103 -15 -139v-1q-1 -1 -3.5 -5t-3.5 -5.5t-3.5 -5t-4 -5.5t-4 -4.5t-5 -3.5t-6 -2.5t-6.5 -2.5q-12 -3 -22 -3q-50 0 -68 38q-16 33 -26.5 88.5t-19.5 132t-12 97.5q-5 27 -9 27q-5 0 -5 -22
q0 -6 0.5 -19.5t0.5 -19.5q6 -148 6 -229q0 -67 -14 -92q-13 -24 -46 -24t-47 24q-14 25 -18 89q-4 40 -4 93q0 5 0.5 17.5t0.5 18.5v139q0 22 -2 67t-2 69q0 73 22 115.5t81 42.5q58 0 85 -69q6 -16 10.5 -34.5t8.5 -43.5t6 -37q7 -33 13 -33q5 0 7 60q1 33 2.5 54t7 53.5
t19.5 50t35 17.5q55 0 55 -77z" />
    <glyph glyph-name="o" unicode="o" horiz-adv-x="336" 
d="M190 682q58 0 88 -43q41 -56 41 -206q0 -90 -2 -184q-2 -90 -20 -146q-14 -49 -55 -78q-43 -29 -90 -29q-41 0 -78 37q-61 60 -61 256q0 116 29 247q9 42 30 78q41 65 112 68h6zM202 453q0 57 -21 57q-29 0 -37 -78v-4l-1 -7q-4 -45 -4 -108q0 -34 4 -86q0 -3 0.5 -11.5
t1 -14t2 -14t3 -14t4.5 -11t7.5 -8.5t10.5 -3q19 0 24 46q5 40 5 109q0 13 0.5 37t0.5 35v75z" />
    <glyph glyph-name="p" unicode="p" horiz-adv-x="316" 
d="M161 113q0 -25 -1.5 -41.5t-6 -37t-16 -31t-29.5 -10.5q-58 0 -77 66q-12 40 -12 105q0 14 0.5 41.5t0.5 40.5q0 51 5.5 138t6.5 116q2 40 4 68q0 5 1.5 22.5t2.5 25.5t3.5 22t6.5 21.5t11 15t16 10.5q42 15 81 15q46 0 79.5 -21t46.5 -59q14 -43 14 -102
q0 -106 -70 -197q-22 -30 -53 -45q-1 -1 -7 -5t-9 -7q0 -4 -0.5 -15t-0.5 -15q0 -20 1.5 -60t1.5 -61zM156 585q-8 -32 -8 -71v-16v-58v-20q27 7 37 48q5 20 5 49q0 65 -34 68z" />
    <glyph glyph-name="q" unicode="q" horiz-adv-x="333" 
d="M174 540q-39 0 -39 -188v-25v-6q0 -59 2 -88q0 -3 0.5 -12.5t1 -13.5t1 -12.5t1.5 -13t3 -11t5 -10t6.5 -7t9 -5t11.5 -1.5q4 0 10 13q-2 6 -4 9.5t-3 4.5q-11 30 -11 38v3q4 36 23 36q9 0 16 -4v16v38q0 19 -1 58.5t-1 59.5q0 121 -31 121zM175 692q35 0 60 -15.5
t39 -39.5t22 -60.5t10.5 -69.5t2.5 -77q0 -54 -1 -80v-42.5t-0.5 -48.5t-2 -42.5t-4.5 -45t-8 -35.5q-1 -1 -1 -3.5t-1 -3.5q17 -46 25 -63q6 -12 6 -28q0 -24 -11 -42.5t-30 -18.5q-13 0 -26 9t-23 31q-24 -18 -89 -18q-33 0 -56 18.5t-35 54t-17 66.5t-8 75q-7 86 -7 112
q0 104 14 188q6 39 14 66.5t23 55.5t41 42.5t63 14.5z" />
    <glyph glyph-name="r" unicode="r" horiz-adv-x="337" 
d="M29 535q5 97 100 148q23 13 57 13q58 0 109 -65q28 -38 28 -95q0 -14 -1.5 -27.5t-3 -23t-6.5 -23.5t-7 -19.5t-9.5 -21t-8.5 -18t-11 -19.5l-10 -18q-1 -2 -8.5 -12.5t-8.5 -17.5q0 -2 2 -4q26 -25 44.5 -81.5t18.5 -113.5v-37q0 -103 -46 -103q-76 0 -82 78q0 5 -3 65
t-7 84q-9 37 -17 41h-3q-3 0 -3 -1q-1 -11 -2.5 -64t-3.5 -69q-1 -12 -2 -41t-4.5 -48.5t-12.5 -32.5q-10 -14 -37 -14q-36 0 -58 18q-15 14 -15 54v24v37q0 17 0.5 52.5t0.5 53.5q1 18 2 53t1 53q4 133 7 195zM159 386q14 16 27 49.5t13 60.5q0 38 -15 68q-5 8 -10 8
q-7 0 -13.5 -9.5t-6.5 -17.5q0 -10 -1 -27t-1.5 -31t-0.5 -26v-3q0 -49 7 -71z" />
    <glyph glyph-name="s" unicode="s" horiz-adv-x="345" 
d="M325 558q0 -39 -14 -65q-15 -25 -41 -25t-40 27q-5 10 -11 29t-11.5 29t-14.5 10q-30 0 -30 -37q0 -20 8 -42q19 -55 66.5 -115t67.5 -106q21 -44 21 -97q0 -62 -27 -114q-16 -29 -57 -48.5t-73 -19.5q-83 0 -116.5 48t-40.5 144v13q0 73 56 89q9 3 16 3q19 0 31 -17
t16 -36.5t8.5 -51.5t7.5 -44q5 -25 13 -31q0 -1 1 -1t2 -1q25 0 25 53q0 54 -12 79q-18 38 -60.5 94.5t-49.5 67.5q-34 56 -34 114q0 70 30 123.5t85 66.5q14 4 22 4q68 0 112 -36t44 -101v-2v-4z" />
    <glyph glyph-name="t" unicode="t" horiz-adv-x="328" 
d="M183 675q141 0 142 -61v-3q0 -64 -38 -83q-7 -4 -40 -9q-4 -1 -6.5 -1.5t-4.5 -2.5l-3 -3t-1.5 -4.5t-0.5 -5t-0.5 -6.5t-0.5 -7v-58q0 -38 1 -114t1 -114v-17v-15q-1 -10 -1 -32v-14q0 -72 -10 -98q-13 -36 -51 -36q-52 0 -62 40q-4 15 -4 38q0 8 0.5 25.5t0.5 27.5
q0 97 6 281q0 12 0.5 32.5t0.5 29.5v6q0 16 -3 43q-2 6 -9 9q-12 4 -27 7t-21 5t-14.5 8.5t-17.5 18.5q-7 10 -7 29v1q0 12 6 23q10 24 29 34.5t52 17.5q35 8 83 8z" />
    <glyph glyph-name="u" unicode="u" horiz-adv-x="366" 
d="M216 350q0 33 -2.5 103.5t-2.5 100.5q0 73 19 105q15 25 40 25q68 0 73 -70q4 -45 4 -100q0 -28 -1 -59.5t-2.5 -70.5t-2.5 -61q-2 -40 -3 -61t-5 -62t-10 -65t-17.5 -55.5t-26.5 -48.5t-38.5 -29.5t-52.5 -12.5q-31 0 -52 14q-62 41 -88 129q-23 77 -23 228
q0 22 0.5 64.5t0.5 62.5q0 88 12 136q7 28 25.5 47t45.5 19q29 0 37 -30q7 -25 7 -52q0 -17 -3 -47t-3 -37q-5 -133 -5 -163q0 -107 14 -171q9 -43 20 -48q12 0 18 17q22 70 22 192z" />
    <glyph glyph-name="v" unicode="v" horiz-adv-x="384" 
d="M18 559q0 122 73 122h3q18 0 33 -25q10 -18 16.5 -40.5t9.5 -38t6.5 -44t5.5 -40.5q3 -19 11 -76.5t14.5 -105t7.5 -51.5q2 17 10 129.5t23.5 186t44.5 96.5q21 17 47 17q50 0 50 -90v-15q-2 -36 -8 -75.5t-9.5 -59t-14 -71.5t-12.5 -63q-5 -28 -15 -88.5t-17 -89.5
q-35 -149 -104 -149q-14 0 -27 7q-13 4 -23.5 11.5t-19.5 21.5t-15.5 25.5t-12.5 33t-9.5 33.5t-8 37.5t-6 35t-4.5 36.5t-4 31q-1 5 -23 123t-22 176z" />
    <glyph glyph-name="w" unicode="w" horiz-adv-x="533" 
d="M91 676q22 0 36.5 -7.5t22 -16.5t11 -29.5t4 -34.5t0.5 -44q0 -12 -0.5 -38t-0.5 -38q0 -5 -1.5 -32.5t-1.5 -45.5q0 -62 16 -62q4 0 10 37q1 9 7 46.5t11 71.5t6 46q7 61 28 94t46 34h2q39 0 58 -74q8 -32 18.5 -120t10.5 -90q1 -1 2 -3q1 -3 2 -3h1q13 19 28 147
t17 134q14 44 48 44q17 0 27 -7.5t14 -24.5t5 -29.5t1 -36.5q0 -134 -36 -403q-12 -89 -41 -138q-24 -40 -71 -40h-7q-27 0 -46.5 26.5t-19.5 58.5q-1 9 -5.5 92t-9.5 124q-3 16 -9 16q-2 0 -5 -5q-10 -23 -13 -51q0 -1 -2.5 -32t-3.5 -39.5t-4 -36t-5.5 -41t-7 -34
t-10.5 -35t-13 -26.5q-10 -18 -29.5 -31.5t-42.5 -13.5q-30 0 -51 22.5t-28 53.5q-37 121 -37 346v20q0 53 1 79t1.5 34.5t2.5 35t6.5 39t11.5 29.5t18.5 24.5t27.5 7.5z" />
    <glyph glyph-name="x" unicode="x" horiz-adv-x="363" 
d="M259 331q0 -15 12.5 -44.5t32 -71.5t29.5 -70q17 -49 17 -78q0 -21 -7 -34q-17 -33 -74 -33q-15 0 -27.5 14t-21 39.5t-14 47.5t-10.5 51t-7 37l-5 14l-1 -1q-6 -14 -16.5 -60t-24.5 -85t-33 -57q-17 -14 -37 -14q-39 0 -50 34q-8 22 -8 43q0 51 41 140q7 16 26 54l27 54
q0 1 2 3.5t2 4.5v3q-6 17 -11 29.5t-8.5 18.5t-12 20.5t-15.5 26.5q-46 84 -46 181q0 33 8.5 51t34.5 19h3q53 0 77 -70q26 -92 39 -143q5 20 11.5 53.5t10.5 53t12.5 44.5t20.5 45q18 29 34 34q4 1 9 1q28 0 47 -16t19 -42q0 -47 -42 -151q-13 -32 -28.5 -83t-15.5 -63z
" />
    <glyph glyph-name="y" unicode="y" horiz-adv-x="343" 
d="M291 693q47 0 47 -62q0 -68 -45 -154q-12 -22 -74 -163q-4 -12 -4 -31t2.5 -59t2.5 -58v-28q0 -83 -14 -119q-11 -28 -50 -28q-22 0 -38 10q-23 14 -23 87v9q0 22 1.5 65.5t1.5 64.5q0 33 -3 61q-8 31 -28 85.5t-32.5 104t-12.5 100.5q0 36 18 63q16 22 38 22
q43 0 66.5 -61t23.5 -120v-1h1q7 14 19 42q2 7 10.5 31t12.5 34.5t12 29t16 31.5t18 25q17 19 34 19z" />
    <glyph glyph-name="z" unicode="z" horiz-adv-x="332" 
d="M165 184q0 -4 4 -4q11 0 31.5 1t30.5 1q30 0 52 -7q25 -9 25 -41q0 -33 -10.5 -57t-25.5 -38t-41.5 -24t-49.5 -14t-58 -8q-6 -1 -18 -1q-46 0 -70 26q-20 22 -20 54q0 17 3 34t6.5 28t10 30.5t10.5 32.5q23 83 58 180q13 37 36 82q4 8 4 16q0 9 -4 10q-5 2 -16 2.5
t-15 1.5q-69 14 -69 76q0 74 50 102q32 19 128 19h2q51 0 73.5 -13.5t22.5 -56.5q0 -23 -4 -47t-7 -40t-14 -42t-14.5 -34t-18.5 -38.5t-17 -34.5q-16 -34 -39.5 -97.5t-33.5 -87.5q-2 -6 -2 -11z" />
    <glyph glyph-name="braceleft" unicode="{" horiz-adv-x="323" 
d="M224 720q77 0 77 -41q0 -25 -7.5 -34.5t-32.5 -16.5l-5 -3q-6 -3 -17 -5q-3 -1 -10 -2t-8 -1.5t-5.5 -1.5t-5 -3t-2.5 -4.5t-2.5 -6.5t-1.5 -8.5t-2 -12.5t-5 -99.5t-12 -131.5q-2 -12 -19.5 -21.5t-17.5 -11.5q27 -10 33 -32q4 -15 6.5 -42t3.5 -48t1.5 -50.5t0.5 -32.5
q1 -35 7 -41.5t40 -9.5q37 -4 50 -16t13 -44q0 -35 -69 -35q-45 0 -104 16q-30 8 -40.5 28.5t-12.5 65.5q-1 16 -1 60q0 24 0.5 67.5t0.5 57.5q0 8 -28 19.5t-29 21.5v6q-1 6 -1 10q0 17 6 22q6 4 19 7.5t22 6t9 6.5q0 26 -2 60.5t-2 47.5q0 253 153 253z" />
    <glyph glyph-name="bar" unicode="|" horiz-adv-x="174" 
d="M20 520v45v36q0 52 12 88q18 52 54 52q27 0 46.5 -33t19.5 -92q0 -24 -0.5 -108t-0.5 -109v-228q0 -19 1 -57.5t1 -56.5q0 -46 -12 -71.5t-46 -25.5q-25 0 -36.5 11t-17.5 34q-16 63 -18 190q-3 198 -3 325z" />
    <glyph glyph-name="braceright" unicode="}" horiz-adv-x="323" 
d="M252 467q0 -13 -2 -47.5t-2 -60.5q0 -4 9 -6.5t22 -6t19 -7.5q5 -4 5 -22q0 -4 -1 -10v-6q-1 -10 -28.5 -21.5t-27.5 -19.5q0 -14 0.5 -57.5t0.5 -67.5q0 -44 -1 -60q-2 -46 -12 -66t-40 -28q-59 -16 -106 -16q-69 0 -69 35q0 32 13.5 44t50.5 16q34 3 39.5 9.5t7.5 41.5
q0 5 0.5 32.5t1 49.5t3 49t6.5 42q3 10 11 18t15 11l7 3q0 2 -17.5 11.5t-19.5 21.5q-8 40 -11.5 130.5t-4.5 100.5q-1 8 -2 12.5t-1.5 8.5t-2.5 6.5t-2.5 4.5t-5 3t-5.5 1.5t-8 1.5t-10 2q-8 2 -12.5 3.5t-7 3t-3.5 1.5q-25 7 -32 16.5t-7 34.5q0 41 76 41q154 0 154 -253z
" />
    <glyph glyph-name="asciitilde" unicode="~" horiz-adv-x="230" 
d="M83 759q7 0 21 -2.5t22 -2.5q10 0 17 2t15 5t14 5q4 1 11 1q27 0 27 -34q0 -24 -14 -42.5t-38 -18.5q-9 0 -17 0.5t-17 0.5t-14 -1q-9 -2 -19.5 -9.5t-13.5 -8.5q-13 -6 -29 -6q-25 0 -25 30q0 29 16.5 55t43.5 26z" />
    <glyph glyph-name="exclamdown" unicode="&#xa1;" horiz-adv-x="259" 
d="M102 698q36 0 52.5 -35t16.5 -83q0 -2 -0.5 -8t-0.5 -9q-1 -26 -21.5 -43.5t-47.5 -17.5q-36 0 -55 35t-19 81q0 52 43 72q18 8 32 8zM218 82q0 -39 -21 -61t-60 -22q-49 0 -82 50q-35 55 -35 119q0 18 3 34q17 121 64 238q8 21 18 21q8 0 11 -8q15 -42 40.5 -131.5
t38.5 -126.5q23 -69 23 -113z" />
    <glyph glyph-name="cent" unicode="&#xa2;" horiz-adv-x="337" 
d="M233 329q29 0 46.5 -11.5t17.5 -31.5v-1q0 -64 -17 -99q-16 -36 -42 -65q-13 -13 -27 -17q-4 -40 -18.5 -74.5t-39.5 -34.5q-13 0 -26 9q-17 11 -17 37q0 6 1.5 18.5t1.5 17.5q0 19 1 28q-20 5 -34 15q-41 31 -56 108q-5 25 -5 48q0 89 20 156q34 108 96 145q0 3 -0.5 7
t-0.5 5v8q0 48 11 68q7 12 23 22t31 10q17 0 25.5 -16.5t8.5 -35.5q0 -36 -2 -54q86 -11 86 -78v-4q0 -21 -0.5 -32.5t-4.5 -30t-11 -28t-22 -17t-36 -7.5q-42 0 -42 23v50q0 27 -6 27q-9 0 -19 -31q-9 -25 -23 -89.5t-14 -108.5q0 -53 24 -53q13 0 13 34v18q0 27 13.5 46
t43.5 19z" />
    <glyph glyph-name="sterling" unicode="&#xa3;" horiz-adv-x="408" 
d="M205 138q0 -13 31 -13q24 0 54 10.5t35 11.5q4 1 12 1q24 0 38.5 -15t14.5 -39q0 -31 -22 -57q-24 -29 -55 -39t-79 -10q-17 0 -43 1t-34 1h-30q-28 0 -43.5 1.5t-31.5 8t-23 21t-7 38.5q0 27 9 41t20.5 14.5t20.5 1.5t9 5q0 10 -0.5 58.5t-0.5 75.5v33q-67 15 -67 38
q0 44 17.5 63t54.5 19h2q1 17 1 78q0 70 43 137q33 51 90 51q15 0 35 -5q42 -10 63.5 -34t21.5 -54q0 -44 -28 -44q-11 0 -29.5 8t-31.5 8q-41 0 -41 -76v-70h30q6 -1 15 -1h13q21 -1 30 -10t9 -32q0 -31 -16.5 -55.5t-42.5 -28.5h-38q0 -44 -1 -75q-1 -21 -3 -42.5
t-2 -24.5z" />
    <glyph glyph-name="currency" unicode="&#xa4;" horiz-adv-x="396" 
d="M197 387q-18 0 -27 -19t-9 -45t8 -45t22 -19h5q8 2 15 29t7 54q0 45 -21 45zM58 66q-13 0 -25.5 14t-12.5 32q0 11 19 47q14 27 44 49q-9 40 -9 94q0 68 17 128q-8 6 -16 16t-12.5 17.5t-13 21.5t-11.5 19q-12 18 -12 38q0 35 41 35q18 0 31.5 -6t24.5 -21t15 -21.5
t14 -27.5q22 8 53 8q20 0 38 -8q24 49 43 63q18 13 42 13q41 0 41 -35q0 -20 -12 -38q-36 -58 -53 -73q-2 -2 -8 -6q4 -19 4 -47q0 -20 1 -50.5t1 -43.5q0 -38 -8 -67q37 -11 61 -58q20 -37 20 -47q0 -18 -12.5 -32t-25.5 -14q-25 0 -55 30t-44 56q-27 -11 -65 -11
q-14 0 -21 2q-17 -26 -44 -51.5t-50 -25.5z" />
    <glyph glyph-name="yen" unicode="&#xa5;" horiz-adv-x="324" 
d="M19 603q0 35 16.5 59t47.5 24q29 0 42 -22q29 -51 38 -113q4 9 11 24.5t12.5 28.5t9.5 25q8 24 13.5 36t20 26t34.5 14q23 0 37.5 -13.5t14.5 -35.5q0 -16 -5 -33q-10 -38 -24.5 -75.5t-37.5 -88.5t-32 -72q-9 -25 -9 -46q0 -4 0.5 -13t0.5 -14q30 -2 36 -5
q39 -18 39 -39q0 -16 -18.5 -24.5t-36.5 -9.5q-2 0 -7.5 -1t-9.5 -1q0 -6 0.5 -17t0.5 -16q22 -2 27 -4q38 -18 38 -38q0 -18 -20 -26t-41 -9q0 -81 -27 -106q-26 -24 -53 -24q-45 0 -45 69q0 7 0.5 21t0.5 21v14v6q-23 2 -44.5 11t-21.5 24q0 16 24 27t44 13q0 6 0.5 18
t0.5 18q-32 2 -35 3q-32 9 -32 28q0 16 23 28.5t42 15.5q-2 36 -22 85q-43 98 -52 192q-1 5 -1 15z" />
    <glyph glyph-name="brokenbar" unicode="&#xa6;" horiz-adv-x="174" 
d="M153 57q0 -46 -12 -71.5t-46 -25.5q-25 0 -36.5 11t-17.5 34q-18 71 -18 226q0 31 21.5 52.5t48.5 21.5q24 0 40 -18.5t18 -56.5v-90q0 -12 1 -39t1 -44zM20 541v24v28q0 27 12 63q18 53 54 53q27 0 46.5 -33t19.5 -92q0 -121 -1 -161q-1 -32 -17 -50.5t-39 -18.5
q-30 0 -52.5 29.5t-22.5 82.5v75z" />
    <glyph glyph-name="section" unicode="&#xa7;" horiz-adv-x="337" 
d="M180 708q52 0 93 -20.5t43 -57.5q0 -4 0.5 -12.5t0.5 -12.5q0 -6 -2 -18q-3 -17 -5 -25t-8 -22t-13 -21t-20.5 -12.5t-31.5 -5.5q-43 0 -44 22v6q0 1 0.5 5t0.5 6q0 4 3 22t3 27q0 21 -14 21t-26.5 -13t-12.5 -25q0 -40 48 -79q5 -4 19 -12.5t19 -12.5q29 -20 44 -35.5
t24 -40.5t9 -63q0 -25 -11 -47q-25 -42 -62 -57q26 -22 44 -54t18 -65q0 -26 -11 -46q-42 -65 -152 -65q-117 0 -117 110q0 28 12 53t36 33q18 6 21 6q23 0 35 -10q7 -5 7 -11v-7q0 -8 -2 -22.5t-2 -21.5q0 -16 6.5 -30t19.5 -14h8q11 0 11 20v9q0 5 -2 15q-5 35 -7 40
q-9 25 -43 48l-1 1q-41 5 -66 32t-25 64q0 41 23.5 77.5t65.5 52.5q-4 3 -18 12.5t-19 13.5t-15 13.5t-14 17t-7.5 20t-3.5 26.5q0 64 37 114.5t104 50.5zM137 343q0 -2 0.5 -4.5t0.5 -3.5q1 -11 2.5 -18t9 -13t21.5 -6q9 0 11 17v1v9q0 12 -6 46h-5q-10 -1 -20.5 -9.5
t-13.5 -18.5z" />
    <glyph glyph-name="dieresis" unicode="&#xa8;" horiz-adv-x="204" 
d="M23 678q0 47 28 47q14 0 28 -8.5t14 -21.5q0 -21 -13.5 -35.5t-31.5 -14.5q-25 0 -25 33zM136 642q-12 0 -21.5 8.5t-9.5 20.5q0 25 21 39q18 10 24 10q13 0 22 -8.5t9 -21.5q0 -48 -45 -48z" />
    <glyph glyph-name="copyright" unicode="&#xa9;" horiz-adv-x="593" 
d="M297 520q61 0 61 -56v-6q0 -25 -1 -38.5t-9.5 -27t-25.5 -13.5q-22 0 -22 24v28q0 20 -3 20q-5 0 -9 -23q-18 -72 -18 -141q0 -38 12 -38q7 0 7 26q0 1 -0.5 5t-0.5 6q0 46 28 46q14 0 23 -9t9 -22q0 -71 -30 -118q-10 -15 -33 -15q-31 0 -45 15q-30 31 -30 112
q0 66 10 112q24 113 77 113zM127 350q0 -96 42 -164t118 -74h9q68 0 114.5 70.5t46.5 142.5q0 48 -14 102q-17 64 -55.5 97.5t-84.5 33.5q-96 0 -136 -52t-40 -156zM279 -12q-227 0 -253 278q-6 64 -6 88v1q0 156 80 246.5t207 91.5h1q77 0 147 -54t97 -156q21 -78 21 -166
q0 -161 -74.5 -245t-219.5 -84z" />
    <glyph glyph-name="ordfeminine" unicode="&#xaa;" horiz-adv-x="238" 
d="M127 574q-33 0 -33 -62q0 -32 21 -40h3l16 6q4 24 4 53q0 43 -11 43zM217 425q0 -31 -5.5 -45t-23.5 -14q-8 0 -15 3.5t-10 6t-9.5 11t-7.5 9.5q-1 -1 -6 -5t-6 -4.5t-5 -3.5t-5.5 -4t-5 -3t-5 -2.5t-5 -2t-5.5 -1.5t-5.5 -0.5t-6.5 -0.5q-71 0 -71 135q0 20 7 67
q8 54 24.5 79t53.5 25q8 0 17.5 -3.5t18 -8t10.5 -5.5q1 1 7 7.5t8.5 8.5t8 5t10.5 3q9 0 14 -6t5.5 -12.5t1 -18.5t0.5 -16q3 -30 5 -99q0 -8 3 -46t3 -59z" />
    <glyph glyph-name="guillemotleft" unicode="&#xab;" horiz-adv-x="392" 
d="M351 234q0 -15 -13 -26t-37 -11q-9 0 -20.5 5.5t-17.5 10t-18 14.5t-13 11q-13 11 -37 38.5t-29 40.5q0 1 -0.5 2t-0.5 2q0 8 7 19.5t20 26t23 25t24 23.5t16 15q27 27 53 27q16 0 26 -16.5t10 -37.5q0 -25 -15 -36q-8 -6 -25.5 -14t-28.5 -14.5t-11 -12.5
q4 -7 45.5 -36.5t41.5 -55.5zM139 467q24 0 37.5 -11t13.5 -26q0 -18 -13 -32q-9 -10 -36 -33.5t-33 -33.5q1 -15 75 -69q16 -12 16 -38q0 -21 -10 -37t-26 -16q-26 0 -76 54q-36 36 -55 65q-10 17 -10 41q0 17 5 30q14 38 38 57l17 16q18 16 31.5 24.5t25.5 8.5z" />
    <glyph glyph-name="logicalnot" unicode="&#xac;" horiz-adv-x="290" 
d="M23 324q0 102 78 102q63 0 127 -3q19 -1 29 -19t10 -43q0 -55 -4 -161q-1 -48 -34 -48q-19 0 -37 16t-21 37t-3 69q-13 -1 -40 -1q-105 0 -105 51z" />
    <glyph glyph-name="uni00AD" unicode="&#xad;" horiz-adv-x="290" 
d="M23 324q0 102 78 102q63 0 127 -3q19 -1 29 -19t10 -43q0 -34 -16 -53q-24 -26 -55 -30q-37 -5 -68 -5q-105 0 -105 51z" />
    <glyph glyph-name="registered" unicode="&#xae;" horiz-adv-x="593" 
d="M127 350q0 -101 40 -164t128 -63q37 0 77 11q42 11 63.5 64t21.5 127q0 48 -14 102q-17 64 -55.5 97.5t-84.5 33.5q-65 0 -102 -20t-54 -66q-20 -55 -20 -122zM293 -12q-225 0 -267 278q-6 64 -6 89q0 108 34 199q27 73 81.5 103t156.5 35q2 0 7 0.5t8 0.5
q77 0 147.5 -54t97.5 -156q21 -78 21 -166q0 -116 -42 -203.5t-112 -107.5q-71 -18 -126 -18zM213 248q0 21 1.5 57.5t1.5 56.5v49q0 46 6.5 70.5t30.5 31.5q18 5 36 5q25 0 44.5 -9.5t24.5 -26.5q4 -14 4 -45q0 -46 -31 -86l-9 -9t-8 -10q6 -3 19 -25t13 -66q0 -63 -34 -63
q-8 0 -15 6.5t-8 15.5q-1 12 -2 40t-3 43t-10 16h-1q-6 -2 -6 -39v-6q0 -2 -0.5 -4.5t-0.5 -3.5t-1 -12t-2 -16q-1 -2 -2 -9t-2 -11.5t-3 -10t-5 -8t-8 -2.5q-19 0 -24.5 12.5t-5.5 37.5v21zM301 426v2v15q0 25 -19 26q-4 -12 -6 -44v-15v-30h3q22 0 22 46z" />
    <glyph glyph-name="macron" unicode="&#xaf;" horiz-adv-x="258" 
d="M127 669q-95 0 -102 36q-2 12 -2 16q0 29 20.5 38.5t56.5 9.5q1 0 87 -4q25 -1 37 -10.5t12 -23.5q0 -19 -16.5 -37t-37.5 -21q-29 -4 -55 -4z" />
    <glyph glyph-name="degree" unicode="&#xb0;" horiz-adv-x="179" 
d="M92 568q17 0 17 39q0 28 -15 28q-20 -1 -20 -39q0 -28 18 -28zM100 692q59 0 59 -71v-7q0 -54 -17.5 -78t-60.5 -24q-61 0 -61 78q0 12 5 35q6 37 21 52t54 15z" />
    <glyph glyph-name="plusminus" unicode="&#xb1;" horiz-adv-x="314" 
d="M222 228q72 -6 72 -48q0 -2 -0.5 -8t-0.5 -8q-3 -52 -76 -54q-1 0 -62 2t-63 2q-69 3 -69 44q0 17 10 38q11 24 56 30q1 0 66 1t67 1zM218 460q74 -6 74 -50q0 -2 -0.5 -8t-0.5 -8q-3 -52 -75 -54q-2 -42 -11 -65t-34 -23q-17 0 -38 10q-29 14 -33 81q-39 2 -59.5 11
t-20.5 33q0 12 12 38q15 29 66 33q4 86 50 86q2 0 8 -0.5t9 -0.5q53 -3 53 -78v-5z" />
    <glyph glyph-name="uni00B2" unicode="&#xb2;" horiz-adv-x="184" 
d="M95 360q-22 0 -35 1.5t-25 10t-12 23.5q0 7 6 25q8 18 25 52.5t29 62.5t16 52q6 27 6 37q0 16 -11 19q-10 0 -15.5 -11.5t-6.5 -24.5t-12 -22.5t-23 -9.5q-17 0 -17 30q0 26 12 50q9 20 30.5 37.5t43.5 17.5q23 0 41 -25q6 -9 10 -28q3 -13 3 -30q0 -33 -9 -67
q-5 -17 -13.5 -39t-20.5 -48.5t-17 -39.5q6 1 16 1q31 0 39 -12q8 -11 8 -23q0 -39 -68 -39z" />
    <glyph glyph-name="uni00B3" unicode="&#xb3;" horiz-adv-x="183" 
d="M89 687q33 0 49.5 -31t16.5 -71q0 -46 -20 -66q8 -9 17.5 -34t9.5 -46q0 -22 -11.5 -49t-23.5 -36q-19 -15 -48 -15q-30 0 -44.5 22.5t-14.5 56.5q0 52 27 52q14 0 24 -10.5t10 -26.5q0 -5 -2.5 -13t-2.5 -11q0 -9 5 -10q18 5 18 38q0 32 -10 43q-5 6 -25.5 11t-20.5 26
q0 6 0.5 9.5t2 6.5t2 4.5t4 2.5t5 1t6 1t7.5 1q13 2 23 17.5t10 33.5q0 9 -3.5 20t-10.5 11q-4 0 -7 -10l-3 -12t-3 -11.5t-3 -9.5t-4 -9t-5 -6t-6.5 -4.5t-8.5 -1.5q-17 0 -21.5 13.5t-4.5 38.5q0 30 19.5 52t46.5 22z" />
    <glyph glyph-name="acute" unicode="&#xb4;" horiz-adv-x="216" 
d="M66 573q-43 0 -43 31q0 11 3 20.5t10.5 18t13.5 14t18.5 12.5t18.5 10t19.5 9t16.5 7q16 8 33 8q37 0 37 -36q0 -22 -11.5 -38t-24 -23.5t-34.5 -16.5q-36 -16 -57 -16z" />
    <glyph glyph-name="mu" unicode="&#xb5;" horiz-adv-x="372" 
d="M220 285q0 26 -2.5 80t-2.5 78q0 60 19 84q17 21 40 21q68 0 73 -56q4 -37 4 -81q0 -23 -1 -48t-2.5 -56t-2.5 -49q-2 -45 -5.5 -75.5t-13 -72.5t-29.5 -70t-50 -39q-27 -12 -50 -12q-14 0 -31 5q0 -24 -6 -84q-4 -28 -15 -41.5t-39 -13.5q-45 0 -57 36q-4 13 -6.5 30
t-4 39t-1.5 37t-0.5 41t-0.5 34q-1 95 -11 187q-5 45 -5 80q0 87 22 159q6 24 26 41.5t45 17.5q28 0 38 -30q6 -18 6 -43q0 -11 -0.5 -23t-2 -24.5t-1.5 -17.5q0 -9 -3.5 -58t-3.5 -75q0 -79 14 -134q9 -33 20 -38q12 0 18 13q22 57 22 158z" />
    <glyph glyph-name="paragraph" unicode="&#xb6;" horiz-adv-x="491" 
d="M19 492v2v24q0 30 15 75q21 60 65 81.5t113 21.5q26 0 81.5 -3.5t82.5 -3.5q5 0 16.5 0.5t17.5 0.5q46 0 52 -21q8 -27 8 -83q0 -15 -1 -40t-1 -32v-39q0 -98 -2 -230q-2 -131 -17 -190q-11 -45 -55 -45q-34 0 -45.5 25.5t-11.5 72.5q0 18 1 55.5t1 56.5v335
q0 19 -6 25.5t-24 6.5q-15 0 -20.5 -4.5t-5.5 -22.5q0 -11 1.5 -33.5t1.5 -26.5q1 -25 6 -113.5t5 -140.5q0 -13 0.5 -40.5t0.5 -41.5q0 -36 -2.5 -62t-11 -53t-27 -41.5t-47.5 -14.5q-18 0 -29.5 10.5t-16 31t-6 37t-1.5 41.5q0 21 1.5 61t1.5 60q0 4 -0.5 15t-0.5 15
q-3 3 -9 7t-8 5q-31 15 -53 45q-2 3 -14 18t-14.5 18.5t-11 16.5t-11 19t-8 19t-7 23.5t-3 25t-1.5 31.5z" />
    <glyph glyph-name="periodcentered" unicode="&#xb7;" horiz-adv-x="188" 
d="M87 236q-28 0 -46 14t-18 39q0 61 43 92q9 8 26 8q31 0 51.5 -19.5t20.5 -50.5q0 -29 -12 -46q-25 -37 -65 -37z" />
    <glyph glyph-name="cedilla" unicode="&#xb8;" horiz-adv-x="198" 
d="M144 -42q-42 -72 -73 -72q-7 0 -10 1q-37 13 -37 44q0 23 20 56q10 16 16 25.5t14.5 20.5t17.5 25q19 29 39 29q17 0 29.5 -18t12.5 -41q0 -13 -4 -21q-8 -19 -25 -49z" />
    <glyph glyph-name="uni00B9" unicode="&#xb9;" horiz-adv-x="168" 
d="M147 387q0 -25 -13 -35.5t-46 -10.5h-14q-26 0 -38.5 5t-12.5 23q0 52 36 58q4 112 4 168q0 11 -8 15q-2 1 -8.5 3t-9 3t-7 3.5t-6 5.5t-3 8t-1.5 11q0 19 9.5 32.5t25.5 14.5q5 1 16 1q31 0 41.5 -15t10.5 -46q0 -11 -1.5 -40t-1.5 -47q0 -20 -2.5 -59.5t-2.5 -59.5
q31 -7 32 -24v-14z" />
    <glyph glyph-name="ordmasculine" unicode="&#xba;" horiz-adv-x="232" 
d="M103 384q-26 0 -47.5 15t-25.5 37q-10 45 -10 82q0 22 7 69q8 54 29 78.5t74 24.5q40 0 60 -30.5t20 -77.5q0 -17 0.5 -42t0.5 -36q0 -61 -24.5 -90.5t-83.5 -29.5zM119 482q9 0 15.5 21.5t6.5 47.5q0 38 -18 38q-30 0 -30 -53q0 -21 7.5 -37.5t18.5 -16.5z" />
    <glyph glyph-name="guillemotright" unicode="&#xbb;" horiz-adv-x="392" 
d="M91 198q-23 0 -37 11.5t-14 26.5q0 20 18 36.5t40.5 30.5t28.5 24q0 6 -11 12.5t-28.5 14.5t-25.5 14q-15 11 -15 36q0 21 10 37.5t26 16.5q26 0 53 -27q2 -2 16 -15t24 -23.5t23 -25t20 -26t7 -19.5v-4q-5 -13 -29 -40.5t-38 -38.5q-2 -2 -13 -11t-17.5 -14.5
t-17.5 -10.5t-20 -5zM202 431q0 15 13 26t37 11q9 0 21 -6.5t20.5 -13.5t19.5 -17t14 -12q24 -19 38 -57q5 -12 5 -30q0 -23 -11 -41q-19 -29 -55 -65q-50 -54 -76 -54q-16 0 -25.5 16t-9.5 37q0 27 15 38q75 54 76 69q-6 10 -33 33.5t-36 33.5q-13 14 -13 32z" />
    <glyph glyph-name="onequarter" unicode="&#xbc;" horiz-adv-x="433" 
d="M146 387q0 -25 -13 -35.5t-46 -10.5h-14q-26 0 -38.5 5t-12.5 23q0 52 36 58q4 112 4 168q0 11 -8 15q-2 1 -8.5 3t-9 3t-7 3.5t-6 5.5t-3 8t-1.5 11q0 19 9.5 32.5t25.5 14.5q5 1 16 1q31 0 41.5 -15t10.5 -46q0 -11 -1.5 -40t-1.5 -47q0 -20 -2.5 -59.5t-2.5 -59.5
q31 -7 32 -24v-14zM322 249v-40q0 -12 6 -12q17 0 18 11q1 15 1 48q0 90 29 90q37 0 37 -78q0 -17 -2.5 -45t-2.5 -43q0 -16 1.5 -44t1.5 -43q0 -88 -35 -88q-18 0 -23 6t-7 26q-1 10 -1.5 39.5t-2.5 46.5q0 3 -1 4q-6 0 -18.5 -2.5t-18.5 -2.5q-31 0 -39.5 16t-8.5 48
q0 2 0.5 6.5t0.5 6.5v20q0 5 -0.5 16.5t-0.5 17.5q0 29 5 47q4 14 6 20.5t10 14.5t20 8q29 0 29 -40q0 -8 -2 -23t-2 -21v-10zM124 67q-26 -52 -53 -67q-10 -5 -18 -5q-18 0 -18 23q0 13 4 25q12 40 29 83t43 102t35 80l33 77t33 76q2 5 10.5 26t11.5 27.5t11 26t12.5 28
t12 24.5t13 26t12.5 22t14 22t14 18q11 14 24 14q10 0 17.5 -8.5t7.5 -20.5v-8q-3 -20 -31 -92q-131 -324 -217 -499z" />
    <glyph glyph-name="onehalf" unicode="&#xbd;" horiz-adv-x="412" 
d="M325 -6q-22 0 -35 1.5t-25 10t-12 23.5q0 6 6 24q8 19 25 53t29.5 62t16.5 52q5 23 5 37q0 17 -10 19q-10 0 -16 -11t-7 -24t-12 -22t-23 -9q-16 0 -16 29q0 28 11 50q9 20 31 37t44 17q23 0 41 -25q4 -5 8 -27q3 -14 3 -31q0 -32 -9 -66q-4 -15 -49 -127q6 1 15 1
q30 0 39 -13q7 -10 7 -22q0 -23 -17.5 -31t-49.5 -8zM146 387q0 -25 -13 -35.5t-46 -10.5h-14q-26 0 -38.5 5t-12.5 23q0 52 36 58q4 112 4 168q0 11 -8 15q-2 1 -8.5 3t-9 3t-7 3.5t-6 5.5t-3 8t-1.5 11q0 19 9.5 32.5t25.5 14.5q5 1 16 1q31 0 41.5 -15t10.5 -46
q0 -11 -1.5 -40t-1.5 -47q0 -20 -2.5 -59.5t-2.5 -59.5q31 -7 32 -24v-14zM124 67q-26 -52 -53 -67q-10 -5 -18 -5q-18 0 -18 23q0 13 4 25q12 40 29 83t43 102t35 80l33 77t33 76q2 5 10.5 26t11.5 27.5t11 26t12.5 28t12 24.5t13 26t12.5 22t14 22t14 18q11 14 24 14
q10 0 17.5 -8.5t7.5 -20.5v-8q-3 -20 -31 -92q-131 -324 -217 -499z" />
    <glyph glyph-name="threequarters" unicode="&#xbe;" horiz-adv-x="432" 
d="M322 249v-40q0 -12 6 -12q17 0 18 11q1 15 1 48q0 90 29 90q36 0 36 -78q0 -17 -2 -45t-2 -43q0 -16 1.5 -44t1.5 -43q0 -88 -35 -88q-18 0 -23 6t-7 26q-1 10 -1.5 39.5t-2.5 46.5q0 3 -1 4q-6 0 -18.5 -2.5t-18.5 -2.5q-31 0 -39.5 16t-8.5 48v13v20v34q0 29 5 47
q4 14 6 20.5t10 14.5t20 8q29 0 29 -40q0 -8 -2 -23t-2 -21v-10zM88 687q33 0 49.5 -31t16.5 -71q0 -46 -20 -66q8 -9 17.5 -34t9.5 -46q0 -22 -11.5 -49t-23.5 -36q-19 -15 -48 -15q-30 0 -44.5 22.5t-14.5 56.5q0 52 27 52q14 0 24 -10.5t10 -26.5q0 -5 -2.5 -13t-2.5 -11
q0 -9 5 -10q18 5 18 38q0 32 -10 43q-5 6 -25.5 11t-20.5 26q0 6 0.5 9.5t2 6.5t2 4.5t4 2.5t5 1t6 1t7.5 1q13 2 23 17.5t10 33.5q0 9 -3.5 20t-10.5 11q-4 0 -7 -10l-3 -12t-3 -11.5t-3 -9.5t-4 -9t-5 -6t-6.5 -4.5t-8.5 -1.5q-17 0 -21.5 13.5t-4.5 38.5q0 30 19.5 52
t46.5 22zM124 67q-26 -52 -53 -67q-10 -5 -18 -5q-18 0 -18 23q0 13 4 25q12 40 29 83t43 102t35 80l33 77t32 76q71 172 112 220q11 14 24 14q10 0 17.5 -8.5t7.5 -20.5q0 -1 -0.5 -4t-0.5 -4q-4 -25 -30 -92q-131 -324 -217 -499z" />
    <glyph glyph-name="questiondown" unicode="&#xbf;" horiz-adv-x="406" 
d="M285 400q-3 -39 -19 -71t-34.5 -49t-34 -39.5t-17.5 -45.5v-11q0 -62 36 -62q19 0 28.5 15.5t11.5 34t15 33.5t39 15t43.5 -25t17.5 -55v-6q-5 -72 -51.5 -118.5t-117.5 -46.5q-88 0 -129 51t-41 156q0 27 5 48t20 45t25.5 37.5t41 48.5t45.5 53q17 21 33.5 49t26 43.5
t14.5 15.5q8 0 25 -40t17 -70v-6zM179 649q3 43 25 64.5t43 21.5q70 0 70 -70q0 -8 -1 -12q-3 -48 -21 -72.5t-58 -24.5q-59 0 -59 79q0 9 1 14z" />
    <glyph glyph-name="Agrave" unicode="&#xc0;" 
d="M247 756q0 -35 -48 -35q-19 0 -53 15q-34 13 -52 30t-18 50q0 35 40 35q12 0 30 -8q58 -27 79 -45q22 -20 22 -42zM47 -9q-44 0 -44 55l7 70q6 56 15 107t23 119t19 95q5 25 16 68.5t15 62.5q5 26 10.5 44t16.5 41t29.5 35t43.5 12q47 0 67 -50q16 -41 27.5 -104.5
t15.5 -104.5t9.5 -127.5t6.5 -101.5q5 -58 5 -96q0 -120 -49 -120q-23 0 -37.5 16t-19 33t-9.5 45q0 2 -0.5 3.5t-0.5 3.5q-1 8 -4.5 37.5t-6.5 42.5h-5q-4 0 -22 1t-27 1q-22 0 -22 -5q-5 -50 -18 -97q-12 -43 -24 -64q-12 -22 -37 -22zM186 471q-12 0 -20 -40
q-10 -69 -12 -97q0 -12 2 -13t9 -2q33 -7 38 -7q4 0 4 3q0 35 -3 65q-9 91 -18 91z" />
    <glyph glyph-name="Aacute" unicode="&#xc1;" 
d="M199 721q-43 0 -43 31q0 11 3 20.5t10.5 18t13.5 14t18.5 12.5t18.5 10t19.5 9t16.5 7q16 8 33 8q37 0 37 -37q0 -22 -11.5 -38t-24 -23.5t-34.5 -16.5q-34 -15 -57 -15zM47 -9q-44 0 -44 55l7 70q6 56 15 107t23 119t19 95q5 25 16 68.5t15 62.5q5 26 10.5 44t16.5 41
t29.5 35t43.5 12q47 0 67 -50q16 -41 27.5 -104.5t15.5 -104.5t9.5 -127.5t6.5 -101.5q5 -58 5 -96q0 -120 -49 -120q-23 0 -37.5 16t-19 33t-9.5 45q0 2 -0.5 3.5t-0.5 3.5q-1 8 -4.5 37.5t-6.5 42.5h-5q-4 0 -22 1t-27 1q-22 0 -22 -5q-5 -50 -18 -97q-12 -43 -24 -64
q-12 -22 -37 -22zM186 471q-12 0 -20 -40q-10 -69 -12 -97q0 -12 2 -13t9 -2q33 -7 38 -7q4 0 4 3q0 35 -3 65q-9 91 -18 91z" />
    <glyph glyph-name="Acircumflex" unicode="&#xc2;" 
d="M292 745q0 -14 -10.5 -22.5t-26.5 -8.5q-13 0 -23.5 8.5t-20 22.5t-13.5 18q-4 -9 -12 -23q-23 -28 -41 -28q-35 0 -35 37q0 9 1.5 17.5t3 14t5.5 13.5t6 11.5t8.5 11t8 9.5t9.5 10l9 9q19 21 46 21q29 0 57 -43t28 -78zM47 -9q-44 0 -44 55l7 70q6 56 15 107t23 119
t19 95q5 25 16 68.5t15 62.5q5 26 10.5 44t16.5 41t29.5 35t43.5 12q47 0 67 -50q16 -41 27.5 -104.5t15.5 -104.5t9.5 -127.5t6.5 -101.5q5 -58 5 -96q0 -120 -49 -120q-23 0 -37.5 16t-19 33t-9.5 45q0 2 -0.5 3.5t-0.5 3.5q-1 8 -4.5 37.5t-6.5 42.5h-5q-4 0 -22 1t-27 1
q-22 0 -22 -5q-5 -50 -18 -97q-12 -43 -24 -64q-12 -22 -37 -22zM186 471q-12 0 -20 -40q-10 -69 -12 -97q0 -12 2 -13t9 -2q33 -7 38 -7q4 0 4 3q0 35 -3 65q-9 91 -18 91z" />
    <glyph glyph-name="Atilde" unicode="&#xc3;" 
d="M160 831q7 0 21 -2.5t22 -2.5q10 0 17 2t15 5.5t14 5.5q4 1 11 1q27 0 27 -34q0 -24 -14.5 -43t-38.5 -19q-9 0 -16.5 0.5t-16.5 0.5q-10 0 -15 -1q-9 -2 -19 -9t-13 -8q-13 -6 -29 -6q-26 0 -26 30q0 29 17 54.5t44 25.5zM47 -9q-44 0 -44 55l7 70q6 56 15 107t23 119
t19 95q5 25 16 68.5t15 62.5q5 26 10.5 44t16.5 41t29.5 35t43.5 12q47 0 67 -50q16 -41 27.5 -104.5t15.5 -104.5t9.5 -127.5t6.5 -101.5q5 -58 5 -96q0 -120 -49 -120q-23 0 -37.5 16t-19 33t-9.5 45q0 2 -0.5 3.5t-0.5 3.5q-1 8 -4.5 37.5t-6.5 42.5h-5q-4 0 -22 1t-27 1
q-22 0 -22 -5q-5 -50 -18 -97q-12 -43 -24 -64q-12 -22 -37 -22zM186 471q-12 0 -20 -40q-10 -69 -12 -97q0 -12 2 -13t9 -2q33 -7 38 -7q4 0 4 3q0 35 -3 65q-9 91 -18 91z" />
    <glyph glyph-name="Adieresis" unicode="&#xc4;" 
d="M122 757q0 47 29 47q14 0 28 -8.5t14 -21.5q0 -20 -14 -35t-32 -15q-25 0 -25 33zM236 721q-12 0 -21.5 8.5t-9.5 20.5q0 25 20 38q20 11 24 11q14 0 23 -8.5t9 -21.5q0 -48 -45 -48zM47 -9q-44 0 -44 55l7 70q6 56 15 107t23 119t19 95q5 25 16 68.5t15 62.5
q5 26 10.5 44t16.5 41t29.5 35t43.5 12q47 0 67 -50q16 -41 27.5 -104.5t15.5 -104.5t9.5 -127.5t6.5 -101.5q5 -58 5 -96q0 -120 -49 -120q-23 0 -37.5 16t-19 33t-9.5 45q0 2 -0.5 3.5t-0.5 3.5q-1 8 -4.5 37.5t-6.5 42.5h-5q-4 0 -22 1t-27 1q-22 0 -22 -5
q-5 -50 -18 -97q-12 -43 -24 -64q-12 -22 -37 -22zM186 471q-12 0 -20 -40q-10 -69 -12 -97q0 -12 2 -13t9 -2q33 -7 38 -7q4 0 4 3q0 35 -3 65q-9 91 -18 91z" />
    <glyph glyph-name="Aring" unicode="&#xc5;" 
d="M209 852q58 0 58 -72v-6q0 -67 -26 -88q15 -12 24 -36q16 -41 27.5 -104.5t15.5 -104.5t9.5 -127.5t6.5 -101.5q5 -58 5 -96q0 -120 -49 -120q-23 0 -37.5 16t-19 33t-9.5 45q0 2 -0.5 3.5t-0.5 3.5q-1 8 -4.5 37.5t-6.5 42.5h-5q-4 0 -22 1t-27 1q-22 0 -22 -5
q-5 -50 -18 -97q-12 -43 -24 -64q-12 -22 -37 -22q-44 0 -44 55l7 70q6 56 15 107t23 119t19 95q5 25 16 68.5t15 62.5q18 89 53 116q-22 19 -22 66q0 15 4 34q6 37 21.5 52.5t54.5 15.5zM201 728q16 0 16 39q0 28 -14 28q-10 -1 -15.5 -12.5t-5.5 -26.5q0 -28 19 -28z
M186 471q-12 0 -20 -40q-10 -69 -12 -97q0 -12 2 -13t9 -2q33 -7 38 -7q4 0 4 3q0 35 -3 65q-9 91 -18 91z" />
    <glyph glyph-name="AE" unicode="&#xc6;" horiz-adv-x="483" 
d="M203 422q0 49 -19 49q-12 0 -20 -40q-12 -74 -12 -109q0 -5 25 -5q4 0 13 -2.5t11 -2.5q4 0 4 3q0 11 -1.5 33t-1.5 32q0 8 0.5 21.5t0.5 20.5zM446 72q0 -74 -127 -74q-61 0 -79 18.5t-29 80.5q-1 8 -4.5 37.5t-6.5 42.5h-5q-4 0 -22 1t-27 1q-22 0 -22 -5
q-5 -44 -19 -97q-13 -46 -23 -64q-12 -22 -37 -22q-44 0 -44 55l7 70q6 56 15 107t23 119t19 95q5 25 16 68.5t15 62.5q5 26 10.5 44t16.5 41t29.5 35t43.5 12q47 0 66 -47q40 20 76 20h1h37q93 0 93 -61q0 -56 -47 -64q-14 -2 -33 -2h-19q-8 0 -10 -3t-2 -12v-3v-57v-20
v-15q0 -9 0.5 -14t1 -8.5t4.5 -5t5.5 -2t10.5 -1.5t14 -2q32 -5 49 -19t17 -43q0 -36 -22 -55t-59 -30q-7 -2 -16 -3t-12 -2t-6 -6.5t-3 -17.5v-21q0 -35 2 -51q2 -8 4 -9q3 -1 28 -5t34 -11q36 -28 36 -58z" />
    <glyph glyph-name="Ccedilla" unicode="&#xc7;" horiz-adv-x="360" 
d="M183 -59q-42 -72 -73 -72q-7 0 -10 1q-38 14 -38 44q0 21 21 55q11 21 26 39q-90 55 -90 287q0 80 7 140t25.5 118.5t58 92t97.5 38.5h9q30 0 61 -22t47 -48q22 -38 22 -136q0 -95 -63 -95q-15 0 -26.5 3.5t-18.5 13t-11.5 17t-6 24t-2.5 25.5t-1 30v29q-2 40 -13 40
q-31 0 -47 -98t-16 -205v-28q0 -59 18 -68q15 0 25 14.5t14 32t14.5 32t27.5 14.5q89 0 89 -77q0 -13 -12 -61l-1 -1q-9 -28 -20 -43q-3 -4 -11.5 -15.5t-12.5 -16.5t-12 -14.5t-14.5 -14.5t-16 -10.5t-19.5 -8.5q0 -3 -2 -7q-8 -19 -25 -49z" />
    <glyph glyph-name="Egrave" unicode="&#xc8;" horiz-adv-x="293" 
d="M221 727q0 -35 -48 -35q-15 0 -52 16q-23 9 -35.5 16t-24 23.5t-11.5 39.5q0 35 40 35q13 0 31 -8q58 -27 79 -45q21 -19 21 -42zM181 546q-13 0 -13 -56q0 -13 0.5 -32t0.5 -22q0 -9 0.5 -14t1 -8.5t4.5 -5t6 -2t11 -1.5t14 -2q32 -5 48 -18.5t16 -43.5q0 -19 -5.5 -32
t-20 -21.5t-23.5 -12t-31 -9.5q-7 -2 -15.5 -2.5t-11.5 -1.5t-6 -6.5t-3 -17.5v-32q0 -35 2 -51q2 -8 4 -9q11 -3 31 -7t32 -7t25 -9.5t19 -19t6 -31.5q0 -74 -127 -74q-65 0 -86 17q-24 21 -32 54.5t-8 86.5q0 12 1 34t1 34v15q0 234 13 356q5 43 41 59q44 19 74 19h1
q5 0 17.5 0.5t18.5 0.5q93 0 93 -62q0 -56 -47 -64q-14 -2 -32 -2h-20z" />
    <glyph glyph-name="Eacute" unicode="&#xc9;" horiz-adv-x="293" 
d="M112 696q-43 0 -43 31q0 11 3 20.5t10.5 18t13.5 14t18.5 12.5t18.5 10t19.5 9t16.5 7q16 8 33 8q37 0 37 -36q0 -22 -11.5 -38t-24 -23.5t-34.5 -16.5q-36 -16 -57 -16zM181 546q-13 0 -13 -56q0 -13 0.5 -32t0.5 -22q0 -9 0.5 -14t1 -8.5t4.5 -5t6 -2t11 -1.5t14 -2
q32 -5 48 -18.5t16 -43.5q0 -19 -5.5 -32t-20 -21.5t-23.5 -12t-31 -9.5q-7 -2 -15.5 -2.5t-11.5 -1.5t-6 -6.5t-3 -17.5v-32q0 -35 2 -51q2 -8 4 -9q11 -3 31 -7t32 -7t25 -9.5t19 -19t6 -31.5q0 -74 -127 -74q-65 0 -86 17q-24 21 -32 54.5t-8 86.5q0 12 1 34t1 34v15
q0 234 13 356q5 43 41 59q44 19 74 19h1q5 0 17.5 0.5t18.5 0.5q93 0 93 -62q0 -56 -47 -64q-14 -2 -32 -2h-20z" />
    <glyph glyph-name="Ecircumflex" unicode="&#xca;" horiz-adv-x="293" 
d="M253 725q0 -14 -10.5 -23t-26.5 -9q-13 0 -23.5 8.5t-20 22.5t-13.5 18q-2 -5 -12 -22q-24 -29 -41 -29q-35 0 -35 37q0 9 1.5 17.5t3 14t5.5 13.5t6 11.5t8.5 11t8 9.5t9.5 10l9 9q20 22 46 22q29 0 57 -43t28 -78zM181 546q-13 0 -13 -56q0 -13 0.5 -32t0.5 -22
q0 -9 0.5 -14t1 -8.5t4.5 -5t6 -2t11 -1.5t14 -2q32 -5 48 -18.5t16 -43.5q0 -19 -5.5 -32t-20 -21.5t-23.5 -12t-31 -9.5q-7 -2 -15.5 -2.5t-11.5 -1.5t-6 -6.5t-3 -17.5v-32q0 -35 2 -51q2 -8 4 -9q11 -3 31 -7t32 -7t25 -9.5t19 -19t6 -31.5q0 -74 -127 -74q-65 0 -86 17
q-24 21 -32 54.5t-8 86.5q0 12 1 34t1 34v15q0 234 13 356q5 43 41 59q44 19 74 19h1q5 0 17.5 0.5t18.5 0.5q93 0 93 -62q0 -56 -47 -64q-14 -2 -32 -2h-20z" />
    <glyph glyph-name="Edieresis" unicode="&#xcb;" horiz-adv-x="293" 
d="M74 728q0 47 28 47q14 0 28 -8.5t14 -21.5q0 -21 -13.5 -35.5t-31.5 -14.5q-25 0 -25 33zM187 692q-12 0 -21 8.5t-9 20.5q0 26 20 39q18 10 24 10q13 0 22 -8.5t9 -21.5q0 -48 -45 -48zM181 546q-13 0 -13 -56q0 -13 0.5 -32t0.5 -22q0 -9 0.5 -14t1 -8.5t4.5 -5t6 -2
t11 -1.5t14 -2q32 -5 48 -18.5t16 -43.5q0 -19 -5.5 -32t-20 -21.5t-23.5 -12t-31 -9.5q-7 -2 -15.5 -2.5t-11.5 -1.5t-6 -6.5t-3 -17.5v-32q0 -35 2 -51q2 -8 4 -9q11 -3 31 -7t32 -7t25 -9.5t19 -19t6 -31.5q0 -74 -127 -74q-65 0 -86 17q-24 21 -32 54.5t-8 86.5
q0 12 1 34t1 34v15q0 234 13 356q5 43 41 59q44 19 74 19h1q5 0 17.5 0.5t18.5 0.5q93 0 93 -62q0 -56 -47 -64q-14 -2 -32 -2h-20z" />
    <glyph glyph-name="Igrave" unicode="&#xcc;" horiz-adv-x="177" 
d="M158 748q0 -35 -48 -35q-19 0 -53 15q-34 13 -52 30t-18 50q0 35 40 35q12 0 30 -8q58 -27 79 -45q22 -20 22 -42zM94 8q-70 0 -74 90v15q0 14 1.5 41.5t1.5 40.5v2v22v22v25v25q0 119 2 170q4 100 10 152q7 53 28 69q7 6 22 6q37 0 50.5 -28.5t15.5 -77.5q1 -29 1 -90
v-90q0 -63 1 -93q2 -32 2 -101v-23v-12v-19v-18q-2 -128 -61 -128z" />
    <glyph glyph-name="Iacute" unicode="&#xcd;" horiz-adv-x="177" 
d="M95 713q-43 0 -43 30q0 11 3 20.5t11 18t14 14.5t18.5 12.5t18 9.5t20 9.5t16.5 7.5q16 8 32 8q37 0 37 -37q0 -17 -5.5 -30t-16.5 -22t-21 -14.5t-26 -11.5q-34 -15 -58 -15zM94 8q-70 0 -74 90v15q0 14 1.5 41.5t1.5 40.5v2v22v22v25v25q0 119 2 170q4 100 10 152
q7 53 28 69q7 6 22 6q37 0 50.5 -28.5t15.5 -77.5q1 -29 1 -90v-90q0 -63 1 -93q2 -32 2 -101v-23v-12v-19v-18q-2 -128 -61 -128z" />
    <glyph glyph-name="Icircumflex" unicode="&#xce;" horiz-adv-x="177" 
d="M188 731q0 -14 -10.5 -23t-26.5 -9q-13 0 -23.5 8.5t-20.5 23.5t-13 18q-2 -3 -5.5 -11t-6.5 -12q-24 -29 -40 -29q-36 0 -36 37q0 7 1 14t2 12t3.5 11t4 10t5.5 10t5.5 8.5t7 8l7 7t7.5 8t7 7.5q20 22 46 22q29 0 57.5 -43t28.5 -78zM94 8q-70 0 -74 90v15
q0 14 1.5 41.5t1.5 40.5v2v22v22v25v25q0 119 2 170q4 100 10 152q7 53 28 69q7 6 22 6q37 0 50.5 -28.5t15.5 -77.5q1 -29 1 -90v-90q0 -63 1 -93q2 -32 2 -101v-23v-12v-19v-18q-2 -128 -61 -128z" />
    <glyph glyph-name="Idieresis" unicode="&#xcf;" horiz-adv-x="177" 
d="M24 749q0 47 28 47q14 0 28 -8.5t14 -21.5q0 -21 -13.5 -35.5t-31.5 -14.5q-25 0 -25 33zM137 713q-13 0 -22 8t-9 20q0 25 21 39q20 11 24 11q13 0 22 -8.5t9 -21.5q0 -48 -45 -48zM94 8q-70 0 -74 90v15q0 14 1.5 41.5t1.5 40.5v2v22v22v25v25q0 119 2 170
q4 100 10 152q7 53 28 69q7 6 22 6q37 0 50.5 -28.5t15.5 -77.5q1 -29 1 -90v-90q0 -63 1 -93q2 -32 2 -101v-23v-12v-19v-18q-2 -128 -61 -128z" />
    <glyph glyph-name="Eth" unicode="&#xd0;" horiz-adv-x="380" 
d="M238 444q0 4 0.5 15.5t0.5 18.5q0 56 -21 67q-10 4 -19 4q-10 0 -13 -2q0 -14 -2 -54.5t-3 -54.5q0 -16 -3 -65q44 -3 44 -34q0 -18 -14.5 -35.5t-33.5 -21.5q-1 -32 -1 -89q0 -61 5 -64q2 -1 5 -1q18 0 29 40.5t15 79.5q2 22 5 61l4 52q1 16 1.5 45t0.5 38zM214 697
q34 0 59.5 -11.5t41 -36.5t25 -49t13 -65t4.5 -68t1 -73q0 -234 -84 -335q-18 -23 -58 -46.5t-76 -23.5q-22 0 -42 10t-23 27q-3 18 -3 37v32q-1 41 -1 128v58q-44 7 -49 30l-3 18q0 42 53 47q1 63 5 163q2 53 6 79q3 20 25 40.5t43 27.5q30 11 63 11z" />
    <glyph glyph-name="Ntilde" unicode="&#xd1;" horiz-adv-x="447" 
d="M205 801q7 0 21 -2.5t22 -2.5q10 0 17 2t15 5t14 5q4 1 11 1q27 0 27 -34q0 -24 -14 -42.5t-38 -18.5q-9 0 -17 0.5t-17 0.5q-10 0 -15 -1q-9 -2 -19 -9.5t-13 -8.5q-13 -6 -29 -6q-26 0 -26 30q0 29 17 55t44 26zM142 338q0 -16 7.5 -87.5t7.5 -115.5v-12q-2 -44 -6 -61
q-10 -56 -46 -56q-15 0 -27 8q-30 18 -39 42q-5 15 -7.5 33.5t-3.5 31t-1.5 37t-0.5 35.5q0 7 -3.5 83t-3.5 115q0 89 9 147q4 30 9 51.5t16 44.5t30.5 35t46.5 12q23 0 40 -8t26 -17t17 -30t10.5 -32.5t8.5 -39.5q27 -136 48 -208q0 -1 2 -3q12 0 12 81q0 26 -1.5 66
t-1.5 42q0 51 8 85q18 69 73 69q30 0 41 -14.5t15 -47.5q3 -30 3 -57q0 -140 -4 -214q0 -9 -1.5 -73.5t-4.5 -99.5q-15 -151 -85 -151q-20 0 -36 11q-34 22 -61 78q-26 53 -53 146t-35 153q-3 -5 -6 -20q-3 -29 -3 -59z" />
    <glyph glyph-name="Ograve" unicode="&#xd2;" horiz-adv-x="338" 
d="M226 748q0 -35 -48 -35q-18 0 -52 15q-22 9 -35 16.5t-24.5 24t-11.5 39.5q0 35 40 35q13 0 31 -8q58 -27 79 -45q21 -20 21 -42zM177 692q139 0 139 -276q0 -46 -4 -112q-7 -111 -24 -179t-64 -102q-19 -14 -54 -14q-82 0 -114 73q-19 43 -29 127q-8 59 -8 112
q0 105 24 225q12 59 45.5 102.5t88.5 43.5zM207 472v14q0 73 -23 73q-9 0 -15 -14q-33 -111 -33 -219q0 -58 10 -104q10 -49 24 -70q4 -4 6 -4q8 0 13 35q15 169 18 258v31z" />
    <glyph glyph-name="Oacute" unicode="&#xd3;" horiz-adv-x="338" 
d="M178 713q-43 0 -43 30q0 11 3 20.5t11 18t14 14.5t18.5 12.5t18 9.5t20 9.5t16.5 7.5q16 8 32 8q37 0 37 -37q0 -17 -5.5 -30t-16.5 -22t-21 -14.5t-26 -11.5q-34 -15 -58 -15zM177 692q139 0 139 -276q0 -46 -4 -112q-7 -111 -24 -179t-64 -102q-19 -14 -54 -14
q-82 0 -114 73q-19 43 -29 127q-8 59 -8 112q0 105 24 225q12 59 45.5 102.5t88.5 43.5zM207 472v14q0 73 -23 73q-9 0 -15 -14q-33 -111 -33 -219q0 -58 10 -104q10 -49 24 -70q4 -4 6 -4q8 0 13 35q15 169 18 258v31z" />
    <glyph glyph-name="Ocircumflex" unicode="&#xd4;" horiz-adv-x="338" 
d="M270 745q0 -14 -10.5 -22.5t-26.5 -8.5q-13 0 -23.5 8.5t-20 22.5t-13.5 18q-8 -17 -11 -23q-23 -28 -41 -28q-36 0 -36 37q0 9 1.5 17.5t3 14t5.5 13.5t6 11.5t8.5 11t8 9.5t9.5 10l9 9q19 21 46 21q29 0 57 -43t28 -78zM177 692q139 0 139 -276q0 -46 -4 -112
q-7 -111 -24 -179t-64 -102q-19 -14 -54 -14q-82 0 -114 73q-19 43 -29 127q-8 59 -8 112q0 105 24 225q12 59 45.5 102.5t88.5 43.5zM207 472v14q0 73 -23 73q-9 0 -15 -14q-33 -111 -33 -219q0 -58 10 -104q10 -49 24 -70q4 -4 6 -4q8 0 13 35q15 169 18 258v31z" />
    <glyph glyph-name="Otilde" unicode="&#xd5;" horiz-adv-x="338" 
d="M145 821q7 0 21 -2.5t22 -2.5q10 0 17 2t15 5t14 5q4 1 12 1q26 0 26 -33q0 -24 -14 -43t-38 -19q-9 0 -17 0.5t-17 0.5t-14 -1q-9 -2 -20 -9t-13 -8q-13 -6 -28 -6q-26 0 -26 29t16.5 55t43.5 26zM177 692q139 0 139 -276q0 -46 -4 -112q-7 -111 -24 -179t-64 -102
q-19 -14 -54 -14q-82 0 -114 73q-19 43 -29 127q-8 59 -8 112q0 105 24 225q12 59 45.5 102.5t88.5 43.5zM207 472v14q0 73 -23 73q-9 0 -15 -14q-33 -111 -33 -219q0 -58 10 -104q10 -49 24 -70q4 -4 6 -4q8 0 13 35q15 169 18 258v31z" />
    <glyph glyph-name="Odieresis" unicode="&#xd6;" horiz-adv-x="338" 
d="M101 749q0 47 29 47q14 0 28 -8.5t14 -21.5q0 -21 -13.5 -35.5t-31.5 -14.5q-26 0 -26 33zM215 713q-13 0 -22 8t-9 20q0 25 21 39q20 11 23 11q14 0 23 -8.5t9 -21.5q0 -48 -45 -48zM177 692q139 0 139 -276q0 -46 -4 -112q-7 -111 -24 -179t-64 -102q-19 -14 -54 -14
q-82 0 -114 73q-19 43 -29 127q-8 59 -8 112q0 105 24 225q12 59 45.5 102.5t88.5 43.5zM207 472v14q0 73 -23 73q-9 0 -15 -14q-33 -111 -33 -219q0 -58 10 -104q10 -49 24 -70q4 -4 6 -4q8 0 13 35q15 169 18 258v31z" />
    <glyph glyph-name="multiply" unicode="&#xd7;" horiz-adv-x="217" 
d="M48 161q-29 0 -29 39q0 22 21 69q3 8 13 27.5t14 27.5q2 2 2 4v1q-4 11 -7 17t-8.5 13.5t-9.5 16.5q-22 44 -22 91q0 35 22 35q26 0 40 -35q21 -56 25 -72q3 12 8 34t10 37t13 28q10 17 22 17q14 0 24 -8.5t10 -20.5q0 -24 -21 -75q-22 -54 -22 -74q0 -10 13 -45t20 -49
q10 -20 10 -29q0 -16 -11 -29t-27 -13q-8 0 -15 7t-11.5 19.5t-7.5 24t-6 25.5t-4 19q0 6 -3 6h-1q0 -1 -14.5 -45t-28.5 -56q-7 -7 -19 -7z" />
    <glyph glyph-name="Oslash" unicode="&#xd8;" horiz-adv-x="338" 
d="M148 208q14 -48 22 -56q4 -4 6 -4q8 0 13 35q3 28 6.5 88t5.5 79q-9 -26 -27.5 -74.5t-25.5 -67.5zM295 590q21 -51 21 -159v-15q0 -46 -4 -112q-7 -111 -24 -179t-64 -102q-19 -14 -54 -14q-7 0 -14.5 1.5t-15.5 5.5t-13.5 7t-14 9t-12 8.5t-11.5 9t-9 7.5
q-19 -33 -29 -39q-9 -6 -15 -6q-5 0 -9 4q-7 7 -7 22q0 9 3 20q2 11 11.5 32.5t11.5 28.5q-10 29 -19 90q-8 59 -8 112q0 105 24 225q12 59 45.5 102.5t88.5 43.5q57 0 80 -53q2 4 5.5 13t6.5 16.5t5 11.5q8 14 24 16h2q16 0 16 -23q0 -2 -0.5 -6.5t-0.5 -7.5
q-2 -16 -20 -69zM207 538q-1 1 -3.5 7t-7 10t-12.5 4q-14 0 -25 -37q-20 -66 -23 -179q6 24 20 58.5t18 47.5q3 12 9 27t13.5 34t10.5 28z" />
    <glyph glyph-name="Ugrave" unicode="&#xd9;" horiz-adv-x="346" 
d="M219 733q0 -35 -48 -35q-15 0 -52 16q-22 9 -35 16.5t-24.5 24t-11.5 39.5q0 34 40 34q13 0 31 -8q58 -27 79 -45q21 -19 21 -42zM202 580q0 48 13.5 74.5t51.5 26.5q61 0 61 -101q0 -16 -0.5 -47.5t-0.5 -45.5q0 -289 -64 -424q-15 -33 -37 -54q-11 -12 -35.5 -21.5
t-44.5 -9.5q-88 0 -115 149q-14 74 -14 199q0 49 1 74q1 26 3 75t2 69q2 72 14 104q15 42 47 42q33 0 45 -19q15 -24 15 -57q0 -18 -7 -126.5t-7 -172.5q0 -155 39 -163q3 0 9 12q25 78 25 318v41q0 10 -0.5 29.5t-0.5 27.5z" />
    <glyph glyph-name="Uacute" unicode="&#xda;" horiz-adv-x="346" 
d="M200 692q-43 0 -43 31q0 11 3 20.5t10.5 18t13.5 14t18.5 12.5t18.5 10t19.5 9t16.5 7q16 8 33 8q37 0 37 -37q0 -22 -11.5 -38t-24 -23t-34.5 -16q-36 -16 -57 -16zM202 580q0 48 13.5 74.5t51.5 26.5q61 0 61 -101q0 -16 -0.5 -47.5t-0.5 -45.5q0 -289 -64 -424
q-15 -33 -37 -54q-11 -12 -35.5 -21.5t-44.5 -9.5q-88 0 -115 149q-14 74 -14 199q0 49 1 74q1 26 3 75t2 69q2 72 14 104q15 42 47 42q33 0 45 -19q15 -24 15 -57q0 -18 -7 -126.5t-7 -172.5q0 -155 39 -163q3 0 9 12q25 78 25 318v41q0 10 -0.5 29.5t-0.5 27.5z" />
    <glyph glyph-name="Ucircumflex" unicode="&#xdb;" horiz-adv-x="346" 
d="M271 733q0 -14 -10.5 -23t-26.5 -9q-13 0 -23.5 9t-20 23t-13.5 18q-7 -17 -11 -23q-24 -29 -41 -29q-36 0 -36 37q0 22 9.5 42.5t16 27.5t25.5 27q19 21 46 21q29 0 57 -43t28 -78zM202 580q0 48 13.5 74.5t51.5 26.5q61 0 61 -101q0 -16 -0.5 -47.5t-0.5 -45.5
q0 -289 -64 -424q-15 -33 -37 -54q-11 -12 -35.5 -21.5t-44.5 -9.5q-88 0 -115 149q-14 74 -14 199q0 49 1 74q1 26 3 75t2 69q2 72 14 104q15 42 47 42q33 0 45 -19q15 -24 15 -57q0 -18 -7 -126.5t-7 -172.5q0 -155 39 -163q3 0 9 12q25 78 25 318v41q0 10 -0.5 29.5
t-0.5 27.5z" />
    <glyph glyph-name="Udieresis" unicode="&#xdc;" horiz-adv-x="346" 
d="M106 749q0 47 29 47q14 0 28 -8.5t14 -21.5q0 -21 -13.5 -35.5t-31.5 -14.5q-26 0 -26 33zM220 713q-13 0 -22 8t-9 20q0 25 21 39q20 11 23 11q14 0 23 -8.5t9 -21.5q0 -48 -45 -48zM202 580q0 48 13.5 74.5t51.5 26.5q61 0 61 -101q0 -16 -0.5 -47.5t-0.5 -45.5
q0 -289 -64 -424q-15 -33 -37 -54q-11 -12 -35.5 -21.5t-44.5 -9.5q-88 0 -115 149q-14 74 -14 199q0 49 1 74q1 26 3 75t2 69q2 72 14 104q15 42 47 42q33 0 45 -19q15 -24 15 -57q0 -18 -7 -126.5t-7 -172.5q0 -155 39 -163q3 0 9 12q25 78 25 318v41q0 10 -0.5 29.5
t-0.5 27.5z" />
    <glyph glyph-name="Yacute" unicode="&#xdd;" horiz-adv-x="316" 
d="M144 700q-43 0 -43 31q0 13 5.5 24.5t11.5 18.5t20.5 16t20 12t24 11t19.5 9q16 8 32 8q37 0 37 -36q0 -17 -5.5 -30t-16.5 -22t-21 -14.5t-26 -11.5q-36 -16 -58 -16zM19 593q0 35 16.5 59t47.5 24q28 0 42 -23q29 -51 38 -112q2 5 14.5 33t18.5 44q8 24 13.5 36t20 26
t34.5 14q23 0 37.5 -13t14.5 -35q0 -17 -5 -34q-10 -38 -24.5 -75.5t-37.5 -87.5t-32 -72q-9 -25 -9 -46q0 -37 4.5 -104t4.5 -103q0 -81 -27 -106q-26 -24 -53 -24q-45 0 -45 69q0 7 0.5 21t0.5 21v14q0 19 1.5 59t1.5 60v19q0 35 -4 70q-4 22 -20 59q-43 98 -52 192
q-1 5 -1 15z" />
    <glyph glyph-name="Thorn" unicode="&#xde;" horiz-adv-x="319" 
d="M19 106v18q0 57 10 264v11q0 25 -0.5 84t-0.5 84q0 61 17 94.5t41 33.5q14 0 27.5 -13t21.5 -37q6 -18 6 -50q0 -20 -1 -30q2 0 7 -0.5t7 -0.5q6 0 17.5 0.5t17.5 0.5q73 0 92 -48q20 -49 20 -111q0 -50 -14 -94q-3 -8 -13.5 -30.5t-15.5 -28.5q-22 -27 -61 -51t-52 -24
h-3q0 -1 -0.5 -8.5t-0.5 -12.5q3 -25 3 -52q0 -67 -25 -86q-12 -19 -27 -19q-29 0 -43 5t-22 23q-8 17 -8 52v26zM189 411q0 46 -33 46q-7 0 -14 -4q-2 -16 -3 -45t-2 -36q0 -13 -0.5 -37t-0.5 -36q10 1 21 14q32 45 32 98z" />
    <glyph glyph-name="germandbls" unicode="&#xdf;" horiz-adv-x="466" 
d="M157 194q0 -27 1.5 -70t1.5 -64q0 -48 -16.5 -65t-45.5 -17q-47 0 -63 25.5t-16 69.5q0 4 0.5 11.5t0.5 11.5q14 288 14 411q0 77 38 136q18 26 56.5 39.5t77.5 13.5q79 0 135 -47.5t56 -121.5q0 -50 -48 -114q-5 -7 -14.5 -18t-13 -17.5t-3.5 -13.5q0 -6 1 -12t4 -11.5
t5.5 -9t8 -9t8.5 -8t11 -9t11 -9.5q27 -23 42.5 -39t31.5 -48t16 -68v-9q-3 -54 -13 -72q-21 -40 -52 -63.5t-89 -23.5q-62 0 -89.5 38.5t-27.5 93.5q0 28 11.5 53t35.5 33q18 6 22 6q23 0 35 -10q7 -5 7 -11q0 -2 0.5 -4t0.5 -3q0 -8 -2.5 -22.5t-2.5 -21.5q0 -27 19 -27h1
q26 2 26 37q0 28 -9.5 47.5t-21.5 28.5t-37 26t-42 32q-47 39 -47 82v1q0 48 41 98q28 30 28 59q0 22 -21 38t-45 16q-20 0 -25 -11t-5 -45v-34q0 -42 1 -138t1 -141z" />
    <glyph glyph-name="agrave" unicode="&#xe0;" horiz-adv-x="384" 
d="M259 746q0 -34 -48 -34q-18 0 -52 15q-22 9 -35 16.5t-24.5 24t-11.5 39.5q0 35 40 35q13 0 31 -8q56 -26 79 -46q21 -20 21 -42zM200 188q-10 0 -15 -2q-22 -10 -29 -37.5t-11 -61.5t-15 -52q-24 -40 -57 -40t-50.5 21t-17.5 54q0 6 2 20q17 118 35 203q9 42 25 126
q4 23 29 124q21 90 67 129q23 19 47 19q8 0 13 -1q29 -3 51.5 -32t34.5 -72.5t17.5 -70t8.5 -54.5q6 -45 37 -374q2 -22 2 -33q0 -64 -65 -64q-28 0 -48.5 20t-20.5 55q0 28 -8 86q-6 37 -32 37zM182 310q10 -4 27 -4q9 0 12 5q2 8 2 25q0 7 -0.5 26t-0.5 30q0 39 -6.5 70
t-15.5 31q-16 0 -24 -53.5t-8 -94.5v-12q0 -17 14 -23z" />
    <glyph glyph-name="aacute" unicode="&#xe1;" horiz-adv-x="384" 
d="M211 712q-43 0 -43 30q0 11 3 20.5t11 18t13.5 14t18.5 13t17.5 10t20 9t16.5 7.5q16 8 33 8q37 0 37 -37q0 -22 -11.5 -38t-24 -23.5t-34.5 -16.5q-34 -15 -57 -15zM200 188q-10 0 -15 -2q-22 -10 -29 -37.5t-11 -61.5t-15 -52q-24 -40 -57 -40t-50.5 21t-17.5 54
q0 6 2 20q17 118 35 203q9 42 25 126q4 23 29 124q21 90 67 129q23 19 47 19q8 0 13 -1q29 -3 51.5 -32t34.5 -72.5t17.5 -70t8.5 -54.5q6 -45 37 -374q2 -22 2 -33q0 -64 -65 -64q-28 0 -48.5 20t-20.5 55q0 28 -8 86q-6 37 -32 37zM182 310q10 -4 27 -4q9 0 12 5q2 8 2 25
q0 7 -0.5 26t-0.5 30q0 39 -6.5 70t-15.5 31q-16 0 -24 -53.5t-8 -94.5v-12q0 -17 14 -23z" />
    <glyph glyph-name="acircumflex" unicode="&#xe2;" horiz-adv-x="384" 
d="M309 739q0 -14 -10.5 -22.5t-26.5 -8.5q-13 0 -23.5 8.5t-20.5 23t-13 17.5q-2 -3 -5.5 -11.5t-6.5 -11.5q-23 -28 -40 -28q-36 0 -36 36q0 12 2.5 22.5t5 17.5t9.5 17t9.5 13.5t12.5 14.5t11 12q19 21 46 21q29 0 57.5 -43t28.5 -78zM200 188q-10 0 -15 -2
q-22 -10 -29 -37.5t-11 -61.5t-15 -52q-24 -40 -57 -40t-50.5 21t-17.5 54q0 6 2 20q17 118 35 203q9 42 25 126q4 23 29 124q21 90 67 129q23 19 47 19q8 0 13 -1q29 -3 51.5 -32t34.5 -72.5t17.5 -70t8.5 -54.5q6 -45 37 -374q2 -22 2 -33q0 -64 -65 -64q-28 0 -48.5 20
t-20.5 55q0 28 -8 86q-6 37 -32 37zM182 310q10 -4 27 -4q9 0 12 5q2 8 2 25q0 7 -0.5 26t-0.5 30q0 39 -6.5 70t-15.5 31q-16 0 -24 -53.5t-8 -94.5v-12q0 -17 14 -23z" />
    <glyph glyph-name="atilde" unicode="&#xe3;" horiz-adv-x="384" 
d="M180 814q7 0 21 -2.5t22 -2.5q10 0 17 2t15 5t14 5q4 1 12 1q26 0 26 -34q0 -24 -14 -42.5t-38 -18.5q-9 0 -17 0.5t-17 0.5t-14 -1q-9 -2 -20 -9t-13 -8q-15 -7 -29 -7q-25 0 -25 30q0 29 16.5 55t43.5 26zM200 188q-10 0 -15 -2q-22 -10 -29 -37.5t-11 -61.5t-15 -52
q-24 -40 -57 -40t-50.5 21t-17.5 54q0 6 2 20q17 118 35 203q9 42 25 126q4 23 29 124q21 90 67 129q23 19 47 19q8 0 13 -1q29 -3 51.5 -32t34.5 -72.5t17.5 -70t8.5 -54.5q6 -45 37 -374q2 -22 2 -33q0 -64 -65 -64q-28 0 -48.5 20t-20.5 55q0 28 -8 86q-6 37 -32 37z
M182 310q10 -4 27 -4q9 0 12 5q2 8 2 25q0 7 -0.5 26t-0.5 30q0 39 -6.5 70t-15.5 31q-16 0 -24 -53.5t-8 -94.5v-12q0 -17 14 -23z" />
    <glyph glyph-name="adieresis" unicode="&#xe4;" horiz-adv-x="384" 
d="M139 745q0 48 29 48q14 0 28 -8.5t14 -21.5q0 -21 -13.5 -35.5t-31.5 -14.5q-26 0 -26 32zM253 710q-13 0 -22 8t-9 20q0 25 21 39q18 10 23 10q14 0 23 -8t9 -21q0 -48 -45 -48zM200 188q-10 0 -15 -2q-22 -10 -29 -37.5t-11 -61.5t-15 -52q-24 -40 -57 -40t-50.5 21
t-17.5 54q0 6 2 20q17 118 35 203q9 42 25 126q4 23 29 124q21 90 67 129q23 19 47 19q8 0 13 -1q29 -3 51.5 -32t34.5 -72.5t17.5 -70t8.5 -54.5q6 -45 37 -374q2 -22 2 -33q0 -64 -65 -64q-28 0 -48.5 20t-20.5 55q0 28 -8 86q-6 37 -32 37zM182 310q10 -4 27 -4q9 0 12 5
q2 8 2 25q0 7 -0.5 26t-0.5 30q0 39 -6.5 70t-15.5 31q-16 0 -24 -53.5t-8 -94.5v-12q0 -17 14 -23z" />
    <glyph glyph-name="aring" unicode="&#xe5;" horiz-adv-x="384" 
d="M222 847q59 0 59 -72v-6q0 -70 -29 -90q64 -45 83 -218q6 -45 37 -374q2 -22 2 -33q0 -64 -65 -64q-28 0 -48.5 20t-20.5 55q0 28 -8 86q-6 37 -32 37q-10 0 -15 -2q-22 -10 -29 -37.5t-11 -61.5t-15 -52q-24 -40 -57 -40t-50.5 21t-17.5 54q0 6 2 20q17 118 35 203
q9 42 25 126q4 23 29 124q21 90 67 129q1 0 2.5 2t2.5 2q-26 17 -26 68q0 16 4 35q6 37 21.5 52.5t54.5 15.5zM214 723q16 0 16 39q0 28 -14 28q-20 -1 -20 -39q0 -28 18 -28zM182 310q10 -4 27 -4q9 0 12 5q2 8 2 25q0 7 -0.5 26t-0.5 30q0 39 -6.5 70t-15.5 31
q-16 0 -24 -53.5t-8 -94.5v-12q0 -17 14 -23z" />
    <glyph glyph-name="ae" unicode="&#xe6;" horiz-adv-x="507" 
d="M181 317q11 -11 31 -11q10 0 12 5q6 18 6 49q0 4 -3 64q0 2 -0.5 13.5t-1 19t-2 17t-4.5 14.5t-7 5q-6 0 -12.5 -13t-8.5 -27q-1 -10 -6 -47.5t-5 -60.5q0 -19 1 -28zM278 668q22 25 102 25q70 0 86 -13q20 -17 20 -50q0 -18 -8 -34q-20 -38 -54 -40h-11h-15
q-13 0 -25 -2q-3 -12 -3 -29v-31q-2 -24 -2 -48q0 -35 9 -40q9 -3 29.5 -5.5t35.5 -6.5t21 -14q8 -11 8 -35q0 -27 -11.5 -48t-31.5 -22q-3 0 -16.5 -0.5t-21.5 -0.5q-18 0 -21 -18q1 -14 11 -120q1 -1 3 -1q66 -7 81 -24q10 -10 10 -38q0 -22 -10.5 -43t-25.5 -28
q-34 -14 -81 -14q-40 0 -70.5 11t-36.5 32q-1 1 -3 16q-4 35 -4 113q-9 28 -31 28q-9 0 -14 -2q-22 -10 -29.5 -37.5t-11.5 -61.5t-15 -52q-24 -40 -57 -40q-66 0 -66 95q0 32 6 70t17.5 84.5t11.5 48.5q9 42 25 126q1 5 30 124q21 91 66 129q23 19 47 19q33 0 56 -23z" />
    <glyph glyph-name="ccedilla" unicode="&#xe7;" horiz-adv-x="313" 
d="M176 -60q-42 -72 -74 -72q-6 0 -9 1q-38 14 -38 44q0 21 21 55q5 8 12.5 19.5t10.5 16.5q-8 4 -15 11q-42 43 -61 155q-7 39 -8 69q-1 25 -1 67q0 74 14 155q7 37 17.5 72.5t27.5 73t43.5 60.5t58.5 23q122 0 126 -113q1 -15 1 -50q0 -55 -14.5 -87.5t-55.5 -32.5
q-42 0 -43 32q0 3 -0.5 8.5t-0.5 7.5v25v15t-1 15q-1 39 -7 39q-9 0 -17 -45q-27 -162 -27 -263v-18q2 -77 28 -77q11 0 11 32q0 3 -0.5 9t-0.5 8v5q0 3 -0.5 9.5t-0.5 10.5v9q0 83 54 83q29 0 47 -16.5t19 -44.5q0 -5 0.5 -16.5t0.5 -17.5q0 -66 -13 -108q-16 -55 -39 -93
q-13 -22 -41 -28q-8 -21 -25 -48z" />
    <glyph glyph-name="egrave" unicode="&#xe8;" horiz-adv-x="287" 
d="M214 749q0 -35 -48 -35q-18 0 -52 15q-22 9 -35 16.5t-24.5 24t-11.5 39.5q0 35 40 35q13 0 31 -8q58 -27 79 -45q21 -19 21 -42zM27 246q0 27 -2 75.5t-2 74.5q0 16 0.5 46.5t0.5 43.5q0 163 53 195q21 12 89 12q70 0 86 -13q19 -16 19 -50q0 -18 -8 -34
q-20 -38 -54 -40h-11h-15q-14 0 -26 -2q-9 -30 -9 -91q0 -50 13 -57q9 -3 29.5 -5.5t35.5 -6.5t21 -14q8 -11 8 -35q0 -27 -11.5 -48t-31.5 -22q-3 0 -16.5 -0.5t-21.5 -0.5q-22 -1 -22 -31v-11v-7q0 -4 -0.5 -11t-0.5 -10q0 -67 17 -69q5 -1 16.5 -2t17.5 -1.5t15.5 -2.5
t15 -4t12 -5t11.5 -7q15 -13 15 -40q0 -22 -9.5 -43t-24.5 -28q-22 -9 -87 -9q-33 0 -50.5 1t-38.5 10t-26 27q-1 1 -3 16q-5 46 -5 119v80z" />
    <glyph glyph-name="eacute" unicode="&#xe9;" horiz-adv-x="287" 
d="M121 703q-43 0 -43 31q0 11 3 20.5t10.5 18t13.5 14t18.5 12.5t18.5 10t19.5 9t16.5 7q18 9 33 9q37 0 37 -37q0 -22 -11.5 -38t-24 -23.5t-34.5 -16.5q-36 -16 -57 -16zM27 246q0 27 -2 75.5t-2 74.5q0 16 0.5 46.5t0.5 43.5q0 163 53 195q21 12 89 12q70 0 86 -13
q19 -16 19 -50q0 -18 -8 -34q-20 -38 -54 -40h-11h-15q-14 0 -26 -2q-9 -30 -9 -91q0 -50 13 -57q9 -3 29.5 -5.5t35.5 -6.5t21 -14q8 -11 8 -35q0 -27 -11.5 -48t-31.5 -22q-3 0 -16.5 -0.5t-21.5 -0.5q-22 -1 -22 -31v-11v-7q0 -4 -0.5 -11t-0.5 -10q0 -67 17 -69
q5 -1 16.5 -2t17.5 -1.5t15.5 -2.5t15 -4t12 -5t11.5 -7q15 -13 15 -40q0 -22 -9.5 -43t-24.5 -28q-22 -9 -87 -9q-33 0 -50.5 1t-38.5 10t-26 27q-1 1 -3 16q-5 46 -5 119v80z" />
    <glyph glyph-name="ecircumflex" unicode="&#xea;" horiz-adv-x="287" 
d="M245 748q0 -14 -10.5 -23t-26.5 -9q-13 0 -23.5 8.5t-20.5 23t-13 17.5q-12 -22 -13 -23q-23 -28 -40 -28q-36 0 -36 37q0 14 2.5 25t9.5 22.5t10.5 16.5t15 17.5t13.5 14.5q19 21 46 21q29 0 57.5 -42.5t28.5 -77.5zM27 246q0 27 -2 75.5t-2 74.5q0 16 0.5 46.5
t0.5 43.5q0 163 53 195q21 12 89 12q70 0 86 -13q19 -16 19 -50q0 -18 -8 -34q-20 -38 -54 -40h-11h-15q-14 0 -26 -2q-9 -30 -9 -91q0 -50 13 -57q9 -3 29.5 -5.5t35.5 -6.5t21 -14q8 -11 8 -35q0 -27 -11.5 -48t-31.5 -22q-3 0 -16.5 -0.5t-21.5 -0.5q-22 -1 -22 -31v-11
v-7q0 -4 -0.5 -11t-0.5 -10q0 -67 17 -69q5 -1 16.5 -2t17.5 -1.5t15.5 -2.5t15 -4t12 -5t11.5 -7q15 -13 15 -40q0 -22 -9.5 -43t-24.5 -28q-22 -9 -87 -9q-33 0 -50.5 1t-38.5 10t-26 27q-1 1 -3 16q-5 46 -5 119v80z" />
    <glyph glyph-name="edieresis" unicode="&#xeb;" horiz-adv-x="287" 
d="M77 750q0 47 28 47q14 0 28 -8.5t14 -21.5q0 -21 -13.5 -35.5t-31.5 -14.5q-25 0 -25 33zM190 714q-12 0 -21 8t-9 20q0 26 20 39q20 11 24 11q14 0 23 -8.5t9 -21.5q0 -23 -12 -35.5t-34 -12.5zM27 246q0 27 -2 75.5t-2 74.5q0 16 0.5 46.5t0.5 43.5q0 163 53 195
q21 12 89 12q70 0 86 -13q19 -16 19 -50q0 -18 -8 -34q-20 -38 -54 -40h-11h-15q-14 0 -26 -2q-9 -30 -9 -91q0 -50 13 -57q9 -3 29.5 -5.5t35.5 -6.5t21 -14q8 -11 8 -35q0 -27 -11.5 -48t-31.5 -22q-3 0 -16.5 -0.5t-21.5 -0.5q-22 -1 -22 -31v-11v-7q0 -4 -0.5 -11
t-0.5 -10q0 -67 17 -69q5 -1 16.5 -2t17.5 -1.5t15.5 -2.5t15 -4t12 -5t11.5 -7q15 -13 15 -40q0 -22 -9.5 -43t-24.5 -28q-22 -9 -87 -9q-33 0 -50.5 1t-38.5 10t-26 27q-1 1 -3 16q-5 46 -5 119v80z" />
    <glyph glyph-name="igrave" unicode="&#xec;" horiz-adv-x="175" 
d="M136 748q0 -35 -48 -35q-18 0 -52 15q-22 9 -35 16.5t-24.5 24t-11.5 39.5q0 35 40 35q13 0 31 -8q58 -27 79 -45q21 -20 21 -42zM154 515v-39q0 -99 -2 -231q-1 -45 -5 -129q0 -8 -0.5 -25t-0.5 -23t-1.5 -18.5t-4 -17.5t-7.5 -12.5t-12 -10.5t-17.5 -5.5t-24.5 -2.5
q-34 0 -45.5 25.5t-11.5 71.5q0 18 1 60.5t1 61.5v179q0 25 -0.5 84t-0.5 84q0 59 19 89t46 30q36 0 54 -52q12 -36 12 -82v-37z" />
    <glyph glyph-name="iacute" unicode="&#xed;" horiz-adv-x="175" 
d="M82 713q-43 0 -43 30q0 11 3 20.5t11 18t13.5 14t18.5 13t17.5 10t20 9t16.5 7.5q16 8 33 8q37 0 37 -37q0 -22 -11.5 -38t-24 -23.5t-34.5 -16.5q-34 -15 -57 -15zM154 515v-39q0 -99 -2 -231q-1 -45 -5 -129q0 -8 -0.5 -25t-0.5 -23t-1.5 -18.5t-4 -17.5t-7.5 -12.5
t-12 -10.5t-17.5 -5.5t-24.5 -2.5q-34 0 -45.5 25.5t-11.5 71.5q0 18 1 60.5t1 61.5v179q0 25 -0.5 84t-0.5 84q0 59 19 89t46 30q36 0 54 -52q12 -36 12 -82v-37z" />
    <glyph glyph-name="icircumflex" unicode="&#xee;" horiz-adv-x="175" 
d="M181 746q0 -14 -10.5 -22.5t-26.5 -8.5q-13 0 -23.5 8.5t-20.5 23t-13 17.5q-2 -3 -5.5 -11.5t-6.5 -11.5q-23 -28 -40 -28q-36 0 -36 37q0 12 2.5 22.5t5 17.5t9 16.5t10 13.5t12.5 13.5t11 12.5q19 21 46 21q29 0 57.5 -43t28.5 -78zM154 515v-39q0 -99 -2 -231
q-1 -45 -5 -129q0 -8 -0.5 -25t-0.5 -23t-1.5 -18.5t-4 -17.5t-7.5 -12.5t-12 -10.5t-17.5 -5.5t-24.5 -2.5q-34 0 -45.5 25.5t-11.5 71.5q0 18 1 60.5t1 61.5v179q0 25 -0.5 84t-0.5 84q0 59 19 89t46 30q36 0 54 -52q12 -36 12 -82v-37z" />
    <glyph glyph-name="idieresis" unicode="&#xef;" horiz-adv-x="175" 
d="M11 749q0 47 29 47q14 0 28 -8.5t14 -21.5q0 -21 -13.5 -35.5t-31.5 -14.5q-26 0 -26 33zM125 713q-13 0 -22 8t-9 20q0 25 21 39q20 11 23 11q14 0 23 -8.5t9 -21.5q0 -48 -45 -48zM154 515v-39q0 -99 -2 -231q-1 -45 -5 -129q0 -8 -0.5 -25t-0.5 -23t-1.5 -18.5
t-4 -17.5t-7.5 -12.5t-12 -10.5t-17.5 -5.5t-24.5 -2.5q-34 0 -45.5 25.5t-11.5 71.5q0 18 1 60.5t1 61.5v179q0 25 -0.5 84t-0.5 84q0 59 19 89t46 30q36 0 54 -52q12 -36 12 -82v-37z" />
    <glyph glyph-name="eth" unicode="&#xf0;" horiz-adv-x="384" 
d="M175 157v-13q0 -22 4 -22t14 8q18 16 25 46q5 20 8.5 51t4 51.5t1 55.5t0.5 37q1 18 1 55q0 5 -0.5 15t-0.5 15q-1 65 -13 81q-13 17 -20 17q-11 0 -11 -19q-6 -127 -7 -162q41 -4 41 -34q0 -18 -13.5 -35t-31.5 -22q-2 -76 -2 -125zM361 466v-64v-44q0 -60 -2.5 -98
t-11 -83.5t-28.5 -78.5t-52 -56q-58 -42 -142 -42q-39 0 -51 18t-13 70q-2 104 -2 194v1q-33 9 -37 28l-3 18q0 36 41 45q8 301 68 306q30 2 43 2q102 0 146 -52t44 -164z" />
    <glyph glyph-name="ntilde" unicode="&#xf1;" horiz-adv-x="387" 
d="M171 808q7 0 21 -2.5t22 -2.5q10 0 17 2t15 5t14 5q4 1 11 1q27 0 27 -34q0 -24 -14 -42.5t-38 -18.5q-9 0 -17 0.5t-17 0.5t-14 -1q-9 -2 -19.5 -9.5t-13.5 -8.5q-13 -6 -29 -6q-25 0 -25 30q0 29 16.5 55t43.5 26zM372 612q0 -44 -5.5 -136t-5.5 -134q0 -27 -1.5 -72.5
t-1.5 -73.5q0 -103 -15 -139v-1q-1 -1 -3.5 -5t-3.5 -5.5t-3.5 -5t-4 -5.5t-4 -4.5t-5 -3.5t-6 -2.5t-6.5 -2.5q-12 -3 -22 -3q-50 0 -68 38q-16 33 -26.5 88.5t-19.5 132t-12 97.5q-5 27 -9 27q-5 0 -5 -22q0 -6 0.5 -19.5t0.5 -19.5q6 -148 6 -229q0 -67 -14 -92
q-13 -24 -46 -24t-47 24q-14 25 -18 89q-4 40 -4 93q0 5 0.5 17.5t0.5 18.5v139q0 22 -2 67t-2 69q0 73 22 115.5t81 42.5q58 0 85 -69q6 -16 10.5 -34.5t8.5 -43.5t6 -37q7 -33 13 -33q5 0 7 60q1 33 2.5 54t7 53.5t19.5 50t35 17.5q55 0 55 -77z" />
    <glyph glyph-name="ograve" unicode="&#xf2;" horiz-adv-x="336" 
d="M240 737q0 -35 -49 -35q-15 0 -52 16q-34 13 -52 30t-18 50q0 35 40 35q10 0 30 -9q58 -27 79 -45q22 -20 22 -42zM190 682q58 0 88 -43q41 -56 41 -206q0 -90 -2 -184q-2 -90 -20 -146q-14 -49 -55 -78q-43 -29 -90 -29q-41 0 -78 37q-61 60 -61 256q0 116 29 247
q9 42 30 78q41 65 112 68h6zM202 453q0 57 -21 57q-29 0 -37 -78v-4l-1 -7q-4 -45 -4 -108q0 -34 4 -86q0 -3 0.5 -11.5t1 -14t2 -14t3 -14t4.5 -11t7.5 -8.5t10.5 -3q19 0 24 46q5 40 5 109q0 13 0.5 37t0.5 35v75z" />
    <glyph glyph-name="oacute" unicode="&#xf3;" horiz-adv-x="336" 
d="M159 702q-43 0 -43 31q0 11 3 20.5t10.5 18t13.5 14t18.5 12.5t18.5 10t19.5 9t16.5 7q18 9 33 9q37 0 37 -37q0 -22 -11.5 -38t-24 -23.5t-34.5 -16.5q-36 -16 -57 -16zM190 682q58 0 88 -43q41 -56 41 -206q0 -90 -2 -184q-2 -90 -20 -146q-14 -49 -55 -78
q-43 -29 -90 -29q-41 0 -78 37q-61 60 -61 256q0 116 29 247q9 42 30 78q41 65 112 68h6zM202 453q0 57 -21 57q-29 0 -37 -78v-4l-1 -7q-4 -45 -4 -108q0 -34 4 -86q0 -3 0.5 -11.5t1 -14t2 -14t3 -14t4.5 -11t7.5 -8.5t10.5 -3q19 0 24 46q5 40 5 109q0 13 0.5 37t0.5 35
v75z" />
    <glyph glyph-name="ocircumflex" unicode="&#xf4;" horiz-adv-x="336" 
d="M279 728q0 -14 -10.5 -23t-26.5 -9q-13 0 -24 8.5t-21 23t-13 17.5q-2 -3 -4 -8t-4 -8l-4 -6q-24 -29 -40 -29q-36 0 -36 37q0 12 2.5 22.5t5 17.5t9 16.5t10 13.5t12.5 13.5t11 12.5q20 22 47 22q29 0 57.5 -43t28.5 -78zM190 682q58 0 88 -43q41 -56 41 -206
q0 -90 -2 -184q-2 -90 -20 -146q-14 -49 -55 -78q-43 -29 -90 -29q-41 0 -78 37q-61 60 -61 256q0 116 29 247q9 42 30 78q41 65 112 68h6zM202 453q0 57 -21 57q-29 0 -37 -78v-4l-1 -7q-4 -45 -4 -108q0 -34 4 -86q0 -3 0.5 -11.5t1 -14t2 -14t3 -14t4.5 -11t7.5 -8.5
t10.5 -3q19 0 24 46q5 40 5 109q0 13 0.5 37t0.5 35v75z" />
    <glyph glyph-name="otilde" unicode="&#xf5;" horiz-adv-x="336" 
d="M151 807q7 0 21 -2.5t22 -2.5q10 0 17 2t15 5t14 5q4 1 11 1q27 0 27 -34q0 -24 -14.5 -42.5t-38.5 -18.5q-9 0 -17 0.5t-17 0.5t-14 -1q-9 -2 -19.5 -9.5t-13.5 -8.5q-13 -6 -28 -6q-26 0 -26 30q0 29 17 55t44 26zM190 682q58 0 88 -43q41 -56 41 -206q0 -90 -2 -184
q-2 -90 -20 -146q-14 -49 -55 -78q-43 -29 -90 -29q-41 0 -78 37q-61 60 -61 256q0 116 29 247q9 42 30 78q41 65 112 68h6zM202 453q0 57 -21 57q-29 0 -37 -78v-4l-1 -7q-4 -45 -4 -108q0 -34 4 -86q0 -3 0.5 -11.5t1 -14t2 -14t3 -14t4.5 -11t7.5 -8.5t10.5 -3
q19 0 24 46q5 40 5 109q0 13 0.5 37t0.5 35v75z" />
    <glyph glyph-name="odieresis" unicode="&#xf6;" horiz-adv-x="336" 
d="M115 738q0 47 28 47q14 0 28 -8t14 -21q0 -21 -13.5 -35.5t-31.5 -14.5q-25 0 -25 32zM228 702q-12 0 -21 8.5t-9 20.5q0 26 20 39q18 10 24 10q14 0 22.5 -8t8.5 -21q0 -49 -45 -49zM190 682q58 0 88 -43q41 -56 41 -206q0 -90 -2 -184q-2 -90 -20 -146q-14 -49 -55 -78
q-43 -29 -90 -29q-41 0 -78 37q-61 60 -61 256q0 116 29 247q9 42 30 78q41 65 112 68h6zM202 453q0 57 -21 57q-29 0 -37 -78v-4l-1 -7q-4 -45 -4 -108q0 -34 4 -86q0 -3 0.5 -11.5t1 -14t2 -14t3 -14t4.5 -11t7.5 -8.5t10.5 -3q19 0 24 46q5 40 5 109q0 13 0.5 37t0.5 35
v75z" />
    <glyph glyph-name="divide" unicode="&#xf7;" horiz-adv-x="332" 
d="M153 479q64 0 64 -41q0 -21 -12 -40.5t-31 -19.5q-29 0 -50.5 16t-21.5 41q0 18 13.5 31t37.5 13zM209 170q0 -16 -11 -28t-30 -12q-32 0 -51 17t-19 48q0 19 11 31.5t30 12.5q30 0 50 -20.5t20 -48.5zM214 260q-185 0 -192 35q0 2 -1.5 7.5t-1.5 8.5q0 49 78 49
q81 0 167 -4q47 -1 47 -34q0 -19 -15.5 -37.5t-36.5 -21.5q-22 -3 -45 -3z" />
    <glyph glyph-name="oslash" unicode="&#xf8;" 
d="M152 203q4 -52 26 -52q19 0 24 46q5 40 5 109v24q-9 -21 -27.5 -63.5t-27.5 -63.5zM309 583q17 -58 17 -150q0 -36 -3.5 -102t-3.5 -82q-2 -103 -16 -146q-7 -24 -39 -65q-21 -27 -90 -41q-5 -1 -16 -1q-41 0 -78 37q-5 5 -7 8q-11 -20 -30 -31q-10 -5 -17 -5
q-18 0 -18 24q-2 10 3 24q6 21 25 70q-17 74 -17 166q0 116 29 247q2 10 20 53q11 27 22 43q13 20 44 35t63 15q45 0 75 -30l9 12q11 14 24 14q17 0 17 -30v-7q-4 -34 -13 -58zM199 504q-5 6 -12 6q-9 0 -18 -12.5t-11 -21.5q-9 -49 -12 -97q21 48 35 81q15 35 18 44z" />
    <glyph glyph-name="ugrave" unicode="&#xf9;" horiz-adv-x="366" 
d="M261 740q0 -34 -48 -34q-18 0 -52 15q-22 9 -35 16.5t-24.5 24t-11.5 39.5q0 35 40 35q11 0 31 -9q58 -27 79 -45q21 -19 21 -42zM216 350q0 33 -2.5 103.5t-2.5 100.5q0 73 19 105q15 25 40 25q68 0 73 -70q4 -45 4 -100q0 -28 -1 -59.5t-2.5 -70.5t-2.5 -61
q-2 -40 -3 -61t-5 -62t-10 -65t-17.5 -55.5t-26.5 -48.5t-38.5 -29.5t-52.5 -12.5q-31 0 -52 14q-62 41 -88 129q-23 77 -23 228q0 22 0.5 64.5t0.5 62.5q0 88 12 136q7 28 25.5 47t45.5 19q29 0 37 -30q7 -25 7 -52q0 -17 -3 -47t-3 -37q-5 -133 -5 -163q0 -107 14 -171
q9 -43 20 -48q12 0 18 17q22 70 22 192z" />
    <glyph glyph-name="uacute" unicode="&#xfa;" horiz-adv-x="366" 
d="M190 703q-43 0 -43 31q0 13 5.5 24.5t11.5 18.5t20.5 16t20 12t24 11t19.5 9q18 9 33 9q36 0 36 -37q0 -17 -5.5 -30t-16.5 -22t-21 -14.5t-26 -11.5q-36 -16 -58 -16zM216 350q0 33 -2.5 103.5t-2.5 100.5q0 73 19 105q15 25 40 25q68 0 73 -70q4 -45 4 -100
q0 -28 -1 -59.5t-2.5 -70.5t-2.5 -61q-2 -40 -3 -61t-5 -62t-10 -65t-17.5 -55.5t-26.5 -48.5t-38.5 -29.5t-52.5 -12.5q-31 0 -52 14q-62 41 -88 129q-23 77 -23 228q0 22 0.5 64.5t0.5 62.5q0 88 12 136q7 28 25.5 47t45.5 19q29 0 37 -30q7 -25 7 -52q0 -17 -3 -47
t-3 -37q-5 -133 -5 -163q0 -107 14 -171q9 -43 20 -48q12 0 18 17q22 70 22 192z" />
    <glyph glyph-name="ucircumflex" unicode="&#xfb;" horiz-adv-x="366" 
d="M290 739q0 -14 -10.5 -22.5t-26.5 -8.5q-13 0 -23.5 8.5t-20.5 23t-13 17.5q-12 -22 -13 -23q-23 -28 -40 -28q-35 0 -35 36q0 12 2.5 22.5t5 17.5t9.5 17t9.5 13.5t12.5 14.5t11 12q19 21 46 21q29 0 57.5 -43t28.5 -78zM216 350q0 33 -2.5 103.5t-2.5 100.5
q0 73 19 105q15 25 40 25q68 0 73 -70q4 -45 4 -100q0 -28 -1 -59.5t-2.5 -70.5t-2.5 -61q-2 -40 -3 -61t-5 -62t-10 -65t-17.5 -55.5t-26.5 -48.5t-38.5 -29.5t-52.5 -12.5q-31 0 -52 14q-62 41 -88 129q-23 77 -23 228q0 22 0.5 64.5t0.5 62.5q0 88 12 136q7 28 25.5 47
t45.5 19q29 0 37 -30q7 -25 7 -52q0 -17 -3 -47t-3 -37q-5 -133 -5 -163q0 -107 14 -171q9 -43 20 -48q12 0 18 17q22 70 22 192z" />
    <glyph glyph-name="udieresis" unicode="&#xfc;" horiz-adv-x="366" 
d="M118 743q0 48 28 48q14 0 28 -8.5t14 -21.5q0 -21 -13.5 -35.5t-31.5 -14.5q-25 0 -25 32zM231 708q-12 0 -21 8t-9 20q0 26 20 39q18 10 24 10q14 0 22.5 -8t8.5 -21q0 -48 -45 -48zM216 350q0 33 -2.5 103.5t-2.5 100.5q0 73 19 105q15 25 40 25q68 0 73 -70
q4 -45 4 -100q0 -28 -1 -59.5t-2.5 -70.5t-2.5 -61q-2 -40 -3 -61t-5 -62t-10 -65t-17.5 -55.5t-26.5 -48.5t-38.5 -29.5t-52.5 -12.5q-31 0 -52 14q-62 41 -88 129q-23 77 -23 228q0 22 0.5 64.5t0.5 62.5q0 88 12 136q7 28 25.5 47t45.5 19q29 0 37 -30q7 -25 7 -52
q0 -17 -3 -47t-3 -37q-5 -133 -5 -163q0 -107 14 -171q9 -43 20 -48q12 0 18 17q22 70 22 192z" />
    <glyph glyph-name="yacute" unicode="&#xfd;" horiz-adv-x="343" 
d="M166 682q-43 0 -43 31q0 11 3 20.5t10.5 18t13.5 14t18.5 12.5t18.5 10t19.5 9t16.5 7q16 8 33 8q37 0 37 -37q0 -22 -11.5 -38t-24 -23.5t-34.5 -16.5q-34 -15 -57 -15zM291 693q47 0 47 -62q0 -68 -45 -154q-12 -22 -74 -163q-4 -12 -4 -31t2.5 -59t2.5 -58v-28
q0 -83 -14 -119q-11 -28 -50 -28q-22 0 -38 10q-23 14 -23 87v9q0 22 1.5 65.5t1.5 64.5q0 33 -3 61q-8 31 -28 85.5t-32.5 104t-12.5 100.5q0 36 18 63q16 22 38 22q43 0 66.5 -61t23.5 -120v-1h1q7 14 19 42q2 7 10.5 31t12.5 34.5t12 29t16 31.5t18 25q17 19 34 19z" />
    <glyph glyph-name="thorn" unicode="&#xfe;" horiz-adv-x="312" 
d="M30 543v12v28q0 30 11 63q18 52 54 52q27 0 46.5 -33t19.5 -92v-2q96 -2 122 -79q13 -40 13 -102q0 -109 -69 -199q-20 -26 -53 -43q-15 -12 -16 -13q1 -9 1 -36q0 -22 -1.5 -37t-6 -33t-15.5 -27t-28 -9q-30 0 -50 15.5t-27.5 40.5t-9.5 40t-2 28q0 51 6.5 146t6.5 145
q0 24 -1 71.5t-1 63.5zM147 292q13 4 24.5 20t13.5 31q2 22 2 33q0 73 -35 80q0 -34 -2.5 -86.5t-2.5 -77.5z" />
    <glyph glyph-name="ydieresis" unicode="&#xff;" horiz-adv-x="343" 
d="M102 717q0 47 29 47q14 0 28 -8.5t14 -21.5q0 -21 -13.5 -35.5t-31.5 -14.5q-26 0 -26 33zM216 681q-12 0 -21.5 8.5t-9.5 20.5q0 25 21 39q18 10 23 10q14 0 23 -8.5t9 -21.5q0 -48 -45 -48zM291 693q47 0 47 -62q0 -68 -45 -154q-12 -22 -74 -163q-4 -12 -4 -31
t2.5 -59t2.5 -58v-28q0 -83 -14 -119q-11 -28 -50 -28q-22 0 -38 10q-23 14 -23 87v9q0 22 1.5 65.5t1.5 64.5q0 33 -3 61q-8 31 -28 85.5t-32.5 104t-12.5 100.5q0 36 18 63q16 22 38 22q43 0 66.5 -61t23.5 -120v-1h1q7 14 19 42q2 7 10.5 31t12.5 34.5t12 29t16 31.5
t18 25q17 19 34 19z" />
    <glyph glyph-name="Amacron" unicode="&#x100;" 
d="M200 721q-96 0 -103 36q-2 12 -2 16q0 48 78 48q1 0 87 -4q48 -1 48 -34q0 -19 -16 -37t-37 -21q-29 -4 -55 -4zM47 -9q-44 0 -44 55l7 70q6 56 15 107t23 119t19 95q5 25 16 68.5t15 62.5q5 26 10.5 44t16.5 41t29.5 35t43.5 12q47 0 67 -50q16 -41 27.5 -104.5
t15.5 -104.5t9.5 -127.5t6.5 -101.5q5 -58 5 -96q0 -120 -49 -120q-23 0 -37.5 16t-19 33t-9.5 45q0 2 -0.5 3.5t-0.5 3.5q-1 8 -4.5 37.5t-6.5 42.5h-5q-4 0 -22 1t-27 1q-22 0 -22 -5q-5 -50 -18 -97q-12 -43 -24 -64q-12 -22 -37 -22zM186 471q-12 0 -20 -40
q-10 -69 -12 -97q0 -12 2 -13t9 -2q33 -7 38 -7q4 0 4 3q0 35 -3 65q-9 91 -18 91z" />
    <glyph glyph-name="amacron" unicode="&#x101;" horiz-adv-x="384" 
d="M212 712q-95 0 -102 36q-2 12 -2 16q0 29 20.5 38.5t56.5 9.5q1 0 87 -4q25 -1 37 -10.5t12 -23.5q0 -19 -16.5 -37t-37.5 -21q-29 -4 -55 -4zM200 188q-10 0 -15 -2q-22 -10 -29 -37.5t-11 -61.5t-15 -52q-24 -40 -57 -40t-50.5 21t-17.5 54q0 6 2 20q17 118 35 203
q9 42 25 126q4 23 29 124q21 90 67 129q23 19 47 19q8 0 13 -1q29 -3 51.5 -32t34.5 -72.5t17.5 -70t8.5 -54.5q6 -45 37 -374q2 -22 2 -33q0 -64 -65 -64q-28 0 -48.5 20t-20.5 55q0 28 -8 86q-6 37 -32 37zM182 310q10 -4 27 -4q9 0 12 5q2 8 2 25q0 7 -0.5 26t-0.5 30
q0 39 -6.5 70t-15.5 31q-16 0 -24 -53.5t-8 -94.5v-12q0 -17 14 -23z" />
    <glyph glyph-name="Abreve" unicode="&#x102;" 
d="M193 719q-39 0 -74.5 33t-35.5 76q0 20 8.5 35.5t20.5 15.5q31 0 47 -26q4 -7 7.5 -14.5t5 -10.5t4 -7t5.5 -5t8 -2t12 -1q18 0 24 8t16 37q8 23 39 23q14 0 24 -11t10 -26q0 -55 -34 -90t-87 -35zM47 -9q-44 0 -44 55l7 70q6 56 15 107t23 119t19 95q5 25 16 68.5
t15 62.5q5 26 10.5 44t16.5 41t29.5 35t43.5 12q47 0 67 -50q16 -41 27.5 -104.5t15.5 -104.5t9.5 -127.5t6.5 -101.5q5 -58 5 -96q0 -120 -49 -120q-23 0 -37.5 16t-19 33t-9.5 45q0 2 -0.5 3.5t-0.5 3.5q-1 8 -4.5 37.5t-6.5 42.5h-5q-4 0 -22 1t-27 1q-22 0 -22 -5
q-5 -50 -18 -97q-12 -43 -24 -64q-12 -22 -37 -22zM186 471q-12 0 -20 -40q-10 -69 -12 -97q0 -12 2 -13t9 -2q33 -7 38 -7q4 0 4 3q0 35 -3 65q-9 91 -18 91z" />
    <glyph glyph-name="abreve" unicode="&#x103;" horiz-adv-x="384" 
d="M211 712q-39 0 -74.5 33t-35.5 76q0 20 8.5 35t20.5 15q32 0 47 -25q4 -7 7.5 -14.5t5 -10.5t4 -7t5.5 -5t8 -2t12 -1q18 0 24 8t16 37q7 21 39 21q14 0 24.5 -10.5t10.5 -23.5q0 -56 -34 -91t-88 -35zM200 188q-10 0 -15 -2q-22 -10 -29 -37.5t-11 -61.5t-15 -52
q-24 -40 -57 -40t-50.5 21t-17.5 54q0 6 2 20q17 118 35 203q9 42 25 126q4 23 29 124q21 90 67 129q23 19 47 19q8 0 13 -1q29 -3 51.5 -32t34.5 -72.5t17.5 -70t8.5 -54.5q6 -45 37 -374q2 -22 2 -33q0 -64 -65 -64q-28 0 -48.5 20t-20.5 55q0 28 -8 86q-6 37 -32 37z
M182 310q10 -4 27 -4q9 0 12 5q2 8 2 25q0 7 -0.5 26t-0.5 30q0 39 -6.5 70t-15.5 31q-16 0 -24 -53.5t-8 -94.5v-12q0 -17 14 -23z" />
    <glyph glyph-name="Aogonek" unicode="&#x104;" 
d="M289 -11v-4q0 -8 5.5 -17t12.5 -10h7q6 0 34 4h5q6 0 8 -1q19 -4 19 -26v-8q-5 -17 -21 -23q-19 -7 -47 -7q-6 0 -14 2h-2q-29 9 -49.5 34t-20.5 57q0 14 2 21q2 10 4 13q-10 19 -19 73q-1 8 -4.5 37.5t-6.5 42.5h-5q-4 0 -22 1t-27 1q-22 0 -22 -5q-5 -50 -18 -97
q-12 -43 -24 -64q-12 -22 -37 -22q-44 0 -44 55l7 70q6 56 15 107t23 119t19 95q5 25 16 68.5t15 62.5q5 26 10.5 44t16.5 41t29.5 35t43.5 12q47 0 67 -50q16 -41 27.5 -104.5t15.5 -104.5t9.5 -127.5t6.5 -101.5q5 -58 5 -96q0 -42 -7 -73q0 -4 -1 -6q0 -4 -6 -12
q-7 -19 -18 -24q-7 -9 -8 -12zM186 471q-12 0 -20 -40q-10 -69 -12 -97q0 -12 2 -13t9 -2q33 -7 38 -7q4 0 4 3q0 35 -3 65q-9 91 -18 91z" />
    <glyph glyph-name="aogonek" unicode="&#x105;" horiz-adv-x="384" 
d="M328 -29v-4q0 -8 5.5 -16.5t12.5 -9.5h7q6 0 34 4h5q6 0 8 -1q19 -4 19 -26v-8q-5 -18 -21 -24q-19 -7 -47 -7q-6 0 -14 2h-2q-29 9 -49.5 34t-20.5 57q0 15 2 22q2 4 2 8q-29 20 -29 63q0 28 -8 86q-6 37 -32 37q-10 0 -15 -2q-22 -10 -29 -37.5t-11 -61.5t-15 -52
q-24 -40 -57 -40t-50.5 21t-17.5 54q0 6 2 20q17 118 35 203q9 42 25 126q4 23 29 124q21 90 67 129q23 19 47 19q8 0 13 -1q29 -3 51.5 -32t34.5 -72.5t17.5 -70t8.5 -54.5q6 -45 37 -374q2 -22 2 -33q0 -42 -26 -56q-3 -4 -8 -10t-8 -10t-4 -7zM182 310q10 -4 27 -4
q9 0 12 5q2 8 2 25q0 7 -0.5 26t-0.5 30q0 39 -6.5 70t-15.5 31q-16 0 -24 -53.5t-8 -94.5v-12q0 -17 14 -23z" />
    <glyph glyph-name="Cacute" unicode="&#x106;" horiz-adv-x="360" 
d="M172 707q-43 0 -43 30q0 11 3 20.5t10.5 18t13.5 14t18.5 12.5t18.5 10t19.5 9t16.5 7q18 9 33 9q37 0 37 -37q0 -22 -11.5 -38t-24 -23.5t-34.5 -16.5q-34 -15 -57 -15zM141 262v-28q0 -59 18 -68q15 0 25 14.5t14 32t14.5 32t27.5 14.5q89 0 89 -77q0 -13 -12 -61
l-1 -1q-9 -28 -20 -43q-3 -4 -12.5 -17t-13.5 -18t-13 -15.5t-16.5 -15t-18.5 -10t-23.5 -8t-27.5 -2.5q-30 0 -50 10q-102 48 -102 294q0 80 7 140t25.5 118.5t58 92t97.5 38.5h9q30 0 61 -22t47 -48q22 -38 22 -136q0 -95 -63 -95q-15 0 -26.5 3.5t-18.5 13t-11.5 17
t-6 24t-2.5 25.5t-1 30v29q-2 40 -13 40q-31 0 -47 -98t-16 -205z" />
    <glyph glyph-name="cacute" unicode="&#x107;" horiz-adv-x="313" 
d="M169 711q-43 0 -43 30q0 11 3 20.5t11 18t13.5 14t18.5 13t17.5 10t20 9t16.5 7.5q16 8 33 8q37 0 37 -37q0 -22 -11.5 -38t-24 -23.5t-34.5 -16.5q-34 -15 -57 -15zM175 690q122 0 126 -113q1 -15 1 -50q0 -55 -14.5 -87.5t-55.5 -32.5q-42 0 -43 32q0 3 -0.5 8.5
t-0.5 7.5v25v15t-1 15q-1 39 -7 39q-9 0 -17 -45q-27 -162 -27 -263v-18q2 -77 28 -77q11 0 11 32q0 3 -0.5 9t-0.5 8v5q0 3 -0.5 9.5t-0.5 10.5v9q0 83 54 83q29 0 47 -16.5t19 -44.5q0 -5 0.5 -16.5t0.5 -17.5q0 -66 -13 -108q-16 -55 -39 -93q-16 -30 -68 -30
q-61 0 -90 29q-42 43 -61 155q-7 39 -8 69q-1 25 -1 67q0 74 14 155q7 37 17.5 72.5t27.5 73t43.5 60.5t58.5 23z" />
    <glyph glyph-name="Ccircumflex" unicode="&#x108;" horiz-adv-x="360" 
d="M292 732q0 -13 -11 -22.5t-26 -9.5q-13 0 -23.5 8.5t-20 23t-13.5 18.5q-12 -22 -13 -23q-24 -29 -40 -29q-35 0 -35 37q0 10 1 18.5t5 17t6 13.5t8.5 13.5t8.5 11t11 12t10 10.5q20 22 46 22q29 0 57.5 -43t28.5 -78zM141 262v-28q0 -59 18 -68q15 0 25 14.5t14 32
t14.5 32t27.5 14.5q89 0 89 -77q0 -13 -12 -61l-1 -1q-9 -28 -20 -43q-3 -4 -12.5 -17t-13.5 -18t-13 -15.5t-16.5 -15t-18.5 -10t-23.5 -8t-27.5 -2.5q-30 0 -50 10q-102 48 -102 294q0 80 7 140t25.5 118.5t58 92t97.5 38.5h9q30 0 61 -22t47 -48q22 -38 22 -136
q0 -95 -63 -95q-15 0 -26.5 3.5t-18.5 13t-11.5 17t-6 24t-2.5 25.5t-1 30v29q-2 40 -13 40q-31 0 -47 -98t-16 -205z" />
    <glyph glyph-name="ccircumflex" unicode="&#x109;" horiz-adv-x="313" 
d="M275 734q0 -14 -10 -23t-26 -9q-13 0 -23.5 9t-20.5 23t-14 18q-9 -21 -11 -23q-24 -29 -41 -29q-36 0 -36 37q0 10 1 19t5 17.5t6 13.5t9 13.5t9 11t11 12t10 10.5q19 21 46 21q29 0 57 -43t28 -78zM175 690q122 0 126 -113q1 -15 1 -50q0 -55 -14.5 -87.5t-55.5 -32.5
q-42 0 -43 32q0 3 -0.5 8.5t-0.5 7.5v25v15t-1 15q-1 39 -7 39q-9 0 -17 -45q-27 -162 -27 -263v-18q2 -77 28 -77q11 0 11 32q0 3 -0.5 9t-0.5 8v5q0 3 -0.5 9.5t-0.5 10.5v9q0 83 54 83q29 0 47 -16.5t19 -44.5q0 -5 0.5 -16.5t0.5 -17.5q0 -66 -13 -108q-16 -55 -39 -93
q-16 -30 -68 -30q-61 0 -90 29q-42 43 -61 155q-7 39 -8 69q-1 25 -1 67q0 74 14 155q7 37 17.5 72.5t27.5 73t43.5 60.5t58.5 23z" />
    <glyph glyph-name="Cdotaccent" unicode="&#x10a;" horiz-adv-x="360" 
d="M240 807q8 -12 8 -33q0 -32 -16 -46q-17 -15 -44 -15q-14 0 -28 8q-24 17 -24 36v2q0 17 3 24q7 19 25 31.5t38 12.5q26 0 38 -20zM141 262v-28q0 -59 18 -68q15 0 25 14.5t14 32t14.5 32t27.5 14.5q89 0 89 -77q0 -13 -12 -61l-1 -1q-9 -28 -20 -43q-3 -4 -12.5 -17
t-13.5 -18t-13 -15.5t-16.5 -15t-18.5 -10t-23.5 -8t-27.5 -2.5q-30 0 -50 10q-102 48 -102 294q0 80 7 140t25.5 118.5t58 92t97.5 38.5h9q30 0 61 -22t47 -48q22 -38 22 -136q0 -95 -63 -95q-15 0 -26.5 3.5t-18.5 13t-11.5 17t-6 24t-2.5 25.5t-1 30v29q-2 40 -13 40
q-31 0 -47 -98t-16 -205z" />
    <glyph glyph-name="cdotaccent" unicode="&#x10b;" horiz-adv-x="313" 
d="M234 807q8 -14 8 -33q0 -34 -16 -48q-15 -15 -41 -15q-15 0 -27 9q-23 15 -23 36v2q0 18 2 25q7 20 24.5 32.5t36.5 12.5q22 0 36 -21zM175 690q122 0 126 -113q1 -15 1 -50q0 -55 -14.5 -87.5t-55.5 -32.5q-42 0 -43 32q0 3 -0.5 8.5t-0.5 7.5v25v15t-1 15q-1 39 -7 39
q-9 0 -17 -45q-27 -162 -27 -263v-18q2 -77 28 -77q11 0 11 32q0 3 -0.5 9t-0.5 8v5q0 3 -0.5 9.5t-0.5 10.5v9q0 83 54 83q29 0 47 -16.5t19 -44.5q0 -5 0.5 -16.5t0.5 -17.5q0 -66 -13 -108q-16 -55 -39 -93q-16 -30 -68 -30q-61 0 -90 29q-42 43 -61 155q-7 39 -8 69
q-1 25 -1 67q0 74 14 155q7 37 17.5 72.5t27.5 73t43.5 60.5t58.5 23z" />
    <glyph glyph-name="Ccaron" unicode="&#x10c;" horiz-adv-x="360" 
d="M84 803q0 48 37 48q33 0 49 -21q3 -4 5.5 -8.5t5 -10t4.5 -8.5q17 1 30 18q12 16 23 22q15 9 34 9q36 0 36 -26q0 -23 -21 -48q-32 -37 -56 -53q-15 -12 -35 -12q-35 0 -69 23q-26 18 -39 49q-4 10 -4 18zM141 262v-28q0 -59 18 -68q15 0 25 14.5t14 32t14.5 32
t27.5 14.5q89 0 89 -77q0 -13 -12 -61l-1 -1q-9 -28 -20 -43q-3 -4 -12.5 -17t-13.5 -18t-13 -15.5t-16.5 -15t-18.5 -10t-23.5 -8t-27.5 -2.5q-30 0 -50 10q-102 48 -102 294q0 80 7 140t25.5 118.5t58 92t97.5 38.5h9q30 0 61 -22t47 -48q22 -38 22 -136q0 -95 -63 -95
q-15 0 -26.5 3.5t-18.5 13t-11.5 17t-6 24t-2.5 25.5t-1 30v29q-2 40 -13 40q-31 0 -47 -98t-16 -205z" />
    <glyph glyph-name="ccaron" unicode="&#x10d;" horiz-adv-x="313" 
d="M70 801q0 48 36 48q34 0 50 -21q3 -4 5.5 -8.5t5 -10t4.5 -8.5q17 1 30 18t22 22q15 9 35 9q36 0 36 -26q0 -22 -22 -48q-34 -38 -55 -53q-15 -12 -36 -12q-34 0 -68 23q-26 18 -39 49q-4 10 -4 18zM175 690q122 0 126 -113q1 -15 1 -50q0 -55 -14.5 -87.5t-55.5 -32.5
q-42 0 -43 32q0 3 -0.5 8.5t-0.5 7.5v25v15t-1 15q-1 39 -7 39q-9 0 -17 -45q-27 -162 -27 -263v-18q2 -77 28 -77q11 0 11 32q0 3 -0.5 9t-0.5 8v5q0 3 -0.5 9.5t-0.5 10.5v9q0 83 54 83q29 0 47 -16.5t19 -44.5q0 -5 0.5 -16.5t0.5 -17.5q0 -66 -13 -108q-16 -55 -39 -93
q-16 -30 -68 -30q-61 0 -90 29q-42 43 -61 155q-7 39 -8 69q-1 25 -1 67q0 74 14 155q7 37 17.5 72.5t27.5 73t43.5 60.5t58.5 23z" />
    <glyph glyph-name="Dcaron" unicode="&#x10e;" horiz-adv-x="327" 
d="M57 808q0 48 37 48q34 0 49 -20q2 -2 16 -28q16 1 29 18q12 16 23 22q15 9 35 9q36 0 36 -26q0 -22 -22 -48q-34 -38 -55 -53q-15 -12 -36 -12q-35 0 -69 23q-25 17 -39 50q-4 10 -4 17zM164 697q34 0 59.5 -11.5t41 -36.5t25 -49t13 -65t4.5 -68t1 -73q0 -234 -84 -335
q-18 -23 -58 -46.5t-76 -23.5q-22 0 -41.5 10t-22.5 27q-1 8 -4 69q-2 82 -2 128q0 118 8 316q2 53 6 79q3 20 24.5 40.5t42.5 27.5q30 11 63 11zM187 444q0 4 0.5 15.5t0.5 18.5q0 58 -19 67q-10 4 -21 4q-9 0 -12 -2q0 -14 -2 -54.5t-2 -54.5q-9 -180 -9 -245q0 -61 5 -64
q2 -1 5 -1q18 0 29.5 41t15.5 79q2 22 4 60t3 53q1 16 1.5 45t0.5 38z" />
    <glyph glyph-name="dcaron" unicode="&#x10f;" horiz-adv-x="338" 
d="M54 795q0 48 37 48q33 0 49 -21q4 -5 16 -27q16 1 29 18q12 16 23 22q15 9 35 9q36 0 36 -26q0 -22 -22 -48q-34 -38 -55 -53q-15 -12 -36 -12q-35 0 -69 23q-26 18 -39 49q-4 10 -4 18zM324 466q0 -11 -0.5 -32t-0.5 -32v-44q0 -60 -2.5 -99t-11 -86t-28.5 -81t-52 -57
q-49 -35 -161 -35q-30 0 -37.5 10.5t-7.5 41.5v20v16q-3 156 -3 194v132q0 168 13 224q8 38 24 39q37 5 64 5h4q92 0 137 -35q62 -50 62 -181zM136 157v-13q0 -22 5 -22q3 0 13 8q19 17 26 46q5 20 8.5 51t4 51.5t1 55.5t0.5 37q1 18 1 55v30q-1 64 -14 81t-28 17
q-11 0 -11 -19q-6 -117 -6 -378z" />
    <glyph glyph-name="Dcroat" unicode="&#x110;" horiz-adv-x="380" 
d="M238 444q0 4 0.5 15.5t0.5 18.5q0 56 -21 67q-10 4 -19 4q-10 0 -13 -2q0 -14 -2 -54.5t-3 -54.5q0 -16 -3 -65q44 -3 44 -34q0 -18 -14.5 -35.5t-33.5 -21.5q-1 -32 -1 -89q0 -61 5 -64q2 -1 5 -1q18 0 29 40.5t15 79.5q2 22 5 61l4 52q1 16 1.5 45t0.5 38zM214 697
q34 0 59.5 -11.5t41 -36.5t25 -49t13 -65t4.5 -68t1 -73q0 -234 -84 -335q-18 -23 -58 -46.5t-76 -23.5q-22 0 -42 10t-23 27q0 2 -3 34v23v12q-1 41 -1 128v58q-44 7 -49 30l-3 18q0 42 53 47q1 63 5 163q2 53 6 79q3 20 25 40.5t43 27.5q30 11 63 11z" />
    <glyph glyph-name="dcroat" unicode="&#x111;" horiz-adv-x="384" 
d="M175 157v-13q0 -22 4 -22t14 8q18 16 25 46q5 20 8.5 51t4 51.5t1 55.5t0.5 37q1 18 1 55q0 5 -0.5 15t-0.5 15q-1 65 -13 81q-13 17 -20 17q-11 0 -11 -19q-6 -127 -7 -162q41 -4 41 -34q0 -18 -13.5 -35t-31.5 -22q-2 -76 -2 -125zM361 466v-64v-44q0 -60 -2.5 -98
t-11 -83.5t-28.5 -78.5t-52 -56q-58 -42 -142 -42q-39 0 -51 18t-13 70q-2 104 -2 194v1q-33 9 -37 28l-3 18q0 36 41 45q8 301 68 306q30 2 43 2q102 0 146 -52t44 -164z" />
    <glyph glyph-name="Emacron" unicode="&#x112;" horiz-adv-x="293" 
d="M162 702q-96 0 -103 36q-2 12 -2 17q0 48 78 48q1 0 87 -4q48 -1 48 -34q0 -19 -16 -37t-37 -21q-37 -5 -55 -5zM181 546q-13 0 -13 -56q0 -13 0.5 -32t0.5 -22q0 -9 0.5 -14t1 -8.5t4.5 -5t6 -2t11 -1.5t14 -2q32 -5 48 -18.5t16 -43.5q0 -19 -5.5 -32t-20 -21.5
t-23.5 -12t-31 -9.5q-7 -2 -15.5 -2.5t-11.5 -1.5t-6 -6.5t-3 -17.5v-32q0 -35 2 -51q2 -8 4 -9q11 -3 31 -7t32 -7t25 -9.5t19 -19t6 -31.5q0 -74 -127 -74q-65 0 -86 17q-24 21 -32 54.5t-8 86.5q0 12 1 34t1 34v15q0 234 13 356q5 43 41 59q44 19 74 19h1q5 0 17.5 0.5
t18.5 0.5q93 0 93 -62q0 -56 -47 -64q-14 -2 -32 -2h-20z" />
    <glyph glyph-name="emacron" unicode="&#x113;" horiz-adv-x="287" 
d="M151 716q-96 0 -103 36q-2 12 -2 16q0 48 78 48q1 0 87 -4q48 -1 48 -34q0 -19 -16 -37t-37 -21q-29 -4 -55 -4zM27 246q0 27 -2 75.5t-2 74.5q0 16 0.5 46.5t0.5 43.5q0 163 53 195q21 12 89 12q70 0 86 -13q19 -16 19 -50q0 -18 -8 -34q-20 -38 -54 -40h-11h-15
q-14 0 -26 -2q-9 -30 -9 -91q0 -50 13 -57q9 -3 29.5 -5.5t35.5 -6.5t21 -14q8 -11 8 -35q0 -27 -11.5 -48t-31.5 -22q-3 0 -16.5 -0.5t-21.5 -0.5q-22 -1 -22 -31v-11v-7q0 -4 -0.5 -11t-0.5 -10q0 -67 17 -69q5 -1 16.5 -2t17.5 -1.5t15.5 -2.5t15 -4t12 -5t11.5 -7
q15 -13 15 -40q0 -22 -9.5 -43t-24.5 -28q-22 -9 -87 -9q-33 0 -50.5 1t-38.5 10t-26 27q-1 1 -3 16q-5 46 -5 119v80z" />
    <glyph glyph-name="Ebreve" unicode="&#x114;" horiz-adv-x="293" 
d="M154 693q-39 0 -74.5 33.5t-35.5 76.5q0 20 8.5 35t20.5 15q31 0 47 -26q4 -7 7.5 -14.5t5 -10.5t4 -7t5.5 -5t8 -2t12 -1q17 0 23.5 8.5t16.5 37.5q7 21 39 21q13 0 23.5 -10.5t10.5 -24.5q0 -56 -34 -91t-87 -35zM181 546q-13 0 -13 -56q0 -13 0.5 -32t0.5 -22
q0 -9 0.5 -14t1 -8.5t4.5 -5t6 -2t11 -1.5t14 -2q32 -5 48 -18.5t16 -43.5q0 -19 -5.5 -32t-20 -21.5t-23.5 -12t-31 -9.5q-7 -2 -15.5 -2.5t-11.5 -1.5t-6 -6.5t-3 -17.5v-32q0 -35 2 -51q2 -8 4 -9q11 -3 31 -7t32 -7t25 -9.5t19 -19t6 -31.5q0 -74 -127 -74q-65 0 -86 17
q-24 21 -32 54.5t-8 86.5q0 12 1 34t1 34v15q0 234 13 356q5 43 41 59q44 19 74 19h1q5 0 17.5 0.5t18.5 0.5q93 0 93 -62q0 -56 -47 -64q-14 -2 -32 -2h-20z" />
    <glyph glyph-name="ebreve" unicode="&#x115;" horiz-adv-x="287" 
d="M158 712q-39 0 -74.5 33t-35.5 76q0 20 8.5 35t20.5 15q32 0 47 -25q4 -7 7.5 -14.5t5 -10.5t4 -7t5.5 -5t8 -2t12 -1q18 0 24 8t16 37q7 21 39 21q14 0 24.5 -10.5t10.5 -23.5q0 -56 -34 -91t-88 -35zM27 246q0 27 -2 75.5t-2 74.5q0 16 0.5 46.5t0.5 43.5q0 163 53 195
q21 12 89 12q70 0 86 -13q19 -16 19 -50q0 -18 -8 -34q-20 -38 -54 -40h-11h-15q-14 0 -26 -2q-9 -30 -9 -91q0 -50 13 -57q9 -3 29.5 -5.5t35.5 -6.5t21 -14q8 -11 8 -35q0 -27 -11.5 -48t-31.5 -22q-3 0 -16.5 -0.5t-21.5 -0.5q-22 -1 -22 -31v-11v-7q0 -4 -0.5 -11
t-0.5 -10q0 -67 17 -69q5 -1 16.5 -2t17.5 -1.5t15.5 -2.5t15 -4t12 -5t11.5 -7q15 -13 15 -40q0 -22 -9.5 -43t-24.5 -28q-22 -9 -87 -9q-33 0 -50.5 1t-38.5 10t-26 27q-1 1 -3 16q-5 46 -5 119v80z" />
    <glyph glyph-name="Edotaccent" unicode="&#x116;" horiz-adv-x="293" 
d="M214 813q9 -15 9 -39q0 -39 -19 -55q-21 -19 -52 -19q-18 0 -35 11q-29 19 -29 43v1q0 21 3 30q9 23 30.5 38t45.5 15q29 0 47 -25zM181 546q-13 0 -13 -56q0 -13 0.5 -32t0.5 -22q0 -9 0.5 -14t1 -8.5t4.5 -5t6 -2t11 -1.5t14 -2q32 -5 48 -18.5t16 -43.5
q0 -19 -5.5 -32t-20 -21.5t-23.5 -12t-31 -9.5q-7 -2 -15.5 -2.5t-11.5 -1.5t-6 -6.5t-3 -17.5v-32q0 -35 2 -51q2 -8 4 -9q11 -3 31 -7t32 -7t25 -9.5t19 -19t6 -31.5q0 -74 -127 -74q-65 0 -86 17q-24 21 -32 54.5t-8 86.5q0 12 1 34t1 34v15q0 234 13 356q5 43 41 59
q44 19 74 19h1q5 0 17.5 0.5t18.5 0.5q93 0 93 -62q0 -56 -47 -64q-14 -2 -32 -2h-20z" />
    <glyph glyph-name="edotaccent" unicode="&#x117;" horiz-adv-x="287" 
d="M221 820q9 -15 9 -39q0 -40 -18 -55q-20 -18 -53 -18q-19 0 -35 10q-29 20 -29 43v1q0 22 4 31q8 23 30 37.5t45 14.5q29 0 47 -25zM27 246q0 27 -2 75.5t-2 74.5q0 16 0.5 46.5t0.5 43.5q0 163 53 195q21 12 89 12q70 0 86 -13q19 -16 19 -50q0 -18 -8 -34
q-20 -38 -54 -40h-11h-15q-14 0 -26 -2q-9 -30 -9 -91q0 -50 13 -57q9 -3 29.5 -5.5t35.5 -6.5t21 -14q8 -11 8 -35q0 -27 -11.5 -48t-31.5 -22q-3 0 -16.5 -0.5t-21.5 -0.5q-22 -1 -22 -31v-11v-7q0 -4 -0.5 -11t-0.5 -10q0 -67 17 -69q5 -1 16.5 -2t17.5 -1.5t15.5 -2.5
t15 -4t12 -5t11.5 -7q15 -13 15 -40q0 -22 -9.5 -43t-24.5 -28q-22 -9 -87 -9q-33 0 -50.5 1t-38.5 10t-26 27q-1 1 -3 16q-5 46 -5 119v80z" />
    <glyph glyph-name="Eogonek" unicode="&#x118;" horiz-adv-x="293" 
d="M190 -42v-4q0 -8 6 -17t13 -10h7q5 0 33 4h6q5 0 7 -1q20 -5 20 -25q0 -6 -1 -8q-3 -17 -20 -24q-19 -7 -47 -7q-6 0 -14 2h-3q-28 9 -48.5 34t-20.5 57q0 15 2 22q2 10 6 17q-59 2 -76 17q-24 21 -32 54.5t-8 86.5q0 12 1 34t1 34v15q0 234 13 356q5 43 41 59
q44 19 74 19h1q5 0 17.5 0.5t18.5 0.5q93 0 93 -62q0 -56 -47 -64q-14 -2 -32 -2h-20q-13 0 -13 -56q0 -13 0.5 -32t0.5 -22q0 -9 0.5 -14t1 -8.5t4.5 -5t6 -2t11 -1.5t14 -2q32 -5 48 -18.5t16 -43.5q0 -19 -5.5 -32t-20 -21.5t-23.5 -12t-31 -9.5q-7 -2 -15.5 -2.5
t-11.5 -1.5t-6 -6.5t-3 -17.5v-32q0 -35 2 -51q2 -8 4 -9q11 -3 31 -7t32 -7t25 -9.5t19 -19t6 -31.5q0 -48 -50 -65q-1 0 -1 -1q-2 -11 -16.5 -28t-15.5 -20z" />
    <glyph glyph-name="eogonek" unicode="&#x119;" horiz-adv-x="287" 
d="M179 -41v-4q0 -8 6 -17t13 -10h6q6 0 34 4h6q5 0 7 -1q19 -4 19 -25q0 -6 -1 -8q-4 -18 -19 -24q-19 -7 -47 -7q-9 0 -15 2h-3q-28 9 -48.5 34t-20.5 57q0 12 3 22q1 2 2 5.5t1 5.5q-77 2 -87 38q-1 1 -3 16q-5 46 -5 119v80q0 27 -2 75.5t-2 74.5q0 16 0.5 46.5
t0.5 43.5q0 163 53 195q21 12 89 12q70 0 86 -13q19 -16 19 -50q0 -18 -8 -34q-20 -38 -54 -40h-11h-15q-14 0 -26 -2q-9 -30 -9 -91q0 -50 13 -57q9 -3 29.5 -5.5t35.5 -6.5t21 -14q8 -11 8 -35q0 -27 -11.5 -48t-31.5 -22q-3 0 -16.5 -0.5t-21.5 -0.5q-22 -1 -22 -31v-11
v-7q0 -4 -0.5 -11t-0.5 -10q0 -67 17 -69q5 -1 16.5 -2t17.5 -1.5t15.5 -2.5t15 -4t12 -5t11.5 -7q15 -13 15 -40q0 -22 -9.5 -43t-24.5 -28q-10 -4 -31 -6q-4 -8 -15 -21t-12 -16z" />
    <glyph glyph-name="Ecaron" unicode="&#x11a;" horiz-adv-x="293" 
d="M50 784q0 49 37 49q33 0 49 -21q2 -2 16 -28q15 1 29 19q11 14 23 21q17 10 35 10q35 0 35 -26q0 -23 -21 -48q-34 -38 -55 -53q-17 -13 -36 -13q-34 0 -69 24q-26 18 -39 49q-4 10 -4 17zM181 546q-13 0 -13 -56q0 -13 0.5 -32t0.5 -22q0 -9 0.5 -14t1 -8.5t4.5 -5t6 -2
t11 -1.5t14 -2q32 -5 48 -18.5t16 -43.5q0 -19 -5.5 -32t-20 -21.5t-23.5 -12t-31 -9.5q-7 -2 -15.5 -2.5t-11.5 -1.5t-6 -6.5t-3 -17.5v-32q0 -35 2 -51q2 -8 4 -9q11 -3 31 -7t32 -7t25 -9.5t19 -19t6 -31.5q0 -74 -127 -74q-65 0 -86 17q-24 21 -32 54.5t-8 86.5
q0 12 1 34t1 34v15q0 234 13 356q5 43 41 59q44 19 74 19h1q5 0 17.5 0.5t18.5 0.5q93 0 93 -62q0 -56 -47 -64q-14 -2 -32 -2h-20z" />
    <glyph glyph-name="ecaron" unicode="&#x11b;" horiz-adv-x="287" 
d="M46 804q0 48 37 48q33 0 49 -21l15 -27q17 1 30 18q12 16 23 22q15 9 34 9q36 0 36 -26q0 -23 -21 -48q-34 -38 -55 -53q-15 -12 -36 -12q-35 0 -69 23q-26 18 -39 49q-4 10 -4 18zM27 246q0 27 -2 75.5t-2 74.5q0 16 0.5 46.5t0.5 43.5q0 163 53 195q21 12 89 12
q70 0 86 -13q19 -16 19 -50q0 -18 -8 -34q-20 -38 -54 -40h-11h-15q-14 0 -26 -2q-9 -30 -9 -91q0 -50 13 -57q9 -3 29.5 -5.5t35.5 -6.5t21 -14q8 -11 8 -35q0 -27 -11.5 -48t-31.5 -22q-3 0 -16.5 -0.5t-21.5 -0.5q-22 -1 -22 -31v-11v-7q0 -4 -0.5 -11t-0.5 -10
q0 -67 17 -69q5 -1 16.5 -2t17.5 -1.5t15.5 -2.5t15 -4t12 -5t11.5 -7q15 -13 15 -40q0 -22 -9.5 -43t-24.5 -28q-22 -9 -87 -9q-33 0 -50.5 1t-38.5 10t-26 27q-1 1 -3 16q-5 46 -5 119v80z" />
    <glyph glyph-name="Gcircumflex" unicode="&#x11c;" horiz-adv-x="359" 
d="M292 748q0 -14 -10.5 -23t-26.5 -9q-13 0 -23.5 8.5t-20.5 23t-13 17.5q-12 -22 -13 -23q-23 -28 -40 -28q-35 0 -35 37q0 12 2.5 22.5t5 17.5t9 16.5t10 13.5t12.5 13.5t11 12.5q19 21 46 21q29 0 57.5 -42.5t28.5 -77.5zM143 410q-6 -57 -6 -87v-62q0 -105 43 -105
q16 0 34 17.5t18 37.5q0 3 -7 3h-11q-44 0 -44 48q0 19 12.5 39t26.5 24q11 3 21 3q11 0 39 -4q56 -6 65 -41q7 -27 7 -61q0 -60 -26 -119t-70 -87q-30 -19 -67 -19q-25 0 -55 11q-49 18 -76 90q-28 76 -28 186q0 100 32 236q27 108 76 149q29 24 93 24q39 0 72 -18.5
t40 -49.5q5 -21 5 -58q0 -85 -33 -125q-16 -19 -39 -19q-12 0 -25 7q-18 10 -18 43v21v2v20q-4 40 -21 42h-1l-2 1q-36 0 -55 -149z" />
    <glyph glyph-name="gcircumflex" unicode="&#x11d;" horiz-adv-x="365" 
d="M189 130q14 0 22.5 19t8.5 44q0 5 -1.5 7.5t-3 3.5t-6 2.5l-7.5 2.5q-35 13 -35 49q0 26 28 40t62 14q57 0 78 -24q9 -10 9 -38q0 -190 -80 -234q-44 -25 -80 -25q-38 0 -66 11t-44 28t-27 47t-15.5 57t-8.5 69q-6 51 -6 104q0 140 26 242q19 74 54.5 104.5t104.5 35.5h6
h12q70 0 98 -46t28 -129q0 -10 -1.5 -29t-1.5 -24q-2 -26 -20 -44.5t-44 -18.5q-25 0 -43.5 13.5t-18.5 34.5v11q0 71 -13 105q-4 7 -13 7q-51 0 -51 -232q0 -18 0.5 -44t0.5 -33v-17q0 -51 9 -79q12 -34 39 -34zM292 745q0 -13 -10 -21.5t-27 -8.5q-13 0 -23.5 8
t-20.5 22.5t-13 17.5q-11 -19 -13 -22q-22 -29 -40 -29q-35 0 -35 37q0 12 2.5 22.5t5 17.5t9.5 17t9.5 13.5t12.5 14.5t11 12q19 21 46 21q29 0 57.5 -43.5t28.5 -78.5z" />
    <glyph glyph-name="Gbreve" unicode="&#x11e;" horiz-adv-x="359" 
d="M199 716q-39 0 -74.5 33t-35.5 76q0 20 8.5 35.5t20.5 15.5q31 0 47 -26q4 -7 7.5 -14.5t5 -10.5t4 -7t5.5 -5t8 -2t12 -1q18 0 24 8t16 37q8 22 39 22q14 0 24.5 -10.5t10.5 -24.5q0 -56 -34 -91t-88 -35zM143 410q-6 -57 -6 -87v-62q0 -105 43 -105q16 0 34 17.5
t18 37.5q0 3 -7 3h-11q-44 0 -44 48q0 19 12.5 39t26.5 24q11 3 21 3q11 0 39 -4q56 -6 65 -41q7 -27 7 -61q0 -60 -26 -119t-70 -87q-30 -19 -67 -19q-25 0 -55 11q-49 18 -76 90q-28 76 -28 186q0 100 32 236q27 108 76 149q29 24 93 24q39 0 72 -18.5t40 -49.5
q5 -21 5 -58q0 -85 -33 -125q-16 -19 -39 -19q-12 0 -25 7q-18 10 -18 43v21v2v20q-4 40 -21 42h-1l-2 1q-36 0 -55 -149z" />
    <glyph glyph-name="gbreve" unicode="&#x11f;" horiz-adv-x="365" 
d="M189 130q14 0 22.5 19t8.5 44q0 5 -1.5 7.5t-3 3.5t-6 2.5l-7.5 2.5q-35 13 -35 49q0 26 28 40t62 14q57 0 78 -24q9 -10 9 -38q0 -190 -80 -234q-44 -25 -80 -25q-38 0 -66 11t-44 28t-27 47t-15.5 57t-8.5 69q-6 51 -6 104q0 140 26 242q19 74 54.5 104.5t104.5 35.5h6
h12q70 0 98 -46t28 -129q0 -10 -1.5 -29t-1.5 -24q-2 -26 -20 -44.5t-44 -18.5q-25 0 -43.5 13.5t-18.5 34.5v11q0 71 -13 105q-4 7 -13 7q-51 0 -51 -232q0 -18 0.5 -44t0.5 -33v-17q0 -51 9 -79q12 -34 39 -34zM193 710q-39 0 -74.5 33t-35.5 76q0 20 8.5 35t20.5 15
q33 0 47 -25q4 -7 7.5 -14.5t5 -10.5t4 -7t5.5 -5t8 -2t12 -1q18 0 24 8t16 37q8 22 39 22q14 0 24 -10.5t10 -24.5q0 -56 -34 -91t-87 -35z" />
    <glyph glyph-name="Gdotaccent" unicode="&#x120;" horiz-adv-x="359" 
d="M266 831q9 -15 9 -38q0 -41 -18 -56q-20 -18 -53 -18q-19 0 -35 10q-29 20 -29 43v1q0 22 4 31q8 23 30 37.5t45 14.5q29 0 47 -25zM143 410q-6 -57 -6 -87v-62q0 -105 43 -105q16 0 34 17.5t18 37.5q0 3 -7 3h-11q-44 0 -44 48q0 19 12.5 39t26.5 24q11 3 21 3
q11 0 39 -4q56 -6 65 -41q7 -27 7 -61q0 -60 -26 -119t-70 -87q-30 -19 -67 -19q-25 0 -55 11q-49 18 -76 90q-28 76 -28 186q0 100 32 236q27 108 76 149q29 24 93 24q39 0 72 -18.5t40 -49.5q5 -21 5 -58q0 -85 -33 -125q-16 -19 -39 -19q-12 0 -25 7q-18 10 -18 43v21v2
v20q-4 40 -21 42h-1l-2 1q-36 0 -55 -149z" />
    <glyph glyph-name="gdotaccent" unicode="&#x121;" horiz-adv-x="365" 
d="M189 130q14 0 22.5 19t8.5 44q0 5 -1.5 7.5t-3 3.5t-6 2.5l-7.5 2.5q-35 13 -35 49q0 26 28 40t62 14q57 0 78 -24q9 -10 9 -38q0 -190 -80 -234q-44 -25 -80 -25q-38 0 -66 11t-44 28t-27 47t-15.5 57t-8.5 69q-6 51 -6 104q0 140 26 242q19 74 54.5 104.5t104.5 35.5h6
h12q70 0 98 -46t28 -129q0 -10 -1.5 -29t-1.5 -24q-2 -26 -20 -44.5t-44 -18.5q-25 0 -43.5 13.5t-18.5 34.5v11q0 71 -13 105q-4 7 -13 7q-51 0 -51 -232q0 -18 0.5 -44t0.5 -33v-17q0 -51 9 -79q12 -34 39 -34zM250 822q9 -15 9 -39q0 -40 -18 -55q-22 -18 -54 -18
q-16 0 -34 10q-29 20 -29 43v2q0 22 4 30q8 23 30 38t45 15q30 0 47 -26z" />
    <glyph glyph-name="uni0122" unicode="&#x122;" horiz-adv-x="359" 
d="M119 -80q0 23 17.5 43.5t43.5 20.5q21 0 35.5 -16.5t14.5 -40.5q0 -13 -4 -24q-22 -61 -61 -78q-14 -10 -26 -10q-8 0 -13 4q-10 0 -10 7q0 8 29 30q10 10 10 16v7q-36 8 -36 41zM143 410q-6 -57 -6 -87v-62q0 -105 43 -105q16 0 34 17.5t18 37.5q0 3 -7 3h-11
q-44 0 -44 48q0 19 12.5 39t26.5 24q11 3 21 3q11 0 39 -4q56 -6 65 -41q7 -27 7 -61q0 -60 -26 -119t-70 -87q-30 -19 -67 -19q-25 0 -55 11q-49 18 -76 90q-28 76 -28 186q0 100 32 236q27 108 76 149q29 24 93 24q39 0 72 -18.5t40 -49.5q5 -21 5 -58q0 -85 -33 -125
q-16 -19 -39 -19q-12 0 -25 7q-18 10 -18 43v21v2v20q-4 40 -21 42h-1l-2 1q-36 0 -55 -149z" />
    <glyph glyph-name="uni0123" unicode="&#x123;" horiz-adv-x="369" 
d="M124 -80q0 23 18 43.5t44 20.5q21 0 35.5 -16.5t14.5 -40.5q0 -11 -5 -24q-22 -62 -61 -78q-12 -10 -26 -10q-7 0 -12 4q-10 0 -10 7q0 8 29 30q9 9 9 16v7q-36 8 -36 41zM191 138q14 0 22.5 19t8.5 44q0 5 -1.5 7.5t-3 3.5t-6 2.5l-7.5 2.5q-35 13 -35 49q0 26 28 40.5
t62 14.5q56 0 78 -25q9 -10 9 -38q0 -189 -80 -233q-46 -26 -80 -26q-38 0 -66 11t-44 28t-27 47t-15.5 57t-8.5 69q-6 51 -6 104q0 132 26 234q20 78 59.5 109t117.5 31q70 0 98 -46t28 -129q0 -10 -1.5 -29t-1.5 -24q-2 -26 -20 -44.5t-44 -18.5q-25 0 -43.5 13.5
t-18.5 34.5v11q0 71 -13 105q-4 7 -12 7q-7 0 -15.5 -5t-10.5 -10q-24 -68 -24 -148q0 -6 0.5 -20t0.5 -21q0 -15 -1 -47t-1 -50q0 -77 18 -116q6 -14 30 -14z" />
    <glyph glyph-name="Hcircumflex" unicode="&#x124;" horiz-adv-x="362" 
d="M284 748q0 -14 -10.5 -23t-26.5 -9q-13 0 -24 8.5t-21 23t-13 17.5q-2 -3 -5.5 -11.5t-6.5 -11.5q-23 -28 -40 -28q-36 0 -36 37q0 14 2.5 25t9.5 22.5t10.5 16.5t15 17.5t13.5 14.5q19 21 46 21q29 0 57.5 -42.5t28.5 -77.5zM164 527v-12q0 -9 -1 -38t-1 -43
q0 -32 13 -32q32 0 36 23q3 48 3 95q0 179 54 179q78 0 78 -133q0 -20 -5 -108q-4 -60 -4 -88q0 -43 1 -63q0 -10 0.5 -30t0.5 -30q1 -14 1 -50q0 -178 -69 -178q-36 0 -46 12.5t-13 51.5q-2 18 -2 29q-1 18 -1 60t-2 64q0 2 -0.5 6t-0.5 6t-0.5 5t-2 5t-4 3t-5.5 1
q-37 0 -40 -7q-6 -19 -8 -64t-3 -51q-11 -96 -43 -125q-14 -14 -31 -14q-27 0 -40 24.5t-13 60.5q0 20 3 54t3 49q0 13 1 37.5t1.5 44.5t0.5 38v50v83q0 14 -0.5 39t-0.5 39q0 51 9 87q7 28 12 42t20.5 29t39.5 15q32 0 48.5 -24.5t16.5 -61.5q0 -15 -3 -41.5t-3 -38.5z" />
    <glyph glyph-name="hcircumflex" unicode="&#x125;" horiz-adv-x="364" 
d="M280 746q0 -14 -10.5 -22.5t-26.5 -8.5q-13 0 -24 8.5t-21 23t-13 17.5q-2 -3 -5.5 -11.5t-6.5 -11.5q-23 -28 -40 -28q-36 0 -36 37q0 12 2.5 22.5t5 17.5t9 16.5t10 13.5t12.5 13.5t11 12.5q19 21 47 21q29 0 57.5 -43t28.5 -78zM205 199q0 6 -0.5 18t-0.5 17
q-2 20 -5 23q-5 2 -18 2q-23 0 -28 -8q-12 -42 -12 -126v-24q0 -20 -1.5 -33.5t-6 -28.5t-15 -22.5t-26.5 -7.5q-32 0 -52 19t-22 50q-2 30 -2 46q0 42 7.5 119t8.5 107q2 35 3.5 90.5t2.5 90.5q4 91 31 115q19 17 42 17q25 0 39 -15.5t14 -42.5q0 -13 -3.5 -36.5
t-4.5 -31.5q-10 -84 -10 -105q0 -29 20 -29q11 0 25 6q17 6 19 12q2 5 3 13q1 22 1 64v30q0 90 19 139q14 34 45 34q39 0 51.5 -30.5t12.5 -83.5q0 -63 -0.5 -197t-0.5 -201v-59q0 -39 -2 -56q-4 -43 -24 -61q-20 -17 -69 -17q-15 0 -24 12t-12.5 36.5t-4.5 41t-1 43.5
q0 11 0.5 34.5t0.5 35.5z" />
    <glyph glyph-name="Hbar" unicode="&#x126;" horiz-adv-x="361" 
d="M164 527v-12v-20l50 -1v26q0 181 54 181q78 0 78 -133q0 -24 -4 -74h13q30 0 30 -18q0 -14 -6.5 -21t-14.5 -8.5t-28 -3.5q-5 -43 -5 -75q0 -22 4 -62t4 -59q1 -14 1 -50q0 -178 -69 -178q-36 0 -46 12.5t-13 51.5q-2 18 -2 29q0 9 -1 62.5t-4 79.5q-2 6 -3 8h-8
q-37 0 -40 -7q-6 -19 -8 -64t-3 -51q-11 -96 -43 -125q-14 -14 -31 -14q-27 0 -40 24.5t-13 60.5q0 20 3 54t3 49q0 13 1 37.5t1.5 44.5t0.5 38v50v83v9q-33 4 -33 23q0 20 32 22v24q0 53 9 89q7 28 12 42t20.5 29t39.5 15q32 0 48.5 -24.5t16.5 -61.5q0 -15 -3 -42.5
t-3 -39.5zM162 445v-11q0 -32 13 -32q32 0 36 23q0 3 0.5 9t0.5 9q-16 0 -50 2z" />
    <glyph glyph-name="hbar" unicode="&#x127;" horiz-adv-x="367" 
d="M208 199q0 9 -1 27t-1 26q0 3 -2 7h-20q-23 0 -28 -8q-12 -42 -12 -126v-24q0 -20 -1.5 -33.5t-6 -28.5t-15 -22.5t-26.5 -7.5q-32 0 -51.5 19t-21.5 50q-3 45 -3 46q0 42 7.5 119t8.5 107q1 23 2 59.5t1 40.5q-46 2 -46 24t41 22h7q0 23 1 35q4 91 31 115q19 17 42 17
q25 0 39 -15.5t14 -42.5q0 -13 -3.5 -36.5t-4.5 -31.5q-5 -36 -5 -42l63 -1v4v30q0 88 20 139q14 34 44 34q39 0 51.5 -30.5t12.5 -83.5q0 -7 -0.5 -22t-0.5 -22v-49h11q30 0 30 -18t-9 -23.5t-32 -8.5q0 -20 -2 -57.5t-2 -56.5q0 -20 2 -68t2 -73q0 -138 -57 -178
q-23 -15 -38 -15t-24 12t-12.5 36.5t-4.5 41t-1 43.5q0 11 0.5 34.5t0.5 35.5zM150 446v-14q0 -29 19 -29q10 0 42 12l1 1q2 0 2 1q2 16 2 25q-10 0 -31.5 1.5t-34.5 2.5z" />
    <glyph glyph-name="Itilde" unicode="&#x128;" horiz-adv-x="177" 
d="M55 815q7 0 21 -2.5t22 -2.5q10 0 17 2t15 5t14 5q4 1 12 1q26 0 26 -33q0 -24 -14 -43t-38 -19q-9 0 -17 0.5t-17 0.5t-14 -1q-9 -2 -20 -9t-13 -8q-13 -6 -29 -6q-25 0 -25 29t16.5 55t43.5 26zM94 8q-70 0 -74 90v15q0 14 1.5 41.5t1.5 40.5v2v22v22v25v25
q0 119 2 170q4 100 10 152q7 53 28 69q7 6 22 6q37 0 50.5 -28.5t15.5 -77.5q1 -29 1 -90v-90q0 -63 1 -93q2 -32 2 -101v-23v-12v-19v-18q-2 -128 -61 -128z" />
    <glyph glyph-name="itilde" unicode="&#x129;" horiz-adv-x="175" 
d="M57 821q7 0 21 -2.5t22 -2.5q10 0 17 2t15 5t14 5q4 1 12 1q26 0 26 -33q0 -24 -14 -43t-38 -19q-9 0 -17 0.5t-17 0.5t-14 -1q-9 -2 -20 -9t-13 -8q-13 -6 -28 -6q-26 0 -26 29t16.5 55t43.5 26zM154 515v-39q0 -99 -2 -231q-1 -45 -5 -129q0 -8 -0.5 -25t-0.5 -23
t-1.5 -18.5t-4 -17.5t-7.5 -12.5t-12 -10.5t-17.5 -5.5t-24.5 -2.5q-34 0 -45.5 25.5t-11.5 71.5q0 18 1 60.5t1 61.5v179q0 25 -0.5 84t-0.5 84q0 59 19 89t46 30q36 0 54 -52q12 -36 12 -82v-37z" />
    <glyph glyph-name="Imacron" unicode="&#x12a;" horiz-adv-x="177" 
d="M95 713q-81 0 -87 36q-2 12 -2 16q0 29 18 38.5t49 9.5q16 0 25.5 -0.5t21.5 -1.5t26 -2q40 -1 40 -34q0 -19 -13.5 -37t-31.5 -21q-23 -4 -46 -4zM94 8q-70 0 -74 90v15q0 14 1.5 41.5t1.5 40.5v2v22v22v25v25q0 119 2 170q4 100 10 152q7 53 28 69q7 6 22 6
q37 0 50.5 -28.5t15.5 -77.5q1 -29 1 -90v-90q0 -63 1 -93q2 -32 2 -101v-23v-12v-19v-18q-2 -128 -61 -128z" />
    <glyph glyph-name="imacron" unicode="&#x12b;" horiz-adv-x="175" 
d="M89 713q-95 0 -102 36q-2 12 -2 16q0 29 20.5 38.5t56.5 9.5q2 0 88 -4q48 -1 48 -34q0 -19 -16.5 -37t-37.5 -21q-29 -4 -55 -4zM154 515v-39q0 -99 -2 -231q-1 -45 -5 -129q0 -8 -0.5 -25t-0.5 -23t-1.5 -18.5t-4 -17.5t-7.5 -12.5t-12 -10.5t-17.5 -5.5t-24.5 -2.5
q-34 0 -45.5 25.5t-11.5 71.5q0 18 1 60.5t1 61.5v179q0 25 -0.5 84t-0.5 84q0 59 19 89t46 30q36 0 54 -52q12 -36 12 -82v-37z" />
    <glyph glyph-name="Ibreve" unicode="&#x12c;" horiz-adv-x="177" 
d="M79 713q-39 0 -74 33t-35 76q0 20 8 35t20 15q34 0 47 -25q4 -7 7.5 -14.5t5 -10.5t4 -7t5.5 -5t8 -2t12 -1q18 0 24 8t16 37q8 22 39 22q14 0 24.5 -10.5t10.5 -25.5q0 -55 -34.5 -90t-87.5 -35zM94 8q-70 0 -74 90v15q0 14 1.5 41.5t1.5 40.5v2v22v22v25v25
q0 119 2 170q4 100 10 152q7 53 28 69q7 6 22 6q37 0 50.5 -28.5t15.5 -77.5q1 -29 1 -90v-90q0 -63 1 -93q2 -32 2 -101v-23v-12v-19v-18q-2 -128 -61 -128z" />
    <glyph glyph-name="ibreve" unicode="&#x12d;" horiz-adv-x="175" 
d="M78 717q-39 0 -74.5 33t-35.5 76q0 20 8.5 35.5t20.5 15.5q31 0 47 -26q4 -7 7.5 -14.5t5 -10.5t4 -7t5.5 -5t8 -2t12 -1q18 0 24 8t16 37q8 23 39 23q14 0 24.5 -11t10.5 -26q0 -55 -34.5 -90t-87.5 -35zM154 515v-39q0 -99 -2 -231q-1 -45 -5 -129q0 -8 -0.5 -25
t-0.5 -23t-1.5 -18.5t-4 -17.5t-7.5 -12.5t-12 -10.5t-17.5 -5.5t-24.5 -2.5q-34 0 -45.5 25.5t-11.5 71.5q0 18 1 60.5t1 61.5v179q0 25 -0.5 84t-0.5 84q0 59 19 89t46 30q36 0 54 -52q12 -36 12 -82v-37z" />
    <glyph glyph-name="Iogonek" unicode="&#x12e;" horiz-adv-x="177" 
d="M94 -25v-4q0 -8 6 -16.5t13 -9.5h6q6 0 34 4h6q5 0 7 -1q19 -4 19 -26q0 -6 -1 -8q-3 -17 -19 -24q-19 -7 -47 -7q-9 0 -15 2h-3q-28 9 -48.5 34t-20.5 57q0 12 3 22q3 15 11 27q-23 23 -25 73v15q0 14 1.5 41.5t1.5 40.5v2v22v22v25v25q0 119 2 170q4 100 10 152
q7 53 28 69q7 6 22 6q37 0 50.5 -28.5t15.5 -77.5q1 -29 1 -90v-90q0 -63 1 -93q2 -32 2 -101v-23v-12v-19v-18q-2 -93 -30 -118q-4 -10 -17 -25t-14 -18z" />
    <glyph glyph-name="iogonek" unicode="&#x12f;" horiz-adv-x="175" 
d="M90 -28v-4q0 -8 6 -16.5t13 -9.5h6q5 0 33 4h7q5 0 7 -1q19 -4 19 -26q0 -6 -1 -8q-4 -18 -19 -24q-19 -7 -47 -7q-9 0 -15 2h-3q-28 9 -48.5 34t-20.5 57q0 11 3 22q3 13 9 23q-17 21 -17 80q0 18 1 60.5t1 61.5v179q0 25 -0.5 84t-0.5 84q0 59 19 89t46 30q36 0 54 -52
q12 -36 12 -82v-37v-39q0 -99 -2 -231q-1 -45 -5 -129q0 -9 -0.5 -26t-0.5 -24t-2 -19t-5 -18t-8.5 -12.5t-14.5 -9.5q-4 -7 -14.5 -19t-11.5 -16z" />
    <glyph glyph-name="Idotaccent" unicode="&#x130;" horiz-adv-x="177" 
d="M148 823q11 -18 11 -39q0 -39 -20 -55q-20 -18 -52 -18q-20 0 -36 10q-27 19 -27 43v1q0 22 3 31q8 23 29.5 37.5t45.5 14.5q28 0 46 -25zM94 8q-70 0 -74 90v15q0 14 1.5 41.5t1.5 40.5v2v22v22v25v25q0 119 2 170q4 100 10 152q7 53 28 69q7 6 22 6q37 0 50.5 -28.5
t15.5 -77.5q1 -29 1 -90v-90q0 -63 1 -93q2 -32 2 -101v-23v-12v-19v-18q-2 -128 -61 -128z" />
    <glyph glyph-name="dotlessi" unicode="&#x131;" horiz-adv-x="175" 
d="M154 515v-39q0 -99 -2 -231q-1 -45 -5 -129q0 -8 -0.5 -25t-0.5 -23t-1.5 -18.5t-4 -17.5t-7.5 -12.5t-12 -10.5t-17.5 -5.5t-24.5 -2.5q-34 0 -45.5 25.5t-11.5 71.5q0 18 1 60.5t1 61.5v179q0 25 -0.5 84t-0.5 84q0 59 19 89t46 30q36 0 54 -52q12 -36 12 -82v-37z" />
    <glyph glyph-name="IJ" unicode="&#x132;" horiz-adv-x="536" 
d="M342 125q26 0 26 44v118q0 129 -8 245q-3 60 -3 64q0 38 8 57q17 47 54 47q63 0 78 -130q8 -78 8 -169q0 -151 -17 -261q-24 -156 -139 -156q-45 0 -84 20.5t-55 58.5q-23 60 -23 110q0 36 25 58.5t54 22.5q19 0 31.5 -10.5t12.5 -31.5v-6q0 -26 1.5 -40.5t8.5 -27.5
t22 -13zM94 8q-70 0 -74 90v15q0 14 1.5 41.5t1.5 40.5v2v22v22v25v25q0 119 2 170q4 100 10 152q7 53 28 69q7 6 22 6q37 0 50.5 -28.5t15.5 -77.5q1 -29 1 -90v-90q0 -63 1 -93q2 -32 2 -101v-23v-12v-19v-18q-2 -128 -61 -128z" />
    <glyph glyph-name="ij" unicode="&#x133;" horiz-adv-x="525" 
d="M311 260v-20q0 -69 18 -69q7 0 14 13q14 25 17 121q1 30 4 100.5t4 109.5q3 89 5 102q4 19 6 28t10.5 20t21.5 13q12 2 19 2q53 0 65 -37q9 -24 9 -66q0 -17 -2 -48.5t-2 -39.5q0 -16 -1.5 -78.5t-3 -93t-6 -80.5t-13.5 -87.5t-22 -67.5q-12 -30 -52 -56t-78 -26h-1
q-28 0 -49 9t-33.5 22.5t-22 36.5t-13.5 42.5t-9 48.5q-3 22 -3 46q0 108 64 108q31 0 42.5 -13.5t11.5 -39.5zM154 515v-39q0 -99 -2 -231q-1 -45 -5 -129q0 -8 -0.5 -25t-0.5 -23t-1.5 -18.5t-4 -17.5t-7.5 -12.5t-12 -10.5t-17.5 -5.5t-24.5 -2.5q-34 0 -45.5 25.5
t-11.5 71.5q0 18 1 60.5t1 61.5v179q0 25 -0.5 84t-0.5 84q0 59 19 89t46 30q36 0 54 -52q12 -36 12 -82v-37z" />
    <glyph glyph-name="Jcircumflex" unicode="&#x134;" 
d="M333 742q0 -14 -10.5 -22.5t-26.5 -8.5q-13 0 -23.5 8.5t-20.5 23t-13 17.5q-12 -22 -13 -23q-23 -28 -40 -28q-35 0 -35 36q0 12 2.5 22.5t5 17.5t9.5 17t9.5 13.5t12.5 14.5t11 12q19 21 46 21q29 0 57.5 -43t28.5 -78zM165 125q25 0 25 44v118q0 143 -7 245
q-3 60 -3 64q0 40 7 57q17 47 55 47q62 0 77 -130q9 -88 9 -169q0 -151 -17 -261q-24 -156 -139 -156q-45 0 -84 20.5t-55 58.5q-23 60 -23 110q0 36 25 58.5t54 22.5q19 0 31.5 -10.5t12.5 -31.5v-6q0 -26 1.5 -40.5t8.5 -27.5t22 -13z" />
    <glyph glyph-name="jcircumflex" unicode="&#x135;" horiz-adv-x="350" 
d="M348 726q0 -14 -10.5 -23t-26.5 -9q-13 0 -23.5 8.5t-20.5 23t-13 17.5q-2 -3 -4 -8t-4 -8l-4 -6q-24 -29 -40 -29q-36 0 -36 37q0 12 2.5 22.5t5 17.5t9 16.5t10 13.5t12.5 13.5t11 12.5q20 22 46 22q29 0 57.5 -43t28.5 -78zM138 260v-20q0 -69 18 -69q8 0 14 13
q14 25 17 121q1 30 4 100.5t4 109.5q3 89 5 102q4 19 6 28t10.5 20t21.5 13q12 2 19 2q53 0 65 -37q9 -24 9 -66q0 -17 -2 -48.5t-2 -39.5q0 -16 -1.5 -78.5t-3 -93t-6 -80.5t-13.5 -87.5t-22 -67.5q-12 -30 -52 -56t-78 -26h-1q-28 0 -49 9t-33.5 22.5t-22 36.5t-13.5 42.5
t-9 48.5q-4 30 -4 46q0 108 65 108q31 0 42.5 -13.5t11.5 -39.5z" />
    <glyph glyph-name="uni0136" unicode="&#x136;" horiz-adv-x="397" 
d="M180 274q-9 -1 -9 -65v-11v-1q-1 -16 -1 -45t-1 -53t-4 -44q-8 -48 -65 -48q-48 0 -64.5 40.5t-16.5 112.5q0 139 11 324q5 70 12 140q6 49 54 49q39 0 59 -28q9 -18 9 -27q4 -19 5 -55t3 -51q0 -2 1 -4t1 -4q2 2 12 14q11 18 34.5 51t26.5 37t8 14t8 14q32 51 70 51
q21 0 43 -27q10 -16 10 -34q0 -35 -41 -90q-4 -5 -19 -25.5t-23 -30.5q-9 -13 -31 -35t-31 -34l-1 -2q0 -1 0.5 -3l0.5 -2q58 -65 80 -117q5 -11 25 -58q2 -5 7.5 -19t8 -21t7 -20t6.5 -22t3.5 -22t1.5 -25q0 -46 -18 -75t-56 -29q-29 0 -41 22q-3 5 -24 55q-3 8 -8 29.5
t-12.5 53t-12.5 50.5q-16 71 -28 71v-1zM132 -65q0 24 18.5 44.5t44.5 20.5q22 0 36.5 -16.5t14.5 -40.5q0 -15 -5 -26q-20 -60 -62 -78q-15 -11 -26 -11q-4 0 -14 4q-9 2 -9 8q0 7 30 31q9 7 9 15v9q-37 8 -37 40z" />
    <glyph glyph-name="uni0137" unicode="&#x137;" horiz-adv-x="407" 
d="M140 -57q0 19 14.5 35.5t35.5 16.5q17 0 28.5 -13t11.5 -33q0 -13 -4 -22q-16 -49 -49 -63q-11 -9 -20 -9q-5 0 -11 4q-8 0 -8 6q0 4 5 9t12 10l7 5q7 5 7 14v6q-29 7 -29 34zM37 418q0 20 -1.5 60t-1.5 61q0 62 10 90q18 44 71 44q35 0 48 -24q8 -17 8 -52
q0 -48 -6 -102q1 -1 3 -1q22 0 42 32q15 21 36 65t26 51q21 32 55 32q6 0 16 -2q55 -14 55 -58q0 -42 -22 -74q-8 -10 -31 -43.5t-37 -50.5q-3 -4 -16 -19.5t-22.5 -27.5t-18 -25t-8.5 -18q1 -4 11 -22q6 -14 45 -79q58 -93 71 -143q8 -30 8 -64q0 -49 -49 -49q-22 0 -45 8
t-32 17t-17.5 23t-13 24t-11 31.5t-8 29t-7 34t-6.5 29.5q-13 65 -23 65q-8 0 -11 -53q-1 -15 -2 -44.5t-2.5 -53.5t-4.5 -42q-8 -45 -26 -53q-24 -10 -40 -10q-19 0 -36 10t-21 24q-4 16 -4 27q0 25 1 37q0 34 6 100l6 93q5 68 5 123z" />
    <glyph glyph-name="kgreenlandic" unicode="&#x138;" horiz-adv-x="411" 
d="M41 432q4 37 38 42q3 0 16.5 1.5t19.5 1.5q34 0 45 -13t11 -40q0 -34 -6 -72q1 -1 3 -1q6 0 18.5 8t16.5 12q13 14 34 42.5t35 42.5q22 22 55 22q6 0 16 -2q55 -10 55 -40t-22 -52q-5 -4 -29.5 -29t-38.5 -37q-3 -3 -12.5 -10.5t-17.5 -14.5t-16.5 -14.5t-13.5 -13.5
t-5 -9q1 -4 11 -16q10 -14 49.5 -62.5t52.5 -74.5q4 -8 9.5 -23t7.5 -19q5 -12 5 -27q0 -35 -47 -35q-52 0 -75 17q-9 7 -17 16.5t-13 17.5t-10.5 22.5t-7.5 21.5t-7 24t-6 22q-13 48 -23 48q-8 0 -11 -37q-2 -13 -3.5 -33.5t-2.5 -33.5t-6 -29t-12 -24.5t-21.5 -15
t-35.5 -6.5q-19 0 -35.5 7t-21.5 17q-4 12 -4 18q0 117 22 381z" />
    <glyph glyph-name="Lacute" unicode="&#x139;" horiz-adv-x="265" 
d="M95 705q-43 0 -43 30q0 13 5.5 24.5t11.5 18.5t20.5 16t20 12t24 11t19.5 9q18 9 32 9q37 0 37 -37q0 -17 -5.5 -30t-16.5 -22t-21 -14.5t-26 -11.5q-34 -15 -58 -15zM252 89q0 -45 -27.5 -70t-74.5 -25q-51 0 -82 9.5t-39 42.5q-9 34 -9 64v7q4 77 4 168v53
q0 193 19 280q5 22 26 47q10 13 30 13q52 0 52 -86v-17q0 -9 0.5 -29t0.5 -29v-229q0 -12 -0.5 -32t-0.5 -32v-21q0 -48 12 -51q35 -3 62 -18.5t27 -44.5z" />
    <glyph glyph-name="lacute" unicode="&#x13a;" horiz-adv-x="276" 
d="M88 707q-43 0 -43 30q0 11 3 20.5t10.5 18t13.5 14t18.5 12.5t18.5 10t19.5 9t16.5 7q18 9 33 9q37 0 37 -37q0 -22 -11.5 -38t-24 -23.5t-34.5 -16.5q-34 -15 -57 -15zM151 282q0 -8 0.5 -23t0.5 -22q0 -5 -0.5 -16t-0.5 -17q0 -39 9 -54q8 -3 24.5 -6.5t22.5 -4.5
q55 -13 55 -66q0 -44 -29 -65q-28 -18 -94 -18h-10q-21 0 -40 3q-22 5 -39 14q-24 15 -28 39q-3 14 -3 30q0 22 3.5 59t3.5 54q1 23 1 68v79v147q0 13 2 63q2 60 9 80q17 47 52 58q8 2 13 2q51 0 64 -47q6 -22 6 -62q0 -32 -7.5 -91t-9.5 -78q-1 -13 -2 -40t-2 -41
q-1 -15 -1 -45z" />
    <glyph glyph-name="uni013B" unicode="&#x13b;" horiz-adv-x="265" 
d="M69 -87q0 24 19 44t46 20q22 0 36.5 -16.5t14.5 -40.5q0 -13 -4 -25q-22 -61 -64 -78q-17 -12 -28 -12q-2 0 -12 5q-11 2 -11 8q0 4 6.5 10.5t14.5 12.5t9 7q10 7 10 16v8q-37 8 -37 41zM252 89q0 -45 -27.5 -70t-74.5 -25q-51 0 -82 9.5t-39 42.5q-9 34 -9 64v7
q4 77 4 168v53q0 193 19 280q5 22 26 47q10 13 30 13q52 0 52 -86v-17q0 -9 0.5 -29t0.5 -29v-229q0 -12 -0.5 -32t-0.5 -32v-21q0 -48 12 -51q35 -3 62 -18.5t27 -44.5z" />
    <glyph glyph-name="uni013C" unicode="&#x13c;" horiz-adv-x="276" 
d="M151 282q0 -8 0.5 -23t0.5 -22q0 -5 -0.5 -16t-0.5 -17q0 -39 9 -54q8 -3 24.5 -6.5t22.5 -4.5q55 -13 55 -66q0 -44 -29 -65q-28 -18 -94 -18h-10q-21 0 -40 3q-22 5 -39 14q-24 15 -28 39q-3 14 -3 30q0 22 3.5 59t3.5 54q1 23 1 68v79v147q0 13 2 63q2 60 9 80
q17 47 52 58q8 2 13 2q51 0 64 -47q6 -22 6 -62q0 -32 -7.5 -91t-9.5 -78q-1 -13 -2 -40t-2 -41q-1 -15 -1 -45zM62 -96q0 25 18 46t43 21q21 0 34.5 -17t13.5 -42q0 -19 -4 -28q-21 -64 -59 -82q-13 -11 -26 -11q-4 0 -12 4q-10 2 -10 8q0 4 4 9.5t9 9.5t10 8.5t6 5.5
q9 7 9 17v8q-36 8 -36 43z" />
    <glyph glyph-name="Lcaron" unicode="&#x13d;" horiz-adv-x="265" 
d="M162 606q0 21 16 38.5t39 17.5q20 0 32.5 -14t12.5 -35q0 -14 -3 -21q-20 -53 -56 -67q-14 -9 -24 -9q-6 0 -11 4q-9 0 -9 6q0 4 5.5 9.5t13.5 10.5l7 6q9 7 9 13v7q-32 7 -32 34zM252 89q0 -45 -27.5 -70t-74.5 -25q-51 0 -82 9.5t-39 42.5q-9 34 -9 64v7q4 77 4 168v53
q0 193 19 280q5 22 26 47q10 13 30 13q52 0 52 -86v-17q0 -9 0.5 -29t0.5 -29v-229q0 -12 -0.5 -32t-0.5 -32v-21q0 -48 12 -51q35 -3 62 -18.5t27 -44.5z" />
    <glyph glyph-name="lcaron" unicode="&#x13e;" horiz-adv-x="276" 
d="M151 282q0 -8 0.5 -23t0.5 -22q0 -5 -0.5 -16t-0.5 -17q0 -39 9 -54q8 -3 24.5 -6.5t22.5 -4.5q55 -13 55 -66q0 -44 -29 -65q-28 -18 -94 -18h-10q-21 0 -40 3q-22 5 -39 14q-24 15 -28 39q-3 14 -3 30q0 22 3.5 59t3.5 54q1 23 1 68v79v147q0 13 2 63q2 60 9 80
q17 47 52 58q8 2 13 2q51 0 64 -47q6 -22 6 -62q0 -32 -7.5 -91t-9.5 -78q-1 -13 -2 -40t-2 -41q-1 -15 -1 -45zM181 602q0 21 16 39t39 18q19 0 31 -14.5t12 -35.5q0 -10 -5 -22q-18 -55 -53 -69q-10 -10 -22 -10q-7 0 -11 4q-9 0 -9 6q0 8 26 28q8 6 8 14v6q-32 7 -32 36z
" />
    <glyph glyph-name="Ldot" unicode="&#x13f;" horiz-adv-x="265" 
d="M208 342q-18 0 -30 9t-12 25q0 37 28 58q6 5 17 5q20 0 33 -12.5t13 -31.5q0 -18 -8 -29q-16 -24 -41 -24zM252 89q0 -45 -27.5 -70t-74.5 -25q-51 0 -82 9.5t-39 42.5q-9 34 -9 64v7q4 77 4 168v53q0 193 19 280q5 22 26 47q10 13 30 13q52 0 52 -86v-17q0 -9 0.5 -29
t0.5 -29v-229q0 -12 -0.5 -32t-0.5 -32v-21q0 -48 12 -51q35 -3 62 -18.5t27 -44.5z" />
    <glyph glyph-name="ldot" unicode="&#x140;" horiz-adv-x="302" 
d="M223 264q-22 0 -36.5 10.5t-14.5 29.5q0 45 34 69q7 6 21 6q24 0 40.5 -14.5t16.5 -37.5q0 -20 -10 -34q-21 -29 -51 -29zM151 282q0 -8 0.5 -23t0.5 -22q0 -5 -0.5 -16t-0.5 -17q0 -39 9 -54q8 -3 24.5 -6.5t22.5 -4.5q55 -13 55 -66q0 -44 -29 -65q-28 -18 -94 -18h-10
q-21 0 -40 3q-22 5 -39 14q-24 15 -28 39q-3 14 -3 30q0 22 3.5 59t3.5 54q1 23 1 68v79v147q0 13 2 63q2 60 9 80q17 47 52 58q8 2 13 2q51 0 64 -47q6 -22 6 -62q0 -32 -7.5 -91t-9.5 -78q-1 -13 -2 -40t-2 -41q-1 -15 -1 -45z" />
    <glyph glyph-name="Lslash" unicode="&#x141;" horiz-adv-x="339" 
d="M318 89q0 -45 -27.5 -70t-74.5 -25q-51 0 -82 9.5t-39 42.5q-8 30 -8 64q0 17 1.5 48.5t1.5 47.5q-17 -5 -29 -5q-16 0 -24 9q-18 20 -18 38q0 5 1.5 10.5t4.5 10t6 8.5t8.5 8.5t9 7.5t11 7.5t10.5 6t10.5 6t9.5 5.5v20q0 189 20 280q5 24 25 47q10 13 32 13
q30 0 40 -22.5t10 -63.5v-17q0 -9 0.5 -29t0.5 -29v-126q35 20 49 20q33 0 33 -41q0 -36 -21 -52q-3 -3 -12 -8.5t-24 -14t-25 -15.5q0 -11 -0.5 -32.5t-0.5 -32.5v-21q0 -49 12 -52q89 -7 89 -53z" />
    <glyph glyph-name="lslash" unicode="&#x142;" horiz-adv-x="351" 
d="M218 280q0 -7 0.5 -21.5t0.5 -21.5v-33q0 -41 8 -54q8 -3 24.5 -6.5t22.5 -4.5q56 -14 56 -66q0 -49 -31 -66t-92 -17h-10h-15q-19 0 -27 3q-59 17 -66 53q-2 9 -2 30q0 25 3.5 68.5t3.5 63.5q-19 -7 -33 -7q-16 0 -24 9q-18 20 -18 38q0 16 15 31.5t25.5 22t34.5 19.5
v15v147q0 13 2 63q2 60 9 80q17 46 53 58q8 2 13 2q57 0 65 -52q5 -32 5 -57q0 -32 -8.5 -93.5t-10.5 -89.5q32 17 45 17q16 0 25 -11.5t9 -29.5q0 -35 -22 -52q-3 -3 -12 -8.5t-24 -14t-25 -15.5z" />
    <glyph glyph-name="Nacute" unicode="&#x143;" horiz-adv-x="447" 
d="M222 684q-43 0 -43 31q0 13 5.5 24.5t11.5 18.5t20.5 16t20 12t24 11t19.5 9q16 8 32 8q37 0 37 -37q0 -17 -5.5 -30t-16.5 -22t-21 -14.5t-26 -11.5q-34 -15 -58 -15zM142 338q0 -16 7.5 -87.5t7.5 -115.5v-12q-2 -44 -6 -61q-10 -56 -46 -56q-15 0 -27 8q-30 18 -39 42
q-5 15 -7.5 33.5t-3.5 31t-1.5 37t-0.5 35.5q0 7 -3.5 83t-3.5 115q0 89 9 147q4 30 9 51.5t16 44.5t30.5 35t46.5 12q23 0 40 -8t26 -17t17 -30t10.5 -32.5t8.5 -39.5q27 -136 48 -208q0 -1 2 -3q12 0 12 81q0 26 -1.5 66t-1.5 42q0 51 8 85q18 69 73 69q30 0 41 -14.5
t15 -47.5q3 -30 3 -57q0 -140 -4 -214q0 -9 -1.5 -73.5t-4.5 -99.5q-15 -151 -85 -151q-20 0 -36 11q-34 22 -61 78q-26 53 -53 146t-35 153q-3 -5 -6 -20q-3 -29 -3 -59z" />
    <glyph glyph-name="nacute" unicode="&#x144;" horiz-adv-x="387" 
d="M169 692q-43 0 -43 31q0 11 3 20.5t10.5 18t13.5 14t18.5 12.5t18.5 10t19.5 9t16.5 7q16 8 33 8q37 0 37 -37q0 -22 -11.5 -38t-24 -23t-34.5 -16q-36 -16 -57 -16zM372 612q0 -44 -5.5 -136t-5.5 -134q0 -27 -1.5 -72.5t-1.5 -73.5q0 -103 -15 -139v-1q-1 -1 -3.5 -5
t-3.5 -5.5t-3.5 -5t-4 -5.5t-4 -4.5t-5 -3.5t-6 -2.5t-6.5 -2.5q-12 -3 -22 -3q-50 0 -68 38q-16 33 -26.5 88.5t-19.5 132t-12 97.5q-5 27 -9 27q-5 0 -5 -22q0 -6 0.5 -19.5t0.5 -19.5q6 -148 6 -229q0 -67 -14 -92q-13 -24 -46 -24t-47 24q-14 25 -18 89q-4 40 -4 93
q0 5 0.5 17.5t0.5 18.5v139q0 22 -2 67t-2 69q0 73 22 115.5t81 42.5q58 0 85 -69q6 -16 10.5 -34.5t8.5 -43.5t6 -37q7 -33 13 -33q5 0 7 60q1 33 2.5 54t7 53.5t19.5 50t35 17.5q55 0 55 -77z" />
    <glyph glyph-name="uni0145" unicode="&#x145;" horiz-adv-x="447" 
d="M157 -56q0 25 20.5 45.5t49.5 20.5q24 0 40 -17t16 -42q0 -16 -5 -27q-24 -62 -69 -81q-15 -11 -29 -11q-6 0 -14 4q-11 1 -11 8q0 6 12 16.5t20 15.5q11 9 11 16v9q-41 8 -41 43zM142 338q0 -16 7.5 -87.5t7.5 -115.5v-12q-2 -44 -6 -61q-10 -56 -46 -56q-15 0 -27 8
q-30 18 -39 42q-5 15 -7.5 33.5t-3.5 31t-1.5 37t-0.5 35.5q0 7 -3.5 83t-3.5 115q0 89 9 147q4 30 9 51.5t16 44.5t30.5 35t46.5 12q23 0 40 -8t26 -17t17 -30t10.5 -32.5t8.5 -39.5q27 -136 48 -208q0 -1 2 -3q12 0 12 81q0 26 -1.5 66t-1.5 42q0 51 8 85q18 69 73 69
q30 0 41 -14.5t15 -47.5q3 -30 3 -57q0 -140 -4 -214q0 -9 -1.5 -73.5t-4.5 -99.5q-15 -151 -85 -151q-20 0 -36 11q-34 22 -61 78q-26 53 -53 146t-35 153q-3 -5 -6 -20q-3 -29 -3 -59z" />
    <glyph glyph-name="uni0146" unicode="&#x146;" horiz-adv-x="387" 
d="M123 -70q0 29 22 53.5t54 24.5q26 0 43 -19.5t17 -48.5q0 -18 -5 -31q-25 -73 -75 -94q-19 -14 -32 -14q-7 0 -15 5q-12 2 -12 10q0 3 3 7.5t8.5 9.5t9.5 8.5t9 7.5l6 4q11 9 11 19v9q-44 10 -44 49zM372 612q0 -44 -5.5 -136t-5.5 -134q0 -27 -1.5 -72.5t-1.5 -73.5
q0 -103 -15 -139v-1q-1 -1 -3.5 -5t-3.5 -5.5t-3.5 -5t-4 -5.5t-4 -4.5t-5 -3.5t-6 -2.5t-6.5 -2.5q-12 -3 -22 -3q-50 0 -68 38q-16 33 -26.5 88.5t-19.5 132t-12 97.5q-5 27 -9 27q-5 0 -5 -22q0 -6 0.5 -19.5t0.5 -19.5q6 -148 6 -229q0 -67 -14 -92q-13 -24 -46 -24
t-47 24q-14 25 -18 89q-4 40 -4 93q0 5 0.5 17.5t0.5 18.5v139q0 22 -2 67t-2 69q0 73 22 115.5t81 42.5q58 0 85 -69q6 -16 10.5 -34.5t8.5 -43.5t6 -37q7 -33 13 -33q5 0 7 60q1 33 2.5 54t7 53.5t19.5 50t35 17.5q55 0 55 -77z" />
    <glyph glyph-name="Ncaron" unicode="&#x147;" horiz-adv-x="447" 
d="M123 776q0 48 37 48q34 0 49 -20q4 -5 14 -28q15 1 31 19q12 16 22 21q15 9 35 9q35 0 35 -25q0 -24 -20 -48q-35 -39 -56 -54q-17 -12 -37 -12q-34 0 -67 24q-26 18 -39 49q-4 10 -4 17zM142 338q0 -16 7.5 -87.5t7.5 -115.5v-12q-2 -44 -6 -61q-10 -56 -46 -56
q-15 0 -27 8q-30 18 -39 42q-5 15 -7.5 33.5t-3.5 31t-1.5 37t-0.5 35.5q0 7 -3.5 83t-3.5 115q0 89 9 147q4 30 9 51.5t16 44.5t30.5 35t46.5 12q23 0 40 -8t26 -17t17 -30t10.5 -32.5t8.5 -39.5q27 -136 48 -208q0 -1 2 -3q12 0 12 81q0 26 -1.5 66t-1.5 42q0 51 8 85
q18 69 73 69q30 0 41 -14.5t15 -47.5q3 -30 3 -57q0 -140 -4 -214q0 -9 -1.5 -73.5t-4.5 -99.5q-15 -151 -85 -151q-20 0 -36 11q-34 22 -61 78q-26 53 -53 146t-35 153q-3 -5 -6 -20q-3 -29 -3 -59z" />
    <glyph glyph-name="ncaron" unicode="&#x148;" horiz-adv-x="387" 
d="M92 787q0 49 37 49q33 0 49 -21q2 -2 16 -28q15 1 29 19q11 14 23 21q17 10 35 10q35 0 35 -26q0 -23 -21 -48q-34 -38 -55 -53q-17 -13 -36 -13q-34 0 -69 24q-26 18 -39 49q-4 10 -4 17zM372 612q0 -44 -5.5 -136t-5.5 -134q0 -27 -1.5 -72.5t-1.5 -73.5
q0 -103 -15 -139v-1q-1 -1 -3.5 -5t-3.5 -5.5t-3.5 -5t-4 -5.5t-4 -4.5t-5 -3.5t-6 -2.5t-6.5 -2.5q-12 -3 -22 -3q-50 0 -68 38q-16 33 -26.5 88.5t-19.5 132t-12 97.5q-5 27 -9 27q-5 0 -5 -22q0 -6 0.5 -19.5t0.5 -19.5q6 -148 6 -229q0 -67 -14 -92q-13 -24 -46 -24
t-47 24q-14 25 -18 89q-4 40 -4 93q0 5 0.5 17.5t0.5 18.5v139q0 22 -2 67t-2 69q0 73 22 115.5t81 42.5q58 0 85 -69q6 -16 10.5 -34.5t8.5 -43.5t6 -37q7 -33 13 -33q5 0 7 60q1 33 2.5 54t7 53.5t19.5 50t35 17.5q55 0 55 -77z" />
    <glyph glyph-name="Eng" unicode="&#x14a;" horiz-adv-x="443" 
d="M142 355q0 -47 6 -138t6 -138q0 -4 -0.5 -13t-0.5 -13q-1 -20 -15 -33.5t-33 -13.5q-15 0 -27 8q-30 18 -39 42q-5 15 -7.5 33.5t-3.5 31t-1.5 37t-0.5 35.5q0 9 -3.5 82.5t-3.5 112.5q0 83 10 147q7 62 28 96t73 34q19 0 37 -3q44 -7 63 -103q1 -5 2 -8q3 -15 11 -64.5
t16 -81.5t21 -62q0 -1 1 -1l1 -2q10 0 10 39v13v20q0 6 0.5 19t0.5 20q0 13 -1 38.5t-1 39.5q0 51 10 83q7 24 13 38t21.5 28t36.5 14q43 0 50 -28q9 -40 9 -100q0 -83 -10 -166q-2 -31 -11.5 -157t-13.5 -193q-4 -65 -37.5 -119.5t-79.5 -71.5q-28 -11 -47 -11
q-43 0 -43 41q0 23 15 45q3 4 16.5 14t23 23.5t10.5 32.5q1 9 1 28q0 54 -13.5 112t-36.5 129.5t-33 113.5q-10 39 -21 49q-4 -5 -6 -19q-3 -29 -3 -60z" />
    <glyph glyph-name="eng" unicode="&#x14b;" horiz-adv-x="393" 
d="M159 375q-5 27 -9 27q-5 0 -5 -22q0 -6 0.5 -19.5t0.5 -19.5q0 -7 1 -38.5t2 -59.5t2 -38q4 -24 4 -70v-23q0 -35 -3 -57t-18 -40.5t-42 -18.5q-39 0 -48 24q-16 42 -20 165v17v36v94v45q0 22 -2 67t-2 69q0 73 22 115.5t81 42.5q34 0 54 -20q17 -16 31 -49
q6 -16 10.5 -34.5t8.5 -43.5t6 -37q7 -33 13 -33q5 0 7 60q1 33 2.5 54t7 53.5t19.5 50t35 17.5q20 0 35.5 -11t17.5 -28q2 -20 2 -30q0 -44 -8.5 -132t-8.5 -131q0 -40 3 -125.5t3 -127.5q0 -24 -2 -74q-4 -64 -38 -119t-79 -73q-26 -10 -46 -10q-43 0 -43 42q0 24 14 44
q1 1 19 22t30 42t13 40q1 7 1 22q0 63 -33 185.5t-38 149.5z" />
    <glyph glyph-name="Omacron" unicode="&#x14c;" horiz-adv-x="338" 
d="M189 713q-95 0 -102 36q-2 12 -2 16q0 48 78 48q1 0 87 -4q48 -1 48 -34q0 -19 -16 -37t-37 -21q-29 -4 -56 -4zM177 692q139 0 139 -276q0 -46 -4 -112q-7 -111 -24 -179t-64 -102q-19 -14 -54 -14q-82 0 -114 73q-19 43 -29 127q-8 59 -8 112q0 105 24 225
q12 59 45.5 102.5t88.5 43.5zM207 472v14q0 73 -23 73q-9 0 -15 -14q-33 -111 -33 -219q0 -58 10 -104q10 -49 24 -70q4 -4 6 -4q8 0 13 35q15 169 18 258v31z" />
    <glyph glyph-name="omacron" unicode="&#x14d;" horiz-adv-x="336" 
d="M188 702q-95 0 -102 36q-2 12 -2 17q0 48 78 48q1 0 87 -4q48 -1 48 -34q0 -19 -16 -37t-37 -21q-37 -5 -56 -5zM190 682q58 0 88 -43q41 -56 41 -206q0 -90 -2 -184q-2 -90 -20 -146q-14 -49 -55 -78q-43 -29 -90 -29q-41 0 -78 37q-61 60 -61 256q0 116 29 247
q9 42 30 78q41 65 112 68h6zM202 453q0 57 -21 57q-29 0 -37 -78v-4l-1 -7q-4 -45 -4 -108q0 -34 4 -86q0 -3 0.5 -11.5t1 -14t2 -14t3 -14t4.5 -11t7.5 -8.5t10.5 -3q19 0 24 46q5 40 5 109q0 13 0.5 37t0.5 35v75z" />
    <glyph glyph-name="Obreve" unicode="&#x14e;" horiz-adv-x="338" 
d="M171 713q-39 0 -74.5 33t-35.5 76q0 20 8.5 35t20.5 15q32 0 47 -25q4 -7 7.5 -14.5t5 -10.5t4 -7t5.5 -5t8 -2t12 -1q18 0 24 8t16 37q8 22 39 22q14 0 24.5 -10.5t10.5 -25.5q0 -55 -34.5 -90t-87.5 -35zM177 692q139 0 139 -276q0 -46 -4 -112q-7 -111 -24 -179
t-64 -102q-19 -14 -54 -14q-82 0 -114 73q-19 43 -29 127q-8 59 -8 112q0 105 24 225q12 59 45.5 102.5t88.5 43.5zM207 472v14q0 73 -23 73q-9 0 -15 -14q-33 -111 -33 -219q0 -58 10 -104q10 -49 24 -70q4 -4 6 -4q8 0 13 35q15 169 18 258v31z" />
    <glyph glyph-name="obreve" unicode="&#x14f;" horiz-adv-x="336" 
d="M184 702q-39 0 -74 33.5t-35 76.5q0 20 8 35t20 15q33 0 48 -25q4 -7 7.5 -14.5t5 -10.5t4 -7t5.5 -5t8 -2t12 -1q9 0 14.5 1.5t10 9t6.5 12t8 22.5q8 22 39 22q14 0 24.5 -11t10.5 -26q0 -55 -34.5 -90t-87.5 -35zM190 682q58 0 88 -43q41 -56 41 -206q0 -90 -2 -184
q-2 -90 -20 -146q-14 -49 -55 -78q-43 -29 -90 -29q-41 0 -78 37q-61 60 -61 256q0 116 29 247q9 42 30 78q41 65 112 68h6zM202 453q0 57 -21 57q-29 0 -37 -78v-4l-1 -7q-4 -45 -4 -108q0 -34 4 -86q0 -3 0.5 -11.5t1 -14t2 -14t3 -14t4.5 -11t7.5 -8.5t10.5 -3
q19 0 24 46q5 40 5 109q0 13 0.5 37t0.5 35v75z" />
    <glyph glyph-name="Ohungarumlaut" unicode="&#x150;" horiz-adv-x="338" 
d="M238 713q-35 0 -35 24q0 9 2.5 17t8.5 14.5t11 11.5t15 10.5t14 8t16.5 7.5t13.5 6q14 6 26 6q30 0 30 -31q0 -18 -9 -31t-19 -18.5t-28 -12.5q-30 -12 -46 -12zM92 713q-35 0 -35 24q0 9 2.5 17t8.5 14.5t11 11.5t15 10.5t14 8t16.5 7.5t13.5 6q14 6 27 6q31 0 31 -31
q0 -18 -9.5 -31t-19.5 -18.5t-28 -12.5q-30 -12 -47 -12zM177 692q139 0 139 -276q0 -46 -4 -112q-7 -111 -24 -179t-64 -102q-19 -14 -54 -14q-82 0 -114 73q-19 43 -29 127q-8 59 -8 112q0 105 24 225q12 59 45.5 102.5t88.5 43.5zM207 472v14q0 73 -23 73q-9 0 -15 -14
q-33 -111 -33 -219q0 -58 10 -104q10 -49 24 -70q4 -4 6 -4q8 0 13 35q15 169 18 258v31z" />
    <glyph glyph-name="ohungarumlaut" unicode="&#x151;" horiz-adv-x="336" 
d="M237 702q-35 0 -35 25q0 9 2.5 17t8.5 14.5t11 11.5t15 10.5t14 8t16.5 7.5t13.5 6q14 6 26 6q30 0 30 -31q0 -18 -9 -31t-19 -18.5t-28 -12.5q-32 -13 -46 -13zM91 702q-35 0 -35 25q0 9 2.5 17t8.5 14.5t11 11.5t15 10.5t14 8t16.5 7.5t13.5 6q14 6 27 6q31 0 31 -31
q0 -18 -9.5 -31t-19.5 -18.5t-28 -12.5q-32 -13 -47 -13zM190 682q58 0 88 -43q41 -56 41 -206q0 -90 -2 -184q-2 -90 -20 -146q-14 -49 -55 -78q-43 -29 -90 -29q-41 0 -78 37q-61 60 -61 256q0 116 29 247q9 42 30 78q41 65 112 68h6zM202 453q0 57 -21 57q-29 0 -37 -78
v-4l-1 -7q-4 -45 -4 -108q0 -34 4 -86q0 -3 0.5 -11.5t1 -14t2 -14t3 -14t4.5 -11t7.5 -8.5t10.5 -3q19 0 24 46q5 40 5 109q0 13 0.5 37t0.5 35v75z" />
    <glyph glyph-name="OE" unicode="&#x152;" horiz-adv-x="481" 
d="M381 546h-20q-8 0 -9.5 -2.5t-1.5 -12.5v-3q0 -10 -0.5 -29t-0.5 -28v-20v-15q0 -9 0.5 -14t1 -8.5t4.5 -5t6 -2t11 -1.5t14 -2q32 -5 48.5 -18.5t16.5 -43.5q0 -62 -80 -85q-7 -2 -16 -3t-12.5 -2t-6.5 -6.5t-3 -17.5v-21q0 -35 2 -51q2 -7 5 -9q6 -2 36 -6t39 -10
q36 -28 36 -58q0 -74 -140 -74q-61 0 -84 31q-24 -20 -61 -20q-93 0 -123 95q-5 13 -8.5 27.5t-5.5 32.5t-3.5 31t-2.5 36t-1.5 33.5t-1 37.5t-0.5 35v32q0 77 20 177q12 59 45 102.5t88 43.5q52 0 84 -37q40 18 73 18h1q5 0 18 0.5t19 0.5q92 0 92 -62q0 -56 -47 -64
q-14 -2 -32 -2zM203 472v14q0 73 -23 73q-9 0 -15 -14q-33 -111 -33 -219q0 -58 10 -104q10 -49 24 -70q4 -4 6 -4q8 0 13 35q15 169 18 258v31z" />
    <glyph glyph-name="oe" unicode="&#x153;" horiz-adv-x="466" 
d="M238 664q13 18 37 23.5t70 5.5q70 0 86 -13q20 -17 20 -50q0 -16 -9 -34q-20 -38 -54 -40h-11h-15q-13 0 -25 -2q-8 -27 -8 -91q0 -50 12 -57q9 -3 29.5 -5.5t35.5 -6.5t21 -14q8 -11 8 -35q0 -27 -11.5 -48t-31.5 -22q-3 0 -16.5 -0.5t-21.5 -0.5q-22 -1 -22 -31v-11v-7
q0 -4 -0.5 -11t-0.5 -10q0 -67 17 -69q65 -7 80 -24q10 -10 10 -38q0 -22 -10 -43t-25 -28q-22 -9 -73 -9h-2q-84 0 -104 22q-46 -19 -72 -19q-41 0 -78 37q-61 60 -61 247q0 115 29 246q4 17 19 54q9 23 23 43q13 20 43.5 35t62.5 15q28 0 48 -9zM202 443q0 58 -21 58
q-9 0 -18 -12.5t-11 -21.5q-13 -66 -13 -163q0 -25 4 -77q0 -3 0.5 -11.5t1 -14t2 -14t3 -14t4.5 -11t7.5 -8.5t10.5 -3q19 0 24 46q5 40 5 100q0 13 -0.5 37t-0.5 35q0 13 1 37t1 37z" />
    <glyph glyph-name="Racute" unicode="&#x154;" horiz-adv-x="335" 
d="M140 711q-43 0 -43 30q0 11 3 20.5t11 18t14 14.5t18.5 12.5t18 9.5t20 9.5t16.5 7.5q16 8 32 8q37 0 37 -37q0 -17 -5.5 -30t-16.5 -22t-21 -14.5t-26 -11.5q-34 -15 -58 -15zM301 122q0 -50 -19 -87.5t-57 -37.5q-16 0 -31 12.5t-17 31.5q-3 25 -4 80.5t-5 84.5
q-2 12 -9.5 27t-15.5 17q-5 0 -7 -4q-6 -19 -7 -62t-2 -52q-1 -8 -2.5 -25t-3 -32t-4.5 -27q-7 -32 -21 -45q-7 -7 -16 -7q-26 0 -41.5 14t-16.5 39q0 10 -1 28t-1.5 33t-0.5 28q0 52 4 124q0 7 0.5 29.5t1.5 35.5q2 28 2 52q0 15 -0.5 46.5t-0.5 48.5q0 36 1 58t4.5 50
t11 44.5t21.5 31t34 20.5q44 12 73 12q48 0 88.5 -19.5t50.5 -53.5q9 -30 9 -90q0 -91 -63 -172q-5 -6 -17 -19t-17 -20q36 -25 57.5 -70.5t21.5 -102.5v-21zM196 506v2q0 4 0.5 15t0.5 17q0 32 -16 44q-9 6 -15 6q-2 0 -6 -2q-7 -6 -9 -35q-2 -14 -4 -50q-1 -15 -1 -45v-45
h6q23 0 33.5 29.5t10.5 63.5z" />
    <glyph glyph-name="racute" unicode="&#x155;" horiz-adv-x="337" 
d="M156 711q-43 0 -43 30q0 11 3 20.5t11 18t13.5 14t18.5 13t17.5 10t20 9t16.5 7.5q16 8 33 8q37 0 37 -37q0 -32 -18 -48.5t-52 -29.5q-34 -15 -57 -15zM29 535q5 97 100 148q23 13 57 13q58 0 109 -65q28 -38 28 -95q0 -14 -1.5 -27.5t-3 -23t-6.5 -23.5t-7 -19.5
t-9.5 -21t-8.5 -18t-11 -19.5l-10 -18q-1 -2 -8.5 -12.5t-8.5 -17.5q0 -2 2 -4q26 -25 44.5 -81.5t18.5 -113.5v-37q0 -103 -46 -103q-76 0 -82 78q0 5 -3 65t-7 84q-9 37 -17 41h-3q-3 0 -3 -1q-1 -11 -2.5 -64t-3.5 -69q-1 -12 -2 -41t-4.5 -48.5t-12.5 -32.5
q-10 -14 -37 -14q-36 0 -58 18q-15 14 -15 54v24v37q0 17 0.5 52.5t0.5 53.5q1 18 2 53t1 53q4 133 7 195zM159 386q14 16 27 49.5t13 60.5q0 38 -15 68q-5 8 -10 8q-7 0 -13.5 -9.5t-6.5 -17.5q0 -10 -1 -27t-1.5 -31t-0.5 -26v-3q0 -49 7 -71z" />
    <glyph glyph-name="uni0156" unicode="&#x156;" horiz-adv-x="335" 
d="M301 122q0 -50 -19 -87.5t-57 -37.5q-16 0 -31 12.5t-17 31.5q-3 25 -4 80.5t-5 84.5q-2 12 -9.5 27t-15.5 17q-5 0 -7 -4q-6 -19 -7 -62t-2 -52q-1 -8 -2.5 -25t-3 -32t-4.5 -27q-7 -32 -21 -45q-7 -7 -16 -7q-26 0 -41.5 14t-16.5 39q0 10 -1 28t-1.5 33t-0.5 28
q0 52 4 124q0 7 0.5 29.5t1.5 35.5q2 28 2 52q0 15 -0.5 46.5t-0.5 48.5q0 36 1 58t4.5 50t11 44.5t21.5 31t34 20.5q44 12 73 12q48 0 88.5 -19.5t50.5 -53.5q9 -30 9 -90q0 -91 -63 -172q-5 -6 -17 -19t-17 -20q36 -25 57.5 -70.5t21.5 -102.5v-21zM196 506v2q0 4 0.5 15
t0.5 17q0 32 -16 44q-9 6 -15 6q-2 0 -6 -2q-7 -6 -9 -35q-2 -14 -4 -50q-1 -15 -1 -45v-45h6q23 0 33.5 29.5t10.5 63.5zM79 -75q0 26 18.5 47.5t44.5 21.5q22 0 36.5 -17.5t14.5 -43.5q0 -16 -5 -27q-22 -65 -62 -83q-14 -12 -27 -12q-5 0 -13 4q-10 1 -10 8q0 11 29 33
q11 9 11 17v8q-37 8 -37 44z" />
    <glyph glyph-name="uni0157" unicode="&#x157;" horiz-adv-x="337" 
d="M122 -80q0 23 16 42t39 19q19 0 31.5 -15.5t12.5 -38.5q0 -15 -3 -23q-21 -58 -55 -73q-12 -10 -24 -10q-6 0 -11 4q-9 1 -9 7q0 4 5 10t13 12l8 7q9 5 9 14v7q-32 8 -32 38zM29 535q5 97 100 148q23 13 57 13q58 0 109 -65q28 -38 28 -95q0 -14 -1.5 -27.5t-3 -23
t-6.5 -23.5t-7 -19.5t-9.5 -21t-8.5 -18t-11 -19.5l-10 -18q-1 -2 -8.5 -12.5t-8.5 -17.5q0 -2 2 -4q26 -25 44.5 -81.5t18.5 -113.5v-37q0 -103 -46 -103q-76 0 -82 78q0 5 -3 65t-7 84q-9 37 -17 41h-3q-3 0 -3 -1q-1 -11 -2.5 -64t-3.5 -69q-1 -12 -2 -41t-4.5 -48.5
t-12.5 -32.5q-10 -14 -37 -14q-36 0 -58 18q-15 14 -15 54v24v37q0 17 0.5 52.5t0.5 53.5q1 18 2 53t1 53q4 133 7 195zM159 386q14 16 27 49.5t13 60.5q0 38 -15 68q-5 8 -10 8q-7 0 -13.5 -9.5t-6.5 -17.5q0 -10 -1 -27t-1.5 -31t-0.5 -26v-3q0 -49 7 -71z" />
    <glyph glyph-name="Rcaron" unicode="&#x158;" horiz-adv-x="335" 
d="M59 803q0 48 37 48q33 0 49 -21q7 -10 15 -27q15 1 30 18q13 17 23 22q15 9 35 9q35 0 35 -26q0 -23 -21 -48q-34 -38 -55 -53q-17 -12 -37 -12q-36 0 -68 23q-26 18 -39 49q-4 10 -4 18zM301 122q0 -50 -19 -87.5t-57 -37.5q-16 0 -31 12.5t-17 31.5q-3 25 -4 80.5
t-5 84.5q-2 12 -9.5 27t-15.5 17q-5 0 -7 -4q-6 -19 -7 -62t-2 -52q-1 -8 -2.5 -25t-3 -32t-4.5 -27q-7 -32 -21 -45q-7 -7 -16 -7q-26 0 -41.5 14t-16.5 39q0 10 -1 28t-1.5 33t-0.5 28q0 52 4 124q0 7 0.5 29.5t1.5 35.5q2 28 2 52q0 15 -0.5 46.5t-0.5 48.5q0 36 1 58
t4.5 50t11 44.5t21.5 31t34 20.5q44 12 73 12q48 0 88.5 -19.5t50.5 -53.5q9 -30 9 -90q0 -91 -63 -172q-5 -6 -17 -19t-17 -20q36 -25 57.5 -70.5t21.5 -102.5v-21zM196 506v2q0 4 0.5 15t0.5 17q0 32 -16 44q-9 6 -15 6q-2 0 -6 -2q-7 -6 -9 -35q-2 -14 -4 -50
q-1 -15 -1 -45v-45h6q23 0 33.5 29.5t10.5 63.5z" />
    <glyph glyph-name="rcaron" unicode="&#x159;" horiz-adv-x="337" 
d="M69 807q0 48 36 48q35 0 50 -20q4 -5 9 -15.5t6 -12.5q17 1 30 18t22 22q15 9 35 9q36 0 36 -26q0 -22 -22 -48q-34 -38 -55 -53q-15 -12 -36 -12q-34 0 -68 23q-25 17 -39 50q-4 10 -4 17zM29 535q5 97 100 148q23 13 57 13q58 0 109 -65q28 -38 28 -95
q0 -14 -1.5 -27.5t-3 -23t-6.5 -23.5t-7 -19.5t-9.5 -21t-8.5 -18t-11 -19.5l-10 -18q-1 -2 -8.5 -12.5t-8.5 -17.5q0 -2 2 -4q26 -25 44.5 -81.5t18.5 -113.5v-37q0 -103 -46 -103q-76 0 -82 78q0 5 -3 65t-7 84q-9 37 -17 41h-3q-3 0 -3 -1q-1 -11 -2.5 -64t-3.5 -69
q-1 -12 -2 -41t-4.5 -48.5t-12.5 -32.5q-10 -14 -37 -14q-36 0 -58 18q-15 14 -15 54v24v37q0 17 0.5 52.5t0.5 53.5q1 18 2 53t1 53q4 133 7 195zM159 386q14 16 27 49.5t13 60.5q0 38 -15 68q-5 8 -10 8q-7 0 -13.5 -9.5t-6.5 -17.5q0 -10 -1 -27t-1.5 -31t-0.5 -26v-3
q0 -49 7 -71z" />
    <glyph glyph-name="Sacute" unicode="&#x15a;" horiz-adv-x="313" 
d="M131 721q-43 0 -43 31q0 11 3 20.5t10.5 18t13.5 14t18.5 12.5t18.5 10t19.5 9t16.5 7q16 8 33 8q37 0 37 -37q0 -22 -11.5 -38t-24 -23.5t-34.5 -16.5q-34 -15 -57 -15zM84 308q43 0 43 -43q0 -13 -2.5 -35t-2.5 -34q0 -47 14 -61q4 -6 12 -6q14 0 19 17q3 12 3 28v1
q0 19 -3 37q-5 34 -8 47q-10 38 -44 76q-32 34 -46 49.5t-33 54t-19 75.5q0 38 20 89q19 40 53 65t76 25q52 0 92 -24t42 -68v-19q0 -11 -2 -33q-3 -25 -6.5 -39.5t-11.5 -33t-22.5 -27.5t-36.5 -9q-44 0 -44 38v7q7 63 7 64q0 28 -15 28q-14 0 -26 -17.5t-12 -36.5
q0 -18 4.5 -35t9 -28t16 -26t17 -21t21 -20.5t19.5 -18.5q31 -30 55 -89t24 -119q0 -48 -10 -75q-20 -50 -55.5 -76t-97.5 -26q-118 0 -118 180q0 100 46 132q10 7 22 7z" />
    <glyph glyph-name="sacute" unicode="&#x15b;" horiz-adv-x="345" 
d="M138 722q-43 0 -43 31q0 13 5.5 24.5t11.5 18.5t20.5 16t20 12t24 11t19.5 9q16 8 32 8q37 0 37 -37q0 -17 -5.5 -30t-16.5 -22t-21 -14.5t-26 -11.5q-34 -15 -58 -15zM325 558q0 -39 -14 -65q-15 -25 -41 -25t-40 27q-5 10 -11 29t-11.5 29t-14.5 10q-30 0 -30 -37
q0 -20 8 -42q19 -55 66.5 -115t67.5 -106q21 -44 21 -97q0 -62 -27 -114q-16 -29 -57 -48.5t-73 -19.5q-83 0 -116.5 48t-40.5 144v13q0 73 56 89q9 3 16 3q19 0 31 -17t16 -36.5t8.5 -51.5t7.5 -44q5 -25 13 -31q0 -1 1 -1t2 -1q25 0 25 53q0 54 -12 79q-18 38 -60.5 94.5
t-49.5 67.5q-34 56 -34 114q0 70 30 123.5t85 66.5q14 4 22 4q68 0 112 -36t44 -101v-2v-4z" />
    <glyph glyph-name="Scircumflex" unicode="&#x15c;" horiz-adv-x="313" 
d="M251 744q0 -14 -10.5 -22.5t-26.5 -8.5q-13 0 -23.5 8.5t-20.5 23t-13 17.5q-12 -22 -13 -23q-23 -28 -40 -28q-35 0 -35 37q0 12 2.5 22.5t5 17.5t9 16.5t10 13.5t12.5 13.5t11 12.5q19 21 46 21q29 0 57.5 -43t28.5 -78zM84 308q43 0 43 -43q0 -13 -2.5 -35t-2.5 -34
q0 -47 14 -61q4 -6 12 -6q14 0 19 17q3 12 3 28v1q0 19 -3 37q-5 34 -8 47q-10 38 -44 76q-32 34 -46 49.5t-33 54t-19 75.5q0 38 20 89q19 40 53 65t76 25q52 0 92 -24t42 -68v-19q0 -11 -2 -33q-3 -25 -6.5 -39.5t-11.5 -33t-22.5 -27.5t-36.5 -9q-44 0 -44 38v7
q7 63 7 64q0 28 -15 28q-14 0 -26 -17.5t-12 -36.5q0 -18 4.5 -35t9 -28t16 -26t17 -21t21 -20.5t19.5 -18.5q31 -30 55 -89t24 -119q0 -48 -10 -75q-20 -50 -55.5 -76t-97.5 -26q-118 0 -118 180q0 100 46 132q10 7 22 7z" />
    <glyph glyph-name="scircumflex" unicode="&#x15d;" horiz-adv-x="345" 
d="M268 752q0 -14 -10.5 -23t-26.5 -9q-13 0 -23.5 8.5t-20.5 23t-13 17.5q-2 -3 -5.5 -11.5t-6.5 -11.5q-23 -28 -40 -28q-36 0 -36 37q0 12 2.5 22.5t5 17.5t9 16.5t10 13.5t12.5 13.5t11 12.5q19 21 46 21q29 0 57.5 -42.5t28.5 -77.5zM325 558q0 -39 -14 -65
q-15 -25 -41 -25t-40 27q-5 10 -11 29t-11.5 29t-14.5 10q-30 0 -30 -37q0 -20 8 -42q19 -55 66.5 -115t67.5 -106q21 -44 21 -97q0 -62 -27 -114q-16 -29 -57 -48.5t-73 -19.5q-83 0 -116.5 48t-40.5 144v13q0 73 56 89q9 3 16 3q19 0 31 -17t16 -36.5t8.5 -51.5t7.5 -44
q5 -25 13 -31q0 -1 1 -1t2 -1q25 0 25 53q0 54 -12 79q-18 38 -60.5 94.5t-49.5 67.5q-34 56 -34 114q0 70 30 123.5t85 66.5q14 4 22 4q68 0 112 -36t44 -101v-2v-4z" />
    <glyph glyph-name="Scedilla" unicode="&#x15e;" horiz-adv-x="313" 
d="M170 -62q-42 -72 -74 -72q-6 0 -9 1q-38 14 -38 44q0 21 21 55q4 7 10 17t9 14q-73 32 -73 172q0 100 46 132q10 7 22 7q43 0 43 -43q0 -13 -2.5 -35t-2.5 -34q0 -47 14 -61q4 -6 12 -6q14 0 19 17q3 12 3 28v1q0 19 -3 37q-5 34 -8 47q-10 38 -44 76q-32 34 -46 49.5
t-33 54t-19 75.5q0 38 20 89q19 40 53 65t76 25q52 0 92 -24t42 -68v-19q0 -11 -2 -33q-3 -25 -6.5 -39.5t-11.5 -33t-22.5 -27.5t-36.5 -9q-44 0 -44 38v7q7 63 7 64q0 28 -15 28q-14 0 -26 -17.5t-12 -36.5q0 -18 4.5 -35t9 -28t16 -26t17 -21t21 -20.5t19.5 -18.5
q31 -30 55 -89t24 -119q0 -48 -10 -75q-28 -73 -89 -93q0 -6 -3 -11q-8 -19 -25 -49z" />
    <glyph glyph-name="scedilla" unicode="&#x15f;" horiz-adv-x="345" 
d="M188 -79q-42 -72 -73 -72q-7 0 -10 1q-37 13 -37 45q0 22 20 55q7 13 16.5 26.5t10.5 14.5q-52 14 -74.5 60t-28.5 125v13q0 73 56 89q9 3 16 3q19 0 31 -17t16 -36.5t8.5 -51.5t7.5 -44q5 -25 13 -31q0 -1 1 -1t2 -1q25 0 25 53q0 54 -12 79q-18 38 -60.5 94.5
t-49.5 67.5q-34 56 -34 114q0 70 30 123.5t85 66.5q14 4 22 4q68 0 112 -36t44 -101v-2v-4q0 -39 -14 -65q-15 -25 -41 -25t-40 27q-5 10 -11 29t-11.5 29t-14.5 10q-30 0 -30 -37q0 -20 8 -42q19 -55 66.5 -115t67.5 -106q21 -44 21 -97q0 -62 -27 -114q-20 -38 -82 -59v-2
q0 -13 -4 -21q-8 -19 -25 -49z" />
    <glyph glyph-name="Scaron" unicode="&#x160;" horiz-adv-x="313" 
d="M53 813q0 48 37 48q34 0 49 -20q3 -4 8.5 -14t8.5 -14q17 1 28 18q11 14 23 22q15 9 35 9q37 0 37 -25q0 -21 -23 -49q-34 -38 -55 -53q-14 -12 -35 -12q-35 0 -70 23q-25 17 -39 50q-4 10 -4 17zM84 308q43 0 43 -43q0 -13 -2.5 -35t-2.5 -34q0 -47 14 -61q4 -6 12 -6
q14 0 19 17q3 12 3 28v1q0 19 -3 37q-5 34 -8 47q-10 38 -44 76q-32 34 -46 49.5t-33 54t-19 75.5q0 38 20 89q19 40 53 65t76 25q52 0 92 -24t42 -68v-19q0 -11 -2 -33q-3 -25 -6.5 -39.5t-11.5 -33t-22.5 -27.5t-36.5 -9q-44 0 -44 38v7q7 63 7 64q0 28 -15 28
q-14 0 -26 -17.5t-12 -36.5q0 -18 4.5 -35t9 -28t16 -26t17 -21t21 -20.5t19.5 -18.5q31 -30 55 -89t24 -119q0 -48 -10 -75q-20 -50 -55.5 -76t-97.5 -26q-118 0 -118 180q0 100 46 132q10 7 22 7z" />
    <glyph glyph-name="scaron" unicode="&#x161;" horiz-adv-x="345" 
d="M74 812q0 48 37 48q34 0 49 -20q4 -5 14 -28q16 1 31 18q13 18 22 22q15 9 35 9q35 0 35 -25q0 -24 -21 -49q-34 -38 -55 -53q-17 -12 -37 -12q-35 0 -67 23q-25 17 -39 50q-4 10 -4 17zM325 558q0 -39 -14 -65q-15 -25 -41 -25t-40 27q-5 10 -11 29t-11.5 29t-14.5 10
q-30 0 -30 -37q0 -20 8 -42q19 -55 66.5 -115t67.5 -106q21 -44 21 -97q0 -62 -27 -114q-16 -29 -57 -48.5t-73 -19.5q-83 0 -116.5 48t-40.5 144v13q0 73 56 89q9 3 16 3q19 0 31 -17t16 -36.5t8.5 -51.5t7.5 -44q5 -25 13 -31q0 -1 1 -1t2 -1q25 0 25 53q0 54 -12 79
q-18 38 -60.5 94.5t-49.5 67.5q-34 56 -34 114q0 70 30 123.5t85 66.5q14 4 22 4q68 0 112 -36t44 -101v-2v-4z" />
    <glyph glyph-name="uni0162" unicode="&#x162;" horiz-adv-x="310" 
d="M147 -48q-42 -72 -73 -72q-6 0 -9 1q-38 14 -38 44q0 23 20 56q7 12 12.5 20t11 15.5t8.5 12.5q-11 15 -13 36q-1 9 -1 29q0 32 3 61q20 202 20 300v15q0 30 -6 33q-3 1 -11 2.5t-12 2.5q-37 10 -37 47q0 66 26 89q24 22 57 22h43q60 0 102 -9q30 -7 42 -19t12 -38
q0 -69 -41 -79q-4 -1 -14 -1.5t-18 -2t-10 -5.5q-6 -17 -6 -48q0 -40 -2 -119t-2 -115v-33q0 -93 -11 -137q-8 -33 -25 -48q0 -6 -3 -11q-8 -19 -25 -49z" />
    <glyph glyph-name="uni0163" unicode="&#x163;" horiz-adv-x="328" 
d="M174 -47q-42 -72 -74 -72q-6 0 -9 1q-38 14 -38 44q0 22 21 56q14 22 22 33q-3 12 -3 24v11v5q0 29 4 85q8 81 14 263q0 12 0.5 32.5t0.5 29.5v6q0 16 -3 43q-2 6 -9 9q-12 4 -27 7t-21 5t-14.5 8.5t-17.5 18.5q-7 10 -7 29v1q0 12 6 23q10 24 29 34.5t52 17.5q35 8 83 8
q141 0 142 -61v-3q0 -64 -38 -83q-7 -4 -40 -9q-4 -1 -6.5 -1.5t-4.5 -2.5l-3 -3t-1.5 -4.5t-0.5 -5t-0.5 -6.5t-0.5 -7v-58q0 -38 1 -114t1 -114v-32q-4 -75 -12 -106q-6 -30 -17 -45q0 -11 -4 -18q-8 -19 -25 -49z" />
    <glyph glyph-name="Tcaron" unicode="&#x164;" horiz-adv-x="310" 
d="M57 774q0 48 37 48q34 0 49 -20q3 -4 8.5 -14t8.5 -14q16 1 28 19q9 12 23 21q15 9 35 9q37 0 37 -25q0 -20 -23 -48q-36 -41 -55 -54q-14 -12 -35 -12q-33 0 -70 24q-26 18 -39 49q-4 10 -4 17zM59 508q-37 10 -37 47q0 66 26 89q24 22 57 22h43q60 0 102 -9
q30 -7 42 -19t12 -38q0 -69 -41 -79q-4 -1 -14 -1.5t-18 -2t-10 -5.5q-6 -17 -6 -48q0 -40 -2 -119t-2 -115v-33q0 -93 -11 -137q-15 -60 -54 -60q-34 0 -55.5 17t-24.5 48q-1 9 -1 29q0 32 3 61q20 202 20 300v15q0 30 -6 33q-3 1 -11 2.5t-12 2.5z" />
    <glyph glyph-name="tcaron" unicode="&#x165;" horiz-adv-x="340" 
d="M74 784q0 49 37 49q33 0 49 -21q3 -4 8 -14t8 -14q17 1 29 19q10 14 22 21q17 10 35 10q15 0 26 -6.5t11 -19.5q0 -20 -23 -48q-34 -38 -55 -53q-15 -13 -35 -13q-32 0 -69 24q-26 18 -39 49q-4 10 -4 17zM190 675q141 0 141 -61q0 -66 -39 -86q-8 -4 -41 -9
q-4 -1 -6.5 -1.5t-4.5 -2.5l-3 -3t-1.5 -4.5t-0.5 -5t-0.5 -6.5t-0.5 -7q0 -8 -2 -40t-2 -52q0 -18 1 -55.5t1 -52.5q0 -22 -2 -63.5t-2 -54.5q-2 -45 -4 -66t-10 -49t-24 -47q-15 -18 -54 -18q-34 0 -42 19q-5 11 -5 29v11q0 30 6 90q10 97 18 263q0 6 1.5 30.5t1.5 37.5
q0 24 -3 51q-1 6 -8 9q-12 4 -27 7t-21 5t-14 8.5t-17 18.5q-7 10 -7 21q0 17 11.5 34.5t23.5 23.5q53 26 136 26z" />
    <glyph glyph-name="Tbar" unicode="&#x166;" horiz-adv-x="310" 
d="M59 508q-37 10 -37 47q0 66 26 89q24 22 57 22h43q151 0 155 -50q0 -2 0.5 -8t0.5 -8q0 -69 -41 -79q-4 -1 -14 -1.5t-18 -2t-10 -5.5q-6 -17 -6 -48q0 -7 0.5 -20.5t0.5 -19.5l24 -1h1q3 0 11.5 0.5t13.5 0.5q29 0 29 -17q0 -19 -10 -26t-32 -7h-5q-7 0 -18 0.5t-14 0.5
v-17v-32q0 -16 -2.5 -48t-2.5 -48v-30q0 -66 -6 -103q-1 -6 -18 -62q-11 -35 -41 -35q-34 0 -55.5 17t-24.5 48q-1 9 -1 29q0 32 3 61q15 146 18 225h-4h-3h-11q-20 0 -29.5 4t-9.5 20q0 22 30 22q4 0 12 -0.5t11 -0.5h6v30v15q0 30 -6 33q-3 1 -11 2.5t-12 2.5z" />
    <glyph glyph-name="tbar" unicode="&#x167;" horiz-adv-x="340" 
d="M190 675q141 0 141 -61q0 -66 -39 -86q-8 -4 -41 -9q-4 -1 -6.5 -1.5t-4.5 -2.5l-3 -3t-1.5 -4.5t-0.5 -5t-0.5 -6.5t-0.5 -7q0 -7 -1 -20t-1.5 -24t-0.5 -22h17h2q3 0 11.5 0.5t13.5 0.5q30 0 30 -17q0 -19 -10 -26t-33 -7h-6q-19 0 -26 1q2 -60 2 -86q0 -22 -2 -63.5
t-2 -54.5q-2 -45 -4 -66t-10 -49t-24 -47q-15 -18 -54 -18q-34 0 -42 19q-5 11 -5 29v11q0 30 6 90q9 91 17 240h-20h-4h-11q-20 0 -30 4t-10 20q0 22 32 22q4 0 12 -0.5t11 -0.5h22q2 32 2 46q0 24 -3 51q-1 6 -8 9q-12 4 -27 7t-21 5t-14 8.5t-17 18.5q-7 10 -7 21
q0 17 11.5 34.5t23.5 23.5q53 26 136 26z" />
    <glyph glyph-name="Utilde" unicode="&#x168;" horiz-adv-x="346" 
d="M165 815q7 0 21 -2.5t22 -2.5q10 0 17 2t15 5t14 5q4 1 11 1q27 0 27 -33q0 -24 -14 -43t-38 -19q-9 0 -17 0.5t-17 0.5q-10 0 -15 -1q-9 -2 -19 -9t-13 -8q-13 -6 -29 -6q-26 0 -26 29t17 55t44 26zM202 580q0 48 13.5 74.5t51.5 26.5q61 0 61 -101q0 -16 -0.5 -47.5
t-0.5 -45.5q0 -289 -64 -424q-15 -33 -37 -54q-11 -12 -35.5 -21.5t-44.5 -9.5q-88 0 -115 149q-14 74 -14 199q0 49 1 74q1 26 3 75t2 69q2 72 14 104q15 42 47 42q33 0 45 -19q15 -24 15 -57q0 -18 -7 -126.5t-7 -172.5q0 -155 39 -163q3 0 9 12q25 78 25 318v41
q0 10 -0.5 29.5t-0.5 27.5z" />
    <glyph glyph-name="utilde" unicode="&#x169;" horiz-adv-x="366" 
d="M169 814q7 0 21 -2.5t22 -2.5q10 0 17 2t15 5t14 5q4 1 11 1q27 0 27 -34q0 -24 -14 -42.5t-38 -18.5q-9 0 -17 0.5t-17 0.5t-14 -1q-9 -2 -20 -9t-13 -8q-15 -7 -29 -7q-25 0 -25 30q0 29 16.5 55t43.5 26zM216 350q0 33 -2.5 103.5t-2.5 100.5q0 73 19 105q15 25 40 25
q68 0 73 -70q4 -45 4 -100q0 -28 -1 -59.5t-2.5 -70.5t-2.5 -61q-2 -40 -3 -61t-5 -62t-10 -65t-17.5 -55.5t-26.5 -48.5t-38.5 -29.5t-52.5 -12.5q-31 0 -52 14q-62 41 -88 129q-23 77 -23 228q0 22 0.5 64.5t0.5 62.5q0 88 12 136q7 28 25.5 47t45.5 19q29 0 37 -30
q7 -25 7 -52q0 -17 -3 -47t-3 -37q-5 -133 -5 -163q0 -107 14 -171q9 -43 20 -48q12 0 18 17q22 70 22 192z" />
    <glyph glyph-name="Umacron" unicode="&#x16a;" horiz-adv-x="346" 
d="M193 707q-96 0 -103 35q-2 12 -2 17q0 48 78 48q1 0 87 -4q48 -1 48 -34q0 -19 -16 -37t-37 -21q-29 -4 -55 -4zM202 580q0 48 13.5 74.5t51.5 26.5q61 0 61 -101q0 -16 -0.5 -47.5t-0.5 -45.5q0 -289 -64 -424q-15 -33 -37 -54q-11 -12 -35.5 -21.5t-44.5 -9.5
q-88 0 -115 149q-14 74 -14 199q0 49 1 74q1 26 3 75t2 69q2 72 14 104q15 42 47 42q33 0 45 -19q15 -24 15 -57q0 -18 -7 -126.5t-7 -172.5q0 -155 39 -163q3 0 9 12q25 78 25 318v41q0 10 -0.5 29.5t-0.5 27.5z" />
    <glyph glyph-name="umacron" unicode="&#x16b;" horiz-adv-x="366" 
d="M210 706q-95 0 -102 35q0 1 -1.5 7.5t-1.5 9.5q0 48 78 48q1 0 87 -4q48 -1 48 -34q0 -19 -16 -37t-37 -21q-29 -4 -55 -4zM216 350q0 33 -2.5 103.5t-2.5 100.5q0 73 19 105q15 25 40 25q68 0 73 -70q4 -45 4 -100q0 -28 -1 -59.5t-2.5 -70.5t-2.5 -61q-2 -40 -3 -61
t-5 -62t-10 -65t-17.5 -55.5t-26.5 -48.5t-38.5 -29.5t-52.5 -12.5q-31 0 -52 14q-62 41 -88 129q-23 77 -23 228q0 22 0.5 64.5t0.5 62.5q0 88 12 136q7 28 25.5 47t45.5 19q29 0 37 -30q7 -25 7 -52q0 -17 -3 -47t-3 -37q-5 -133 -5 -163q0 -107 14 -171q9 -43 20 -48
q12 0 18 17q22 70 22 192z" />
    <glyph glyph-name="Ubreve" unicode="&#x16c;" horiz-adv-x="346" 
d="M180 702q-39 0 -74 33.5t-35 76.5q0 20 8 35t20 15q32 0 47 -25q4 -7 7.5 -14.5t5 -10.5t4 -7t5.5 -5t8 -2t12 -1q18 0 24 8t16 37q8 22 39 22q14 0 24.5 -11t10.5 -26q0 -55 -34.5 -90t-87.5 -35zM202 580q0 48 13.5 74.5t51.5 26.5q61 0 61 -101q0 -16 -0.5 -47.5
t-0.5 -45.5q0 -289 -64 -424q-15 -33 -37 -54q-11 -12 -35.5 -21.5t-44.5 -9.5q-88 0 -115 149q-14 74 -14 199q0 49 1 74q1 26 3 75t2 69q2 72 14 104q15 42 47 42q33 0 45 -19q15 -24 15 -57q0 -18 -7 -126.5t-7 -172.5q0 -155 39 -163q3 0 9 12q25 78 25 318v41
q0 10 -0.5 29.5t-0.5 27.5z" />
    <glyph glyph-name="ubreve" unicode="&#x16d;" horiz-adv-x="366" 
d="M194 691q-39 0 -74.5 33.5t-35.5 76.5q0 20 8.5 35t20.5 15q31 0 47 -26q4 -7 7.5 -14.5t5 -10.5t4 -7t5.5 -5t8 -2t12 -1q18 0 24 8t16 37q8 22 39 22q13 0 23.5 -10.5t10.5 -24.5q0 -56 -34 -91t-87 -35zM216 350q0 33 -2.5 103.5t-2.5 100.5q0 73 19 105q15 25 40 25
q68 0 73 -70q4 -45 4 -100q0 -28 -1 -59.5t-2.5 -70.5t-2.5 -61q-2 -40 -3 -61t-5 -62t-10 -65t-17.5 -55.5t-26.5 -48.5t-38.5 -29.5t-52.5 -12.5q-31 0 -52 14q-62 41 -88 129q-23 77 -23 228q0 22 0.5 64.5t0.5 62.5q0 88 12 136q7 28 25.5 47t45.5 19q29 0 37 -30
q7 -25 7 -52q0 -17 -3 -47t-3 -37q-5 -133 -5 -163q0 -107 14 -171q9 -43 20 -48q12 0 18 17q22 70 22 192z" />
    <glyph glyph-name="Uring" unicode="&#x16e;" horiz-adv-x="346" 
d="M186 736q17 0 17 39q0 28 -15 28q-20 -1 -20 -39q0 -28 18 -28zM195 860q58 0 58 -72v-6q0 -54 -17.5 -78t-60.5 -24q-60 0 -60 78q0 16 4 35q5 37 21 52t55 15zM202 580q0 48 13.5 74.5t51.5 26.5q61 0 61 -101q0 -16 -0.5 -47.5t-0.5 -45.5q0 -289 -64 -424
q-15 -33 -37 -54q-11 -12 -35.5 -21.5t-44.5 -9.5q-88 0 -115 149q-14 74 -14 199q0 49 1 74q1 26 3 75t2 69q2 72 14 104q15 42 47 42q33 0 45 -19q15 -24 15 -57q0 -18 -7 -126.5t-7 -172.5q0 -155 39 -163q3 0 9 12q25 78 25 318v41q0 10 -0.5 29.5t-0.5 27.5z" />
    <glyph glyph-name="uring" unicode="&#x16f;" horiz-adv-x="366" 
d="M207 748q16 0 16 38q0 28 -14 28q-21 -2 -21 -39q0 -27 19 -27zM215 871q58 0 58 -71v-6q0 -55 -17 -79t-60 -24q-61 0 -61 78q0 16 4 35q5 37 21 52t55 15zM216 350q0 33 -2.5 103.5t-2.5 100.5q0 73 19 105q15 25 40 25q68 0 73 -70q4 -45 4 -100q0 -28 -1 -59.5
t-2.5 -70.5t-2.5 -61q-2 -40 -3 -61t-5 -62t-10 -65t-17.5 -55.5t-26.5 -48.5t-38.5 -29.5t-52.5 -12.5q-31 0 -52 14q-62 41 -88 129q-23 77 -23 228q0 22 0.5 64.5t0.5 62.5q0 88 12 136q7 28 25.5 47t45.5 19q29 0 37 -30q7 -25 7 -52q0 -17 -3 -47t-3 -37
q-5 -133 -5 -163q0 -107 14 -171q9 -43 20 -48q12 0 18 17q22 70 22 192z" />
    <glyph glyph-name="Uhungarumlaut" unicode="&#x170;" horiz-adv-x="346" 
d="M241 709q-35 0 -35 24q0 9 2.5 17t8.5 14.5t11 11.5t15 10.5t14 8t16.5 7.5t13.5 6q14 6 26 6q30 0 30 -31q0 -18 -9 -31t-19 -18.5t-28 -12.5q-30 -12 -46 -12zM95 709q-35 0 -35 24q0 9 2.5 17t8.5 14.5t11 11.5t15 10.5t14 8t16.5 7.5t13.5 6q14 6 27 6q31 0 31 -31
q0 -18 -9.5 -31t-19.5 -18.5t-28 -12.5q-30 -12 -47 -12zM202 580q0 48 13.5 74.5t51.5 26.5q61 0 61 -101q0 -16 -0.5 -47.5t-0.5 -45.5q0 -289 -64 -424q-15 -33 -37 -54q-11 -12 -35.5 -21.5t-44.5 -9.5q-88 0 -115 149q-14 74 -14 199q0 49 1 74q1 26 3 75t2 69
q2 72 14 104q15 42 47 42q33 0 45 -19q15 -24 15 -57q0 -18 -7 -126.5t-7 -172.5q0 -155 39 -163q3 0 9 12q25 78 25 318v41q0 10 -0.5 29.5t-0.5 27.5z" />
    <glyph glyph-name="uhungarumlaut" unicode="&#x171;" horiz-adv-x="366" 
d="M252 708q-35 0 -35 24q0 9 2.5 17t8.5 14.5t11 11.5t15 10.5t14 8t16.5 7.5t13.5 6q14 6 27 6q29 0 29 -31q0 -18 -9 -31t-19 -18.5t-28 -12.5q-30 -12 -46 -12zM106 708q-34 0 -34 24q0 9 2.5 17t8.5 14.5t11 11.5t15 10.5t14 8t16.5 7.5t13.5 6q14 6 26 6q31 0 31 -31
q0 -18 -9 -31t-19 -18.5t-28 -12.5q-30 -12 -48 -12zM216 350q0 33 -2.5 103.5t-2.5 100.5q0 73 19 105q15 25 40 25q68 0 73 -70q4 -45 4 -100q0 -28 -1 -59.5t-2.5 -70.5t-2.5 -61q-2 -40 -3 -61t-5 -62t-10 -65t-17.5 -55.5t-26.5 -48.5t-38.5 -29.5t-52.5 -12.5
q-31 0 -52 14q-62 41 -88 129q-23 77 -23 228q0 22 0.5 64.5t0.5 62.5q0 88 12 136q7 28 25.5 47t45.5 19q29 0 37 -30q7 -25 7 -52q0 -17 -3 -47t-3 -37q-5 -133 -5 -163q0 -107 14 -171q9 -43 20 -48q12 0 18 17q22 70 22 192z" />
    <glyph glyph-name="Uogonek" unicode="&#x172;" horiz-adv-x="344" 
d="M158 -51v-4q0 -8 5.5 -17t12.5 -10h7q5 0 33 4h6q5 0 7 -1q20 -5 20 -25q0 -7 -1 -9q-3 -16 -20 -23q-19 -7 -47 -7q-6 0 -14 2h-3q-28 9 -48.5 34t-20.5 57q0 14 2 21q2 10 6 17q-54 30 -74 139q-14 81 -14 199q0 49 1 74q1 27 2.5 76t1.5 68q2 65 15 104q15 42 47 42
q33 0 45 -19q15 -24 15 -57q0 -18 -7 -126.5t-7 -172.5q0 -155 39 -163q3 0 9 12q25 78 25 318v41q0 10 -0.5 29.5t-0.5 27.5q0 48 13.5 74.5t51.5 26.5q61 0 61 -101q0 -16 -0.5 -47.5t-0.5 -45.5q0 -289 -64 -424q-15 -33 -37 -54q-12 -12 -39 -22q-4 -8 -15 -21t-12 -17z
" />
    <glyph glyph-name="uogonek" unicode="&#x173;" horiz-adv-x="366" 
d="M187 -47q-1 -1 -1 -4q0 -8 6 -17t13 -10h7q6 0 34 4h5q6 0 8 -1q20 -5 20 -25q0 -2 -0.5 -5t-0.5 -4q-3 -16 -21 -23q-19 -7 -46 -7q-7 0 -15 2h-2q-29 9 -49.5 34t-20.5 57q0 7 2 21q7 20 12 27h-1l-1 1q-62 41 -88 129q-23 77 -23 228q0 22 0.5 64.5t0.5 62.5
q0 88 12 136q7 28 25.5 47t45.5 19q29 0 37 -30q7 -25 7 -52q0 -17 -3 -47t-3 -37q-5 -133 -5 -163q0 -107 14 -171q9 -43 20 -48q12 0 18 17q22 70 22 192q0 33 -2.5 103.5t-2.5 100.5q0 73 19 105q15 25 40 25q68 0 73 -70q4 -45 4 -100q0 -28 -1 -59.5t-2.5 -70.5
t-2.5 -61q-1 -36 -2 -49.5t-3.5 -50t-6 -54t-9.5 -48t-15.5 -47.5t-21.5 -36.5t-29.5 -30.5t-38.5 -15q-4 -8 -15.5 -21.5t-12.5 -17.5z" />
    <glyph glyph-name="Wcircumflex" unicode="&#x174;" horiz-adv-x="565" 
d="M383 736q0 -14 -10.5 -22.5t-26.5 -8.5q-13 0 -23.5 8.5t-20 22.5t-13.5 18q-7 -16 -13 -23q-24 -29 -39 -29q-36 0 -36 37q0 12 2.5 22.5t5 17.5t9.5 17t9.5 13.5t12.5 14.5t11 12q19 21 47 21q29 0 57 -43t28 -78zM22 604v8q0 83 48 83q18 0 30 -7.5t18 -24t8 -29
t4 -36.5q1 -7 1 -11q1 -11 4.5 -29t4.5 -29q1 -10 4 -30.5t4 -30.5q1 -7 2.5 -22t2.5 -24t4 -19.5t7 -17.5q1 3 5 19.5t5 24.5q2 8 3 24.5t3 24.5q1 7 4 29t4.5 34t5 32.5t8 33.5t10.5 28.5t14 26t18 16.5q21 12 46 12q45 0 59 -25.5t17 -81.5q0 -8 1 -42.5t2.5 -56
t6.5 -42.5q2 -6 4 -11q6 20 19.5 91t28.5 105q5 13 8 18.5t9.5 16.5t15 15.5t19.5 4.5q28 0 46 -8q24 -10 30 -36q2 -14 2 -23q0 -19 -6 -45q-4 -19 -18.5 -74t-20.5 -90q-23 -139 -37 -272q-4 -43 -26 -88.5t-55 -45.5q-27 0 -51.5 18.5t-29.5 41.5q-12 49 -16 140
q-1 12 -1.5 38.5t-1 43.5t-4.5 38.5t-12 37.5h-1q-14 -12 -18 -23q-5 -20 -23 -135.5t-44 -163.5q-14 -26 -35 -26q-13 0 -23 6q-51 27 -59 106q-4 34 -12 127.5t-15 144.5q-13 97 -19 136q-8 72 -8 74z" />
    <glyph glyph-name="wcircumflex" unicode="&#x175;" horiz-adv-x="533" 
d="M377 714q0 -14 -10.5 -23t-26.5 -9q-13 0 -23.5 8.5t-20.5 23t-13 17.5q-11 -19 -13 -22q-24 -29 -40 -29q-35 0 -35 37q0 12 2.5 22.5t5 17.5t9 16.5t10 13.5t12.5 13.5t11 12.5q20 22 46 22q29 0 57.5 -43t28.5 -78zM91 676q22 0 36.5 -7.5t22 -16.5t11 -29.5t4 -34.5
t0.5 -44q0 -12 -0.5 -38t-0.5 -38q0 -5 -1.5 -32.5t-1.5 -45.5q0 -62 16 -62q4 0 10 37q1 9 7 46.5t11 71.5t6 46q7 61 28 94t46 34h2q39 0 58 -74q8 -32 18.5 -120t10.5 -90q1 -1 2 -3q1 -3 2 -3h1q13 19 28 147t17 134q14 44 48 44q17 0 27 -7.5t14 -24.5t5 -29.5t1 -36.5
q0 -134 -36 -403q-12 -89 -41 -138q-24 -40 -71 -40h-7q-27 0 -46.5 26.5t-19.5 58.5q-1 9 -5.5 92t-9.5 124q-3 16 -9 16q-2 0 -5 -5q-10 -23 -13 -51q0 -1 -2.5 -32t-3.5 -39.5t-4 -36t-5.5 -41t-7 -34t-10.5 -35t-13 -26.5q-10 -18 -29.5 -31.5t-42.5 -13.5
q-30 0 -51 22.5t-28 53.5q-37 121 -37 346v20q0 53 1 79t1.5 34.5t2.5 35t6.5 39t11.5 29.5t18.5 24.5t27.5 7.5z" />
    <glyph glyph-name="Ycircumflex" unicode="&#x176;" horiz-adv-x="316" 
d="M255 736q0 -14 -10.5 -22.5t-26.5 -8.5q-13 0 -23.5 8.5t-20.5 23t-13 17.5q-12 -22 -13 -23q-24 -29 -39 -29q-36 0 -36 37q0 12 2.5 22.5t5 17.5t9.5 17t9.5 13.5t12.5 14.5t11 12q19 21 46 21q29 0 57.5 -43t28.5 -78zM19 593q0 35 16.5 59t47.5 24q28 0 42 -23
q29 -51 38 -112q2 5 14.5 33t18.5 44q8 24 13.5 36t20 26t34.5 14q23 0 37.5 -13t14.5 -35q0 -17 -5 -34q-10 -38 -24.5 -75.5t-37.5 -87.5t-32 -72q-9 -25 -9 -46q0 -37 4.5 -104t4.5 -103q0 -81 -27 -106q-26 -24 -53 -24q-45 0 -45 69q0 7 0.5 21t0.5 21v14q0 19 1.5 59
t1.5 60v19q0 35 -4 70q-4 22 -20 59q-43 98 -52 192q-1 5 -1 15z" />
    <glyph glyph-name="ycircumflex" unicode="&#x177;" horiz-adv-x="343" 
d="M265 713q0 -14 -10.5 -23t-26.5 -9q-13 0 -23.5 8.5t-20.5 23t-13 17.5q-2 -3 -4 -8t-4 -8l-4 -6q-24 -29 -40 -29q-36 0 -36 37q0 12 2.5 22.5t5 17.5t9 16.5t10 13.5t12.5 13.5t11 12.5q20 22 46 22q29 0 57.5 -43t28.5 -78zM291 693q47 0 47 -62q0 -68 -45 -154
q-12 -22 -74 -163q-4 -12 -4 -31t2.5 -59t2.5 -58v-28q0 -83 -14 -119q-11 -28 -50 -28q-22 0 -38 10q-23 14 -23 87v9q0 22 1.5 65.5t1.5 64.5q0 33 -3 61q-8 31 -28 85.5t-32.5 104t-12.5 100.5q0 36 18 63q16 22 38 22q43 0 66.5 -61t23.5 -120v-1h1q7 14 19 42
q2 7 10.5 31t12.5 34.5t12 29t16 31.5t18 25q17 19 34 19z" />
    <glyph glyph-name="Ydieresis" unicode="&#x178;" horiz-adv-x="316" 
d="M94 738q0 20 7.5 33.5t21.5 13.5q15 0 29 -8t14 -21q0 -21 -13.5 -35.5t-31.5 -14.5q-27 0 -27 32zM209 702q-12 0 -21.5 8.5t-9.5 20.5q0 26 21 39q16 10 22 10q14 0 23.5 -8t9.5 -21q0 -49 -45 -49zM19 593q0 35 16.5 59t47.5 24q28 0 42 -23q29 -51 38 -112
q2 5 14.5 33t18.5 44q8 24 13.5 36t20 26t34.5 14q23 0 37.5 -13t14.5 -35q0 -17 -5 -34q-10 -38 -24.5 -75.5t-37.5 -87.5t-32 -72q-9 -25 -9 -46q0 -37 4.5 -104t4.5 -103q0 -81 -27 -106q-26 -24 -53 -24q-45 0 -45 69q0 7 0.5 21t0.5 21v14q0 19 1.5 59t1.5 60v19
q0 35 -4 70q-4 22 -20 59q-43 98 -52 192q-1 5 -1 15z" />
    <glyph glyph-name="Zacute" unicode="&#x179;" horiz-adv-x="322" 
d="M160 719q-43 0 -43 31q0 11 3 20.5t10.5 18t13.5 14t18.5 12.5t18.5 10t19.5 9t16.5 7q16 8 33 8q37 0 37 -37q0 -22 -11.5 -38t-24 -23.5t-34.5 -16.5q-34 -15 -57 -15zM35 609q0 80 100 80q65 0 113 -8q27 -4 40 -18.5t13 -45.5q0 -17 -3 -29q-14 -50 -31 -98
t-46.5 -123t-37.5 -97q-4 -11 -9.5 -33.5t-8.5 -30.5q-4 -14 -4 -23q0 -7 1 -11q9 -2 28 -4t28 -4q25 -5 51 -22t29 -37q2 -16 2 -24q0 -65 -45 -75q-52 -11 -118 -11q-27 0 -43.5 1.5t-35.5 6.5t-28.5 18t-10.5 33v19q0 62 15.5 133.5t29.5 111.5t41 112q1 2 23 47t22 62v4
q-2 8 -40.5 11.5t-42.5 5.5q-32 19 -32 49z" />
    <glyph glyph-name="zacute" unicode="&#x17a;" horiz-adv-x="332" 
d="M145 708q-43 0 -43 30q0 13 5.5 24.5t11.5 18.5t20.5 16t20 12t24 11t19.5 9q18 9 33 9q36 0 36 -37q0 -17 -5.5 -30t-16.5 -22t-21 -14.5t-26 -11.5q-34 -15 -58 -15zM165 184q0 -4 4 -4q11 0 31.5 1t30.5 1q30 0 52 -7q25 -9 25 -41q0 -33 -10.5 -57t-25.5 -38
t-41.5 -24t-49.5 -14t-58 -8q-6 -1 -18 -1q-46 0 -70 26q-20 22 -20 54q0 17 3 34t6.5 28t10 30.5t10.5 32.5q23 83 58 180q13 37 36 82q4 8 4 16q0 9 -4 10q-5 2 -16 2.5t-15 1.5q-69 14 -69 76q0 74 51 102q31 19 127 19h2q51 0 73.5 -13.5t22.5 -56.5q0 -23 -4 -47
t-7 -40t-14 -42t-14.5 -34t-18.5 -38.5t-17 -34.5q-16 -34 -39.5 -97.5t-33.5 -87.5q-2 -6 -2 -11z" />
    <glyph glyph-name="Zdotaccent" unicode="&#x17b;" horiz-adv-x="322" 
d="M239 827q9 -15 9 -39q0 -39 -20 -55q-20 -18 -52 -18q-21 0 -35 10q-28 18 -28 43v1q0 22 3 31q9 23 30 37.5t45 14.5q30 0 48 -25zM35 609q0 80 100 80q65 0 113 -8q27 -4 40 -18.5t13 -45.5q0 -17 -3 -29q-14 -50 -31 -98t-46.5 -123t-37.5 -97q-4 -11 -9.5 -33.5
t-8.5 -30.5q-4 -14 -4 -23q0 -7 1 -11q9 -2 28 -4t28 -4q25 -5 51 -22t29 -37q2 -16 2 -24q0 -65 -45 -75q-52 -11 -118 -11q-27 0 -43.5 1.5t-35.5 6.5t-28.5 18t-10.5 33v19q0 62 15.5 133.5t29.5 111.5t41 112q1 2 23 47t22 62v4q-2 8 -40.5 11.5t-42.5 5.5
q-32 19 -32 49z" />
    <glyph glyph-name="zdotaccent" unicode="&#x17c;" horiz-adv-x="332" 
d="M248 825q9 -15 9 -39q0 -39 -19 -55q-20 -18 -53 -18q-18 0 -35 10q-28 19 -28 43v1q0 22 3 31q9 23 30.5 37.5t45.5 14.5q29 0 47 -25zM165 184q0 -4 4 -4q11 0 31.5 1t30.5 1q30 0 52 -7q25 -9 25 -41q0 -33 -10.5 -57t-25.5 -38t-41.5 -24t-49.5 -14t-58 -8
q-6 -1 -18 -1q-46 0 -70 26q-20 22 -20 54q0 17 3 34t6.5 28t10 30.5t10.5 32.5q23 83 58 180q13 37 36 82q4 8 4 16q0 9 -4 10q-5 2 -16 2.5t-15 1.5q-69 14 -69 76q0 74 51 102q31 19 127 19h2q51 0 73.5 -13.5t22.5 -56.5q0 -23 -4 -47t-7 -40t-14 -42t-14.5 -34
t-18.5 -38.5t-17 -34.5q-16 -34 -39.5 -97.5t-33.5 -87.5q-2 -6 -2 -11z" />
    <glyph glyph-name="Zcaron" unicode="&#x17d;" horiz-adv-x="322" 
d="M63 802q0 48 37 48q34 0 50 -21q5 -7 14 -27q16 1 31 18q13 18 22 22q15 9 35 9q35 0 35 -26q0 -23 -21 -48q-34 -38 -55 -53q-17 -12 -37 -12q-36 0 -68 23q-24 17 -38 49q-5 12 -5 18zM35 609q0 80 100 80q65 0 113 -8q27 -4 40 -18.5t13 -45.5q0 -17 -3 -29
q-14 -50 -31 -98t-46.5 -123t-37.5 -97q-4 -11 -9.5 -33.5t-8.5 -30.5q-4 -14 -4 -23q0 -7 1 -11q9 -2 28 -4t28 -4q25 -5 51 -22t29 -37q2 -16 2 -24q0 -65 -45 -75q-52 -11 -118 -11q-27 0 -43.5 1.5t-35.5 6.5t-28.5 18t-10.5 33v19q0 62 15.5 133.5t29.5 111.5t41 112
q1 2 23 47t22 62v4q-2 8 -40.5 11.5t-42.5 5.5q-32 19 -32 49z" />
    <glyph glyph-name="zcaron" unicode="&#x17e;" horiz-adv-x="332" 
d="M74 803q0 48 37 48q33 0 49 -21q3 -4 8 -13.5t8 -13.5q18 1 29 18q12 16 22 22q15 9 35 9q15 0 26 -6.5t11 -19.5q0 -20 -23 -48q-34 -38 -55 -53q-14 -12 -35 -12q-34 0 -69 23q-26 18 -39 49q-4 10 -4 18zM165 184q0 -4 4 -4q11 0 31.5 1t30.5 1q30 0 52 -7
q25 -9 25 -41q0 -33 -10.5 -57t-25.5 -38t-41.5 -24t-49.5 -14t-58 -8q-6 -1 -18 -1q-46 0 -70 26q-20 22 -20 54q0 17 3 34t6.5 28t10 30.5t10.5 32.5q23 83 58 180q13 37 36 82q4 8 4 16q0 9 -4 10q-5 2 -16 2.5t-15 1.5q-69 14 -69 76q0 74 51 102q31 19 127 19h2
q51 0 73.5 -13.5t22.5 -56.5q0 -23 -4 -47t-7 -40t-14 -42t-14.5 -34t-18.5 -38.5t-17 -34.5q-16 -34 -39.5 -97.5t-33.5 -87.5q-2 -6 -2 -11z" />
    <glyph glyph-name="uni0218" unicode="&#x218;" horiz-adv-x="313" 
d="M84 308q43 0 43 -43q0 -13 -2.5 -35t-2.5 -34q0 -47 14 -61q4 -6 12 -6q14 0 19 17q3 12 3 28v1q0 19 -3 37q-5 34 -8 47q-10 38 -44 76q-32 34 -46 49.5t-33 54t-19 75.5q0 38 20 89q19 40 53 65t76 25q52 0 92 -24t42 -68v-19q0 -11 -2 -33q-3 -25 -6.5 -39.5
t-11.5 -33t-22.5 -27.5t-36.5 -9q-44 0 -44 38v7q7 63 7 64q0 28 -15 28q-14 0 -26 -17.5t-12 -36.5q0 -18 4.5 -35t9 -28t16 -26t17 -21t21 -20.5t19.5 -18.5q31 -30 55 -89t24 -119q0 -48 -10 -75q-20 -50 -55.5 -76t-97.5 -26q-118 0 -118 180q0 100 46 132q10 7 22 7z
M76 -84q0 23 17.5 43.5t43.5 20.5q21 0 34.5 -16.5t13.5 -40.5q0 -13 -4 -25q-20 -60 -60 -77q-13 -11 -26 -11q-4 0 -12 4q-9 2 -9 8q0 9 28 30q10 8 10 16v7q-36 8 -36 41z" />
    <glyph glyph-name="uni0219" unicode="&#x219;" horiz-adv-x="345" 
d="M112 -91q0 21 15.5 38.5t39.5 17.5q19 0 32 -14.5t13 -34.5q0 -13 -4 -22q-19 -54 -55 -68q-12 -10 -24 -10q-3 0 -11 4q-9 2 -9 6t5.5 10t13.5 12l7 5q8 6 8 14v7q-31 6 -31 35zM325 558q0 -39 -14 -65q-15 -25 -41 -25t-40 27q-5 10 -11 29t-11.5 29t-14.5 10
q-30 0 -30 -37q0 -20 8 -42q19 -55 66.5 -115t67.5 -106q21 -44 21 -97q0 -62 -27 -114q-16 -29 -57 -48.5t-73 -19.5q-83 0 -116.5 48t-40.5 144v13q0 73 56 89q9 3 16 3q19 0 31 -17t16 -36.5t8.5 -51.5t7.5 -44q5 -25 13 -31q0 -1 1 -1t2 -1q25 0 25 53q0 54 -12 79
q-18 38 -60.5 94.5t-49.5 67.5q-34 56 -34 114q0 70 30 123.5t85 66.5q14 4 22 4q68 0 112 -36t44 -101v-2v-4z" />
    <glyph glyph-name="uni021A" unicode="&#x21a;" horiz-adv-x="310" 
d="M73 -80q0 22 15.5 41t39.5 19q19 0 32 -15.5t13 -37.5q0 -14 -4 -23q-19 -57 -55 -73q-15 -10 -24 -10q-3 0 -11 4q-9 1 -9 7q0 4 5.5 10t12.5 12t8 7q8 5 8 14v7q-31 6 -31 38zM59 508q-37 10 -37 47q0 66 26 89q24 22 57 22h43q60 0 102 -9q30 -7 42 -19t12 -38
q0 -69 -41 -79q-4 -1 -14 -1.5t-18 -2t-10 -5.5q-6 -17 -6 -48q0 -40 -2 -119t-2 -115v-33q0 -93 -11 -137q-15 -60 -54 -60q-34 0 -55.5 17t-24.5 48q-1 9 -1 29q0 32 3 61q20 202 20 300v15q0 30 -6 33q-3 1 -11 2.5t-12 2.5z" />
    <glyph glyph-name="uni021B" unicode="&#x21b;" horiz-adv-x="328" 
d="M91 -90q0 21 16 39.5t39 18.5q19 0 31 -15t12 -37q0 -15 -3 -22q-18 -55 -54 -71q-12 -10 -23 -10q-5 0 -11 4q-9 1 -9 7q0 3 3.5 7.5t8 8.5t9 7.5t5.5 4.5q8 5 8 14v7q-32 7 -32 37zM183 675q141 0 142 -61v-3q0 -64 -38 -83q-7 -4 -40 -9q-4 -1 -6.5 -1.5t-4.5 -2.5
l-3 -3t-1.5 -4.5t-0.5 -5t-0.5 -6.5t-0.5 -7v-58q0 -38 1 -114t1 -114v-17v-15q-1 -10 -1 -32v-14q0 -72 -10 -98q-13 -36 -51 -36q-52 0 -62 40q-4 15 -4 38q0 8 0.5 25.5t0.5 27.5q0 97 6 281q0 12 0.5 32.5t0.5 29.5v6q0 16 -3 43q-2 6 -9 9q-12 4 -27 7t-21 5t-14.5 8.5
t-17.5 18.5q-7 10 -7 29v1q0 12 6 23q10 24 29 34.5t52 17.5q35 8 83 8z" />
    <glyph glyph-name="circumflex" unicode="&#x2c6;" horiz-adv-x="221" 
d="M202 548q0 -14 -10.5 -23t-26.5 -9q-13 0 -23.5 8.5t-20.5 23t-13 17.5q-10 -17 -13 -22q-24 -29 -40 -29q-36 0 -36 37q0 10 1.5 19t5 17t6 14t9 13.5t9.5 11t10.5 11t9.5 10.5q20 22 46 22q29 0 57.5 -43t28.5 -78z" />
    <glyph glyph-name="caron" unicode="&#x2c7;" horiz-adv-x="269" 
d="M23 665q0 48 36 48q34 0 50 -21l15 -27q17 1 30 18t22 22q15 9 35 9q36 0 36 -26q0 -22 -22 -48q-34 -38 -55 -53q-17 -13 -36 -13q-33 0 -68 24q-26 18 -39 49q-4 10 -4 18z" />
    <glyph glyph-name="uni02C9" unicode="&#x2c9;" horiz-adv-x="258" 
d="M127 669q-95 0 -102 36q-2 12 -2 16q0 29 20.5 38.5t56.5 9.5q1 0 87 -4q25 -1 37 -10.5t12 -23.5q0 -19 -16.5 -37t-37.5 -21q-29 -4 -55 -4z" />
    <glyph glyph-name="breve" unicode="&#x2d8;" horiz-adv-x="262" 
d="M125 540q-39 0 -74 33t-35 76q0 20 8 35t20 15q32 0 47 -25q4 -7 7.5 -14.5t5 -10.5t4 -7t5.5 -5t8 -2t12 -1q18 0 24 8t16 37q7 21 39 21q14 0 24.5 -10.5t10.5 -23.5q0 -56 -34 -91t-88 -35z" />
    <glyph glyph-name="dotaccent" unicode="&#x2d9;" horiz-adv-x="174" 
d="M145 654q10 -17 10 -39q0 -37 -20 -55q-21 -17 -52 -17q-19 0 -36 10q-28 17 -28 42v2q0 19 4 30q9 23 30.5 38t44.5 15q30 0 47 -26z" />
    <glyph glyph-name="ring" unicode="&#x2da;" horiz-adv-x="185" 
d="M91 694q17 0 17 39q0 28 -15 28q-20 -1 -20 -39q0 -28 18 -28zM99 818q59 0 59 -72v-6q0 -54 -17.5 -78t-60.5 -24q-61 0 -61 78q0 12 5 35q6 37 21 52t54 15z" />
    <glyph glyph-name="ogonek" unicode="&#x2db;" horiz-adv-x="192" 
d="M83 -41q-1 -2 -1 -4q0 -8 5.5 -17t12.5 -10q2 -1 8 -1q4 0 15 2t18 2h5h9q19 -4 19 -26q0 -1 -0.5 -3.5t-0.5 -3.5q-5 -18 -20 -24q-19 -7 -47 -7q-11 0 -15 1q-1 0 -1 0.5t-1 0.5q-29 9 -49.5 34t-20.5 57q0 3 0.5 6.5t1.5 8t1 6.5q9 41 47 58q8 4 17 4q5 0 8 -1
q9 -2 15.5 -9.5t6.5 -17.5q0 -2 -0.5 -4.5t-0.5 -3.5q-3 -11 -17 -28t-15 -20z" />
    <glyph glyph-name="tilde" unicode="&#x2dc;" horiz-adv-x="250" 
d="M85 664q7 0 21 -3t22 -3q10 0 17 2t15 5.5t14 5.5q4 1 11 1q27 0 27 -34q0 -24 -14 -42.5t-38 -18.5q-9 0 -17 0.5t-17 0.5t-14 -1q-9 -2 -19.5 -9.5t-13.5 -8.5q-13 -6 -29 -6q-25 0 -25 30q0 29 16.5 55t43.5 26z" />
    <glyph glyph-name="hungarumlaut" unicode="&#x2dd;" horiz-adv-x="328" 
d="M203 586q-35 0 -35 24q0 9 2.5 17t8.5 14.5t11 11.5t15 10.5t14 8t16.5 7.5t13.5 6q14 6 26 6q30 0 30 -31q0 -18 -9 -31t-19 -18.5t-28 -12.5q-30 -12 -46 -12zM57 586q-34 0 -34 24q0 9 2.5 16.5t9 14.5t10 11.5t14.5 10.5t14.5 8t16.5 8l13 6q14 6 27 6q31 0 31 -31
q0 -18 -9.5 -31t-19.5 -18.5t-28 -12.5q-30 -12 -47 -12z" />
    <glyph glyph-name="endash" unicode="&#x2013;" horiz-adv-x="338" 
d="M23 279q0 102 78 102q109 0 174 -3q19 -1 29.5 -19t10.5 -43q0 -34 -16 -53q-25 -27 -56 -31q-29 -4 -115 -4q-105 0 -105 51z" />
    <glyph glyph-name="emdash" unicode="&#x2014;" horiz-adv-x="441" 
d="M23 275q0 103 78 103q213 0 278 -3q19 -1 29 -19t10 -43q0 -33 -17 -53q-25 -27 -56 -31q-29 -4 -217 -4q-105 0 -105 50z" />
    <glyph glyph-name="quoteleft" unicode="&#x2018;" horiz-adv-x="178" 
d="M158 564q0 -29 -22 -53.5t-54 -24.5q-26 0 -43 20t-17 49q0 19 5 31q26 73 74 94q15 12 42 12q18 0 18 -13q0 -3 -3 -7.5t-8.5 -9.5t-9.5 -8.5t-10 -7.5l-5 -4q-11 -10 -11 -25v-4q44 -10 44 -49z" />
    <glyph glyph-name="quoteright" unicode="&#x2019;" horiz-adv-x="172" 
d="M24 615q0 29 22 53.5t53 24.5q26 0 43.5 -20t17.5 -49q0 -18 -5 -31q-25 -71 -75 -93q-16 -13 -42 -13q-18 0 -18 13q0 9 36 38q12 10 12 18v10q-44 10 -44 49z" />
    <glyph glyph-name="quotesinglbase" unicode="&#x201a;" horiz-adv-x="186" 
d="M26 128q0 29 22 53.5t53 24.5q26 0 43.5 -20.5t17.5 -49.5q0 -18 -5 -31q-25 -73 -75 -94q-16 -12 -32 -12q-8 0 -15 4q-12 1 -12 9q0 9 35 37q12 10 12 20v9q-44 10 -44 50z" />
    <glyph glyph-name="quotedblleft" unicode="&#x201c;" horiz-adv-x="344" 
d="M311 534q0 -61 -62 -61q-27 0 -46.5 16.5t-19.5 44.5q0 15 6 30q25 72 74 93q16 13 42 13q18 0 18 -13q0 -3 -3 -7.5t-8.5 -9.5t-9.5 -8.5t-10 -7.5l-5 -4q-12 -10 -12 -19v-10q36 -8 36 -57zM158 564q0 -29 -22 -53.5t-54 -24.5q-26 0 -43 20t-17 49q0 19 5 31
q26 73 74 94q15 12 42 12q18 0 18 -13q0 -15 -23.5 -30t-23.5 -34v-2q44 -10 44 -49z" />
    <glyph glyph-name="quotedblright" unicode="&#x201d;" horiz-adv-x="344" 
d="M32 633q0 59 62 59q28 0 47 -16t19 -43q0 -19 -5 -31q-25 -73 -75 -94q-15 -12 -42 -12q-18 0 -18 13q0 3 3 7.5t8.5 9.5t9.5 8.5t9 7.5l6 4q12 10 12 19v9q-36 8 -36 59zM185 602q0 29 22 53t54 24q26 0 43.5 -20t17.5 -49q0 -15 -6 -30q-26 -75 -73 -95
q-15 -12 -43 -12q-18 0 -18 13q0 15 23.5 30t23.5 34v3q-44 10 -44 49z" />
    <glyph glyph-name="quotedblbase" unicode="&#x201e;" 
d="M34 156q0 60 62 60q27 0 46.5 -16.5t19.5 -43.5q0 -18 -5 -31q-25 -71 -75 -93q-16 -13 -42 -13q-17 0 -17 13q0 10 35 38q12 10 12 18v10q-36 8 -36 58zM187 125q0 29 22 53.5t54 24.5q26 0 43.5 -20t17.5 -49q0 -16 -6 -31q-26 -74 -73 -94q-15 -12 -43 -12
q-18 0 -18 13q0 15 23.5 30t23.5 34v2q-44 10 -44 49z" />
    <glyph glyph-name="dagger" unicode="&#x2020;" horiz-adv-x="288" 
d="M95 612q2 75 41 75q37 0 50.5 -17.5t14.5 -58.5h8h6q17 0 26 -1t17.5 -6.5t8.5 -16.5q0 -53 -66 -55q0 -149 -2 -195t-33 -46q-28 0 -46 15.5t-21 41.5q-1 3 -3 182h-8q-68 0 -68 33q0 22 6 31t24 15q9 3 21 3h24z" />
    <glyph glyph-name="daggerdbl" unicode="&#x2021;" horiz-adv-x="288" 
d="M88 420q-68 0 -68 33q0 22 6 31t24 15q9 3 21 3h25v28h-8q-68 0 -68 33q0 22 6 31t24 15q9 3 21 3h24q2 75 41 75q37 0 50.5 -17.5t14.5 -58.5h8h6q17 0 26 -1t17.5 -6.5t8.5 -16.5q0 -53 -66 -55v-31h7h7q52 0 52 -25q0 -46 -46 -53q-1 0 -8 -0.5t-13 -0.5
q0 -24 -0.5 -53t-0.5 -32q-2 -46 -33 -46q-28 0 -46 15.5t-21 41.5l-2 72h-9z" />
    <glyph glyph-name="bullet" unicode="&#x2022;" horiz-adv-x="349" 
d="M177 163q-73 0 -125 57q-30 33 -30 96q0 32 9 68q8 31 19 43q20 22 26 27q52 38 103 38q25 0 52 -11q48 -21 72 -54t24 -90q0 -11 -2 -37q-4 -34 -32 -77q-41 -60 -116 -60z" />
    <glyph glyph-name="ellipsis" unicode="&#x2026;" horiz-adv-x="646" 
d="M183 141q13 -23 13 -51q0 -51 -25 -72q-26 -22 -67 -22q-24 0 -45 12q-35 25 -35 55v3q0 28 4 38q11 30 38.5 50t57.5 20q37 0 59 -33zM255 27q-11 17 -11 46q0 47 22 66q26 22 62 22q20 0 41 -13q32 -20 32 -51v-1q0 -26 -3 -36q-10 -27 -36 -45t-53 -18q-35 0 -54 30z
M609 44q-19 -32 -57 -32q-28 0 -54.5 19t-37.5 48q-4 10 -4 37v2q0 30 34 53q19 13 44 13q37 0 64 -23q24 -20 24 -69q0 -27 -13 -48z" />
    <glyph glyph-name="perthousand" unicode="&#x2030;" horiz-adv-x="601" 
d="M503 322q29 0 48.5 -23.5t19.5 -59.5q0 -78 -8 -126q-4 -20 -6 -30.5t-8.5 -30t-13.5 -30.5t-19.5 -20t-28.5 -9q-46 0 -61.5 35t-15.5 98q0 196 93 196zM509 160v6q0 51 -14 51q-9 0 -15 -24.5t-6 -41.5q0 -13 3 -33.5t8 -20.5q14 0 19 23t5 40zM317 319q24 0 40 -16.5
t22 -47t7.5 -53t1.5 -55.5q0 -77 -13 -114q-7 -20 -25 -31.5t-37 -11.5q-84 0 -84 154q0 35 3 62t11.5 55t27 43t46.5 15zM309 85q15 0 15 63q0 56 -13 56q-14 0 -14 -70q0 -49 12 -49zM98 699q29 0 49 -24t20 -60q0 -77 -8 -125q-4 -23 -7.5 -38.5t-11.5 -37t-22.5 -33
t-33.5 -11.5q-46 0 -62.5 36t-16.5 98q0 195 93 195zM104 538v6q0 51 -14 51q-9 0 -14 -25t-5 -43q0 -52 10 -52q23 0 23 63zM61 0q-51 0 -51 32q0 3 2 11q12 40 29 83t43 102t35 80l33 77t32 76q2 4 16 38t18 44t17.5 37.5t22 40.5t22 29.5t27.5 26.5q18 13 36 13
q14 0 23 -7t9 -19v-6q-5 -29 -31 -92q-9 -21 -89.5 -217.5t-127.5 -281.5l-5 -10t-6 -11t-6 -9.5t-6 -10t-6.5 -8.5t-8 -7.5t-8 -5.5t-9.5 -4t-11 -1z" />
    <glyph glyph-name="guilsinglleft" unicode="&#x2039;" horiz-adv-x="447" 
d="M426 178q0 -29 -21.5 -44t-54.5 -15q-13 0 -18 1q-52 9 -123 41q-9 5 -39 17t-51.5 22.5t-46.5 26.5t-38.5 36t-13.5 44t28 50t56 41.5t74 36.5t52 24q58 29 107 29q14 0 21 -4q13 -6 26.5 -23t13.5 -34q0 -15 -11 -26q-40 -40 -193 -85q-11 -3 -12 -7q2 -3 20 -10
q16 -6 54 -15t58 -17q4 -2 21.5 -8t24.5 -9t20 -9.5t21.5 -14.5t15.5 -18q9 -15 9 -30z" />
    <glyph glyph-name="guilsinglright" unicode="&#x203a;" horiz-adv-x="447" 
d="M96 119q-33 0 -54.5 14.5t-21.5 43.5q0 13 10 30q6 8 14 15.5t14.5 12t18.5 10.5t17 8t19.5 7.5t18.5 6.5q20 8 58.5 17t54.5 15q16 7 19 10q-1 5 -11 7q-173 51 -218 96q-11 11 -11 24q0 17 13 35t26 24q7 4 22 4q44 0 106 -31q7 -4 56 -26t82.5 -39t65 -44.5
t31.5 -51.5t-13.5 -44t-38 -36t-46 -26.5t-51.5 -23t-39 -16.5q-71 -32 -123 -41q-5 -1 -19 -1z" />
    <glyph glyph-name="fraction" unicode="&#x2044;" horiz-adv-x="385" 
d="M56 0q-51 0 -51 32q0 3 2 11q12 40 29 83t43 102t35 80q8 21 32 77t33 76q2 4 16 38t18 44t17.5 37.5t22 40.5t22 29.5t27.5 26.5q18 13 39 13q17 0 28 -7.5t11 -19.5v-5q-3 -20 -31 -92q-12 -30 -48 -120.5t-55 -137.5t-51.5 -117.5t-62.5 -123.5q-36 -67 -76 -67z" />
    <glyph glyph-name="Euro" unicode="&#x20ac;" horiz-adv-x="416" 
d="M268 684q53 0 90.5 -45t37.5 -100q0 -34 -17 -50.5t-42 -16.5t-45.5 15t-21.5 37v11.5t-0.5 12t-2 8.5t-4 7t-7.5 2q-35 0 -51 -132q16 0 35.5 -0.5t21.5 -0.5q38 -2 38 -22q0 -23 -12.5 -37.5t-33.5 -17.5q-10 -2 -57 -2q0 -3 -0.5 -8.5t-0.5 -8.5h6h13q16 0 25.5 -1
t17.5 -6.5t8 -16.5q0 -47 -46 -54q-1 0 -9.5 -0.5t-16.5 -0.5v-3v-18q0 -61 18 -70q16 0 25 10t12.5 21.5t12.5 21.5t24 10q89 0 89 -74q0 -55 -45.5 -109.5t-106.5 -54.5q-30 0 -50 10q-93 43 -100 255q-54 2 -54 32q0 22 6 31t24 15q9 3 21 3h3v16q-54 2 -54 32q0 22 6 31
t24 15q9 3 21 3h8q23 237 181 250h9z" />
    <glyph glyph-name="trademark" unicode="&#x2122;" horiz-adv-x="478" 
d="M83 340q-41 0 -41 47q0 11 2 31q10 102 10 149q0 23 -4 25q-3 1 -9 2.5t-8.5 2.5t-6 3t-5 6.5t-1.5 10.5q0 56 42 56q4 0 11.5 0.5t10.5 0.5q76 0 78 -26v-8q0 -33 -21 -39q-19 -3 -20 -5q-4 -9 -4 -24q0 -4 0.5 -11t0.5 -10v-32q0 -12 -1.5 -32t-1.5 -31q0 -48 -3 -67
q-1 -6 -9 -32q-5 -17 -20 -17zM208 345q-32 0 -32 44q0 31 2 46q1 6 2 24.5t3 28.5q2 11 5 41t7 52.5t10.5 47.5t20 38.5t31.5 13.5q34 0 42 -26q4 -13 8 -36t5 -30q13 -61 14 -67q2 -7 7 -8q2 2 2 4q2 8 7 35t8.5 39t10 32t15.5 34t22 25q9 7 20 7q31 0 35 -47q4 -32 4 -72
q0 -22 -1.5 -64.5t-1.5 -63.5q0 -5 0.5 -17.5t0.5 -18.5q0 -54 -22 -67q-5 -3 -10 -3t-17 2q-17 2 -17 36q0 4 0.5 9.5t0.5 8.5q0 7 -0.5 22t-0.5 22v43v1v8q0 24 -2 24t-8 -16q-18 -55 -25 -105q-9 -56 -36 -56q-21 0 -34 39q-6 19 -8.5 40.5t-3 48t-2.5 41.5q-6 32 -7 32
q-3 0 -5.5 -22.5t-4.5 -49.5t-3 -30q0 -3 -1.5 -15t-2.5 -17.5t-2.5 -16.5t-4.5 -16.5t-7 -12t-10 -9.5t-14 -3z" />
    <glyph glyph-name="uniE000" unicode="&#xe000;" horiz-adv-x="625" 
d="M401 218q0 -24 -15 -35t-29 -11q-22 0 -36 12t-14 34q0 49 49 49q20 0 32.5 -13.5t12.5 -35.5zM311 366q0 13 2.5 26t9.5 26t11.5 22.5t16 23.5t16 20t18 20.5t15.5 17.5q30 35 30 72q0 31 -34 31q-15 0 -21.5 -10.5t-7.5 -23.5t-12 -23.5t-33 -10.5t-33.5 20.5
t-32.5 20.5q-27 0 -39 -21t-12 -73q0 -22 11.5 -36t25 -19t25 -16t11.5 -30q0 -16 -10 -29q-7 -8 -18 -14t-27 -12t-25 -10q-55 -28 -55 -78q0 -66 47 -98.5t120 -32.5q62 0 113.5 31.5t70.5 88.5q8 23 8 47q0 83 -85 128q-5 -7 -10.5 -25.5t-5.5 -29.5q0 -34 -13 -53
t-32 -19h-1q-18 0 -31 18.5t-13 50.5zM306 -17q-121 0 -204 73t-83 200q0 60 29 109q24 41 56 62q-13 45 -13 92q0 78 42 133.5t112 55.5q16 0 29 -3t19.5 -6t15.5 -8.5t13 -7.5q13 9 20.5 13t24 8t40.5 4q53 0 84 -38.5t31 -94.5q0 -35 -19 -60.5t-41 -37.5
q143 -72 143 -217q0 -11 -2 -31q-17 -147 -135 -206q-79 -40 -162 -40z" />
    <glyph glyph-name="uniFB01" unicode="&#xfb01;" horiz-adv-x="497" 
d="M478 515v-39q0 -99 -2 -231q-2 -90 -4 -129q0 -6 -0.5 -24.5t-0.5 -23.5t-1.5 -18.5t-4.5 -17.5t-8 -12.5t-12 -11t-17.5 -5t-24.5 -2.5q-34 0 -45.5 25.5t-11.5 71.5q0 18 1 60.5t1 61.5v179q0 25 -0.5 84t-0.5 84q0 59 19.5 89t46.5 30q36 0 54 -52q11 -33 11 -82v-37z
M159 451q0 -22 10.5 -28t38.5 -6h16q23 0 36 -2t25.5 -12.5t12.5 -30.5v-7q0 -84 -65 -84h-24q-41 0 -44 -15v-102q0 -62 -3 -92q-4 -39 -20 -59t-38 -20q-28 0 -50.5 29t-23.5 74q0 3 -0.5 9.5t-0.5 9.5q-3 71 -3 147q0 208 25 364q8 54 53 62q20 4 61 4q57 0 95 -9
q45 -9 51 -29q3 -12 3 -23v-4q0 -30 -20 -60q-17 -25 -58 -25q-5 0 -16 1t-17 1q-35 0 -39 -33q-5 -27 -5 -53v-7z" />
    <glyph glyph-name="uniFB02" unicode="&#xfb02;" horiz-adv-x="600" 
d="M472 282q0 -8 0.5 -23t0.5 -22q0 -5 -0.5 -16t-0.5 -17q0 -39 9 -54q8 -3 24.5 -6.5t22.5 -4.5q56 -14 56 -66q0 -44 -29 -65q-28 -18 -94 -18h-10q-21 0 -40 3q-22 5 -39 14q-25 16 -29 39q-2 9 -2 30q0 22 3 59.5t3 53.5q1 23 1 68v79v147q0 13 2 63q2 60 9 80
q17 46 53 58q8 2 13 2q50 0 63 -47q7 -25 7 -62q0 -32 -8 -90t-10 -79q-1 -13 -2 -40t-2 -41q-1 -15 -1 -45zM159 451q0 -22 10.5 -28t38.5 -6h16q23 0 36 -2t25.5 -12.5t12.5 -30.5v-7q0 -84 -65 -84h-24q-41 0 -44 -15v-102q0 -62 -3 -92q-4 -39 -20 -59t-38 -20
q-28 0 -50.5 29t-23.5 74q0 3 -0.5 9.5t-0.5 9.5q-3 71 -3 147q0 208 25 364q8 54 53 62q20 4 61 4q57 0 95 -9q45 -9 51 -29q3 -12 3 -23v-4q0 -30 -20 -60q-17 -25 -58 -25q-5 0 -16 1t-17 1q-35 0 -39 -33q-5 -27 -5 -53v-7z" />
    </font>
</defs>
</svg>
